<svg xmlns="http://www.w3.org/2000/svg" xmlns:xlink="http://www.w3.org/1999/xlink" width="1920" height="498" viewBox="0 0 1920 498"><defs><clipPath id="a"><rect width="1920" height="498" transform="translate(5667 1632.883)" fill="#fff"/></clipPath><clipPath id="b"><rect width="2006.267" height="498.117" fill="none"/></clipPath><clipPath id="c"><rect width="106.26" height="94.399" fill="none"/></clipPath></defs><g transform="translate(-5667 -1632.883)" clip-path="url(#a)"><g transform="translate(5606.733 1632.883)" clip-path="url(#b)"><path d="M-.361,259.37A.988.988,0,0,1,.91,259.6C39.9,309.147,95.621,359.979,162.772,365.34c2.316.182,4.65.318,6.994.382,2.762.1,5.533.109,8.332.036a118.037,118.037,0,0,0,12.527-1.154c2.819-.409,5.609-.9,8.332-1.463,1.4-.309,4.745-1.236,6.093-1.536.522-.164,1.423-.445,2.4-.763,1.348-.427,2.828-.891,3.568-1.127,41.642-14.53,65.083-52.222,68.936-93.467,4.081-44.525,28.783.154-8.285,59.41a107.365,107.365,0,0,1-55.688,43.953,119.072,119.072,0,0,1-17.148,4.6,128.445,128.445,0,0,1-20.2,2.19c-2.724.082-5.447.082-8.19-.009a145.463,145.463,0,0,1-37.315-6.106c-34.753-10.259-65-31.122-90.117-55.82A321.977,321.977,0,0,1,8.427,273.836c-.389-.536-.778-1.072-1.158-1.617q-4.085-5.725-7.924-11.595a.882.882,0,0,1,.294-1.254" transform="translate(1715.278 -103.866)" fill="#161616"/><path d="M296.352,280.537a.979.979,0,0,1,1.291-.154c.816.536,1.632,1.063,2.458,1.6,115.978,74.894,272.772,95.839,405.689,54.494,30.738-9.814,59.977-23.589,86.207-42.081.389-.264.778-.545,1.167-.818a.973.973,0,0,1,1.329.191.88.88,0,0,1-.114,1.209c-.408.345-.816.7-1.224,1.036C676.675,395.1,473.114,386.825,344.144,314.094c-9.632-5.325-18.971-11.259-28.015-17.447-3.435-2.508-9.9-7.015-13.22-9.75l-3.065-2.426-3.359-2.653a.883.883,0,0,1-.133-1.281" transform="translate(930.549 -126.042)" fill="#161616"/><path d="M817.61,318.112a.955.955,0,0,1,1.129.627c12.062,34.712,37.875,58.683,74.26,69.6,78.245,23.871,200.458-15.066,224.961-95.712,4.375-14.548,4.859-30.2,2.458-45.171l-1.224-6.506-.01-.055a.924.924,0,0,1,.769-1.054.947.947,0,0,1,1.072.636,110.55,110.55,0,0,1,4.233,16.347,90.793,90.793,0,0,1,1.158,25.2c-.066.827-.152,1.663-.256,2.49-2.515,21.418-12.309,41.908-27.085,58.51-44.518,50.323-125.373,73.313-192.021,59.119-34.05-7.424-65.472-26.724-80.978-57.411-.361-.7-.712-1.408-1.044-2.117-.37-.745-.721-1.49-1.053-2.244a105.738,105.738,0,0,1-5.409-14.612l-1.661-6.543a.909.909,0,0,1,.7-1.1" transform="translate(104.234 -126.079)" fill="#161616"/><path d="M1133.056,261.7a1,1,0,0,1,1.215-.154c.8.454,1.594.909,2.382,1.354,4.451,2.535,8.873,5.025,13.428,7.269a224.792,224.792,0,0,0,50.06,18.392c45.865,10.886,95.641,6.679,138.308-13a219.791,219.791,0,0,0,57.14-38.337c.474-.418.93-.854,1.4-1.281a.99.99,0,0,1,1.357.018.88.88,0,0,1,.085,1.163c-.588.791-1.177,1.572-1.784,2.344-42.212,54.43-117.25,78.183-185.891,62.854-25.86-5.8-50.364-17.147-70.739-33.43-1.528-1.209-3.008-2.49-4.47-3.771-.816-.709-1.623-1.418-2.43-2.126a.89.89,0,0,1-.057-1.29" transform="translate(-467.376 -22.934)" fill="#161616"/><path d="M1907.055,384.8c.038-3.09.294-6.579.4-9.7.171-2.072.873-7.478,1.129-9.641.5-3.062,1.281-6.461,1.87-9.532.541-2.054,2.04-7.233,2.638-9.359.807-2.163,2.524-7.07,3.359-9.132.674-1.472,1.993-4.453,2.667-5.934.8-2.045,3.426-6.652,4.489-8.66.8-1.681,2.42-3.944,3.407-5.552a128.746,128.746,0,0,1,25.794-29.4c2.771-2.5,6.112-4.771,9.063-7.079,2.581-1.617,7.042-4.752,9.737-6.179.674-.363.4,2.917-1.167,4.044l-5.21,3.762c-1.442.99-3.616,2.871-4.992,4-2.923,2.181-6.738,6.043-9.443,8.551a158.976,158.976,0,0,0-12.365,14.384,153.216,153.216,0,0,0-9.319,14.512c-.427.872-3.046,5.97-3.54,6.951-1.272,2.581-2.505,5.934-3.682,8.578-.759,1.972-2.3,6.751-3.018,8.805-.5,2.054-1.832,6.979-2.306,8.987-.475,2.944-1.177,6.2-1.623,9.123-.171,2.035-.844,7.2-.949,9.2-.038,2.953-.247,6.288-.256,9.241l.218,6.152c2.866,58.61,51.227,109.633,111.84,118.365a142.569,142.569,0,0,0,73.292-7.915c1.034-.409,2.069-.818,3.1-1.245a.975.975,0,0,1,1.252.473.9.9,0,0,1-.436,1.172c-1.015.491-2.031.972-3.056,1.436-89.4,40.727-193.293-23.335-192.894-118.42" transform="translate(-1907.054 -267.116)" fill="#161616"/><path d="M1395.687,178.024l.143-10.086a.948.948,0,0,1,.968-.9.929.929,0,0,1,.93.918c.256,29.169,11.568,57.1,30.273,79.619,1.67,2.026,3.417,4.007,5.21,5.943a143.374,143.374,0,0,0,18,16.338q3.573,2.726,7.269,5.3,3.559,2.481,7.241,4.843c55.9,35.829,130.2,49.023,199.528,46.334,1.822-.064,3.634-.145,5.447-.245q9.735-.477,19.3-1.4,8.457-.791,16.741-1.9,9.779-1.308,19.246-3.026c69.827-12.458,147.873-49.3,164.994-121.118,1.2-4.589,2.05-9.914,2.781-14.593l.911-9.9a.951.951,0,0,1,1.9.027,121.1,121.1,0,0,1-12.422,57.62c-.36.745-.731,1.481-1.11,2.217-15.288,29.65-42.279,53.285-74.753,69.66-27.151,13.857-58.991,23.635-92.8,29.151q-8.8,1.458-17.765,2.5-9.552,1.131-19.255,1.8c-2.41.182-4.841.327-7.26.454-75.152,3.962-154.033-12.076-209.815-50.014q-3.943-2.672-7.734-5.516c-2.667-1.981-5.276-4.035-7.82-6.134a154.763,154.763,0,0,1-18.249-18.01c-1.746-2.008-3.407-4.053-5.011-6.143a136.685,136.685,0,0,1-14.8-23.826c-.294-.609-.588-1.218-.863-1.836a116.591,116.591,0,0,1-9.471-30.432c-.389-2.49-.731-5.225-1.082-7.542-.275-3.362-.437-6.733-.665-10.1" transform="translate(-1214.873 8.175)" fill="#161616"/><path d="M1561.531,125.444c1.746-2.853,29.713,28.106,52.736,54.43,3.027,3.453,5.96,6.824,8.74,10.032,4.081,4.707,7.829,9.06,11.027,12.776,6.491,7.56,10.676,12.5,10.676,12.5a7.856,7.856,0,0,1-.294,11.068s-3.682,7.288-7.136,6.942c-1.234-.118-11.692-13.349-24.456-30.514-2.458-3.3-5-6.751-7.583-10.277-2.553-3.489-5.144-7.051-7.715-10.632-19.075-26.524-37.5-53.867-36-56.329" transform="translate(-1122.397 151.087)" fill="#161616"/><path d="M1602.95,123.806c.9-.291,5.561,5.67,11.4,13.794,2.448,3.4,5.1,7.179,7.763,11.031,1.955,2.826,3.919,5.688,5.817,8.478,8.124,11.913,15.061,22.463,15.061,22.463a3.861,3.861,0,0,1-1.053,5.516s-5.153,5.152-5.428,3.58c-.133-.763-8.778-16.029-17.281-31.559-1.481-2.69-2.951-5.388-4.375-8.024-2.145-3.98-4.185-7.815-5.95-11.24-4.119-8.006-6.766-13.776-5.95-14.039" transform="translate(-1158.521 196.66)" fill="#161616"/><g transform="translate(512.289 397.118)"><g transform="translate(0 0)" clip-path="url(#c)"><g clip-path="url(#c)"><path d="M1535.191,69.492c-5.219-6.879-8.009-18.11-.9-24.871,6.88-6.224,17.253-4.9,25.528-2.644,1.025.282,2.031.591,3.027.918-.038.318-.066.636-.095.963a1.2,1.2,0,0,0,2.2.7c.152-.254.3-.509.465-.763q3.032,1.131,5.931,2.5a1.131,1.131,0,0,1-.854,2.09c-9.1-2.481-24.788-6.979-32.323-.1-6.852,7.924,1.908,20.736,9.462,25.616a30.3,30.3,0,0,0,21.533,4.7,1.127,1.127,0,0,1,.579,2.172c-.655.245-1.329.454-1.993.636-.076-.327-.142-.654-.209-.981a1.185,1.185,0,0,0-2.335.164c-.01.463-.019.927-.019,1.4-11.35,2.026-23.469-3.262-30-12.494" transform="translate(-1530.015 -17.856)" fill="#161616"/><path d="M1481.412,61.68c-7.554-4.88-16.313-17.692-9.462-25.616,7.535-6.879,23.222-2.381,32.323.1a1.131,1.131,0,0,0,.854-2.09q-2.9-1.363-5.931-2.5c.826-1.372,1.68-2.817,2.591-4.116,6.852-10.477,17.851-15.393,30.121-10.25,7.393,3.153,13.609,9.432,12.185,16.956-1.053,5.034-4.944,9.1-8.788,12.649a1.156,1.156,0,0,0,1.215,1.917,30.084,30.084,0,0,0,6.88-3.344c8.826,3.535,19.208,8.369,19.834,18.283-.228,11.722-13.3,21.536-23.716,25.952-11.739,5.1-26.079,5.116-32.987-6.752a43.348,43.348,0,0,1-5-13.685c.664-.182,1.338-.391,1.993-.636a1.127,1.127,0,0,0-.579-2.172,30.3,30.3,0,0,1-21.533-4.7" transform="translate(-1463.795 -5.637)" fill="#fff"/><path d="M1539.166,82.84a1.2,1.2,0,0,1-2.2-.7c.029-.327.057-.645.095-.963.864.291,1.727.591,2.572.9-.161.254-.313.509-.465.763" transform="translate(-1504.229 -56.139)" fill="#161616"/><path d="M1483.147,89.581c-.845-.309-1.708-.609-2.572-.9,1.727-15.938,15.431-27.724,32.693-24.507,17.016,2.808,31.583,21.554,18.078,35.929-.417.427-.845.827-1.281,1.218-1.158-.254-2.316-.463-3.483-.645a1.126,1.126,0,0,0-.607,2.163c.456.182.911.363,1.376.554a30.084,30.084,0,0,1-6.88,3.344,1.156,1.156,0,0,1-1.215-1.917c3.844-3.544,7.734-7.615,8.788-12.649,1.423-7.524-4.792-13.8-12.185-16.956-12.271-5.143-23.27-.227-30.121,10.25-.911,1.3-1.765,2.744-2.591,4.116" transform="translate(-1447.746 -63.643)" fill="#161616"/><path d="M1465.239,49.026a38.1,38.1,0,0,1-2.951-15.311,22.657,22.657,0,0,0,2.563-.582,43.347,43.347,0,0,0,5,13.685c6.909,11.867,21.248,11.849,32.988,6.752,10.42-4.416,23.488-14.23,23.715-25.952-.626-9.914-11.009-14.748-19.834-18.283a24.063,24.063,0,0,0,2.714-2.072,45.27,45.27,0,0,1,13.191,4.861c13.172,7.551,13.552,21.4,4.878,32.5a51.7,51.7,0,0,1-30.339,18.583c-13.011,2.753-26.667-1.817-31.925-14.185" transform="translate(-1427.114 30.415)" fill="#161616"/><path d="M1534.5,43.053c0-.473.009-.936.019-1.4a1.185,1.185,0,0,1,2.335-.164c.066.327.133.654.209.981a22.655,22.655,0,0,1-2.562.582" transform="translate(-1499.322 21.077)" fill="#161616"/><path d="M1488.268,69.585a1.126,1.126,0,0,1,.607-2.163c1.167.182,2.325.391,3.483.645a24.083,24.083,0,0,1-2.714,2.072c-.465-.191-.921-.373-1.376-.554" transform="translate(-1410.038 -30.389)" fill="#161616"/></g></g></g><path d="M41.629,194.562c.949-3.889,44.565,39.891,78.521,74.721,2.923,3,5.779,5.943,8.532,8.769,17.718,18.265,31.07,32.249,31.07,32.249,4.195,4.116,5.666,10.414,3.35,14.412,0,0-1.5,9.523-5.276,9.123-1.585-.173-22.577-23.589-46.292-51.186-2.7-3.162-5.457-6.37-8.209-9.6-30.605-35.929-62.53-75.084-61.695-78.483" transform="translate(1802.58 -12.307)" fill="#161616"/><path d="M83.478,191.937c.987-.436,9.908,9.7,20.65,22.5,2.856,3.417,5.855,7.024,8.864,10.677C128.575,244.041,144.5,264,144.5,264c1.974,2.335,2.287,5.543.693,7.188,0,0-3.758,6.761-4.565,4.725-.465-1.163-19.768-27.833-35.825-50.814-2.686-3.835-5.267-7.56-7.668-11.05C88.66,201.705,82.6,192.328,83.478,191.937" transform="translate(1780.916 47.42)" fill="#161616"/><path d="M7.433,304.074c.01-2.953.218-6.288.256-9.241.1-2.008.778-7.169.949-9.2.446-2.926,1.148-6.179,1.623-9.123.474-2.008,1.8-6.933,2.306-8.987.721-2.054,2.258-6.833,3.018-8.805,1.177-2.644,2.41-6,3.682-8.578.494-.981,3.113-6.079,3.54-6.951a153.144,153.144,0,0,1,9.319-14.512,158.951,158.951,0,0,1,12.365-14.384c2.7-2.508,6.52-6.37,9.443-8.551,1.376-1.127,3.549-3.008,4.992-4,6.776-4.889,2.009-16.884,3.024-17.475l1937.625-4.58c1.291,2.054.489,124.582-3.591,169.107-3.853,41.245-27.293,78.937-68.936,93.467-.74.236-2.221.7-3.568,1.127-33.955-34.83-77.572-78.61-78.521-74.721-.835,3.4,31.089,42.554,61.695,78.483a118.047,118.047,0,0,1-12.527,1.154c-2.8.073-5.571.064-8.332-.036-10.743-12.794-19.663-22.935-20.65-22.5-.882.391,5.182,9.768,13.656,22.117-67.151-5.361-122.877-56.193-161.862-105.743a.988.988,0,0,0-1.272-.227.882.882,0,0,0-.294,1.254q3.844,5.861,7.924,11.595c-26.23,18.492-55.469,32.267-86.208,42.081-132.917,41.345-289.712,20.4-405.689-54.494a90.793,90.793,0,0,0-1.158-25.2,110.549,110.549,0,0,0-4.232-16.347.947.947,0,0,0-1.073-.636.924.924,0,0,0-.769,1.054l.009.055,1.224,6.506c2.4,14.966,1.917,30.623-2.458,45.171-24.5,80.646-146.716,119.583-224.961,95.712-36.385-10.913-62.2-34.884-74.259-69.6a.955.955,0,0,0-1.13-.627.908.908,0,0,0-.7,1.1l1.661,6.543a105.738,105.738,0,0,0,5.409,14.612,219.791,219.791,0,0,1-57.14,38.337c-42.667,19.682-92.442,23.889-138.308,13a224.787,224.787,0,0,1-50.06-18.392c-4.555-2.244-8.977-4.734-13.428-7.269a121.1,121.1,0,0,0,12.422-57.62.95.95,0,0,0-1.9-.027l-.911,9.9c-.731,4.68-1.585,10-2.781,14.593-17.12,71.822-95.166,108.66-164.994,121.118q-9.466,1.717-19.246,3.026c-23.023-26.325-50.99-57.283-52.736-54.43-1.509,2.463,16.921,29.8,36,56.329q-9.552.913-19.3,1.4c-5.836-8.124-10.5-14.085-11.4-13.794-.816.263,1.832,6.034,5.95,14.039C381.8,523.6,307.5,510.408,251.6,474.579a50.506,50.506,0,0,1,22.6-19.055,1.513,1.513,0,0,0,.939-1.645,1.581,1.581,0,0,0-1.822-1.263,40.9,40.9,0,0,0-6.558,1.49,47.522,47.522,0,0,0-22.4,15.629q-3.7-2.576-7.269-5.3a143.378,143.378,0,0,1-18-16.338c28.48-21.136,62.739-31.613,101.828-34.848a1.515,1.515,0,0,0-.133-3.026,206.7,206.7,0,0,0-49.956,5.67,157.17,157.17,0,0,0-56.95,26.261c-18.7-22.517-30.017-50.45-30.273-79.619a.929.929,0,0,0-.93-.918.948.948,0,0,0-.968.9l-.142,10.086c.228,3.362.389,6.733.664,10.1.351,2.317.693,5.052,1.082,7.542a116.592,116.592,0,0,0,9.471,30.432,142.57,142.57,0,0,1-73.292,7.915C58.878,419.858,10.517,368.835,7.651,310.225Z" transform="translate(-0.75 -186.407)" fill="#fff"/><path d="M1831.853,48.96c6.805-6.052,15.982-9.123,25.244-9.932,21.41-1.754,42.069,5.925,60.917,15.22-1.395,2.226-2.733,4.489-4,6.8a144.688,144.688,0,0,0-10.154,22.108c-.626,1.79,1.983,2.781,2.885,1.245a288.213,288.213,0,0,1,19.758-29.832A161.392,161.392,0,0,1,1976.255,10.3l9.708,19.927,9.68,2.617c-22.245,15.593-29.362,49.469-25.538,74.339-.8.254-1.6.518-2.392.8a82.366,82.366,0,0,0-11.1,4.752,1.511,1.511,0,0,0-.807,1.69,1.606,1.606,0,0,0,2,1.118c1.907-.427,3.749-1.018,5.666-1.372,19.17-4.689,41.965-3.271,51.711,15.457,9.556,17.91,2.077,42.308-16.7,51.849-13.039,6.97-29,6.915-43.758,4.816a1.525,1.525,0,0,0-.8,2.935,79.879,79.879,0,0,0,23.886,4.789c.266.018.531.027.788.036-3.35,10.032-7.991,19.591-14.634,27.651-28.973,36.738-92.186,33.121-121.9-.791-22.747-26.1-13.846-58.983,4.65-84.871.607-.918,1.87-2.717,2.553-3.589L1850.35,131a141.254,141.254,0,0,0,15.667,9.259,1.538,1.538,0,0,0,1.7-2.553,192.071,192.071,0,0,1-20.489-17.038c-18.923-17.6-37.922-50.414-15.375-71.713" transform="translate(-1741.783 240.92)" fill="#fff"/><path d="M1775.206,289.605A144.771,144.771,0,0,1,1785.36,267.5c1.262-2.308,2.6-4.571,4-6.8.617-.981,1.243-1.954,1.889-2.917a148.818,148.818,0,0,1,53.011-47.888A157.305,157.305,0,0,1,1883.288,195a206.7,206.7,0,0,1,49.956-5.67,1.515,1.515,0,0,1,.133,3.026c-32,2.653-60.774,10.15-85.781,24.4a161.4,161.4,0,0,0-49.747,44.262,288.213,288.213,0,0,0-19.758,29.832c-.9,1.536-3.511.545-2.885-1.245" transform="translate(-1613.124 34.468)" fill="#161616"/><path d="M1925.81,155.64c4.385-11.813,15.032-20.845,27.407-24.516,18.714-5.77,39.251-1.4,56.494,6.224a136.659,136.659,0,0,1,21.666,12.176c.788.527,1.566,1.072,2.344,1.627a1.537,1.537,0,0,1-1.7,2.553c-.844-.427-1.689-.845-2.534-1.263-18.847-9.3-39.507-16.974-60.917-15.22-9.262.809-18.439,3.88-25.243,9.932-22.548,21.3-3.549,54.112,15.374,71.713a192.073,192.073,0,0,0,20.489,17.038,1.538,1.538,0,0,1-1.7,2.553,141.192,141.192,0,0,1-15.668-9.259c-.949-.636-1.9-1.3-2.828-1.981a102.64,102.64,0,0,1-24.067-23.789c-9.642-13.421-15.26-31.7-9.12-47.788" transform="translate(-1853.257 142.727)" fill="#161616"/><path d="M1868.085,29.821a115.987,115.987,0,0,1,19.388-27.279c.645-.691,1.3-1.372,1.955-2.054a1.629,1.629,0,0,1,2.24-.082,1.475,1.475,0,0,1,.19,2.017l-1.556,2.1-1.082,1.454c-.683.872-1.945,2.672-2.553,3.589-18.5,25.888-27.4,58.774-4.65,84.871,29.713,33.912,92.926,37.529,121.9.791,6.643-8.06,11.284-17.619,14.634-27.651.323-.954.636-1.917.93-2.881.522-1.79,3.388-1.245,3.094.645q-.171,1.131-.37,2.263c-4.194,23.235-18.914,45.152-41.8,55.357-35.142,16.138-81.292,6.388-105.852-22.744-17.3-20.509-18.145-47.188-6.463-70.4" transform="translate(-1781.733 367.402)" fill="#161616"/><path d="M1811.585,151.306c14.757,2.1,30.719,2.154,43.758-4.816,18.781-9.541,26.259-33.939,16.7-51.849C1862.3,75.913,1839.5,74.5,1820.335,79.184c-1.917.354-3.758.945-5.666,1.372a1.606,1.606,0,0,1-2-1.118,1.51,1.51,0,0,1,.807-1.69,82.37,82.37,0,0,1,11.1-4.752c.8-.282,1.594-.545,2.392-.8,1.414-.445,2.828-.836,4.251-1.163,24.807-5.9,48.987,4.6,55.109,30.686,6.444,30.25-15.934,56.629-47.213,57.374-1.205.027-2.42.018-3.654-.027-.256-.009-.522-.018-.788-.036a79.879,79.879,0,0,1-23.886-4.789,1.525,1.525,0,0,1,.8-2.935" transform="translate(-1598.646 275.912)" fill="#161616"/><path d="M1851.352,169.247a45.413,45.413,0,0,1,12.223-6.1,41.348,41.348,0,0,1,6.558-1.481,1.586,1.586,0,0,1,1.832,1.254,1.519,1.519,0,0,1-.939,1.654,47.638,47.638,0,0,0-11.54,6.861c-8.769,7.024-14.842,16.829-18.61,27.406-5.058,13.748-7.317,29.187-10.809,43.58-.256,1.045-.513,2.081-.778,3.117a1.636,1.636,0,0,1-3.16-.091c-.114-.618-.218-1.236-.313-1.863-3.824-24.871,3.293-58.746,25.538-74.339" transform="translate(-1597.492 104.522)" fill="#161616"/></g></g></svg>