<?xml version="1.0" encoding="utf-8"?>
<!-- Generator: Adobe Illustrator 27.5.0, SVG Export Plug-In . SVG Version: 6.00 Build 0)  -->
<svg version="1.1" id="Layer_1" xmlns="http://www.w3.org/2000/svg" xmlns:xlink="http://www.w3.org/1999/xlink" x="0px" y="0px"
	 viewBox="0 0 50.4 50.4" style="enable-background:new 0 0 50.4 50.4;" xml:space="preserve">
<style type="text/css">
	.st0{fill:#161616;}
</style>
<g transform="translate(-1242.999 -1005)">
	<path class="st0" d="M1287.1,1052.3c1.7,0,3.2-1.4,3.2-3.1v-25.2c0-1.7-1.4-3.1-3.2-3.1h-9.5v-9.5c0-1.7-1.4-3.1-3.2-3.1h-25.2
		c-1.7,0-3.2,1.4-3.2,3.1v25.2c0,1.7,1.4,3.1,3.2,3.1h9.5v9.5c0,1.7,1.4,3.1,3.2,3.1L1287.1,1052.3 M1287.1,1055.4h-25.2
		c-3.5,0-6.3-2.8-6.3-6.3c0,0,0,0,0,0v-6.3h-6.3c-3.5,0-6.3-2.8-6.3-6.3v-25.2c0-3.5,2.8-6.3,6.3-6.3h25.2c3.5,0,6.3,2.8,6.3,6.3
		v6.3h6.3c3.5,0,6.3,2.8,6.3,6.3v25.2C1293.4,1052.6,1290.6,1055.4,1287.1,1055.4L1287.1,1055.4z"/>
	<path class="st0" d="M1261.9,1020.8c-1.7,0-3.1,1.4-3.1,3.1v25.2c0,1.7,1.4,3.1,3.1,3.2h25.2c1.7,0,3.1-1.4,3.2-3.2v-25.2
		c0-1.7-1.4-3.1-3.2-3.2L1261.9,1020.8 M1261.9,1017.6h25.2c3.5,0,6.3,2.8,6.3,6.3c0,0,0,0,0,0v25.2c0,3.5-2.8,6.3-6.3,6.3h-25.2
		c-3.5,0-6.3-2.8-6.3-6.3v-25.2C1255.6,1020.4,1258.4,1017.6,1261.9,1017.6z"/>
</g>
</svg>
