<svg xmlns="http://www.w3.org/2000/svg" width="50.422" height="50.419" viewBox="0 0 50.422 50.419"><g transform="translate(-1242.999 -1005)"><path d="M10190.118,3139.267a3.155,3.155,0,0,0,3.154-3.149v-25.212a3.155,3.155,0,0,0-3.154-3.149h-9.451V3098.3a3.156,3.156,0,0,0-3.154-3.149h-25.207a3.156,3.156,0,0,0-3.154,3.149v25.211a3.156,3.156,0,0,0,3.154,3.149h9.451v9.457a3.155,3.155,0,0,0,3.154,3.149h25.207m0,3.151h-25.207a6.3,6.3,0,0,1-6.307-6.3v-6.306h-6.3a6.3,6.3,0,0,1-6.3-6.3V3098.3a6.3,6.3,0,0,1,6.3-6.3h25.207a6.3,6.3,0,0,1,6.3,6.3v6.305h6.3a6.3,6.3,0,0,1,6.3,6.3v25.212A6.3,6.3,0,0,1,10190.118,3142.418Z" transform="translate(-8903.002 -2087)" fill="#fff"/><path d="M6.3,3.151A3.155,3.155,0,0,0,3.151,6.3V31.512A3.155,3.155,0,0,0,6.3,34.663H31.512a3.155,3.155,0,0,0,3.151-3.151V6.3a3.155,3.155,0,0,0-3.151-3.151H6.3M6.3,0H31.512a6.3,6.3,0,0,1,6.3,6.3V31.512a6.3,6.3,0,0,1-6.3,6.3H6.3a6.3,6.3,0,0,1-6.3-6.3V6.3A6.3,6.3,0,0,1,6.3,0Z" transform="translate(1255.606 1017.605)" fill="#fff"/></g></svg>