<svg xmlns="http://www.w3.org/2000/svg" xmlns:xlink="http://www.w3.org/1999/xlink" width="1235" height="1148" viewBox="0 0 1235 1148"><defs><clipPath id="a"><rect width="1235" height="1148" transform="translate(11672 -2612)" fill="#fff" stroke="#707070" stroke-width="1"/></clipPath><clipPath id="b"><rect width="1093.728" height="989.184" fill="none"/></clipPath></defs><g transform="translate(-11672 2612)" clip-path="url(#a)"><g transform="translate(12534.033 -9581.674) rotate(9)"><g transform="translate(392 6994)"><g clip-path="url(#b)"><path d="M282.516,339.04h35.251a18,18,0,0,1,18,18V519.3a18,18,0,0,1-18,18H282.516a18,18,0,0,1-18-18V357.04a18,18,0,0,1,18-18" fill="#161616"/><path d="M399.274,420.547V455.8a18,18,0,0,1-18,18H219.009a18,18,0,0,1-18-18V420.547a18,18,0,0,1,18-18H381.274a18,18,0,0,1,18,18" fill="#161616"/><path d="M769.472,396.867a41.3,41.3,0,1,1-41.3,41.3,41.305,41.305,0,0,1,41.3-41.3" fill="#161616"/><path d="M907.844,396.867a41.3,41.3,0,1,1-41.3,41.3,41.305,41.305,0,0,1,41.3-41.3" fill="#161616"/><path d="M879.964,368.986a41.3,41.3,0,1,1-41.3-41.3,41.305,41.305,0,0,1,41.3,41.3" fill="#ebb3f0"/><path d="M39.805-1.5A41.316,41.316,0,0,1,55.883,77.864,41.315,41.315,0,0,1,23.727,1.747,41.048,41.048,0,0,1,39.805-1.5Zm0,79.61A38.305,38.305,0,1,0,1.5,39.805,38.348,38.348,0,0,0,39.805,78.11Z" transform="translate(790.774 398.581) rotate(-76.717)" fill="#161616"/><path d="M879.964,507.359a41.3,41.3,0,1,1-41.3-41.305,41.305,41.305,0,0,1,41.3,41.305" fill="#161616"/><path d="M415.112,238.268C396.643,221.94,371.6,218.832,347.84,220.19c-12.78.73-25.45,2.658-38.072,4.715-14.2,2.314-28.495,4.91-41.956,10.15-25.912,10.088-43.374,31.318-59.662,52.91q-24.342,32.27-45.409,66.765c-56.4,92.646-93.108,196.742-110.865,303.59A938.636,938.636,0,0,0,39.3,819.8c.224,27.27.287,55.461,5.931,82.243,5,23.715,16.709,47.527,38.389,60.1,48.856,28.321,97.427-24.859,126.285-58.189,32.718-37.789,62.06-79.672,102.227-110.181A204.214,204.214,0,0,1,383.8,758.914c28.274-7.49,57.6-9.957,86.72-11.338,63.964-3.034,128.388-5.323,192.384-2.159,29.978,1.483,60.489,3.794,89.077,13.582,25.224,8.637,48.327,22.5,69.07,39.128,21.121,16.93,39.926,36.594,57.446,57.175,16.867,19.815,32.03,41.04,49.174,60.615,17.076,19.5,37.036,37.5,62.014,45.9,22.548,7.58,49.082,7.656,69.223-6.348,18.79-13.063,27.513-35.256,31.341-57.029,4.466-25.409,3.592-51.766,2.976-77.444a1096.046,1096.046,0,0,0-64.815-345.114q-15.194-42.075-33.828-82.792c-11.555-25.261-23.648-50.6-38.088-74.362-14.188-23.341-31.671-44.455-55.013-59.093-23.82-14.937-51.224-23.968-77.93-32.242-14.4-4.46-29.218-8.222-44.362-8.57-15.625-.359-30.414,3.974-45.424,7.707-29.879,7.43-60.483,7.351-91.072,7.25-64.555-.213-129.208-1.484-193.756-.57-23.389.331-48.471,2.766-66.856,18.758-1.437,1.249-.265,7.379.791,6.461,19.516-16.976,46.45-18.468,71.124-18.558,30.89-.112,61.786.177,92.675.273l96.186.3c29.894.092,59.969.3,89.206-6.808,14.322-3.482,28.506-7.943,43.373-8.181,14.477-.232,28.748,2.85,42.579,6.872,27.31,7.943,55.433,17.226,79.956,31.873,23.5,14.034,41.3,34.261,55.682,57.313,14.737,23.618,26.883,49.015,38.525,74.266a1080.427,1080.427,0,0,1,92.647,335.083q4.672,43.055,5.865,86.391c.72,26.436,1.937,53.828-2.985,79.953-4.369,23.186-15.5,45.784-37.511,56.668-22.484,11.118-50.184,7.7-72.2-2.819C954.279,939.717,935.7,919.87,919.3,899.843c-16.055-19.6-31.2-39.877-48-58.862-33.218-37.534-72.53-72.378-121.049-88.039-28.86-9.315-59.448-11.389-89.548-12.819-31.1-1.478-62.259-1.509-93.387-.913q-45.662.876-91.312,2.864c-28.547,1.215-57.274,3.245-85.167,9.78-25.157,5.894-49.039,15.75-70.4,30.364-19.888,13.607-37.3,30.467-53.406,48.3-16.2,17.935-31.2,36.9-46.666,55.456-16.422,19.705-33.289,39.589-53.418,55.644-20.739,16.541-48.064,30-74.728,19.7C67.932,951.94,53.477,927.7,47.479,903.475,40.737,876.24,41.115,846.8,40.9,818.886q-.315-41.1,2.987-82.111c8.617-107.018,35.644-212.862,82.06-309.8,22.913-47.853,50.463-93.716,82.974-135.687,17.266-22.289,35.92-43.074,63.31-52.513,13.079-4.507,26.775-6.81,40.4-8.99a337.027,337.027,0,0,1,36.96-4.331c23.117-1.116,47.175,1.936,65.17,17.761.717.629,1.468-3.961.356-4.945"/><path d="M.289,888.839c-.358,1.913.206,3.808.585,5.682q.665,3.279,1.429,6.535,1.475,6.264,3.256,12.449c2.394,8.315,5.2,16.509,8.348,24.569A252.619,252.619,0,0,0,24.7,962.14c3.252,6.3,6.953,12.447,11.809,17.649a35.83,35.83,0,0,0,8.868,7.076,21.2,21.2,0,0,0,10.554,2.312c.654-.016.546-2.139-.057-2.3-6.505-1.783-12.361-5.726-17.167-10.381C33.816,971.757,29.988,965.924,26.7,960A235.371,235.371,0,0,1,7.551,914.446q-2.039-6.681-3.716-13.464-.849-3.438-1.62-6.9-.4-1.776-.773-3.557c-.141-.679-.207-1.638-.906-1.974-.16-.077-.227.176-.247.284"/><path d="M14.2,848.985a9.565,9.565,0,0,1-.353.959,6.927,6.927,0,0,0-.1.948c-.058.7-.089,1.4-.125,2.1q-.13,2.509-.115,5.017c.016,3.049.082,6.078.305,9.12a161.138,161.138,0,0,0,2.575,19.278,136.777,136.777,0,0,0,11.786,35.069q1.059,2.094,2.187,4.153c.812,1.486,1.819,2.817,2.763,4.226a19.416,19.416,0,0,0,2.83,3.612c1.008.93,1.711,2.321,2.913,3.005.687.392.468-1.65.393-1.871-.532-1.559-1.41-2.932-2.048-4.447s-1.22-3.018-1.941-4.506c-1.276-2.635-2.4-5.313-3.668-7.952-2.491-5.2-4.75-10.514-6.765-15.913a143.192,143.192,0,0,1-4.912-16.041c-1.352-5.536-2.157-10.527-3.04-16.2a139.784,139.784,0,0,1-1.429-18.542c-.01-.472-.086-1.854-.676-2.094l-.05-.02.4,1.253c-.009-.29-.016-.579-.02-.869-.02-1-.8-1.7-.917-.294"/><path d="M880.9,215.549a55.332,55.332,0,0,0,8.1,9.564,75.349,75.349,0,0,0,9.343,7.795c6.859,4.842,14.366,8.181,22.225,11.038,4.058,1.475,8.136,2.918,12.051,4.748a44.212,44.212,0,0,1,10.354,6.744,65.978,65.978,0,0,1,13.87,17.412c2.037,3.57,4.043,7.2,5.869,10.873,1.754,3.531,3.79,6.92,5.493,10.472.426.888.579-.948.459-1.31-1.338-4.031-2.438-8.125-3.937-12.1a101.982,101.982,0,0,0-4.96-11.265,66.473,66.473,0,0,0-13.471-18.157c-5.967-5.518-13.6-8.887-21.151-11.643-8.052-2.941-16.008-5.751-23.3-10.349a81.073,81.073,0,0,1-10.938-8.3c-3.41-3.067-6.315-6.547-9.437-9.888-.579-.62-.968,1.236-.99,1.4a4.666,4.666,0,0,0,.428,2.965"/><path d="M890.3,168.474c.689.447.731,1.186,1.324,1.693a6.222,6.222,0,0,0,1.669.763c1.138.462,2.307.855,3.455,1.294,2.291.878,4.558,1.825,6.806,2.809a144.529,144.529,0,0,1,13.12,6.525,136.744,136.744,0,0,1,12.143,7.78c1.979,1.412,3.9,2.9,5.806,4.4.884.7,1.742,1.467,2.656,2.122.985.705,1.981,1.281,2.927,2.064,1,.827,1.98,1.679,2.974,2.514a37.081,37.081,0,0,0,2.893,2.48c2.053,1.385,3.749,3.347,5.657,4.967.414.352.388-1.439.231-1.684-1.422-2.214-3.19-4.111-4.71-6.237a52.61,52.61,0,0,0-5.128-6.072c-1.785-1.834-3.486-3.813-5.41-5.491-1.846-1.611-3.766-3.129-5.727-4.6a115.45,115.45,0,0,0-25.442-14.495q-3.7-1.508-7.495-2.728c-1.333-.431-2.674-.875-4.03-1.227a8.177,8.177,0,0,0-1.933-.415c-.776.018-.946.871-1.717.924s-.544,2.3-.069,2.611"/><path d="M245.116,178.058c-5.516-5.247-11-10.545-16.376-15.931-5.283-5.289-10.82-10.335-16.131-15.6Q196.885,130.939,182.03,114.5,167.063,97.9,153.052,80.474c-8.832-10.969-17.671-22.066-25-34.115a121.235,121.235,0,0,1-9.341-18.375,91.057,91.057,0,0,1-3.22-9.668c-.412-1.523-.779-3.055-1.083-4.6-.065-.329-.13-.657-.18-.988,0,.013-.1-.939-.058-.44s-.012-.488-.011-.464c0-.123.008-1.375-.019-.666a8.277,8.277,0,0,1,.472-2.766,4.434,4.434,0,0,1,1.681-2.364c2.564-1.575,4.993,1.409,6.406,3.151q7.56,9.315,15.052,18.687,29.667,37.233,58.7,74.963,14.669,19.058,29.176,38.236,7.1,9.387,14.181,18.792c4.764,6.3,9.478,12.687,14.523,18.772,2.376,2.866,4.753,5.684,7.308,8.392.9.95,1.094-1.657.79-2.167-8.5-14.227-18.859-27.362-28.864-40.546q-14.8-19.507-29.774-38.888-29.939-38.76-60.529-77.009-7.657-9.576-15.316-19.151-1.842-2.3-3.685-4.6a16.63,16.63,0,0,0-3.7-3.8,5.117,5.117,0,0,0-6.611.811c-1.921,1.987-2.512,4.574-2.882,7.2a26.289,26.289,0,0,0,.839,9.631,100.511,100.511,0,0,0,7.3,20.706c6.2,13.026,14.74,24.812,23.556,36.17q13.926,17.94,28.9,35.037c9.99,11.4,20.291,22.548,31.015,33.259q8.023,8.013,16.313,15.748c5.5,5.119,11.157,9.982,16.964,14.745,2.75,2.256,5.592,4.4,8.41,6.575,1.2.926,1.469-2.009.759-2.684"/><path d="M275.039,168.893a62.621,62.621,0,0,0-3.848-7.557c-1.394-2.319-2.719-4.676-4.117-6.992-2.718-4.5-5.49-8.974-8.257-13.447l-16.7-26.992c-10.193-16.474-21.19-32.713-29.337-50.338a109.189,109.189,0,0,1-9.316-29.79l-1.178,2.675c4.369,3.57,7.237,8.645,10.216,13.343q5.187,8.18,10.33,16.386,9.93,15.771,19.794,31.582c13.217,21.219,26.3,42.521,39.047,64.03,7.01,11.832,13.7,23.94,21.486,35.283.344.5.779-.074.907-.394a2.508,2.508,0,0,0-.1-1.9c-5.455-11.53-12.016-22.527-18.548-33.471q-9.645-16.159-19.528-32.176c-13.157-21.36-26.585-42.551-40.073-63.7q-5.755-9.025-11.52-18.043c-3.414-5.351-6.582-11.034-11.573-15.1-1.061-.865-1.229,2.332-1.178,2.675,2.782,18.97,11.376,36.318,21.041,52.653,10.549,17.828,21.782,35.27,32.74,52.847,3.161,5.069,6.292,10.157,9.509,15.19,1.59,2.487,3.248,4.927,4.842,7.41.8,1.238,1.611,2.46,2.434,3.679a26.082,26.082,0,0,0,2.6,3.044c.391.422.4-.721.325-.9"/><path d="M225.344,210.051c-6.081-4.482-12.386-8.644-18.568-12.986-6.21-4.362-12.352-8.823-18.348-13.476-11.77-9.135-23.066-18.946-32.974-30.1a161.8,161.8,0,0,1-15.472-20.348l-.67,2.466c3.457,2.435,6.9,4.838,10.259,7.416,3.465,2.662,6.9,5.37,10.321,8.084q10.04,7.954,19.953,16.074,19.791,16.233,38.822,33.366,5.278,4.753,10.509,9.563c3.571,3.277,7.052,6.65,10.814,9.709,1.313,1.069,1.542-2.2.835-2.955-5.871-6.3-12.506-11.945-18.94-17.657q-9.615-8.538-19.425-16.856c-12.953-10.978-26.133-21.7-39.642-31.993q-5.7-4.341-11.459-8.6c-3.96-2.932-7.819-5.972-11.717-8.982-.888-.685-.916,2.062-.67,2.465a166.318,166.318,0,0,0,28.956,34.643,327.8,327.8,0,0,0,35.74,28.256c7.017,4.909,14.066,9.812,21.386,14.26.828.5.93-1.872.29-2.343"/><path d="M1028.583,924.68a4.4,4.4,0,0,0,1.111.616,5.337,5.337,0,0,0,1.405-.205q1.4-.215,2.783-.534a24.606,24.606,0,0,0,4.545-1.487,32.174,32.174,0,0,0,7.418-4.587,45.959,45.959,0,0,0,11.039-14.06c6.782-12.975,7.959-27.791,7.846-42.192-.036-4.531-.235-9.061-.394-13.59-.08-2.266-.148-4.531-.3-6.794-.095-1.447.012-3.563-.949-4.782l.373,1.1q-.078-.552-.186-1.1c-.1-.451-.24-.9-.367-1.339-.156-.545-.651-1.213-.942-.3a14.424,14.424,0,0,0-.524,2.08c-.385,2.4.706-1.979-.084.2a8.937,8.937,0,0,0-.4,2.148,58.472,58.472,0,0,0-.027,6.433c.129,3.884.3,7.768.407,11.653a132.109,132.109,0,0,1-.666,21.532c-1.464,11.217-5.947,22.889-14.365,31.082a39.27,39.27,0,0,1-7.39,5.739c-1.36.8-2.78,1.53-4.209,2.2-1.069.5-2.166.935-3.269,1.361-.465.18-.929.362-1.4.537-.855.322-.868.5-1.535,1.266-.484.554-.7,2.575.074,3.012"/><path d="M994.547,926.109c.586.345,1.16.765,1.746,1.066a12.93,12.93,0,0,0,1.8.653,28.008,28.008,0,0,0,3.885,1.054q.933.168,1.875.285a9.4,9.4,0,0,0,.941.119c.327.006.6-.063.938-.088.628-.048,1.254-.094,1.879-.166a7,7,0,0,0,.938-.123c.492-.128.738-.583,1-.986a4.184,4.184,0,0,0-.1-4.078c-.279-.352-.572-.8-1.043-.882a6.779,6.779,0,0,0-.807-.019c-.627-.022-1.263-.046-1.886-.12-.372-.044-.709-.141-1.078-.16-.265-.013-.539.014-.8.01-.624-.01-1.248-.04-1.871-.086-1.229-.09-2.479-.182-3.7-.362-.6-.088-1.215-.281-1.814-.319-.274-.018-.486.015-.764.02a7.369,7.369,0,0,1-1.012-.119c-.694-.091-.807,1.57-.817,1.917-.02.668.012,1.985.689,2.384"/><path d="M785.053,344.137a4.461,4.461,0,0,0-1.7.393c-.824.385-1.386,1.11-2.334,1.228-1.434.178-1.137,3.458-.967,4.328.23,1.183,1.167,2.827,1.928.953,5.527-13.617,18.286-23.661,32.436-27.069,2.045-.493,4.275-.575,6.211-1.344.984-.391,2.1-.41,3.075-.807,1.069-.434,2.122-.843,3.236-1.2.623-.2.669-2.331.064-2.573a20.251,20.251,0,0,0-5.967-1.638c-.443-.038-.839-.159-1.269-.223a5.039,5.039,0,0,0-1.436.124q-1.521.229-3.025.56a48.248,48.248,0,0,0-11.246,4.017,50.64,50.64,0,0,0-18.307,15.6,45.3,45.3,0,0,0-3.512,5.723c-.527,1.024-1.016,2.069-1.472,3.125a8.4,8.4,0,0,0-.631,5.209q.827-1.347,1.651-2.7a.34.34,0,0,1-.1-.522,1.53,1.53,0,0,1,.264-.6,4.65,4.65,0,0,1,.906-1.135,4.523,4.523,0,0,1,2.212-1.029c.117-.022.1-.436-.011-.43"/><path d="M820.073,333.483a27.2,27.2,0,0,0-5.83,1.974A19.654,19.654,0,0,0,809.3,339a38.74,38.74,0,0,0-7.738,10.254,46.356,46.356,0,0,0-4.844,27.013,38.292,38.292,0,0,0,12.058,23.842,43.421,43.421,0,0,0,23.907,10.762,40.212,40.212,0,0,0,25.674-5.2c7.9-4.786,13.762-12.427,17.208-20.924a52.46,52.46,0,0,0,2.812-29.1c-1.932-10.318-7.573-20.46-16.736-25.971a38.508,38.508,0,0,0-14.455-5.291,49.209,49.209,0,0,0-15.636.286,58.346,58.346,0,0,0-16.455,5.586,35.237,35.237,0,0,0-3.838,2.69c-1.245.864-2.563,1.629-3.813,2.489-2.659,1.829-5.255,3.759-7.8,5.745-2.454,1.916-4.88,3.87-7.238,5.9-.349.3-.309,2.191.243,1.915,4.947-2.463,9.756-5.194,14.724-7.624q1.734-.848,3.492-1.654c1.3-.594,2.681-.766,3.995-1.289,2.586-1.029,5.065-2.3,7.676-3.274,9.466-3.533,19.716-5.088,29.654-2.647a31.1,31.1,0,0,1,12.776,6.094,33.261,33.261,0,0,1,9.138,12.668,35.579,35.579,0,0,1,1.872,5.7c.223.939.41,1.883.55,2.838q.12.824.208,1.653c.024.221.043.442.066.663a2.381,2.381,0,0,1,.036.483c.055,1.055.09,2.111.075,3.168-.009.629.045-.749-.012.32-.011.223-.021.446-.033.668q-.054.918-.145,1.834A42.437,42.437,0,0,1,862.9,395.674a37.4,37.4,0,0,1-22.737,9.21c-16.231.922-33.811-7.845-39.655-23.653a28.487,28.487,0,0,1-1.814-11.2c-.009.42.028-.609.038-.787q.045-.8.122-1.589c.1-1.034.249-2.058.442-3.079a40.241,40.241,0,0,1,1.461-5.6,39.84,39.84,0,0,1,5.611-10.709,53.078,53.078,0,0,1,8.678-8.741,43.353,43.353,0,0,1,5.194-3.815c.415-.258.378-2.344-.167-2.222"/><path d="M893.027,530.2l-.6.045c-.242-.109-.364-.017-.5.209a108.221,108.221,0,0,1-8.4,11.632c-1.527,1.894-3.159,3.692-4.775,5.509a34.879,34.879,0,0,0-4.881,7.084c-.119.228-.288,1.8.2,1.742a5.142,5.142,0,0,0,2.9-1.1,23.805,23.805,0,0,0,2.889-2.476,81.647,81.647,0,0,0,5.336-6.5,51.074,51.074,0,0,0,4.614-7.071c.667-1.295,1.384-2.562,2.04-3.864a14.092,14.092,0,0,0,.949-1.916c.265-.823.053-1.684.409-2.482.073-.164-.006-1.083-.181-.8"/><path d="M907.114,509.161a41.257,41.257,0,0,1-.427,13.874,41.484,41.484,0,0,1-1.266,4.751,62.754,62.754,0,0,1-4.07,9.309c-1.791,3.457-4.282,6.524-5.719,10.165-.164.415-.329,2.671.449,2.657.857-.015,1.423-.615,2.1-1.05a6.556,6.556,0,0,0,1.774-1.558c1.118-1.405,2.137-2.872,3.13-4.367a39.389,39.389,0,0,0,4.666-10.927,54.546,54.546,0,0,0,1.208-25.263c-.126-.649-.561-1.938-1.334-1.222s-.63,2.76-.515,3.631"/><path d="M50.651,567.481c1.473-4.885,2.323-9.955,3.333-14.955C55,547.5,56,542.474,57.05,537.456c2.145-10.265,4.422-20.5,6.968-30.678,2.532-10.117,5.258-20.181,8.42-30.121,3.052-9.6,7.278-19.147,8.2-29.268a34.276,34.276,0,0,0,.134-7.88,32.585,32.585,0,0,0-1.756-7.041,22.549,22.549,0,0,0-8.4-10.877l-.186,6.644c4.337.817,8.669,1.661,13,2.493l6.379,1.224c2.233.428,4.413,1.072,6.632,1.561.527.116.953-.952,1.064-1.217a645.751,645.751,0,0,1,29.116-60.081c1.534-2.809,3.183-5.568,4.583-8.445.718-1.474,1.511-2.93,2.14-4.443.759-1.821,1.364-3.7,1.974-5.571.09-.279.146-2.913-.6-2.336-4.071,3.133-6.442,7.814-8.928,12.212q-4.113,7.272-7.965,14.684-7.832,15.018-14.833,30.444-4.04,8.865-7.812,17.846l1.064-1.216c-2.118-.282-4.256-.4-6.367-.74l-6.62-1.07c-4.331-.7-8.665-1.386-12.994-2.1-1.035-.171-1.205,2.48-1.217,2.961-.023.966,0,3.132,1.031,3.683A15.549,15.549,0,0,1,77.06,436.1a20.422,20.422,0,0,1,1.343,4.766,23.083,23.083,0,0,1,.459,5.578,56.325,56.325,0,0,1-3.284,13.833c-1.571,4.629-3.215,9.229-4.708,13.885a573.742,573.742,0,0,0-14.9,58.4q-1.718,8.256-3.332,16.532c-1.11,5.655-2.307,11.326-2.919,17.057-.04.378-.047,1.261.286,1.56.282.254.527.164.647-.233"/><path d="M387.308,388.291c.492.865.833,2,1.814,2.374.72.272,1.45.508,2.162.8a32.3,32.3,0,0,1,3.828,1.89,36.995,36.995,0,0,1,7.234,5.408,32.135,32.135,0,0,1,8.506,14.6c.184.648.751,2.092,1.583,1.249.8-.815.818-2.716.629-3.727a33.781,33.781,0,0,0-9.581-17.667,30.113,30.113,0,0,0-7.587-5.535,31.541,31.541,0,0,0-4.459-1.816,10.14,10.14,0,0,0-2.337-.663c-.867-.048-1.333.943-1.829,1.566a1.627,1.627,0,0,0,.037,1.517"/></g></g></g></g></svg>