<svg xmlns="http://www.w3.org/2000/svg" width="71.313" height="82" viewBox="0 0 71.313 82"><path d="M26.519,4.637c-4.885,2.545-8.881,4.7-8.881,4.786,0,.226,11.724,6.162,12.14,6.148a22.794,22.794,0,0,0,3.051-1.4l2.707-1.392,2.956,1.52,2.956,1.52,4.841-2.175C53.585,10.36,54.343,10,54.224,9.88c-.158-.16-2.774-1.566-9.873-5.3C40.92,2.771,37.591,1,36.951.641A6.668,6.668,0,0,0,35.6,0c-.107.006-4.191,2.092-9.076,4.637ZM5.094,15.732.009,18.358V29.886c0,6.34.067,11.528.149,11.528S2.741,40.329,5.717,39l5.411-2.41V24.443l2.644,1.441Q16.83,27.547,19.89,29.2l3.472,1.879,1.545-.7q1.454-.658,2.9-1.329c.746-.347,2.576-1.172,4.068-1.833a34.018,34.018,0,0,0,3.068-1.477c.26-.2-2.911-1.954-11.73-6.482-6.647-3.414-12.3-6.2-12.56-6.182a55.232,55.232,0,0,0-5.559,2.651Zm50.046.738c-3.463,1.563-6.3,2.905-6.3,2.982s1.885,1.2,4.195,2.494a46.052,46.052,0,0,1,4.2,2.509,46.776,46.776,0,0,1-4.543,2.2c-2.5,1.126-8.814,3.978-14.035,6.338L21.163,40.9l-8.814,3.985C3.361,48.954.891,50.083.552,50.277S.133,51.605.072,57.295L0,64.08,4.547,66.4l4.547,2.317L15.4,65.868c3.468-1.565,6.305-2.927,6.305-3.028a5.03,5.03,0,0,0-1.424-.928c-.783-.411-2.4-1.32-3.594-2.021a28.265,28.265,0,0,0-2.644-1.429c-.261-.085-.471-.234-.467-.331s2.781-1.416,6.17-2.931c6.582-2.943,11.62-5.211,22.434-10.1q7.26-3.275,14.515-6.552c4.246-1.922,9.188-4.164,10.978-4.984l3.254-1.491L71,25.209l.073-6.862L66.462,15.98c-2.537-1.3-4.705-2.364-4.819-2.36s-3.04,1.286-6.5,2.85ZM69.694,41.227c-.68.332-2.022.954-2.983,1.381s-2.785,1.251-4.053,1.829l-2.305,1.051L60.3,51.514a41.146,41.146,0,0,1-.271,5.993c-.273-.041-4.593-2.256-8.936-4.584-3.135-1.679-3.332-1.746-4.068-1.381-.426.211-2.971,1.352-5.656,2.537S36.4,56.309,36.291,56.4s5.3,3.023,12.009,6.509L60.5,69.25l5.213-2.7a58.657,58.657,0,0,0,5.417-3.006c.253-.383.231-22.976-.022-22.945a12.242,12.242,0,0,0-1.418.626ZM40.826,67.746l-2.712,1.168c-2.729,1.181-2.194,1.22-5.441-.4-2.163-1.076-3.095-1.409-3.5-1.247-.3.121-2.915,1.3-5.8,2.611s-5.353,2.391-5.476,2.391c-1.212,0,.8,1.2,8.58,5.127l9.12,4.6,3.837-1.894c2.111-1.042,6.367-3.128,9.46-4.637s5.584-2.782,5.537-2.83-2.638-1.378-5.758-2.957L43,66.813Z" transform="translate(0 0)" fill-rule="evenodd"/></svg>