<svg xmlns="http://www.w3.org/2000/svg" width="626.792" height="366.848" viewBox="0 0 626.792 366.848"><g transform="translate(-6898.456 -3227.128)"><path d="M7508.566,3330.433s16.466,34.233,16.667,48-1.8,45.133-1.8,45.133H7513.2s-1.966-27.167-2.866-31.367-5.8-10.633-5.8-10.633l5.8-11.133Z" fill="#161616"/><path d="M7502.916,3484.113s1.313-2.255,4.271-6.541a43.644,43.644,0,0,0,4.7-9.447l-1.084-8.939-10.571,11.429Z" fill="#161616"/><g transform="translate(6898.456 3227.128)"><g transform="translate(0 0)"><path d="M173.945,60.794q3.615.267,7.221.667t7.192.946q3.586.546,7.146,1.244t7.083,1.562c1.069.262,2.193.528,3.354.807s2.357.569,3.572.881,2.446.644,3.676,1.006,2.459.753,3.668,1.182c-.218-1.625-.472-3.242-.771-4.845s-.643-3.189-1.041-4.751-.851-3.1-1.368-4.608-1.1-2.981-1.752-4.415a56.33,56.33,0,0,0-4.48-7.942,82.2,82.2,0,0,0-5.537-7.278c-1.975-2.336-4.056-4.593-6.171-6.8s-4.266-4.371-6.381-6.515c-2.052-2.084-4.029-4.026-6.02-5.819a65.726,65.726,0,0,0-6.1-4.922,47.579,47.579,0,0,0-6.72-3.979,48.842,48.842,0,0,0-7.873-2.987Q158.76,3.11,154.8,2.337c-2.636-.521-5.292-.938-7.96-1.268S141.5.5,138.811.326s-5.372-.268-8.056-.309a145.517,145.517,0,0,0-19.91,1.077A155.2,155.2,0,0,0,91.109,4.829a158.777,158.777,0,0,0-19.117,6.225A155.112,155.112,0,0,0,53.942,19.6c-.037.04-.071.081-.1.122s-.066.083-.1.124-.07.081-.109.121a1.14,1.14,0,0,1-.13.113A135.931,135.931,0,0,0,37.387,33.959a146.127,146.127,0,0,0-13.878,16.2A153.2,153.2,0,0,0,12.058,68.18,154.915,154.915,0,0,0,3.227,87.548q-.421,1.122-.834,2.264t-.816,2.3q-.4,1.159-.8,2.334T0,96.812q13.55-6.02,27.469-11.118t28.139-9.242q14.219-4.144,28.7-7.317t29.159-5.343q7.5-1.112,15.048-1.93t15.112-1.243q7.568-.425,15.151-.406t15.164.581" transform="translate(36.833 10.765)" fill="#373737"/><path d="M178.456.625c-4.7-.348-9.415-.54-14.133-.6s-9.44.006-14.159.18-9.437.453-14.144.813-9.406.8-14.088,1.3Q106.89,3.907,92.026,6.719T62.568,13.471Q47.975,17.411,33.7,22.437T5.56,33.484a.173.173,0,0,1-.038.012l-.037,0-.037,0a.207.207,0,0,0-.038.008,169.355,169.355,0,0,0-3.7,17.031A130.489,130.489,0,0,0,.038,67.9a97.435,97.435,0,0,0,.986,17.086A74.12,74.12,0,0,0,5.315,101.2a80.59,80.59,0,0,0,8.617,15.951,108.037,108.037,0,0,0,12,14.45,130.313,130.313,0,0,0,29.423,22.337,116.024,116.024,0,0,0,14.751,6.837,120.459,120.459,0,0,0,15.551,4.75,123.159,123.159,0,0,0,32.3,3.138,114,114,0,0,0,16.285-1.747,107.854,107.854,0,0,0,15.874-4.129,98.867,98.867,0,0,0,14.993-6.574,89.951,89.951,0,0,0,13.642-9.081,102.187,102.187,0,0,0,12.627-12.207,120.328,120.328,0,0,0,10.6-14.143,139.644,139.644,0,0,0,8.595-15.494,155,155,0,0,0,6.624-16.26,170.834,170.834,0,0,0,5.081-17.993,186.19,186.19,0,0,0,3.164-18.395q1.127-9.27,1.391-18.628t-.236-18.692l-.051-.949q-.026-.476-.052-.955t-.053-.96q-.027-.48-.055-.962c-1.706-.419-3.418-.947-5.129-1.528s-3.421-1.215-5.121-1.845-3.391-1.257-5.065-1.825-3.331-1.075-4.963-1.467q-3.4-.817-6.838-1.478t-6.9-1.181q-3.462-.52-6.943-.9t-6.97-.645m-4.093,77.1a21.147,21.147,0,0,1-2.157,4.046,20.122,20.122,0,0,1-3.025,3.507,17.1,17.1,0,0,1-3.765,2.634,14.426,14.426,0,0,1-4.376,1.426,14.827,14.827,0,0,1-4.736-.032,14.006,14.006,0,0,1-4.31-1.484,13.861,13.861,0,0,1-3.6-2.8,14.544,14.544,0,0,1-2.6-3.979,18.634,18.634,0,0,1-1.4-4.747,19.4,19.4,0,0,1-.131-4.763,23.46,23.46,0,0,1,.952-4.711,30.563,30.563,0,0,1,1.849-4.593c.351-.7.725-1.395,1.117-2.076s.8-1.353,1.219-2.018.847-1.325,1.278-1.982.865-1.312,1.294-1.967c.48-.733.96-1.485,1.451-2.235s1-1.5,1.527-2.226a25.756,25.756,0,0,1,1.685-2.091,16.416,16.416,0,0,1,1.926-1.828,6.427,6.427,0,0,1,1.244-.786,5.061,5.061,0,0,1,1.352-.432,4.121,4.121,0,0,1,2.8.522,4.289,4.289,0,0,1,1.118.946,4.481,4.481,0,0,1,.73,1.23,4.718,4.718,0,0,1,.318,1.4,4.767,4.767,0,0,1-.12,1.453,17.783,17.783,0,0,1-.891,2.676,26.96,26.96,0,0,1-1.24,2.546c-.455.831-.945,1.646-1.443,2.452s-1.007,1.6-1.5,2.394l-.647,1.039q-.323.52-.645,1.041t-.638,1.046q-.316.524-.624,1.052-.15.257-.3.514t-.291.518q-.144.26-.284.522t-.274.527c-.026.048-.1.2-.188.379s-.2.4-.294.6-.181.365-.225.448-.048.079.017-.073c-.14.325-.271.658-.394,1s-.236.685-.338,1.034-.195.7-.274,1.056-.148.709-.2,1.062c0,.048,0,.114-.009.186s-.009.153-.013.232-.009.156-.012.222-.005.122-.005.158c0,.053,0,.151.012.272s.019.262.03.4.021.274.028.382a1.622,1.622,0,0,1,.005.217c.021.113.043.225.065.338s.045.225.07.337.051.224.079.336.06.223.094.334l.044.128.045.129.046.13.047.132.022.039.021.037.029.058.048.1c.033.048.092.129.162.223l.23.31c.078.106.154.21.211.293a.944.944,0,0,1,.1.172l.175.147.156.134c.047.041.089.079.123.11a1.024,1.024,0,0,1,.076.076c.133.058.274.117.4.169s.227.1.284.126.068.045,0,.038a4.464,4.464,0,0,1-.44-.094q.086.028.172.053l.174.047.175.043.175.04c.058,0,.117,0,.175,0l.175,0,.174-.006.172-.008c.087-.028.254-.094.437-.167s.382-.152.531-.207.249-.086.235-.063a2.543,2.543,0,0,1-.451.266c.14-.074.277-.151.412-.23s.269-.159.4-.239l.4-.241c.134-.08.268-.159.405-.236-.254.144-.377.212-.415.229s.008-.017.095-.075.212-.143.332-.226a3.408,3.408,0,0,0,.3-.223c.031-.031.1-.1.175-.187l.273-.3c.1-.105.193-.21.274-.295s.146-.151.178-.178c.071-.107.141-.215.209-.322s.136-.216.2-.325.135-.217.2-.325.138-.216.209-.322c.027-.057.049-.1.068-.14s.033-.066.046-.089.023-.041.032-.056l.026-.04.044-.12.044-.12q.022-.06.043-.121t.04-.123q.092-.293.171-.59t.147-.6q.068-.3.128-.6t.113-.6q-.017.2-.024.281t0,.047q0-.035.019-.187t.041-.421q.013-.152.024-.3t.021-.306q.01-.153.017-.306t.012-.3q.011-.306.013-.612c0-.2,0-.409,0-.614s0-.41-.008-.615-.007-.41-.01-.616q-.013-.616-.039-1.232t-.069-1.232q-.043-.616-.106-1.23t-.151-1.226q.013.126.014.158t-.009-.03q-.01-.062-.031-.218t-.053-.406a4.578,4.578,0,0,1-.113-.484,4.462,4.462,0,0,1-.059-.486,4.511,4.511,0,0,1-.006-.488,4.721,4.721,0,0,1,.047-.491c.011-.2.03-.4.053-.6s.05-.4.079-.6.059-.4.089-.6.057-.4.082-.6a4.611,4.611,0,0,1,1-2.43,3.861,3.861,0,0,1,1.928-1.26,3.739,3.739,0,0,1,2.287.09,4.5,4.5,0,0,1,2.082,1.621c.321.438.617.866.892,1.3s.527.86.76,1.3.444.893.638,1.365.368.965.527,1.488q.19.631.365,1.266t.33,1.274q.154.639.286,1.283T175.326,66a27.973,27.973,0,0,1,.318,2.945,24.679,24.679,0,0,1-.017,2.991,20.9,20.9,0,0,1-.408,2.955,17.511,17.511,0,0,1-.856,2.836" transform="translate(28.6 83.602)" fill="#fff"/><path d="M89.549,65.529q6.371,2.724,12.761,5.569t12.7,5.892q6.305,3.047,12.472,6.336t12.091,6.9c1.387.847,2.809,1.754,4.236,2.721s2.857,2,4.258,3.084,2.775,2.237,4.087,3.445a48.794,48.794,0,0,1,3.723,3.805q-.9-3.889-1.934-7.748t-2.191-7.684q-1.157-3.825-2.43-7.615t-2.652-7.539c-1.971-5.359-4.1-10.647-6.436-15.827s-4.868-10.254-7.646-15.184a155.313,155.313,0,0,0-9.1-14.322,134.846,134.846,0,0,0-10.81-13.243,5.8,5.8,0,0,1-.643-.823,5.012,5.012,0,0,1-.433-.838,4.822,4.822,0,0,1-.252-.841,5.123,5.123,0,0,1-.1-.833A51.457,51.457,0,0,0,81.794.038C71.788-.343,61.716,2.131,51.951,6.423A132.86,132.86,0,0,0,23.943,23.715,226.714,226.714,0,0,0,0,45.7a167.321,167.321,0,0,1,23,1.11,198.989,198.989,0,0,1,22.719,4.02c7.5,1.768,14.93,3.934,22.245,6.413s14.519,5.271,21.581,8.29" transform="translate(454.16 39.506)" fill="#373737"/><path d="M.049.006.01.133A.242.242,0,0,0,0,.165L.017.116.055,0,.049.006" transform="translate(484.303 159.084)" fill="#fff"/><path d="M199.372,98.545a58.745,58.745,0,0,1-.734-6.294c-.139-2.13-.182-4.286-.16-6.457s.108-4.355.23-6.54.277-4.371.437-6.545c-.06-.053-.119-.106-.178-.16s-.117-.11-.173-.169-.112-.119-.166-.184-.106-.133-.156-.205c-.979-1.431-1.94-2.838-2.915-4.216s-1.961-2.724-2.991-4.035-2.1-2.584-3.252-3.815a45.9,45.9,0,0,0-3.7-3.555q-2.04-1.744-4.187-3.318t-4.38-3.017q-2.232-1.444-4.539-2.78t-4.664-2.606Q162.5,41.774,157.1,38.955T146.265,33.4q-5.441-2.737-10.925-5.381t-11.008-5.168c-7.066-3.23-14.189-6.289-21.383-9.058S88.489,8.544,81.137,6.478A180.587,180.587,0,0,0,58.8,1.64,147,147,0,0,0,35.86.006l-.222.239A152.206,152.206,0,0,0,24.806,13.881a138.111,138.111,0,0,0-8.974,14.581A132.056,132.056,0,0,0,8.787,44.053,133.833,133.833,0,0,0,3.741,60.72c-.717,3.064-1.42,6.211-2.019,9.4s-1.1,6.426-1.4,9.665a66.131,66.131,0,0,0-.241,9.693,46.405,46.405,0,0,0,1.453,9.486,55.335,55.335,0,0,0,2.981,8.253c1.209,2.708,2.6,5.373,4.09,8s3.065,5.2,4.644,7.746,3.157,5.042,4.642,7.5c2.8,4.643,5.727,9.27,8.839,13.775a163.806,163.806,0,0,0,9.946,13.049,115.274,115.274,0,0,0,11.391,11.7,89.619,89.619,0,0,0,13.174,9.725A85.414,85.414,0,0,0,76.751,186a103.193,103.193,0,0,0,16.475,4.3,133.843,133.843,0,0,0,17.016,1.86c5.715.274,11.45.231,17.134-.037,3.188-.15,6.318-.413,9.384-.84a70.5,70.5,0,0,0,9-1.829,55.5,55.5,0,0,0,8.6-3.127,50.894,50.894,0,0,0,8.156-4.733,69.653,69.653,0,0,0,6.7-5.433,81.268,81.268,0,0,0,6.069-6.208c1.917-2.177,3.727-4.451,5.428-6.79s3.293-4.742,4.774-7.178a108.954,108.954,0,0,0,6.648-12.781,117.094,117.094,0,0,0,4.952-13.481,126.738,126.738,0,0,0,3.332-13.982,136.6,136.6,0,0,0,1.789-14.285,3.986,3.986,0,0,1-.975-.327,3.362,3.362,0,0,1-.839-.582,3.25,3.25,0,0,1-.64-.854,3.918,3.918,0,0,1-.379-1.145M83.491,51.861q-.026,1.114-.069,2.227t-.109,2.226q-.066,1.112-.157,2.223t-.213,2.218c-.144,1.311-.254,2.782-.437,4.277a25.826,25.826,0,0,1-.873,4.425,10.527,10.527,0,0,1-1.945,3.765,7.152,7.152,0,0,1-3.654,2.3,7.776,7.776,0,0,1-2.2.268,8.791,8.791,0,0,1-2.2-.329,9.36,9.36,0,0,1-2.064-.857,9.006,9.006,0,0,1-1.785-1.316,8.9,8.9,0,0,1-1.351-1.642,10.076,10.076,0,0,1-.933-1.867,12.472,12.472,0,0,1-.571-2.021,15.877,15.877,0,0,1-.264-2.1,17.832,17.832,0,0,1-.008-1.873c.028-.628.085-1.26.159-1.889s.166-1.258.266-1.88.207-1.238.313-1.844q.15-.862.331-1.717t.395-1.7q.213-.849.458-1.69t.52-1.673q.582-1.762,1.282-3.482t1.518-3.387q.818-1.666,1.755-3.27t1.99-3.133a4.9,4.9,0,0,1,1.108-1.155,4.349,4.349,0,0,1,1.377-.692,3.841,3.841,0,0,1,1.521-.131,3.934,3.934,0,0,1,1.541.525,3.538,3.538,0,0,1,.7.539,3.882,3.882,0,0,1,.55.683,4.343,4.343,0,0,1,.394.789,4.709,4.709,0,0,1,.235.856,5.385,5.385,0,0,1,.488.481,5.156,5.156,0,0,1,.421.539,4.726,4.726,0,0,1,.34.586,4.213,4.213,0,0,1,.245.622,19.361,19.361,0,0,1,.577,2.48c.14.837.232,1.682.29,2.531s.083,1.7.089,2.552-.008,1.7-.026,2.545" transform="translate(412.303 91.706)" fill="#fff"/><path d="M0,0,.023.068A.151.151,0,0,1,.016.044a.031.031,0,0,1,0-.011.029.029,0,0,0,0-.008.053.053,0,0,0,0-.014L0,0" transform="translate(486.524 158.156)" fill="#fff"/><path d="M112.542,264.152a129.759,129.759,0,0,0,17.982.574,126.657,126.657,0,0,0,17.908-1.948,120.258,120.258,0,0,0,17.418-4.525,112.466,112.466,0,0,0,16.511-7.157,101.907,101.907,0,0,0,16.362-10.914,116.335,116.335,0,0,0,14.15-13.712A131.73,131.73,0,0,0,224.7,210.636a142.983,142.983,0,0,0,9.4-17.283,167.5,167.5,0,0,0,7.321-18.964,182.851,182.851,0,0,0,5.067-19.669,200.25,200.25,0,0,0,2.955-20.116c.649-6.751.969-13.534.985-20.3q.006-2.555-.047-5.108t-.164-5.1q-.111-2.551-.278-5.1t-.39-5.092a5.074,5.074,0,0,1-.743.875,4.726,4.726,0,0,1-2.071,1.134,5.339,5.339,0,0,1-1.313.163q-.885,0-1.775-.069t-1.785-.2q-.895-.127-1.793-.306t-1.8-.4l.051.962.051.959q.026.478.051.954t.051.946q.5,9.336.236,18.695t-1.391,18.629a186.156,186.156,0,0,1-3.164,18.394,170.741,170.741,0,0,1-5.081,17.989,155.063,155.063,0,0,1-6.624,16.261,139.691,139.691,0,0,1-8.595,15.5,120.334,120.334,0,0,1-10.6,14.145,102.156,102.156,0,0,1-12.627,12.208A89.952,89.952,0,0,1,177,239.815,98.867,98.867,0,0,1,162,246.389a107.852,107.852,0,0,1-15.874,4.13,114,114,0,0,1-16.285,1.747,123.159,123.159,0,0,1-32.3-3.138,120.46,120.46,0,0,1-15.551-4.75,116.026,116.026,0,0,1-14.751-6.837A130.313,130.313,0,0,1,37.82,215.2a108.036,108.036,0,0,1-12-14.45A80.589,80.589,0,0,1,17.2,184.8a74.18,74.18,0,0,1-4.288-16.21,97.5,97.5,0,0,1-.986-17.086A130.5,130.5,0,0,1,13.6,134.146a169.233,169.233,0,0,1,3.7-17.031,3.979,3.979,0,0,1-3.057-.021,4.511,4.511,0,0,1-2.117-1.881,3.571,3.571,0,0,1-.459-2.591,3.207,3.207,0,0,1,1.916-2.154q.81-.376,1.627-.74t1.637-.721l1.641-.715q.821-.358,1.64-.72.385-1.187.779-2.361t.8-2.333q.4-1.159.816-2.3t.834-2.268A154.8,154.8,0,0,1,32.18,78.946,153.163,153.163,0,0,1,43.63,60.924a146.156,146.156,0,0,1,13.879-16.2A136.007,136.007,0,0,1,73.623,30.843a1.038,1.038,0,0,0,.127-.11c.038-.039.074-.079.108-.121l.1-.125c.034-.042.069-.083.108-.123a155.155,155.155,0,0,1,18.049-8.546,158.807,158.807,0,0,1,19.115-6.225,155.25,155.25,0,0,1,19.735-3.737,145.6,145.6,0,0,1,19.909-1.08c2.684.043,5.372.142,8.056.313s5.364.414,8.033.744,5.325.748,7.961,1.269,5.253,1.145,7.841,1.887a48.883,48.883,0,0,1,7.872,2.99,47.641,47.641,0,0,1,6.718,3.98,65.911,65.911,0,0,1,6.1,4.921c1.991,1.792,3.968,3.733,6.022,5.816,2.114,2.145,4.264,4.306,6.379,6.516s4.2,4.466,6.171,6.8a82.121,82.121,0,0,1,5.537,7.278,56.212,56.212,0,0,1,4.477,7.942q.981,2.153,1.752,4.417t1.368,4.608q.6,2.344,1.041,4.75c.3,1.6.552,3.219.771,4.844,1.147.408,2.275.85,3.367,1.336a34.679,34.679,0,0,1,3.155,1.588,25.686,25.686,0,0,1,2.852,1.882,19.591,19.591,0,0,1,2.456,2.217q-.195-1.676-.4-3.35t-.44-3.344q-.23-1.671-.484-3.338t-.536-3.331a65.784,65.784,0,0,0-6.314-19.1,75.323,75.323,0,0,0-5.112-8.546,95.161,95.161,0,0,0-6.281-8.1c-2.188-2.545-4.458-5.217-6.823-7.888s-4.826-5.34-7.4-7.881a87.077,87.077,0,0,0-8.048-7.107,53.168,53.168,0,0,0-8.779-5.566A72.448,72.448,0,0,0,188.9,5.542,90.819,90.819,0,0,0,179.2,2.933c-3.285-.7-6.609-1.238-9.94-1.657s-6.671-.717-9.988-.932Q153.807,0,148.323,0T137.376.392q-5.464.387-10.888,1.17T115.724,3.553a106.28,106.28,0,0,0-23.438,8.278,118.046,118.046,0,0,0-10.73,5.986c-3.5,2.19-6.923,4.573-10.31,7.137l-.213.067c-.071.022-.142.046-.213.072a2.286,2.286,0,0,0-.215.093,1.917,1.917,0,0,0-.219.127,149.881,149.881,0,0,0-31.1,27.031A160.957,160.957,0,0,0,16.205,86.832,157,157,0,0,0,2.784,126.07,141.869,141.869,0,0,0,.64,167.351a79.086,79.086,0,0,0,5,20.879,93.542,93.542,0,0,0,9.9,18.727,121.316,121.316,0,0,0,13.589,16.537A158.648,158.648,0,0,0,45.192,237.8a121.307,121.307,0,0,0,15.269,10.145A127.776,127.776,0,0,0,77,255.717a134.533,134.533,0,0,0,17.471,5.4,140.063,140.063,0,0,0,18.075,3.036" transform="translate(16.713 0)" fill="#161616"/><path d="M211.124,5q-3.523-.864-7.082-1.562T196.9,2.2q-3.585-.546-7.191-.946T182.483.583Q174.9.021,167.32,0T152.17.408Q144.6.832,137.058,1.649T122.008,3.576Q107.334,5.748,92.852,8.922T64.15,16.24Q49.931,20.383,36.01,25.48T8.537,36.6q-.817.363-1.637.72l-1.64.715q-.82.358-1.638.721t-1.63.74A3.2,3.2,0,0,0,.08,41.645,3.574,3.574,0,0,0,.54,44.237a4.514,4.514,0,0,0,2.118,1.881,3.979,3.979,0,0,0,3.057.021.27.27,0,0,1,.038-.009l.037-.006.037-.007a.214.214,0,0,0,.038-.013Q19.728,40.084,34,35.06T62.872,26.1q14.593-3.94,29.458-6.752t29.906-4.406q7.023-.744,14.088-1.3c4.708-.36,9.425-.639,14.144-.813s9.442-.242,14.159-.18,9.431.254,14.133.6q3.489.259,6.97.642t6.943.9q3.462.52,6.9,1.182t6.838,1.479c1.632.392,3.289.9,4.963,1.467s3.365,1.194,5.065,1.825,3.41,1.264,5.121,1.845,3.423,1.109,5.129,1.528q.9.22,1.8.4t1.8.306q.9.127,1.787.2t1.776.069a5.339,5.339,0,0,0,1.313-.163,4.727,4.727,0,0,0,2.071-1.134,5.072,5.072,0,0,0,.743-.875,5.406,5.406,0,0,0,.729-1.583,5.608,5.608,0,0,0,.2-1.754,5.466,5.466,0,0,0-1.372-3.389c-.024-.026-.05-.05-.076-.074l-.081-.071-.08-.071c-.026-.024-.052-.049-.076-.074a19.62,19.62,0,0,0-2.455-2.217,25.671,25.671,0,0,0-2.85-1.882,34.62,34.62,0,0,0-3.153-1.588c-1.092-.485-2.219-.928-3.366-1.336-1.209-.429-2.437-.82-3.667-1.182S219.265,7,218.051,6.689s-2.411-.6-3.571-.881-2.286-.545-3.356-.807" transform="translate(28.296 70.976)" fill="#161616"/><path d="M29.934,16.354c-.158-.524-.333-1.018-.527-1.491S29,13.939,28.769,13.5s-.485-.872-.76-1.3-.572-.859-.892-1.3a4.479,4.479,0,0,0-2.08-1.62,3.737,3.737,0,0,0-2.288-.088,3.87,3.87,0,0,0-1.93,1.262,4.613,4.613,0,0,0-1.006,2.43c-.024.2-.052.4-.081.6s-.059.4-.087.6-.055.4-.077.606-.041.4-.052.6a4.5,4.5,0,0,0-.05.487,4.378,4.378,0,0,0,0,.487,4.438,4.438,0,0,0,.058.487,4.654,4.654,0,0,0,.113.487q.032.25.053.406t.031.217q.01.061.009.028t-.014-.162q.088.611.151,1.226t.106,1.231q.043.616.069,1.234t.039,1.235q0,.306.01.612t.008.613q0,.307,0,.613t-.013.612q0,.154-.011.307t-.016.305q-.009.152-.021.3t-.027.3q-.024.269-.038.422t-.02.189c0,.024,0,.009,0-.046s.011-.148.023-.28q-.053.3-.113.6t-.128.6q-.068.3-.147.594T19.427,29q-.019.062-.04.124t-.043.123l-.044.122-.043.121-.024.038-.032.056c-.013.023-.028.052-.047.089s-.041.082-.068.137c-.071.107-.141.215-.209.323s-.136.218-.2.327-.135.218-.2.327-.138.216-.209.323a2.283,2.283,0,0,0-.178.175c-.08.085-.177.189-.273.294l-.273.3c-.08.087-.145.155-.178.185a3.147,3.147,0,0,1-.3.226c-.12.084-.246.167-.332.226s-.133.092-.095.074.162-.086.415-.229c-.135.078-.269.159-.4.239l-.4.243c-.133.081-.267.161-.4.24s-.271.156-.409.23a2.449,2.449,0,0,0,.447-.266c.014-.024-.087.008-.237.063s-.348.134-.532.207-.351.138-.437.167l-.172.007-.174,0-.175,0-.175,0-.175-.043-.174-.045-.172-.048q-.085-.025-.169-.053c.238.06.374.09.437.1s.051-.007-.007-.037-.162-.074-.285-.126-.264-.11-.4-.169a.843.843,0,0,0-.075-.079c-.034-.032-.075-.069-.122-.111l-.156-.134-.177-.149a.941.941,0,0,0-.1-.171c-.057-.083-.131-.186-.209-.291l-.228-.31c-.07-.095-.128-.176-.161-.226l-.051-.1-.031-.058-.021-.039-.022-.04c-.014-.043-.029-.086-.044-.128l-.046-.129c-.015-.043-.03-.086-.045-.13s-.028-.087-.041-.132c-.034-.11-.065-.22-.094-.331s-.055-.222-.08-.334-.048-.224-.071-.337-.045-.225-.068-.338a1.657,1.657,0,0,0-.005-.219c-.007-.108-.017-.244-.028-.382s-.022-.279-.03-.4-.013-.218-.012-.271c0-.036,0-.091.005-.158s.008-.143.012-.222.009-.159.013-.232.007-.138.009-.186c.056-.353.124-.708.2-1.062s.172-.707.274-1.056.215-.7.337-1.036.254-.675.393-1c-.066.152-.062.156-.017.073s.129-.253.225-.448.2-.415.294-.6.162-.33.188-.379q.137-.263.277-.524t.283-.52q.143-.259.29-.517t.3-.514q.308-.53.624-1.055t.638-1.046q.321-.522.645-1.042t.647-1.042c.493-.791,1-1.586,1.5-2.391s.988-1.619,1.443-2.45a26.923,26.923,0,0,0,1.24-2.545,17.779,17.779,0,0,0,.891-2.676,4.755,4.755,0,0,0,.122-1.456,4.7,4.7,0,0,0-.318-1.4,4.466,4.466,0,0,0-.732-1.229A4.276,4.276,0,0,0,19.786.58a4.116,4.116,0,0,0-2.8-.522A5.065,5.065,0,0,0,15.634.49a6.478,6.478,0,0,0-1.247.786A16.369,16.369,0,0,0,12.463,3.1a25.7,25.7,0,0,0-1.684,2.091c-.53.727-1.034,1.476-1.525,2.226s-.97,1.5-1.451,2.235c-.43.656-.865,1.31-1.3,1.966s-.861,1.315-1.279,1.98S4.4,14.938,4.009,15.619s-.765,1.371-1.114,2.075a30.514,30.514,0,0,0-1.853,4.593A23.436,23.436,0,0,0,.088,27a19.4,19.4,0,0,0,.13,4.764,18.661,18.661,0,0,0,1.4,4.75,14.541,14.541,0,0,0,2.6,3.977,13.911,13.911,0,0,0,7.91,4.285,14.8,14.8,0,0,0,4.733.033,14.415,14.415,0,0,0,4.376-1.426A17.11,17.11,0,0,0,25,40.746a20.148,20.148,0,0,0,3.025-3.508,21.163,21.163,0,0,0,2.157-4.043,17.567,17.567,0,0,0,.857-2.836,20.93,20.93,0,0,0,.41-2.955,24.643,24.643,0,0,0,.019-2.991,27.835,27.835,0,0,0-.317-2.945q-.1-.65-.237-1.294t-.287-1.282q-.155-.639-.33-1.273t-.365-1.265" transform="translate(172.778 128.141)" fill="#161616"/><path d="M163.036,1.8A199.869,199.869,0,0,1,154,24.712a165.325,165.325,0,0,1-12.218,21.742A130.244,130.244,0,0,1,126.16,65.69a104.154,104.154,0,0,1-19.238,15.4,107.53,107.53,0,0,1-11.581,6.188,122.992,122.992,0,0,1-12.281,4.85c-4.182,1.4-8.439,2.595-12.728,3.591s-8.61,1.8-12.922,2.411c-4.491.64-9,1.066-13.517,1.37s-9.045.483-13.575.631-9.062.261-13.589.433-9.049.4-13.558.776A3.231,3.231,0,0,0,1.1,102.351a4.027,4.027,0,0,0-1.036,2.012,2.953,2.953,0,0,0,.3,2.073,2.622,2.622,0,0,0,1.949,1.2Q9.628,108.766,17,109.389t14.757.768q7.389.145,14.781-.171t14.753-1.062c4.686-.476,9.359-1.124,13.977-2a124.725,124.725,0,0,0,13.651-3.357,99.566,99.566,0,0,0,13.08-5.043,85.121,85.121,0,0,0,12.265-7.058,102.935,102.935,0,0,0,19.589-17.822,129.351,129.351,0,0,0,14.723-21.494,192.5,192.5,0,0,0,11.006-23.91c3.176-8.233,5.925-16.659,8.436-25.069a2.34,2.34,0,0,0-.23-2.009A2.616,2.616,0,0,0,166.266.1a2.805,2.805,0,0,0-1.887.131A2.5,2.5,0,0,0,163.036,1.8" transform="translate(101.012 184.958)" fill="#373737"/><path d="M91.312,1.248q-3.63,6.907-7.665,13.5-4.052,6.58-8.612,12.767a149.242,149.242,0,0,1-9.763,11.876A132,132,0,0,1,54.154,50.218q-2.8,2.422-5.757,4.675T42.368,59.23q-3.075,2.083-6.261,4t-6.456,3.655q-1.616.862-3.26,1.659t-3.31,1.546q-1.666.748-3.351,1.454t-3.385,1.384c-1.167.466-2.373.9-3.591,1.323s-2.448.85-3.664,1.3-2.417.93-3.578,1.47a26.1,26.1,0,0,0-3.334,1.83A4.719,4.719,0,0,0,.491,80.92a5.849,5.849,0,0,0-.479,2.695A4.368,4.368,0,0,0,.9,86.063a3.66,3.66,0,0,0,2.4,1.331,28.138,28.138,0,0,0,7.932-.011,44.042,44.042,0,0,0,7.978-1.908,72.991,72.991,0,0,0,7.706-3.1c2.488-1.157,4.878-2.4,7.117-3.6q3.681-1.984,7.177-4.258t6.807-4.8q3.311-2.528,6.439-5.292t6.074-5.727a140.777,140.777,0,0,0,10.927-12.4A162.042,162.042,0,0,0,81,32.71c2.957-4.69,5.691-9.524,8.208-14.449s4.817-9.939,6.906-14.99a2.061,2.061,0,0,0-.08-1.845A2.8,2.8,0,0,0,94.653.248,3.023,3.023,0,0,0,92.8.075a2.243,2.243,0,0,0-1.488,1.173" transform="translate(158.415 258.041)" fill="#373737"/><path d="M3.723,39.268a11.008,11.008,0,0,0,1.4-.56A11.27,11.27,0,0,0,6.373,38a14.191,14.191,0,0,0,1.167-.853c.381-.307.757-.638,1.137-.99q.46-.428.9-.872t.878-.9q.432-.457.853-.926t.831-.943q.877-1.009,1.721-2.057T15.5,28.322q.794-1.087,1.528-2.212t1.39-2.291q1.291-2.292,2.378-4.693t1.953-4.885q.867-2.484,1.507-5.039T25.3,4.048A4.424,4.424,0,0,0,25.31,2.78a3.6,3.6,0,0,0-.358-1.16,2.954,2.954,0,0,0-.745-.932A3.055,3.055,0,0,0,23.061.1,3.115,3.115,0,0,0,21.825.03a3.565,3.565,0,0,0-1.2.39,3.176,3.176,0,0,0-.97.792,2.587,2.587,0,0,0-.536,1.133q-.466,2.339-1.127,4.613T16.47,11.431q-.858,2.2-1.913,4.32T12.246,19.9q-.6.971-1.222,1.926t-1.28,1.888q-.657.932-1.352,1.836T6.956,27.325c-.542.633-1.125,1.239-1.721,1.838s-1.2,1.191-1.794,1.794-1.162,1.22-1.687,1.868a13.767,13.767,0,0,0-1.4,2.059,2.941,2.941,0,0,0-.338,1.722,3.338,3.338,0,0,0,.611,1.6,2.925,2.925,0,0,0,1.317,1.036,2.628,2.628,0,0,0,1.779.025" transform="translate(221.307 312.415)" fill="#373737"/><path d="M212.513,211.079q1.8-3.758,3.353-7.629t2.859-7.822q1.3-3.952,2.353-7.97t1.833-8.071q1.244-6.426,1.887-12.913t.756-13q.113-6.509-.269-13.022T224.1,127.664l-.321.22-.313.217-.305.213-.3.211c-.174,2.5-.294,5.08-.422,7.685s-.265,5.237-.473,7.855-.487,5.219-.9,7.763a53.809,53.809,0,0,1-1.7,7.409,3.879,3.879,0,0,1-.829,1.451,4.51,4.51,0,0,1-1.308.993,5.1,5.1,0,0,1-1.569.5,4.749,4.749,0,0,1-1.612-.034,136.88,136.88,0,0,1-1.792,14.285,126.836,126.836,0,0,1-3.333,13.982,117.028,117.028,0,0,1-4.952,13.481,108.812,108.812,0,0,1-6.65,12.781c-1.481,2.436-3.073,4.839-4.774,7.178s-3.511,4.613-5.428,6.79a81.37,81.37,0,0,1-6.069,6.21,69.783,69.783,0,0,1-6.7,5.436,50.917,50.917,0,0,1-8.156,4.73,55.547,55.547,0,0,1-8.6,3.125,70.536,70.536,0,0,1-9,1.828c-3.066.428-6.2.691-9.384.84-5.682.268-11.416.31-17.131.037a133.846,133.846,0,0,1-17.016-1.86,103.219,103.219,0,0,1-16.477-4.3A85.408,85.408,0,0,1,73.07,239.4,89.618,89.618,0,0,1,59.9,229.676a115.269,115.269,0,0,1-11.391-11.7,163.8,163.8,0,0,1-9.946-13.049c-3.112-4.505-6.039-9.131-8.839-13.775-1.485-2.461-3.063-4.962-4.642-7.5s-3.157-5.121-4.644-7.744-2.881-5.287-4.09-8a55.31,55.31,0,0,1-2.98-8.256,46.406,46.406,0,0,1-1.453-9.486,66.134,66.134,0,0,1,.241-9.693c.3-3.24.8-6.474,1.4-9.665s1.3-6.338,2.019-9.4a133.833,133.833,0,0,1,5.046-16.667,132.059,132.059,0,0,1,7.045-15.591,138.11,138.11,0,0,1,8.974-14.581A152.213,152.213,0,0,1,47.467,60.935l.222-.239q-1.383.013-2.769.048t-2.776.1q-1.39.063-2.785.156t-2.8.221a2.3,2.3,0,0,1-1.911-.689A3.239,3.239,0,0,1,33.8,58.7a3.162,3.162,0,0,1,.341-1.971A2.2,2.2,0,0,1,35.8,55.622q2.236-.323,4.472-.569t4.472-.423q2.236-.176,4.472-.286t4.472-.159A226.66,226.66,0,0,1,77.636,32.206a132.858,132.858,0,0,1,28.007-17.291c9.766-4.291,19.837-6.765,29.844-6.384a51.462,51.462,0,0,1,29.452,10.742,5,5,0,0,0,.1.833,4.773,4.773,0,0,0,.252.841,5.013,5.013,0,0,0,.435.838,5.834,5.834,0,0,0,.644.823,134.842,134.842,0,0,1,10.81,13.243,155.319,155.319,0,0,1,9.1,14.322c2.778,4.93,5.313,10,7.646,15.184s4.465,10.469,6.436,15.827q1.379,3.75,2.652,7.539t2.43,7.615q1.157,3.825,2.191,7.684t1.934,7.748q.327.374.642.756t.618.769q.3.388.6.782t.574.794q.16-3.739.327-7.479t.328-7.481q.162-3.741.314-7.482t.285-7.482q.017-.477.032-.955t.03-.958q.015-.479.03-.959t.032-.959c-2.008-6.146-4.24-12.288-6.775-18.3a163.632,163.632,0,0,0-8.586-17.542A120.222,120.222,0,0,0,187.15,29.229a95.321,95.321,0,0,0-13.608-13.8,5.906,5.906,0,0,0-1.011-.675,5.229,5.229,0,0,0-1.034-.41,5.079,5.079,0,0,0-1.035-.174,5.3,5.3,0,0,0-1.014.034A58.669,58.669,0,0,0,140.424.75c-10.109-1.593-20.5-.565-30.729,2.274A122.652,122.652,0,0,0,79.953,16.16,178.91,178.91,0,0,0,53.892,35.3,189.105,189.105,0,0,0,27.524,63.843,154.213,154.213,0,0,0,7.777,98.421C2.892,110.622,0,123.331,0,136.052a77.848,77.848,0,0,0,9.545,37.7c2.9,5.323,5.926,10.718,9.12,16.077s6.554,10.68,10.109,15.855,7.306,10.206,11.285,14.981a146.405,146.405,0,0,0,12.648,13.454,95.882,95.882,0,0,0,14.26,10.967,104.512,104.512,0,0,0,15.788,8.137,119.831,119.831,0,0,0,16.936,5.542,140.138,140.138,0,0,0,17.7,3.181A147.657,147.657,0,0,0,136.778,263a97.326,97.326,0,0,0,18.68-2.016,72.979,72.979,0,0,0,17.524-6.057,67.936,67.936,0,0,0,15.918-11.07q2.148-2,4.157-4.124t3.887-4.367q1.879-2.239,3.632-4.581t3.391-4.766q.374-1.9.747-3.805t.751-3.8q.378-1.9.766-3.8t.792-3.8a2.528,2.528,0,0,1,1.058-1.654,2.609,2.609,0,0,1,1.717-.379,3.31,3.31,0,0,1,1.7.7,2.84,2.84,0,0,1,1.013,1.591" transform="translate(400.468 31.016)" fill="#161616"/><path d="M102.393,29.393q5.524,2.525,11.008,5.168t10.925,5.381q5.441,2.737,10.837,5.556t10.745,5.694q2.358,1.27,4.664,2.606t4.539,2.78q2.232,1.444,4.38,3.017t4.187,3.318a45.905,45.905,0,0,1,3.7,3.555c1.148,1.231,2.222,2.5,3.252,3.815s2.017,2.658,2.992,4.035,1.935,2.785,2.915,4.216c.05.073.1.141.156.205s.109.126.166.184.115.115.173.171.118.109.178.164q.1-1.415.206-2.822t.2-2.8q.093-1.394.172-2.773t.132-2.739q.036-.926.075-1.85t.078-1.849q.04-.925.08-1.849t.081-1.85q-.284-.4-.577-.794t-.595-.782q-.3-.388-.616-.769t-.641-.756a48.791,48.791,0,0,0-3.723-3.805c-1.312-1.208-2.686-2.357-4.087-3.445s-2.832-2.116-4.258-3.084-2.849-1.875-4.236-2.721q-5.924-3.611-12.092-6.9t-12.473-6.336q-6.306-3.047-12.7-5.892t-12.759-5.569c-7.062-3.019-14.266-5.811-21.581-8.29S73.152,6.937,65.647,5.169a199.005,199.005,0,0,0-22.721-4.02A167.362,167.362,0,0,0,19.918.039Q17.684.088,15.449.2T10.978.484Q8.743.66,6.507.907t-4.472.569A2.2,2.2,0,0,0,.373,2.582,3.162,3.162,0,0,0,.032,4.553a3.239,3.239,0,0,0,.85,1.832,2.3,2.3,0,0,0,1.911.689q1.4-.128,2.8-.221T8.375,6.7q1.39-.063,2.774-.1t2.766-.048A147.176,147.176,0,0,1,36.863,8.187,180.709,180.709,0,0,1,59.2,13.024c7.353,2.065,14.618,4.543,21.813,7.311s14.317,5.828,21.383,9.058" transform="translate(434.242 85.162)" fill="#161616"/><path d="M16.436,3.421a4.673,4.673,0,0,0-.236-.856,4.354,4.354,0,0,0-.4-.79,3.929,3.929,0,0,0-.552-.685,3.6,3.6,0,0,0-.7-.542A3.929,3.929,0,0,0,13.011.025a3.845,3.845,0,0,0-1.519.131,4.347,4.347,0,0,0-1.376.69A4.887,4.887,0,0,0,9.007,2Q7.953,3.532,7.017,5.136T5.262,8.407q-.819,1.666-1.52,3.387T2.457,15.278q-.274.829-.518,1.669t-.458,1.688q-.214.848-.4,1.7T.752,22.057c-.1.607-.211,1.224-.31,1.846s-.19,1.25-.264,1.879S.049,27.042.02,27.67a17.842,17.842,0,0,0,.008,1.872,15.7,15.7,0,0,0,.261,2.1A12.435,12.435,0,0,0,.86,33.667a10.1,10.1,0,0,0,.933,1.867,8.809,8.809,0,0,0,3.133,2.96,9.329,9.329,0,0,0,2.065.857,8.8,8.8,0,0,0,2.2.328A7.817,7.817,0,0,0,11.4,39.41a7.142,7.142,0,0,0,3.654-2.3A10.522,10.522,0,0,0,17,33.35a25.829,25.829,0,0,0,.873-4.425c.183-1.495.294-2.965.437-4.274q.122-1.11.213-2.22t.157-2.223q.066-1.112.109-2.226t.069-2.23c.019-.842.032-1.691.026-2.542s-.031-1.7-.089-2.552-.15-1.695-.29-2.532a19.355,19.355,0,0,0-.577-2.481,4.32,4.32,0,0,0-.247-.622,4.767,4.767,0,0,0-.339-.584,5.151,5.151,0,0,0-.42-.537,5.384,5.384,0,0,0-.488-.48M7.417,31.281l.006-.006-.038.114-.016.049.009-.031.039-.127m2.172-.941.011.011a.052.052,0,0,1,0,.015.029.029,0,0,1,0,.008.031.031,0,0,0,0,.011.153.153,0,0,0,.007.024l-.023-.068" transform="translate(476.935 127.815)" fill="#161616"/><path d="M132.736,112.058a3.274,3.274,0,0,0,1.729-1.121,3.735,3.735,0,0,0,.494-3.781,3.275,3.275,0,0,0-1.385-1.528,30.524,30.524,0,0,0-4.649-2.14c-1.6-.588-3.236-1.07-4.894-1.5s-3.336-.806-5.014-1.184-3.354-.76-5.008-1.2q-2.593-.682-5.168-1.44t-5.124-1.6q-2.549-.842-5.067-1.77t-5-1.95q-4.887-2.014-9.66-4.385T74.6,83.417q-4.619-2.672-9.064-5.617t-8.678-6.1A151.193,151.193,0,0,1,40.189,57.262,147.455,147.455,0,0,1,25.938,40.678,145.194,145.194,0,0,1,14.324,22.162,144.861,144.861,0,0,1,5.566,1.934,2.759,2.759,0,0,0,4.068.252,3.133,3.133,0,0,0,2,.113,2.791,2.791,0,0,0,.359,1.258a2.469,2.469,0,0,0-.2,2.169A160.428,160.428,0,0,0,8.785,24.5,168.688,168.688,0,0,0,20.291,44.264,171.681,171.681,0,0,0,34.344,62.317,168.485,168.485,0,0,0,50.615,78.263q4.4,3.763,9.042,7.174t9.5,6.463q4.866,3.051,9.958,5.737t10.4,5c3.081,1.34,6.474,2.825,10.042,4.242a115.135,115.135,0,0,0,11.094,3.837,59.251,59.251,0,0,0,11.329,2.153,31.92,31.92,0,0,0,10.748-.808" transform="translate(414.252 227.123)" fill="#373737"/><path d="M49.729,73.941a19.8,19.8,0,0,0-1.613-2c-.574-.631-1.181-1.229-1.805-1.81s-1.266-1.146-1.912-1.71-1.295-1.126-1.933-1.7-1.287-1.183-1.916-1.79S39.3,63.7,38.692,63.07s-1.209-1.265-1.8-1.911-1.168-1.3-1.737-1.966q-1.734-2.022-3.328-4.152T28.749,50.7q-1.486-2.207-2.879-4.476t-2.725-4.572c-1.821-3.151-3.519-6.362-5.119-9.619s-3.1-6.559-4.538-9.892-2.8-6.7-4.124-10.081S6.758,5.284,5.49,1.882A2.794,2.794,0,0,0,3.98.248,3.133,3.133,0,0,0,1.94.107a2.684,2.684,0,0,0-1.6,1.114A2.428,2.428,0,0,0,.16,3.352c1.2,3.616,2.412,7.238,3.659,10.85S6.35,21.416,7.7,24.99s2.775,7.12,4.3,10.621,3.144,6.957,4.9,10.35q1.274,2.467,2.683,4.86t2.941,4.707q1.532,2.314,3.183,4.547t3.41,4.379c1.092,1.335,2.267,2.77,3.524,4.2s2.594,2.861,4.009,4.185A32.221,32.221,0,0,0,41.126,76.4a18.819,18.819,0,0,0,4.931,2.319,2.965,2.965,0,0,0,1.9-.1,3.681,3.681,0,0,0,1.528-1.12,3.288,3.288,0,0,0,.734-1.706,2.7,2.7,0,0,0-.487-1.854" transform="translate(415.542 258.291)" fill="#373737"/><path d="M11.319,17.821q.8.62,1.632,1.2t1.682,1.125q.854.541,1.735,1.038t1.792.944c.386.188.765.369,1.144.534s.757.315,1.143.44a8.235,8.235,0,0,0,1.182.3,7,7,0,0,0,1.263.1c.322,0,.645,0,.968.02s.647.038.971.062.648.049.972.07.648.037.971.042a1.922,1.922,0,0,0,1.29-.455,2.212,2.212,0,0,0,.691-1.105,2.19,2.19,0,0,0-.035-1.3,1.9,1.9,0,0,0-.887-1.039c-.218-.123-.463-.26-.716-.4s-.514-.3-.764-.447-.49-.3-.7-.445a5.18,5.18,0,0,1-.527-.4c-.143-.125-.28-.253-.418-.378s-.274-.25-.415-.369-.285-.234-.438-.34a3.955,3.955,0,0,0-.485-.292c-.145-.073-.292-.143-.44-.211s-.3-.135-.445-.2l-.446-.2c-.148-.068-.3-.136-.443-.208q-.4-.2-.791-.406t-.782-.423q-.389-.216-.772-.44t-.762-.457c-.231-.144-.487-.309-.75-.483s-.534-.356-.795-.535-.512-.354-.735-.514-.419-.3-.57-.418a33.008,33.008,0,0,1-2.648-2.255,33.546,33.546,0,0,1-2.39-2.51A34.537,34.537,0,0,1,8.475,4.711q-1-1.43-1.859-2.966A3.282,3.282,0,0,0,5.688.7,3.639,3.639,0,0,0,4.441.118,3.743,3.743,0,0,0,3.063.027,3.422,3.422,0,0,0,.7,1.408,3.6,3.6,0,0,0,.115,2.643,3.693,3.693,0,0,0,.027,4.009,3.614,3.614,0,0,0,.464,5.341,40.043,40.043,0,0,0,2.693,8.865a40.888,40.888,0,0,0,2.57,3.265Q6.629,13.7,8.148,15.121t3.171,2.7" transform="translate(450.344 343.155)" fill="#373737"/><path d="M39.966,73.758a5.3,5.3,0,0,0,1.51-.467,4.658,4.658,0,0,0,1.23-.864,4.43,4.43,0,0,0,.875-1.213,4.767,4.767,0,0,0,.445-1.515,5.551,5.551,0,0,0-.16-2.24,6.465,6.465,0,0,0-.918-1.9,11.609,11.609,0,0,0-1.411-1.648c-.523-.518-1.084-1.009-1.638-1.489a55.242,55.242,0,0,1-5.4-5.4A69.857,69.857,0,0,1,29.8,50.991c-1.46-2.094-2.824-4.261-4.111-6.469s-2.5-4.456-3.654-6.714c-1.535-3-3.009-6.031-4.448-9.073s-2.842-6.1-4.236-9.16-2.778-6.126-4.178-9.185S6.358,4.278,4.9,1.243A2.1,2.1,0,0,0,3.476.075a2.979,2.979,0,0,0-1.831.17A2.812,2.812,0,0,0,.261,1.411,2,2,0,0,0,.18,3.232c1.162,2.761,2.2,5.554,3.172,8.368s1.863,5.649,2.731,8.493,1.708,5.7,2.567,8.548,1.738,5.7,2.681,8.534q1.261,3.782,2.864,7.443t3.54,7.149q1.937,3.488,4.206,6.775A77.87,77.87,0,0,0,26.8,64.865c.77.9,1.646,1.956,2.61,3.023a31.962,31.962,0,0,0,3.138,3.081,14.044,14.044,0,0,0,3.555,2.252,7.13,7.13,0,0,0,3.861.537" transform="translate(11.358 213.648)" fill="#373737"/><path d="M23.989,47.048a2.366,2.366,0,0,0,1.846.484,2.734,2.734,0,0,0,1.535-.9,3.538,3.538,0,0,0,.835-1.683,2.827,2.827,0,0,0-.254-1.863c-.46-.871-.963-1.706-1.494-2.519s-1.09-1.6-1.661-2.388-1.156-1.558-1.738-2.339-1.162-1.566-1.725-2.372-1.112-1.611-1.656-2.425-1.078-1.635-1.6-2.462-1.039-1.66-1.542-2.5-1-1.685-1.476-2.538q-1.437-2.55-2.729-5.172t-2.44-5.306Q8.738,10.381,7.734,7.637T5.871,2.1A2.857,2.857,0,0,0,4.358.276,3.147,3.147,0,0,0,2.2.119,3.08,3.08,0,0,0,.443,1.349a2.817,2.817,0,0,0-.33,2.339Q.9,6.721,1.865,9.7t2.089,5.9q1.128,2.92,2.42,5.774T9.121,27.01c.938,1.79,1.924,3.634,2.978,5.47s2.177,3.661,3.389,5.416a47.243,47.243,0,0,0,3.922,4.983,31.436,31.436,0,0,0,4.578,4.171" transform="translate(0 262.01)" fill="#373737"/></g></g></g></svg>