<svg xmlns="http://www.w3.org/2000/svg" xmlns:xlink="http://www.w3.org/1999/xlink" width="532" height="517" viewBox="0 0 532 517"><defs><clipPath id="a"><rect width="532" height="517" transform="translate(9459 -2085)" fill="#fff" stroke="#707070" stroke-width="1"/></clipPath><clipPath id="b"><rect width="475.718" height="472.834" fill="none"/></clipPath></defs><g transform="translate(-9459 2085)" clip-path="url(#a)"><g transform="translate(9465 -2084.727)"><path d="M119.189,20.633c6.924,2.466,14.525,3.065,21.771,4.086l22.486,3.164c7.309,1.03,14.593,1.844,21.949,2.426a55.153,55.153,0,0,0,5.744.431c1.927-.053,3.771-.233,5.729-.146a89.484,89.484,0,0,0,11.469.165c1.125-.093.863-3.644-.1-3.963a100.354,100.354,0,0,0-11.533-2.718c-3.551-.732-6.89-1.8-10.482-2.417-7.483-1.284-14.942-2.371-22.488-3.2l-21.949-2.411c-7.328-.806-15.081-2.3-22.446-1.506-1.567.169-1.459,5.626-.154,6.091" transform="translate(131.771 15.962)"/><path d="M106.229,6.639c.977.027,1.421,2.058,2.318,2.521,1.117.573,2.654.275,3.872.271,3.067-.008,6.127,0,9.191-.044q9.454-.133,18.9.419c3.058.176,6.108.121,9.168.256,2.978.133,6.195.7,9.136.4,6.176-.613,12.44,1.3,18.622.694.66-.066.563-2.278.061-2.517-5.748-2.732-12.474-3.215-18.527-4.962A53.818,53.818,0,0,0,150.5,2.293c-3.219-.383-6.45-.876-9.691-.986q-9.184-.3-18.374.074c-3.251.131-6.459.4-9.686.8a17.419,17.419,0,0,0-3.87.6c-1.377.529-1.466,2.952-2.669,3.2-.165.034-.152.656.017.66" transform="translate(118.286 1.309)"/><path d="M195.74,266.869c7.125-1.758,13.834,3.517,21.033,2.65,6.222-.749,11.3-4.822,15.187-9.492,4.13-4.968,6.744-10.847,9.49-16.638,3.128-6.59,6.4-13.43,10.52-19.44.231-.334.383-2.925-.345-2.686a13.6,13.6,0,0,0-6.328,3.845,33.175,33.175,0,0,0-4.883,7.654c-2.929,6.053-5.256,12.434-9.153,17.964-3.655,5.179-8.9,10.029-15.445,10.807-7.03.837-13.717-3.323-20.481.152-1.115.571-.859,5.495.406,5.184" transform="translate(216.993 246.672)"/><path d="M230.57,217.357a22.579,22.579,0,0,0-.467-7.967q.263,2.021.529,4.046c-.03-.544-.059-1.085-.091-1.629a20.545,20.545,0,0,0-.516-4.145c-.307-1.159-.81-2.857-1.963-3.5l1.011,1.421a5.948,5.948,0,0,0-.708-1.546c-.271-.385-.749-.683-1.195-.364a2.724,2.724,0,0,0-.755,1.019c.167-.188.334-.374.5-.563l-.33.127a4.283,4.283,0,0,0-1.265,1.984,13.245,13.245,0,0,0-.681,3.367c-.072.613-.144,1.229-.218,1.842q.362-1.783.719-3.566c-.981,2.326-.924,4.964-.876,7.449a14.317,14.317,0,0,0,.351,3.149,10.485,10.485,0,0,0,.723,2.62c.419.892.884,1.891,1.882,2.21a.689.689,0,0,0,.848-.021,1.631,1.631,0,0,0,1.159-1,11.206,11.206,0,0,0,1.343-4.932" transform="translate(250.01 226.927)"/><g transform="translate(5 7.535)"><g clip-path="url(#b)"><path d="M439.387,472.734a8.4,8.4,0,0,1-1.776.083l-63.714-4.66a5.131,5.131,0,0,1-3.429-1.432,3.966,3.966,0,0,1-1.151-2.8,4.062,4.062,0,0,1,1.272-2.915,4.947,4.947,0,0,1,.757-.654l.487-.41L71.742,437.993l.992,1.177a4.034,4.034,0,0,1,.543,4.493c-1.579,3.094-6.472,3-6.52,2.992L4.576,442.108a4.979,4.979,0,0,1-3.594-1.516,3.908,3.908,0,0,1-.971-2.881l4.66-63.718c.138-1.867,1.581-4.023,5.2-4.551l.071-.01a6,6,0,0,1,4.088.506L35.991,69.719c-1.236.861-5.138,2.324-7.6,1.07a4.081,4.081,0,0,1-2.222-3.939L30.72,4.671C30.995.934,35.128-.166,37.669.018L101.385,4.68a5.123,5.123,0,0,1,3.427,1.428,3.97,3.97,0,0,1,1.155,2.8,4.063,4.063,0,0,1-1.272,2.918,4.975,4.975,0,0,1-.755.654L102.5,13.7l301.28,22.037-1.64-1.945a4.116,4.116,0,0,1-.558-4.585c1.666-3.264,7.09-3.2,7.142-3.2L470.9,30.552a5.322,5.322,0,0,1,3.823,1.572,3.955,3.955,0,0,1,.983,2.92L471.047,98.76c-.069.958-.662,4.076-5.726,4.81a8.272,8.272,0,0,1-2.5.1l-21.843,298.61c1.73-.654,4.179-1.118,5.909-.234a4.079,4.079,0,0,1,2.222,3.936l-4.549,62.181c-.055.755-.5,3.3-3.9,4.3a9.512,9.512,0,0,1-1.273.273m-57.708-11.421,55.675,4.073,3.975-54.334-2.247,1.893a3.7,3.7,0,0,1-6.068-3.1L455.968,96.042a3.7,3.7,0,0,1,6.514-2.111l1.385,1.645L468.1,37.76l-56.424-4.127,3.411,4.047a3.7,3.7,0,0,1-3.1,6.068L92.9,20.407a3.7,3.7,0,0,1-2.111-6.514L93.6,11.523,37.929,7.45,33.955,61.783l3.98-3.353A3.7,3.7,0,0,1,44,61.526L20.772,379.12a3.7,3.7,0,0,1-6.514,2.125l-2.49-2.954L7.627,434.919l55.264,4.042-2.454-2.912a3.7,3.7,0,0,1,3.1-6.069l317.894,23.253a3.7,3.7,0,0,1,2.113,6.513Zm-6.119,5.113,0,0,0,0M8.919,374.389l0,.011,0-.011M99.713,6.418l0,0,0,0" transform="translate(0 0)" fill="#141414"/><path d="M435.911,42.879,68.021,18.141l-19.9,32.614L20.455,410.649l30.1,20.754,359.017,31.044,26.594-32.189,27.7-355.478Z" transform="translate(-3.93 -3.486)" fill="#fff"/><rect width="327.404" height="327.459" transform="translate(62.12 387.033) rotate(-85.816)" fill="#dbdbdb"/><path d="M152.645,25.643l54.486,3.985,59.47,4.35L327.039,38.4l55.969,4.094,47.466,3.472,5.332.39q-.977-1.16-1.953-2.317L397.723,41.4,343.236,37.41l-59.47-4.35-60.438-4.421L167.36,24.545l-47.466-3.472-5.125-.375-2.374,2,40.25,2.944" transform="translate(-21.597 -3.977)" fill="#161616"/><path d="M557.725,112.541l-2.942,40.224q-1.992,27.243-3.985,54.486l-4.35,59.47-4.421,60.438q-2.048,27.985-4.094,55.969-1.736,23.733-3.472,47.466-.2,2.794-.409,5.589l5.266-4.438q1.357-18.549,2.714-37.1,1.992-27.243,3.985-54.486l4.35-59.47,4.421-60.438q2.048-27.985,4.094-55.969,1.7-23.174,3.39-46.347l-4.208-4.995-.339-.4" transform="translate(-102.618 -21.625)" fill="#161616"/><path d="M25.7,397.774q1.521-20.787,3.041-41.574,1.993-27.243,3.986-54.486l4.349-59.47q2.21-30.218,4.421-60.438l4.093-55.969q1.736-23.733,3.472-47.466.294-4.018.588-8.036L44.38,74.773q-1.446,19.773-2.892,39.545Q39.495,141.562,37.5,168.8q-2.175,29.735-4.349,59.469-2.211,30.219-4.421,60.438L24.638,344.68q-1.736,23.734-3.472,47.466l-.017.233,2.341,2.778,2.205,2.617" transform="translate(-4.064 -13.515)" fill="#161616"/><path d="M398.115,557.518l-37.743-2.76-54.486-3.986-59.469-4.349L185.978,542l-55.969-4.093-47.466-3.472-6.649-.486,1.953,2.317,37.449,2.739,54.486,3.985,59.469,4.35,60.438,4.421,55.968,4.094,47.467,3.472,2.617.191.427-.359,1.948-1.642" transform="translate(-14.583 -102.598)" fill="#161616"/><path d="M83.256,30.069,105.6,11.243,99.492,10.8,65.319,8.3,46.585,6.927q-.228,3.12-.456,6.24Q44.9,29.909,43.679,46.651q-.653,8.933-1.307,17.866l4.193-3.533L83.256,30.069" transform="translate(-8.142 -1.331)" fill="#b2b2b2"/><path d="M64.109,48.073,97.9,19.6l2.373-2,.528-.444,8-6.744a1.372,1.372,0,0,0,.349-.295c.287-.242.259-.424.1-.559-.178-.223-.681-.287-1.037-.313L86.6,7.664l-34.174-2.5L44.5,4.586c-.727-.053-2.92.225-2.993,1.235q-.769,10.5-1.537,21.008-1.224,16.743-2.449,33.485-.281,3.843-.561,7.686c-.082,1.125,3.552-.044,3.93-.363l6.527-5.5L52.684,57.7l11.425-9.627M41.332,64.067q.653-8.933,1.307-17.866,1.224-16.742,2.449-33.485.228-3.12.456-6.24l18.733,1.37,34.174,2.5,6.106.447L82.216,29.618,45.525,60.534l-4.193,3.533" transform="translate(-7.102 -0.88)" fill="#161616"/><path d="M490.036,541.537l-22.342,18.825,6.107.446,34.173,2.5,18.734,1.37q.228-3.12.456-6.24,1.225-16.743,2.449-33.485.653-8.932,1.307-17.866l-4.194,3.533-36.691,30.916" transform="translate(-89.868 -97.437)" fill="#b2b2b2"/><path d="M530.216,502.468l-4.794,4.039-5.266,4.438L507,522.032l-34.744,29.275-1.948,1.642-.427.359-7.578,6.384a1.371,1.371,0,0,0-.349.295c-.287.242-.259.424-.1.559.178.223.68.287,1.037.313l21.622,1.582,34.174,2.5,7.919.579c.728.053,2.92-.225,2.994-1.235q.77-10.5,1.537-21.008,1.224-16.743,2.449-33.485.281-3.843.561-7.686c.082-1.125-3.552.044-3.93.363m-.441,3.571q-.653,8.933-1.307,17.866-1.224,16.743-2.449,33.485l-.456,6.24-18.734-1.37-34.174-2.5-6.106-.446,22.341-18.825,36.692-30.916,4.193-3.533" transform="translate(-88.722 -96.388)" fill="#161616"/><path d="M545.532,82.688l15.157,17.988q.055-.755.11-1.51,1.251-17.087,2.5-34.174.774-10.595,1.549-21.188l-6.266-.459L525.1,40.9l-15.751-1.152L514.616,46l30.916,36.692" transform="translate(-97.871 -7.637)" fill="#b2b2b2"/><path d="M520.818,61.688,551.4,97.977l.339.4,4.209,4.995q1.358,1.613,2.718,3.225a.44.44,0,0,0,.266.258,3.157,3.157,0,0,0,2.1.124c1.263-.163,2.564-.647,2.621-1.427q.79-10.811,1.582-21.622,1.249-17.086,2.5-34.173l.579-7.92c.036-.5-1.151-.519-1.389-.537l-21.009-1.537-33.485-2.449-7.687-.562c-.585-.043-4.4.629-3.487,1.716l7.292,8.654,1.953,2.317,10.32,12.249m-7.784-16.266-5.269-6.253,15.751,1.152L557,42.77l6.266.458q-.776,10.595-1.55,21.189-1.249,17.087-2.5,34.174-.054.755-.111,1.51L543.95,82.113,513.034,45.422" transform="translate(-96.289 -7.062)" fill="#161616"/><path d="M29.9,487.757l-15.922-18.9-.191,2.622q-1.249,17.086-2.5,34.174L9.735,526.92l6.513.477,33.485,2.449L66.4,531.065l-5.576-6.618L29.9,487.757" transform="translate(-1.871 -90.092)" fill="#b2b2b2"/><path d="M51.221,507.051,22.51,472.976l-2.2-2.617-2.342-2.779-4.6-5.464a.363.363,0,0,0-.22-.212,2.607,2.607,0,0,0-1.736-.1c-1.044.135-2.12.535-2.167,1.179q-.79,10.811-1.581,21.622-1.251,17.087-2.5,34.174l-.579,7.92c-.03.411.952.429,1.148.443l21.008,1.536,33.485,2.449,7.686.562c.484.036,3.64-.519,2.882-1.418l-6.644-7.885-1.952-2.318L51.221,507.051m8.608,16.023,5.576,6.617-16.664-1.219-33.485-2.449-6.512-.477q.777-10.632,1.555-21.264,1.249-17.086,2.5-34.173.1-1.312.192-2.623l15.921,18.9,30.916,36.691" transform="translate(-0.879 -88.718)" fill="#161616"/><path d="M429.658,100.909c.019-.268-.751-.334-.826-.339l-8.734-.64-23.554-1.722-34.92-2.554-42.6-3.117-46.5-3.4-47.258-3.457-43.763-3.2-37.116-2.714L117.7,77.811c-4.2-.308-8.406-.646-12.613-.923-.184-.012-.368-.027-.551-.04-.8-.059-4.1.122-4.186,1.3q-.32,4.367-.639,8.734-.862,11.776-1.722,23.554l-2.554,34.92q-1.558,21.3-3.117,42.6-1.7,23.253-3.4,46.5-1.729,23.628-3.457,47.258l-3.2,43.763L79.541,362.6q-.977,13.342-1.953,26.684c-.3,4.153-.959,8.444-.923,12.613,0,.183-.027.369-.04.552-.019.267.75.334.826.34l8.733.638,23.554,1.723L144.66,407.7l42.6,3.116,46.5,3.4,47.258,3.457,43.764,3.2,37.115,2.715,26.685,1.952c4.2.308,8.406.648,12.612.923.184.012.368.027.552.04a7.446,7.446,0,0,0,2.036-.154c1.1-.186,2.108-.563,2.151-1.145q.319-4.366.638-8.733l1.723-23.554L410.853,358q1.558-21.3,3.116-42.605,1.7-23.25,3.4-46.5,1.728-23.63,3.457-47.259,1.6-21.881,3.2-43.764,1.358-18.557,2.715-37.115.975-13.342,1.952-26.684c.3-4.153.959-8.444.923-12.613,0-.183.027-.369.04-.552m-56.834,321.6L337.9,419.951l-42.6-3.116-46.5-3.4-47.258-3.457-43.764-3.2-37.115-2.715-26.684-1.952c-4.084-.3-8.221-.814-12.318-.91l.618-8.445L84,369.2l2.554-34.921q1.557-21.3,3.116-42.6,1.7-23.25,3.4-46.5,1.728-23.627,3.457-47.258,1.6-21.882,3.2-43.764,1.357-18.557,2.715-37.115.975-13.343,1.952-26.685c.28-3.835.739-7.715.877-11.566l4.633.338,23.554,1.723,34.92,2.555q21.3,1.556,42.6,3.115l46.5,3.4,47.258,3.457,43.763,3.2,37.116,2.715,26.684,1.952c4.084.3,8.22.814,12.317.91l-.618,8.446q-.86,11.777-1.722,23.554l-2.554,34.921-3.117,42.6q-1.7,23.252-3.4,46.5-1.728,23.63-3.457,47.258l-3.2,43.764-2.714,37.115q-.975,13.342-1.952,26.685c-.279,3.806-.846,7.727-.911,11.564l-4.6-.336-23.554-1.723" transform="translate(-14.724 -14.764)" fill="#161616"/><path d="M65.267,77.392c-.539,14.109-1.312,28.2-2.167,42.288-.406,7.044-.9,14.083-1.346,21.124l-1.479,21.115-1.606,21.106c-.581,7.032-1.116,14.067-1.742,21.1-1.2,14.061-2.49,28.116-4.013,42.153.536-14.109,1.308-28.2,2.163-42.288.4-7.044.9-14.083,1.347-21.124l1.482-21.115,1.609-21.105c.579-7.032,1.118-14.067,1.742-21.1,1.2-14.061,2.49-28.116,4.009-42.153" transform="translate(-10.167 -14.871)" fill="#141414"/><path d="M46.711,316.573c-.11,8.246-.454,16.474-.881,24.7-.191,4.113-.467,8.219-.7,12.329l-.835,12.319-.963,12.31c-.367,4.1-.687,8.2-1.1,12.3-.775,8.2-1.633,16.388-2.726,24.561.107-8.246.45-16.474.877-24.7.191-4.113.469-8.219.7-12.329l.839-12.319.966-12.31c.364-4.1.689-8.2,1.1-12.3.775-8.2,1.632-16.387,2.722-24.561" transform="translate(-7.591 -60.83)" fill="#141414"/><path d="M38.285,459.782a15.68,15.68,0,0,1,.653,3.739c.065.62.044,1.234.063,1.85l-.069,1.84-.2,1.831c-.111.607-.177,1.217-.332,1.822a15.454,15.454,0,0,1-1.193,3.6,15.528,15.528,0,0,1-.656-3.739c-.065-.62-.041-1.234-.063-1.85l.072-1.84.2-1.831c.108-.607.178-1.217.331-1.822a15.679,15.679,0,0,1,1.19-3.6" transform="translate(-7.012 -88.347)" fill="#141414"/><path d="M73.5,525.53c18.087.83,36.156,1.894,54.22,3.04,9.033.551,18.06,1.187,27.09,1.783l27.081,1.915,27.072,2.042c9.02.726,18.044,1.407,27.061,2.178,18.038,1.494,36.07,3.072,54.085,4.886-18.087-.827-36.157-1.89-54.22-3.037-9.033-.55-18.059-1.189-27.09-1.783l-27.081-1.919-27.072-2.045c-9.02-.725-18.044-1.409-27.061-2.179-18.038-1.495-36.07-3.071-54.085-4.882" transform="translate(-14.123 -100.981)" fill="#141414"/><path d="M365.867,546.915c7.787.077,15.556.387,23.319.78,3.883.174,7.76.434,11.64.653l11.631.785,11.621.913c3.87.349,7.744.654,11.612,1.047,7.738.741,15.469,1.566,23.184,2.625-7.787-.073-15.556-.383-23.319-.776-3.883-.174-7.76-.436-11.64-.654l-11.631-.788-11.621-.915c-3.87-.348-7.744-.655-11.611-1.049-7.738-.741-15.47-1.564-23.184-2.621" transform="translate(-70.301 -105.09)" fill="#141414"/><path d="M548.815,105.164c-.624,15.283-1.483,30.548-2.424,45.807-.448,7.63-.982,15.255-1.475,22.884l-1.608,22.874-1.735,22.864c-.624,7.619-1.2,15.241-1.87,22.856-1.289,15.233-2.661,30.46-4.27,45.67.621-15.281,1.479-30.546,2.42-45.805.448-7.633.984-15.257,1.476-22.885l1.611-22.873,1.738-22.865c.622-7.618,1.2-15.24,1.871-22.855,1.289-15.234,2.661-30.462,4.266-45.672" transform="translate(-102.884 -20.207)" fill="#141414"/><path d="M529.589,355.707c-.14,8.654-.514,17.29-.97,25.92-.206,4.316-.5,8.627-.747,12.941l-.881,12.93-1.007,12.922c-.381,4.3-.717,8.611-1.143,12.912-.8,8.6-1.692,17.2-2.815,25.784.137-8.653.51-17.29.966-25.92.205-4.316.5-8.626.748-12.94l.884-12.93,1.011-12.922c.38-4.3.719-8.611,1.143-12.912.8-8.6,1.692-17.2,2.812-25.785" transform="translate(-100.307 -68.349)" fill="#141414"/><path d="M109.511,33.2c17.016.751,34.015,1.737,51.007,2.8,8.5.512,16.99,1.108,25.484,1.666l25.475,1.8,25.465,1.925c8.486.687,16.974,1.329,25.455,2.06,16.967,1.416,33.929,2.916,50.873,4.651-17.017-.749-34.015-1.733-51.008-2.8-8.5-.511-16.989-1.111-25.484-1.667l-25.474-1.8-25.465-1.928c-8.486-.685-16.974-1.331-25.455-2.061-16.967-1.416-33.929-2.915-50.873-4.647" transform="translate(-21.043 -6.38)" fill="#141414"/><path d="M381.6,50.819c6.716,0,13.414.23,20.106.544,3.349.135,6.69.355,10.035.536l10.025.667,10.015.795c3.335.311,6.673.576,10,.931,6.668.662,13.329,1.408,19.972,2.39-6.716,0-13.415-.226-20.107-.541-3.348-.134-6.69-.357-10.034-.536l-10.025-.671-10.015-.8c-3.336-.309-6.674-.578-10.006-.931-6.666-.663-13.327-1.408-19.971-2.387" transform="translate(-73.324 -9.765)" fill="#141414"/><path d="M511.665,101.953l20.771-19.12,2.895-2.665c.6-.553-.412-.9-.817-.945a3.052,3.052,0,0,0-2.289.726l-20.771,19.12-2.895,2.664c-.6.553.412.906.817.946a3.055,3.055,0,0,0,2.289-.726" transform="translate(-97.684 -15.22)" fill="#161616"/><path d="M79.753,47.333,99.109,69.2l2.713,3.065c.8.906,4.071-.13,3.21-1.1L85.676,49.3,82.963,46.23c-.8-.906-4.071.131-3.21,1.1" transform="translate(-15.297 -8.816)" fill="#161616"/><path d="M72.011,478.732l-22.066,18.2-3.155,2.6c-.546.451-.442.943.223,1.164a2.952,2.952,0,0,0,2.42-.462l22.066-18.2,3.155-2.6c.547-.451.443-.944-.222-1.164a2.949,2.949,0,0,0-2.42.462" transform="translate(-8.923 -91.882)" fill="#161616"/><path d="M479.142,508.966l17.937,20.94,2.578,3.01c.6.7,3.8-.3,3.24-.949l-17.937-20.94-2.578-3.01c-.6-.7-3.8.3-3.239.949" transform="translate(-92.055 -97.57)" fill="#161616"/><path d="M51.962,16.418a80.652,80.652,0,0,1,.288,8.722c0,1.451-.078,2.895-.12,4.342l-.25,4.332L51.5,38.136c-.172,1.437-.3,2.878-.514,4.312a79.861,79.861,0,0,1-1.558,8.587,79.46,79.46,0,0,1-.292-8.722c0-1.45.079-2.895.119-4.341l.254-4.332.382-4.323c.17-1.438.3-2.878.514-4.312a80.654,80.654,0,0,1,1.554-8.587" transform="translate(-9.44 -3.155)" fill="#141414"/><path d="M63.265,15.437a30.311,30.311,0,0,1,5.293-.539c.879-.045,1.751-.006,2.627-.006l2.617.125,2.608.254c.866.13,1.735.215,2.6.389a29.935,29.935,0,0,1,5.158,1.306,29.935,29.935,0,0,1-5.293.543c-.879.046-1.751,0-2.627.006l-2.617-.129-2.608-.257c-.866-.128-1.735-.216-2.6-.389a30.222,30.222,0,0,1-5.158-1.3" transform="translate(-12.156 -2.858)" fill="#141414"/><path d="M22.193,491.376a51.174,51.174,0,0,1,.419,6.926c.026,1.151-.034,2.3-.053,3.443l-.185,3.434L22.06,508.6c-.149,1.138-.254,2.28-.448,3.415a50.549,50.549,0,0,1-1.427,6.791,50.808,50.808,0,0,1-.423-6.926c-.026-1.151.036-2.3.054-3.444L20,505.006l.317-3.424c.148-1.138.255-2.28.448-3.415a51.165,51.165,0,0,1,1.423-6.791" transform="translate(-3.796 -94.418)" fill="#141414"/><path d="M29.281,535.552a9.586,9.586,0,0,1,2.844-.718c.47-.075.935-.065,1.4-.1l1.393.036,1.383.164c.458.1.919.154,1.373.3a9.5,9.5,0,0,1,2.709,1.128,9.479,9.479,0,0,1-2.844.722c-.471.076-.935.063-1.4.1l-1.393-.04-1.383-.166c-.458-.1-.919-.156-1.373-.3a9.56,9.56,0,0,1-2.709-1.124" transform="translate(-5.626 -102.75)" fill="#141414"/><path d="M485.347,568.225a86.76,86.76,0,0,1,9.049-.264c1.5,0,3,.086,4.5.131l4.5.263,4.486.39c1.491.176,2.987.306,4.475.526a85.681,85.681,0,0,1,8.914,1.582,85.9,85.9,0,0,1-9.049.267c-1.5,0-3-.088-4.505-.131l-4.495-.267-4.486-.393c-1.492-.174-2.987-.308-4.475-.527a86.513,86.513,0,0,1-8.914-1.578" transform="translate(-93.26 -109.131)" fill="#141414"/><path d="M535.876,537.883a23.539,23.539,0,0,1,.586,4.639c.053.77.022,1.534.031,2.3l-.1,2.29-.229,2.282c-.122.757-.2,1.517-.364,2.271a23.271,23.271,0,0,1-1.259,4.505,23.262,23.262,0,0,1-.59-4.64c-.055-.77-.02-1.533-.031-2.3l.1-2.291.233-2.281c.12-.757.2-1.518.365-2.272a23.523,23.523,0,0,1,1.255-4.5" transform="translate(-102.592 -103.354)" fill="#141414"/><path d="M527.535,46.971a37.882,37.882,0,0,1,5.946-.491c.988-.037,1.97.01,2.954.018l2.945.149,2.934.277c.975.137,1.953.23,2.925.412a37.511,37.511,0,0,1,5.811,1.355,37.515,37.515,0,0,1-5.947.494c-.987.039-1.969-.012-2.954-.018l-2.944-.153-2.934-.28c-.975-.136-1.953-.232-2.925-.413a37.986,37.986,0,0,1-5.811-1.351" transform="translate(-101.366 -8.928)" fill="#141414"/><path d="M569.856,62.412a20.488,20.488,0,0,1,.611,4.313c.057.716.03,1.425.042,2.137l-.09,2.128-.217,2.118c-.118.7-.191,1.409-.353,2.108a20.246,20.246,0,0,1-1.235,4.178A20.3,20.3,0,0,1,568,75.082c-.058-.716-.027-1.425-.042-2.138l.093-2.127.221-2.118c.116-.7.191-1.409.352-2.108a20.5,20.5,0,0,1,1.232-4.178" transform="translate(-109.133 -11.992)" fill="#141414"/><path d="M221.809,398.626a8.344,8.344,0,0,1-2.6,1.2,9.054,9.054,0,0,1-3.01-.064,25.253,25.253,0,0,1-5.705-1.714,34.048,34.048,0,0,1-9.58-6.216A49.3,49.3,0,0,1,188.978,374.3a81.6,81.6,0,0,1-6.066-21.947,61.192,61.192,0,0,1,1.341-20.472c1.37-6.031,4.123-11.819,9.067-15.7a.694.694,0,0,1,.286-.135c.161-.66.32-1.322.486-1.975.014-.053.029-.105.042-.158-.071.024-.141.046-.213.071q-1.532.546-3.055,1.117c-2.038.763-4.067,1.543-6.115,2.28q-6.172,2.217-12.311,4.526c-3.457,1.305-7.375,2.211-10.462,4.318-.558.38-1.094.795-1.632,1.2a13.956,13.956,0,0,0-1.863,1.354c-1.053,1.136-1.274,2.993-1.67,4.423a.752.752,0,0,1-.462.544c-2.693,9.966-3.475,20.513-3.558,30.753-.087,10.715,1.377,21.716,5.909,31.516a46.835,46.835,0,0,0,7.94,11.949,47.841,47.841,0,0,0,11.1,8.734,34.228,34.228,0,0,0,6.311,2.874,41.442,41.442,0,0,0,6.881,2c2.476.4,4.2-1.739,5.628-3.452a40.248,40.248,0,0,1,4.484-4.934A49.752,49.752,0,0,1,214.235,405c2.457-1.031,5.173-1.557,7.558-2.725,2.273-1.112,2.854-3.1,2.581-5.41-.17.028-.343.046-.512.083-.554.123-1.1.294-1.638.463a.973.973,0,0,1-.415,1.217" transform="translate(-29.359 -60.319)" fill="#b2b2b2"/><path d="M258.448,317.281a39.617,39.617,0,0,1-7.8,8.924,62.675,62.675,0,0,0-8.556,8.71,26.993,26.993,0,0,0-2.9,4.976,23.29,23.29,0,0,0-1.467,3.868,10.881,10.881,0,0,1,8.467.988,22.189,22.189,0,0,1,3.96,3.239q.985.922,2.035,1.759a32.526,32.526,0,0,1,.256-4.2.824.824,0,0,1-.49-.366,2.4,2.4,0,0,1-.052-1.695,13.506,13.506,0,0,0,.165-1.786,13.158,13.158,0,0,0-.462-3.52c-.578-2.3-2.024-4.256-2.728-6.512-.132-.427.334-.709.7-.633,2.869-3.643,5.713-7.305,8.44-11.055q2.01-2.765,4-5.552c.671-.944,1.377-1.878,1.982-2.867a10.359,10.359,0,0,0,1.1-3.056.673.673,0,0,1,.381-.469q-1.054-.737-2.079-1.515a4.272,4.272,0,0,1-1.751.369c.176,3.656-1.38,7.3-3.2,10.4" transform="translate(-45.68 -58.897)" fill="#fff"/><path d="M271.377,236.139a55.273,55.273,0,0,0-3.039-6.25,62.5,62.5,0,0,0-7.288-10.243,84.141,84.141,0,0,0-9.595-8.892,70.3,70.3,0,0,1-9.706-10.22q-2.279-2.837-4.46-5.75a41.949,41.949,0,0,1-4.126-5.881.27.27,0,0,1-.011-.034.745.745,0,0,1-.382-.634,5.848,5.848,0,0,1,.793-2.285,14.969,14.969,0,0,0,.9-2.466,13.937,13.937,0,0,0,.308-5.316,24,24,0,0,0-4.1-10.03c-.106.034-.208.074-.317.1a.605.605,0,0,1-.383-1.132c1.627-.84,2.8-2.337,4.169-3.536a40.655,40.655,0,0,1,4.266-3.252,45.332,45.332,0,0,1,4.7-2.756q1.2-.607,2.432-1.138a8.361,8.361,0,0,1,2.018-.732c-.015-.191-.041-.378-.055-.569-.164-2.338-.221-4.68-.2-7.021-6.482,1.723-12.094,6.549-16.767,11.118a96.573,96.573,0,0,0-7.63,8.391c-1.917,2.375-3.884,4.751-5.594,7.286a74.214,74.214,0,0,0,8.907,15.594c7.349,9.616,17.287,16.6,25.933,24.934a159.083,159.083,0,0,1,12.895,14.826,64.182,64.182,0,0,1,5.219,7.326,24.789,24.789,0,0,1,3.154,7.851c.2-1.064.385-2.125.55-3.186-1.252-1.8-1.756-4.093-2.589-6.1" transform="translate(-41.756 -28.457)" fill="#fff"/><path d="M257.933,368.069c-1.709.24-3.382.648-5.109.751a10.756,10.756,0,0,1-8.418-3.172c-2.325-2.352-2.9-5.76-4.922-8.336a16.944,16.944,0,0,0-7.885-5.422,1.506,1.506,0,0,1-.9-1.889,35.381,35.381,0,0,1,5.8-11.234.879.879,0,0,1,.21-.175,8.494,8.494,0,0,0-8.223-.332,1.074,1.074,0,0,1-1.528-1.032,22.513,22.513,0,0,1,.6-5.634,20.257,20.257,0,0,1,2.461-5.144,43.129,43.129,0,0,1,8.013-8.806,87.1,87.1,0,0,0,8.853-8.478,22.517,22.517,0,0,0,4.988-10.335,9.914,9.914,0,0,1-2.034-.218c-1.7-.382-3.38-.868-5.033-1.408a24.367,24.367,0,0,1-9.1-5.494c-.605-.568.34-1.611.966-1.079a23.049,23.049,0,0,0,8.846,4.586,14.177,14.177,0,0,0,4.837.394c.38-.028.76-.031,1.141-.032-.113-.1-.231-.191-.343-.291-.9-.8.072-2.355,1.094-1.591q1.446,1.08,2.937,2.1a3.147,3.147,0,0,1,.313.13,1.015,1.015,0,0,1,.338.3A83.381,83.381,0,0,0,263,300.574a50.684,50.684,0,0,0,5.661,2.383c1.972.767,3.962,1.482,5.994,2.07,6.654,1.924,15.089,2.271,20.271-3.07,3.349-3.452,5.37-9.041,3.227-13.632-2.679-5.744-10.124-6.716-15.482-8.5-5.11-1.7-9.26-4.851-13.43-8.066a1.123,1.123,0,0,1-.692-.533c-.671-.517-1.344-1.034-2.024-1.545-4.955-3.727-11.037-6.332-17.279-4.689-5.381,1.416-9.928,4.747-15.15,6.578-3.152,1.106-6.563,1.537-9.65,2.812a21.072,21.072,0,0,0-8.287,6.01,41.467,41.467,0,0,0-5.177,8.856c-1.65,3.57-3.15,7.224-4.451,10.935a104.226,104.226,0,0,0-3.245,11.331,111.961,111.961,0,0,0-2.179,11.757.978.978,0,0,1-1.95-.143c.16-2.117.266-4.258.477-6.367a66.529,66.529,0,0,1,1.373-7.955c-4.192,4.413-5.4,10.613-6.2,16.51a64.72,64.72,0,0,0-.047,19.235,80.224,80.224,0,0,0,6.045,19.87c2.684,5.947,6.258,11.625,11.271,15.886a32.145,32.145,0,0,0,7.738,4.957,26.189,26.189,0,0,0,4.593,1.568,16.731,16.731,0,0,0,2.114.336c.048.006.1.015.145.021a23.079,23.079,0,0,0,2.731-1.279,12.634,12.634,0,0,1,2.331-.952,18.536,18.536,0,0,1-4.225-3.055c-.574-.56.321-1.548.933-1.042,5.61,4.626,13.451,4.841,20.391,4.978,7.153.141,12.954-5.26,18.573-9.267a5.946,5.946,0,0,0-1.254.32c-1.845.71-3.786.523-4.482-1.6-.677-2.061.08-4.632.351-6.714l.058-.45a17.137,17.137,0,0,0-4.144-.063m-32.959,10.593a6.252,6.252,0,0,1-2.491-1.415q-1.207-.88-2.359-1.824c-1.579-1.293-3.119-2.634-4.6-4.032a43.207,43.207,0,0,1-7.662-9.519,32.193,32.193,0,0,1-4.094-12.265c-.612-4.788-1.014-9.688-1.234-14.508-.041-.9,1.379-.927,1.542-.1.914,4.669,1.367,9.418,2.354,14.075a37.079,37.079,0,0,0,4.235,11.185,56.859,56.859,0,0,0,6.889,9.092c1.327,1.488,2.72,2.917,4.152,4.307q1.068,1.037,2.13,2.079a6.406,6.406,0,0,1,1.745,2.031c.149.389-.1.98-.6.889" transform="translate(-37.29 -50.822)" fill="#fff"/><path d="M261.634,375.817c-2.272-1.608-4.9-4.236-4.956-7.195a5.346,5.346,0,0,0-.666.227,1.054,1.054,0,0,1-1.424-.957.868.868,0,0,1-.113-.217,28.487,28.487,0,0,1-1.006-5.028c-2.272-1.251-3.87-3.508-5.848-5.181v0a74.961,74.961,0,0,0-4.209,10.017,19.5,19.5,0,0,1,6.46,4.791,18.66,18.66,0,0,1,2.684,3.883,33.222,33.222,0,0,0,2.3,4.66c2.2,2.987,5.619,3.42,9.03,2.836a34.776,34.776,0,0,1,5.014-.694,5.641,5.641,0,0,1,2.977.578q.229-1.759.457-3.52-2.8-.841-5.575-1.749a19.158,19.158,0,0,1-5.128-2.453" transform="translate(-46.771 -68.687)" fill="#fff"/><path d="M288.138,369.3a15.656,15.656,0,0,1-5.156-3.836c-1.621-1.742-3.015-3.684-4.664-5.4a24.981,24.981,0,0,0-2.886-2.531,13.563,13.563,0,0,1-1.961-1.48.582.582,0,0,1-.652-.445c-.421-1.348.129-3.029.207-4.417a16.314,16.314,0,0,0-.384-4.333,15.921,15.921,0,0,0-4.135-7.836.482.482,0,0,1-.128-.464.472.472,0,0,1-.025-.2c.209-2.268,1.387-4.6,2.232-6.7.911-2.266,1.988-4.452,3.067-6.642a55,55,0,0,0,2.871-6.539,19.652,19.652,0,0,0,.854-3.357c.065-.425.1-.847.131-1.268-1.361-.769-2.705-1.581-4.069-2.395-.312,7.915-5.173,15.161-8.728,21.957a42.009,42.009,0,0,0-4.408,12.19,65.061,65.061,0,0,0-.932,12c2.607-1.074,5.625-.156,8.134,1.066a35.914,35.914,0,0,1,9.843,7.037c2.651,2.676,5.2,6.367,9.049,7.319a17.416,17.416,0,0,0,5.158.208c.207-.011.423-.026.647-.04a7.538,7.538,0,0,1-.917-3.13,9.036,9.036,0,0,1-3.147-.774" transform="translate(-49.837 -59.848)" fill="#fff"/><path d="M309.491,370.313c2.765,1.93,5.7,3.454,8.347,5.57a31.541,31.541,0,0,0,7.26,4.711,23.427,23.427,0,0,0,7.8,1.645,110.46,110.46,0,0,0,11.344-.017c7.5-.335,15.472-1.81,21.195-7.038a16.046,16.046,0,0,0,5.1-8.861,12.672,12.672,0,0,0-.993-8.112,49.608,49.608,0,0,1-9.251,3.82,75.5,75.5,0,0,1-15.563,3.319,42.759,42.759,0,0,1-13.581-.315,16.052,16.052,0,0,1-5.968-2.622c-2-1.456-3.7-3.005-6.036-3.941-3.708-1.489-7.492-2.528-10.5-5.186a21.31,21.31,0,0,0-3.062,8.481,8.735,8.735,0,0,0,3.906,8.547" transform="translate(-58.707 -67.884)" fill="#fff"/><path d="M307.3,337.066a12.435,12.435,0,0,0,2.138,5.9,13.167,13.167,0,0,0,4.732,3.63c3.787,1.825,7.869,2.447,11.245,5.125a17.427,17.427,0,0,0,5.15,3.185,21.466,21.466,0,0,0,5.943,1.014c8.793.439,17.936-1.5,26.148-4.542,3.816-1.412,7.661-3.235,10.464-6.27a19.171,19.171,0,0,0,4.434-8.658,21.205,21.205,0,0,0-.027-9.613,18.887,18.887,0,0,0-1.726-4.585c-.568-1.065-1.283-2.006-1.9-3.018a27.558,27.558,0,0,1-10.5,7.023,79.074,79.074,0,0,1-14.068,3.919c-5.291,1.047-10.821,2.157-16.236,1.56-2.888-.319-5.628-1.327-8.44-2a25.817,25.817,0,0,0-9.5-.742,8.1,8.1,0,0,1-5.677-2.419,14.854,14.854,0,0,0-2.18,10.494" transform="translate(-59.015 -61.34)" fill="#fff"/><path d="M277.884,260.569c-.2.132-.377.252-.53.359-.323.228-.655.446-1,.649a12.142,12.142,0,0,1-1.141.595,34.842,34.842,0,0,1,5.7,2.844,42.455,42.455,0,0,0-2.641-4.611,2.129,2.129,0,0,1-.4.164" transform="translate(-52.883 -50.037)" fill="#fff"/><path d="M145.353,325.16a15.931,15.931,0,0,1,4.145-2.529c-4.164-1.247-8.223-2.761-12.632-1.423-3.986,1.209-7.41,3.931-10.914,6.078-3.647,2.235-7.431,4.28-11.261,6.179a124.419,124.419,0,0,1-11.813,5.08c-3.926,1.463-7.989,3.155-12.117,3.942a1.5,1.5,0,0,1-.166.016c.054,3.458-.227,6.935-.469,10.375q-.406,5.768-.811,11.535l-2.971,42.209q-.748,10.618-1.495,21.236-.37,5.243-.738,10.487c-.208,2.965-.14,6.451-1.365,9.225a34.364,34.364,0,0,1,6.945.118c2.613.171,5.227.356,7.841.534q8.1.551,16.2,1.125l16.2,1.147c2.613.185,5.229.342,7.839.555,1.393.113,2.783.265,4.174.4a17.353,17.353,0,0,1,3.1.464c1.95-.743,3.839-1.679,5.766-2.481,1.985-.825,3.982-1.62,5.968-2.441a89.984,89.984,0,0,0,11.5-5.736c1.86-1.1,3.6-2.373,5.395-3.574a14.734,14.734,0,0,0,4.344-3.786c1.952-2.912,1.945-6.7,3.34-9.9a13.441,13.441,0,0,1-5.23.757,24.866,24.866,0,0,1-3.345-.287,9.19,9.19,0,0,1-.321,2.453A9.987,9.987,0,0,1,171,430.172a11.555,11.555,0,0,1-5.421,4.5.731.731,0,0,1-.644-1.311,8.54,8.54,0,0,0,4.042-4.22,12.483,12.483,0,0,0,.476-1.481,7.3,7.3,0,0,0,.261-1.316,14.189,14.189,0,0,0,.092-1.549c0-.129,0-.259-.007-.389v-.027c0-.03,0-.064-.009-.117a3.9,3.9,0,0,1-.006-.41,36.5,36.5,0,0,1-8.056-3.179,45.65,45.65,0,0,1-16.735-16.239,20.937,20.937,0,0,1-1.757,6.2,15.89,15.89,0,0,1-3.885,4.8c-.733.655-1.505,1.262-2.261,1.889-.21.174-.448.355-.687.542.156.052.31.109.468.155a17.3,17.3,0,0,0,2.376.479c.857.126,1.72.2,2.581.294a4.142,4.142,0,0,1,2.037.518.563.563,0,0,1,.048.88c-1.105.99-3.256.807-4.648.8a34.19,34.19,0,0,1-5.079-.3c-1.66-.262-2.916-1.677-2.136-3.385.58-1.271,2.175-2.281,3.23-3.145,2.353-1.926,4.716-3.845,6.238-6.538a19.254,19.254,0,0,0,1.963-5.809c-.742-1.364-1.427-2.752-2.036-4.156-4.3-9.932-5.769-20.932-5.5-31.718a18.663,18.663,0,0,0-3.779-1.213,25.179,25.179,0,0,0-4.741-.843,6.17,6.17,0,0,0-2.129.254,18.546,18.546,0,0,0-2,1.012c-1.351.624-2.8,1.1-4.231.417a1.12,1.12,0,0,1-.539-1.661,20.639,20.639,0,0,1,3.519-4.164,12.482,12.482,0,0,1,2.066-1.587,4.332,4.332,0,0,1,2.294-.86.376.376,0,0,1,.28.58,6.9,6.9,0,0,1-1.717,1.574c-.573.491-1.158.965-1.7,1.495-.212.208-.406.429-.6.65.2-.12.393-.248.6-.352a8.439,8.439,0,0,1,5.293-.575,19.469,19.469,0,0,1,7.484,2.645c0-.019,0-.038,0-.057a117.025,117.025,0,0,1,3.477-24.509,1.522,1.522,0,0,1-.236-.146c-1.964-1.482-2.319-4.328-4.351-5.71-1.988-1.351-4.48-1.448-6.8-1.538-.855-.034-.734-1.3.1-1.309,2.474-.036,5.243-.045,7.528,1.036a7.848,7.848,0,0,1,3.073,2.415c.543.729,1.055,1.472,1.585,2.2q.818-2.564,1.848-5.039c.183-.486.388-.969.6-1.452a10.112,10.112,0,0,1,2.5-4.053" transform="translate(-15.899 -61.62)" fill="#b2b2b2"/><path d="M302.885,382.334a6.337,6.337,0,0,0,1.917,3.4,37.4,37.4,0,0,0,2.794,2.886,66.42,66.42,0,0,1,5.133,5.051,9.873,9.873,0,0,0,3.052,2.62,19.136,19.136,0,0,0,4.062,1.264A95.635,95.635,0,0,0,336.7,400.2c5.009.247,10.421-.293,14.679-3.181a13.661,13.661,0,0,0,6.343-10.174,51.925,51.925,0,0,1-15.915,2.492c-6.853.182-14.171.511-20.414-2.768-3.188-1.674-5.72-4.168-8.711-6.111-2.28-1.48-4.924-2.706-6.977-4.547-1.428,1.781-3.046,4.138-2.815,6.422" transform="translate(-58.195 -72.232)" fill="#fff"/><path d="M326.947,409.64a26.389,26.389,0,0,0-3.029,1.863,22.329,22.329,0,0,1,5.376,1.454,46.685,46.685,0,0,1,7.158,3.849,18.378,18.378,0,0,1,.953-4.11,21.027,21.027,0,0,1,1.339-3.046c.084-.151.183-.294.28-.439l-.347-.031c-1.074-.106-2.144-.249-3.212-.406a.815.815,0,0,1-.381.057c-2.792-.27-5.531-.476-8.137.809" transform="translate(-62.241 -78.518)" fill="#fff"/><path d="M302.371,399.706a20.37,20.37,0,0,1-4.6-1.921c-1.556-.892-2.843-2.315-4.562-2.889a.837.837,0,0,1-.553-.847,5.126,5.126,0,0,0-.6-3.282c-.335-.025-.671-.054-1-.1-3.829-.574-6.6-2.853-9.2-5.579l-.283-.3q-.142,3.809-.283,7.617c-.05,1.343-.176,2.7-.179,4.047,0,.233-.023.914.078.992a13.073,13.073,0,0,0,1.314-.5c4.072-1.3,8.087,1.066,11.05,3.668,3.215,2.824,6.106,5.737,10.549,6.343a14.467,14.467,0,0,0,5.713-.349c2.06-.55,3.718-1.79,5.6-2.72a20.187,20.187,0,0,1,3.418-1.3,43.517,43.517,0,0,1-7.5-2.236,16.041,16.041,0,0,1-4.063.191,22.606,22.606,0,0,1-4.9-.832" transform="translate(-54.015 -73.937)" fill="#fff"/><path d="M424.534,201.4c6.072-5.548,11.927-11.261,17.757-17.059,2.525-2.509,4.971-5.082,7.514-7.574.9-.882,1.618-1.592,2.386-2.456.326-.365.662-.721,1-1.078-.174-.2-.342-.428-.5-.591-.481-.5-.952-1.01-1.415-1.53a47.026,47.026,0,0,0-7.025-6.52,30.04,30.04,0,0,0-16.869-6.254c-.464,4.246-.883,8.5-1.4,12.734-.016.134-.035.268-.052.4a.4.4,0,0,1,.2.312,10.857,10.857,0,0,0,6.568,8.39,1.031,1.031,0,0,1,.325,1.735,21.343,21.343,0,0,0-3.4,3.587l-3.09,3.667a91.67,91.67,0,0,1-6,7.093,71.963,71.963,0,0,1-3.449,7.9,111.555,111.555,0,0,1-6.372,10.375c-.326.5-.637,1-.961,1.5q.943-1.1,1.91-2.176c4.007-4.463,8.453-8.414,12.877-12.456" transform="translate(-78.733 -30.424)" fill="#fff"/><path d="M439.664,230.5a23.789,23.789,0,0,0-1.555,8.566.821.821,0,0,1-.473.7c-6.153,2.422-12.549,3.675-18.93,5.325a62.33,62.33,0,0,0-9.393,3.066,34.392,34.392,0,0,0-4.308,2.237c-.769.476-1.54,1.146-2.371,1.629-1.066.871-2.118,1.763-3.143,2.693-1.781,1.618-3.507,3.313-5.14,5.086.646-.365,1.3-.72,1.956-1.056,8.6-4.38,18.181-6.565,27.557-8.6q9.022-1.956,18.019-4.013a152.573,152.573,0,0,0,16.8-4.4c-.963-3.568-1-7.408-1.761-11.026-.87-4.169-2.324-8.287-5.441-11.318a.894.894,0,0,1-.131-.2c-2.432,1.2-4.806,2.5-7.143,3.879a26.2,26.2,0,0,0-4.543,7.427" transform="translate(-75.775 -42.119)" fill="#fff"/><path d="M464.277,175.859c.075-.137.039-.156,0,0" transform="translate(-89.211 -33.77)" fill="#fff"/><path d="M395.812,245.146a142.045,142.045,0,0,1,14.54-10.474c5.2-3.452,10.325-7.029,15.512-10.509,5.221-3.5,10.5-6.952,15.953-10.081,2.611-1.5,5.252-2.961,7.943-4.312,2.225-1.116,4.28-2.488,6.531-3.495-1.7-3.588-3.273-7.245-5.079-10.782a55.214,55.214,0,0,0-6.788-10.156c-2.083,1.915-4.2,3.784-6.308,5.682q-2.2,1.982-4.391,3.966a22.958,22.958,0,0,0-3.221,8,24.346,24.346,0,0,0-.413,4.849,19.229,19.229,0,0,0,.2,2.446,7.77,7.77,0,0,1,.247,2.369.986.986,0,0,1-.766.867,10.627,10.627,0,0,0-3.112,1.63c-1,.628-1.968,1.313-2.907,2.032a61.967,61.967,0,0,0-5.093,4.391c-3.269,3.116-6.395,6.4-9.928,9.222-3.364,2.688-7.071,4.9-10.522,7.468a39.809,39.809,0,0,0-4.8,4.11,31.9,31.9,0,0,0-2.523,3.151c-3.151,5.268-6.174,10.672-9.9,15.514a1.013,1.013,0,0,1-.859.4c-.189.292-.384.579-.577.868a2.991,2.991,0,0,0,.458.267c.188.086.383.155.577.226a1.291,1.291,0,0,1,.3-.792,32.007,32.007,0,0,1,3.043-3.217,31.572,31.572,0,0,1,4.481-6.334,72.456,72.456,0,0,1,7.4-7.3" transform="translate(-72.929 -35.613)" fill="#fff"/><path d="M315.323,310.632a20.828,20.828,0,0,1-5.648,2.173,8.272,8.272,0,0,0,3.257,5.3,5.245,5.245,0,0,0,3.727.833,19.45,19.45,0,0,1,4.6.09,66.547,66.547,0,0,1,9.222,2.322,24.931,24.931,0,0,0,8.335.932,79.973,79.973,0,0,0,14.378-2.4,46.724,46.724,0,0,0,12.425-4.514,21.928,21.928,0,0,0,9.092-9.048,17.581,17.581,0,0,0,.756-13.826,16.176,16.176,0,0,0-8.844-8.963c-1.045-.413-2.352-.127-3.486-.173a18.768,18.768,0,0,0-3.238.091,36.451,36.451,0,0,0-7.694,2.214,100.99,100.99,0,0,1-15.274,4.306,96.457,96.457,0,0,1-13.415,1.522,11.967,11.967,0,0,1,.778,5.2,17.983,17.983,0,0,1-8.974,13.941" transform="translate(-59.504 -54.437)" fill="#fff"/><path d="M375.162,224.018c4.227-7.254,8.55-14.462,13.16-21.482a77.777,77.777,0,0,0,6.006-10.453,73.538,73.538,0,0,0,3.862-10.711c3.951-14.171,4.551-28.978,6.96-43.441-8.294.053-16.591.067-24.883-.187-6.977-.213-14.059-.273-19.73-4.905-2.651-2.166-5-4.559-8.119-6.082a34.132,34.132,0,0,0-9.61-2.848c-6.961-1.114-14.077-.911-21.006-2.254a34.72,34.72,0,0,1-10.158-3.372c-2.357-1.292-4.537-2.836-6.94-4.013a37.033,37.033,0,0,1-3.286,8.506,90.718,90.718,0,0,1,17.3.01,43.777,43.777,0,0,1,11.589,2.82,69.394,69.394,0,0,1,10.995,6.08A89.987,89.987,0,0,0,352.039,138a70.436,70.436,0,0,0,12.312,4.337c8.471,2.136,17.244,2.7,25.939,3.164a1.523,1.523,0,0,1,1.4,1.62c-.632,3.278-1.4,6.548-2.247,9.8a15.509,15.509,0,0,0,2.463,2.82c1.135,1,2.467,1.606,2.642,3.262a18.488,18.488,0,0,1-.624,4.86q-.459,2.592-.893,5.185a66.483,66.483,0,0,1-4.972,17.451c-2.73,5.787-6.585,11.045-9.87,16.522-3.261,5.439-6.456,10.917-9.217,16.631-1.394,2.882-2.705,5.817-3.928,8.776-1.169,2.832-1.915,5.959-3.323,8.667a.474.474,0,0,1-.545.247q-.881,3.072-1.854,6.114a11.684,11.684,0,0,1,2.365.084c1.981-3.855,4.253-7.561,6.421-11.315,2.352-4.071,4.69-8.15,7.057-12.211" transform="translate(-57.918 -21.957)" fill="#fff"/><path d="M360.582,209.156c2.7-6.443,5.52-12.829,8.088-19.325,2.552-6.455,4.922-12.977,6.9-19.633a196.938,196.938,0,0,0,4.485-19.347c-9.226-.477-18.5-1.239-27.472-3.56a60.243,60.243,0,0,1-12.237-4.533,119.975,119.975,0,0,1-10.786-6.572,54.849,54.849,0,0,0-11.041-5.77,47.748,47.748,0,0,0-11.646-2.569,109.685,109.685,0,0,0-15.191-.256c-.006.01-.011.02-.018.03a1.081,1.081,0,0,1-1.681.045c-10.381.463-20.768,1.339-31.02-.817-.063,4.757-.774,9.5-.834,14.273a77.194,77.194,0,0,0,1.077,14.206,89.689,89.689,0,0,0,7.36,22.226q4.937,10.687,9.763,21.423a112.169,112.169,0,0,1,7.638,22.677c1.457,6.916,2.185,14.989-.239,21.816.621.446,1.238.89,1.85,1.326.282.2.566.4.851.6.1-1.457.317-2.916.448-4.366q.271-3,.4-6.009a116.276,116.276,0,0,0-.1-11.925,113.778,113.778,0,0,0-3.238-21.133,59.383,59.383,0,0,0-3.126-9.638,77.106,77.106,0,0,0-5.076-8.824c-6.464-10.518-10.544-23.442-9.693-35.879-.469-.117-.354-.855.173-.881a10.83,10.83,0,0,0,7.117-3.495,10.2,10.2,0,0,0,1.985-3.114,23.844,23.844,0,0,0,.966-3.647c.1-.414.2-1.108.75-1.141a.517.517,0,0,1,.375.139.721.721,0,0,1,.216-.14,29.173,29.173,0,0,1,8.217-1.687,59.39,59.39,0,0,1,8.476-.275,60.954,60.954,0,0,1,15.03,2.482c5.036,1.5,9.716,3.82,14.471,6.013a98.894,98.894,0,0,0,30.58,8.76.845.845,0,0,1,.759.935.622.622,0,0,1,.188.462c.053,3.992.483,7.856,2.356,11.44a13.576,13.576,0,0,0,2.975,3.976c1.163,1.025,2.743,1.516,3.818,2.617a.615.615,0,0,1-.308.99c.94,5.777-.036,11.748-1.577,17.335a130.684,130.684,0,0,1-5.744,15.58c-2.133,5.1-4.2,10.223-6.065,15.429-3.737,10.424-6.553,21.133-7.141,32.227a30.917,30.917,0,0,1,4.99-1.454c1.382-7.07,3.183-14.118,5.1-21.05a167.085,167.085,0,0,1,6.826-19.965" transform="translate(-49.598 -24.374)" fill="#fff"/><path d="M267.344,314.955c-1.454,2.047-2.938,4.069-4.485,6.047-3.082,3.937-6.27,7.786-9.637,11.484a.4.4,0,0,1-.055.039c.969,2.128,2.522,3.941,3.239,6.2a10.444,10.444,0,0,1,.313,1.314,39.752,39.752,0,0,1,2.824-6.873c2.022-3.847,4.506-7.415,6.715-11.151a31.547,31.547,0,0,0,4.283-12.007c-.278-.178-.564-.346-.839-.528.321,1.983-1.288,3.967-2.358,5.475" transform="translate(-48.646 -59.467)" fill="#b2b2b2"/><path d="M392.159,216.144c3.395-5.235,7.448-10.211,10.051-15.907a64.908,64.908,0,0,0,4.766-17.814c.217-1.5.334-2.993.472-4.5.072-.789.141-1.579.216-2.368a3.543,3.543,0,0,0-.07-2.186,9.571,9.571,0,0,0-1.7-1.594,13.554,13.554,0,0,1-1.28-1.442c-.138-.179-.256-.362-.378-.544-1.011,3.728-2.112,7.433-3.229,11.1-2.023,6.64-4.187,13.233-6.565,19.754-2.417,6.632-5.145,13.121-7.753,19.676-1.984,4.988-3.652,10.088-5.258,15.207.528-1.153,1.069-2.3,1.633-3.436a159.466,159.466,0,0,1,9.095-15.948" transform="translate(-73.292 -32.625)" fill="#b2b2b2"/><path d="M261.231,371.061c.269,2.884,3.217,5.408,5.6,6.61a28.612,28.612,0,0,0,4.852,1.723c1.469.434,2.939.862,4.4,1.308a.772.772,0,0,1,.138-.155,38.918,38.918,0,0,0-6.956-6.033c-2.331-1.5-5.15-3.6-8.038-3.453" transform="translate(-50.196 -71.298)" fill="#b2b2b2"/><path d="M246.947,161.6a42.678,42.678,0,0,0-4.679,2.695,46.373,46.373,0,0,0-4.42,3.352,24.368,24.368,0,0,1-2.646,2.229,19.793,19.793,0,0,1,5.218,10.609,15.966,15.966,0,0,1-.408,6.178c-.379,1.373-1.012,3.213-2.257,4.1,1.869,1.941,3.391,4.338,5.083,6.431q2.663,3.294,5.458,6.48a88.584,88.584,0,0,0,10.6,9.933,60.225,60.225,0,0,1,8.954,9,59.835,59.835,0,0,1,9.087,16.141c.3.816.631,1.655.886,2.511q.088-.869.145-1.746a.566.566,0,0,1-.393-.507c-.477-3.685-.86-7.378-2.235-10.865a67.06,67.06,0,0,0-5.458-10.031c-4.633-7.637-9.548-15.116-14.436-22.591-.463-.707.754-1.5,1.229-.812,2.693,3.89,5.441,7.74,8.153,11.617,2.622,3.751,5.41,7.4,7.985,11.181,1.094,1.606,2.16,3.253,3.13,4.953a103.807,103.807,0,0,0-8.608-20.859c-1.865-3.5-3.942-6.906-5.7-10.457-1.718-3.474-3.361-6.981-4.828-10.568a78.26,78.26,0,0,1-5.639-20.781c-.574.273-1.236.452-1.783.682q-1.237.522-2.441,1.12" transform="translate(-45.194 -30.704)" fill="#b2b2b2"/><path d="M428.309,191.248c1.642-2.039,3.214-4.464,5.208-6.253a12.313,12.313,0,0,1-4.994-7.18,116.413,116.413,0,0,1-3.521,17.5c.045-.054.092-.108.137-.162q1.59-1.947,3.17-3.9" transform="translate(-81.664 -34.167)" fill="#b2b2b2"/><path d="M407.915,235.336a69.781,69.781,0,0,0,8.221-6.617c2.684-2.5,5.278-5.1,8.015-7.544a49.86,49.86,0,0,1,4.057-3.291c.732-.527,1.483-1.031,2.251-1.505.545-.337,1.182-.617,1.744-.967a13.41,13.41,0,0,1-.5-4.172,21.95,21.95,0,0,1,.534-5.332,22.671,22.671,0,0,1,1.378-4.2c-3.5,3.2-6.961,6.443-10.355,9.777-2.23,2.192-4.472,4.375-6.661,6.607-.638.651-1.276,1.3-1.9,1.971-.274.295-.049.049-.159.175-.521.6-1.026,1.21-1.526,1.825q-1.624,2-3.167,4.063c-3.668,4.879-7.138,9.931-10.467,15.059l.045-.036c2.725-2.082,5.654-3.878,8.484-5.811" transform="translate(-76.742 -38.758)" fill="#b2b2b2"/><path d="M440.34,240.032a14.5,14.5,0,0,1-.033-4.072,21.4,21.4,0,0,1,1.308-4.636,19.567,19.567,0,0,1,2.3-4.084c-9.087,5.758-17.647,12.308-26.5,18.411-.782.539-1.557,1.082-2.334,1.624,2.026-.678,4.091-1.249,6.164-1.752,6.387-1.553,13.114-2.642,19.1-5.49" transform="translate(-79.758 -43.664)" fill="#b2b2b2"/><path d="M292.121,319.192a1.794,1.794,0,0,1-.229.971c-.78,1.339-1.581,2.667-2.372,4-.8,1.352-1.731,2.6-2.446,4.014-1.407,2.778-2.662,5.636-3.989,8.453-.432.919-1.868.456-1.516-.54,1.076-3.042,2.407-5.959,3.75-8.89.645-1.406,1.1-2.891,1.738-4.295.67-1.467,1.387-2.92,2.15-4.343q-1.4-.367-2.774-.843a34.8,34.8,0,0,1-4.61-2.017,21.407,21.407,0,0,1-.792,3.346,41.229,41.229,0,0,1-2.865,6.78c-1.135,2.249-2.255,4.5-3.328,6.781q-.843,1.793-1.618,3.62a24.367,24.367,0,0,1-1.314,2.945,15.61,15.61,0,0,1,5.878,13.007,7.809,7.809,0,0,1-.936,3.854,12.273,12.273,0,0,1,1.627,1.057,32.514,32.514,0,0,1,2.746,2.093,47.86,47.86,0,0,1,4.279,4.345,20.783,20.783,0,0,0,4.75,4.154,10.32,10.32,0,0,0,2.937,1.143,6,6,0,0,0,.674.106c.01-.044.01-.086.021-.13.6-2.537,2.454-4.451,4.379-6.107-.094-.125-.2-.239-.289-.371-3.546-5.279-1.5-13.393,2.676-17.887-2.31-2.948-3.082-6.936-3-10.616a16.012,16.012,0,0,1,3.452-9.889,11.757,11.757,0,0,1-1.738-4.42,27.942,27.942,0,0,1-7.239-.323" transform="translate(-52.247 -60.662)" fill="#b2b2b2"/><path d="M346.549,235.868c2.56-10.886,6.62-21.223,10.932-31.513a137.08,137.08,0,0,0,5.753-15.568,51.318,51.318,0,0,0,1.885-15.663,7.851,7.851,0,0,1-3.648-2.078,15.134,15.134,0,0,1-3.343-4.408,20.816,20.816,0,0,1-1.848-12.306,108.792,108.792,0,0,1-16.93-3.286,93.984,93.984,0,0,1-14.494-5.428,102.94,102.94,0,0,0-14.236-5.894,59.7,59.7,0,0,0-15.226-2.4,61.358,61.358,0,0,0-7.716.277c-2.491.245-4.946.84-7.441,1a.694.694,0,0,1-.2-.023,7.489,7.489,0,0,1-.435,3.454,11.5,11.5,0,0,1-4.448,5.868,11.253,11.253,0,0,1-5.665,1.729,81.073,81.073,0,0,0,3.919,21.77,67.567,67.567,0,0,0,3.784,8.806c1.529,2.962,3.37,5.723,5.093,8.571,3.491,5.766,5.275,12.112,6.5,18.7a140.89,140.89,0,0,1,2.371,20.9c.12,3.513.131,7.028-.015,10.54a54.365,54.365,0,0,1-.873,9.611,32.4,32.4,0,0,0,6.6,3.438c1.956.714,3.967,1.264,5.96,1.863.01-.535.077-1.073.113-1.546.113-1.486.236-2.97.3-4.459.124-2.814.068-5.619.023-8.433a84.814,84.814,0,0,0-2.016-17.428c-.2-.864,1.111-1.1,1.335-.265a104.218,104.218,0,0,1,3.294,17.779,73.977,73.977,0,0,1,.149,9.047c-.052,1.482-.086,2.991-.269,4.463a9.771,9.771,0,0,1-.3,1.7c.431.152.866.292,1.292.461a16.29,16.29,0,0,1,8.31,6.729,100.356,100.356,0,0,0,11.441-2.052,13.915,13.915,0,0,1,.523-4.484c.411-1.847.92-3.67,1.489-5.474,1.147-3.635,2.594-7.187,4.076-10.7,2.979-7.051,5.959-14.4,6.473-22.112a.693.693,0,0,1,1.382.1c-.221,7.747-2.579,15.008-5.067,22.272-1.262,3.685-2.594,7.34-3.749,11.061-.561,1.808-1.069,3.635-1.474,5.485-.23,1.052-.4,2.093-.666,3.1,1.148-.3,2.291-.609,3.423-.936,3.207-.926,6.382-1.985,9.5-3.185.521-.2,1.044-.406,1.567-.611a.92.92,0,0,1-.032-.2,97.612,97.612,0,0,1,2.605-18.284" transform="translate(-51.783 -26.383)" fill="#b2b2b2"/><path d="M296.321,392.131a6.9,6.9,0,0,1,.848,2.664,20.829,20.829,0,0,1,3.652,2.316,20.867,20.867,0,0,0,4.366,2.171,18.623,18.623,0,0,0,4.783,1,14.331,14.331,0,0,0,2.007-.014c-1.475-1.215-2.612-2.773-4.071-4.117-1.873-1.726-4.194-2.893-6.12-4.543a20.177,20.177,0,0,1-2.89.4c-.851.074-1.714.125-2.576.125" transform="translate(-56.938 -75.248)" fill="#b2b2b2"/><path d="M205.217,301.565a.613.613,0,0,1,.3.914,4.128,4.128,0,0,1-2.238,1.246c-.013.053-.028.105-.042.158-.166.654-.325,1.315-.486,1.975a.679.679,0,0,1,.6,1.166c-.4.349-.773.717-1.13,1.093a66.649,66.649,0,0,0-1.372,7.954c-.212,2.109-.318,4.251-.478,6.367a.978.978,0,0,0,1.95.143,111.964,111.964,0,0,1,2.18-11.757,104.043,104.043,0,0,1,3.245-11.331c1.3-3.711,2.8-7.365,4.451-10.935a41.426,41.426,0,0,1,5.177-8.856,21.056,21.056,0,0,1,8.287-6.01c3.086-1.276,6.5-1.707,9.65-2.813,5.221-1.831,9.769-5.162,15.15-6.578,6.241-1.642,12.325.962,17.279,4.69q1.018.766,2.023,1.544a1.067,1.067,0,0,1-.116-.746c.061-.312.12-.621.18-.931a1.133,1.133,0,0,1-1.852-.378,33.176,33.176,0,0,0-1.435-3.369,34.844,34.844,0,0,0-5.7-2.844c-.206.1-.412.193-.624.278a8.119,8.119,0,0,1-4.232.742.839.839,0,0,1-.73-.645.809.809,0,0,1,.435-.879c.57-.2,1.13-.359,1.68-.519-.381-.079-.764-.151-1.152-.208-6.127-.9-11.254,2.789-16.453,5.367a39.928,39.928,0,0,1-9.581,3.243c-3.42.729-7.4,1.183-10.412,3.061-6.708,4.175-10.088,12.1-12.789,19.206-1.183,3.111-2.2,6.292-3.084,9.5a2.551,2.551,0,0,1,1.323.152" transform="translate(-38.501 -50.131)" fill="#161616"/><path d="M306.752,280.879c-.425-.17-.86-.309-1.292-.461a2.491,2.491,0,0,1-1.015,1.417.854.854,0,0,1-1.007-.205,2.8,2.8,0,0,1-.607-2.073c-1.995-.6-4-1.15-5.961-1.864a32.354,32.354,0,0,1-6.6-3.438c-.063.279-.123.558-.2.832-.246.911-1.516.5-1.52-.32,0-.544.023-1.087.061-1.632q-.427-.3-.851-.6c-.612-.437-1.228-.881-1.85-1.327-.131.37-.266.739-.416,1.1a1.438,1.438,0,0,1-1.759.738c4.17,3.215,8.321,6.367,13.431,8.067,5.358,1.782,12.8,2.756,15.482,8.5,2.142,4.591.122,10.18-3.227,13.632-5.182,5.341-13.617,4.995-20.271,3.07-2.033-.588-4.022-1.3-5.994-2.07a50.829,50.829,0,0,1-5.661-2.382,83.8,83.8,0,0,1-7.175-4.348,1.44,1.44,0,0,1-.221,1.81,2.649,2.649,0,0,1-.6.4q1.024.779,2.079,1.515a.93.93,0,0,1,1.221.586,2.813,2.813,0,0,1,.039.293c.275.182.56.35.838.527.043-.312.093-.62.127-.937.09-.851,1.505-1.016,1.566-.1a19.767,19.767,0,0,1,.015,2.109c1.364.814,2.707,1.625,4.069,2.394a7.669,7.669,0,0,1,.385-2.122.634.634,0,0,1,1.154-.065,5.7,5.7,0,0,1,.367,3.218,34.728,34.728,0,0,0,4.61,2.017q1.368.475,2.774.843c.032-.06.061-.121.094-.18a1.583,1.583,0,0,1,2.185-.406,1.477,1.477,0,0,1,.634,1.214,27.946,27.946,0,0,0,7.24.323c-.026-.151-.057-.3-.075-.453-.239-1.971,2.8-2.577,3.036-.6.023.191.061.381.1.571a20.8,20.8,0,0,0,5.648-2.172,17.983,17.983,0,0,0,8.974-13.941,11.965,11.965,0,0,0-.778-5.2q-1.364.074-2.732.132c-.839.036-.915-1.4-.091-1.469.695-.063,1.389-.14,2.085-.221a16.3,16.3,0,0,0-8.31-6.729" transform="translate(-51.785 -52.113)" fill="#161616"/><path d="M268.668,302.691c-.992-.681-1.974-1.377-2.938-2.1-1.021-.763-2,.792-1.093,1.591.112.1.23.192.343.291.472,0,.944,0,1.416-.034a4.733,4.733,0,0,1,2.272.249" transform="translate(-50.781 -57.72)" fill="#161616"/><path d="M360.3,242.645a22.029,22.029,0,0,1,1.2-4.841q.788-2.52,1.705-5c.755-2.043,1.608-4.043,2.513-6.02,1.606-5.119,3.274-10.219,5.258-15.206,2.607-6.556,5.335-13.045,7.753-19.677,2.377-6.521,4.542-13.115,6.564-19.754,1.117-3.667,2.218-7.372,3.229-11.1a12.519,12.519,0,0,1-1.4-2.879.661.661,0,0,1,1.186-.581c.24.425.511.847.8,1.263.845-3.253,1.615-6.522,2.247-9.8a1.522,1.522,0,0,0-1.4-1.62c-8.695-.461-17.468-1.028-25.939-3.164a70.374,70.374,0,0,1-12.312-4.338,89.981,89.981,0,0,1-10.74-6.316,69.4,69.4,0,0,0-10.995-6.081,43.84,43.84,0,0,0-11.589-2.82,90.85,90.85,0,0,0-17.3-.01c-.44.814-.906,1.617-1.416,2.4a109.559,109.559,0,0,1,15.191.255,47.72,47.72,0,0,1,11.646,2.57,54.845,54.845,0,0,1,11.041,5.769,120.16,120.16,0,0,0,10.785,6.573,60.347,60.347,0,0,0,12.238,4.533c8.968,2.32,18.245,3.084,27.472,3.56a196.971,196.971,0,0,1-4.486,19.346c-1.977,6.656-4.348,13.178-6.9,19.634-2.568,6.5-5.392,12.881-8.088,19.324a167.137,167.137,0,0,0-6.826,19.965c-1.918,6.933-3.719,13.981-5.1,21.051.226-.043.452-.09.679-.124.55-.082,1.108-.138,1.667-.17q.973-3.042,1.854-6.115a.635.635,0,0,1-.536-.627" transform="translate(-57.581 -23.882)" fill="#161616"/><path d="M258.966,126.317c0,.064,0,.127,0,.191,10.252,2.155,20.639,1.28,31.02.816a.829.829,0,0,1-.155-.982c.208-.423.407-.849.6-1.276q-2.021.172-4.034.353c-9.3.827-18.664,1.615-27.889-.274a.479.479,0,0,0-.4.093,1.15,1.15,0,0,1,.86,1.08" transform="translate(-49.595 -24.031)" fill="#161616"/><path d="M255.484,143.445c-.354.074-.7.164-1.053.257-.021,2.341.036,4.683.2,7.021.014.191.04.378.055.569a2.382,2.382,0,0,1,.42-.042.834.834,0,0,1,.479,1.447,2.907,2.907,0,0,1-.72.452A78.259,78.259,0,0,0,260.5,173.93c1.466,3.588,3.109,7.095,4.828,10.568,1.756,3.55,3.832,6.96,5.7,10.457a103.857,103.857,0,0,1,8.608,20.859,37.567,37.567,0,0,1,2.64,5.556c1.334,3.6,2.137,7.535.326,11.089a.838.838,0,0,1-.94.409q-.057.876-.145,1.746a8.419,8.419,0,0,1,.412,3.13.425.425,0,0,1-.738.245c-.034-.047-.061-.1-.095-.145-.166,1.062-.351,2.123-.55,3.186.042.2.1.388.139.592a1.188,1.188,0,0,1-.473,1.164c-.06.31-.12.62-.18.931a1.066,1.066,0,0,0,.116.746,1.128,1.128,0,0,0,.692.533,1.438,1.438,0,0,0,1.759-.738c.15-.363.285-.732.417-1.1,2.424-6.827,1.7-14.9.239-21.816a112.216,112.216,0,0,0-7.638-22.677q-4.8-10.75-9.763-21.423a89.714,89.714,0,0,1-7.36-22.226,77.2,77.2,0,0,1-1.076-14.206c.059-4.77.771-9.516.834-14.273,0-.063,0-.127,0-.191a1.15,1.15,0,0,0-.86-1.079.891.891,0,0,0-1.2.645,67.485,67.485,0,0,0-1.579,12.442c-.072,1.146-.12,2.292-.153,3.439.226-.023.451-.056.679-.069,1.094-.068,1.485,1.485.343,1.724" transform="translate(-48.888 -24.06)" fill="#161616"/><path d="M297.5,124.315a1.081,1.081,0,0,0,1.681-.045l.018-.029c.511-.782.976-1.585,1.416-2.4a37.018,37.018,0,0,0,3.285-8.506c2.4,1.179,4.583,2.722,6.94,4.014A34.726,34.726,0,0,0,321,120.721c6.929,1.343,14.044,1.14,21.006,2.254a34.118,34.118,0,0,1,9.61,2.848c3.117,1.522,5.468,3.916,8.12,6.081,5.671,4.632,12.752,4.691,19.73,4.905,8.291.254,16.588.24,24.883.187-2.409,14.464-3.009,29.269-6.961,43.441a73.642,73.642,0,0,1-3.861,10.712,77.894,77.894,0,0,1-6.006,10.452c-4.61,7.019-8.933,14.228-13.161,21.482-2.367,4.062-4.7,8.141-7.056,12.211-2.168,3.754-4.441,7.46-6.422,11.316.037,0,.075.006.112.011a8.7,8.7,0,0,1,1.54.339,5.344,5.344,0,0,1,1.2.746c.194-.288.389-.575.577-.868a.973.973,0,0,1-.956-1.322c2.863-7.592,7.476-14.678,11.857-21.469a157.458,157.458,0,0,1,12.922-17.419c.322-.5.635-1,.961-1.5a111.651,111.651,0,0,0,6.372-10.374,71.976,71.976,0,0,0,3.449-7.9c-.124.12-.236.254-.363.37-.712.654-1.675-.319-1.207-1.08a36.533,36.533,0,0,1,3.111-3.975,116.507,116.507,0,0,0,3.521-17.5,12.782,12.782,0,0,1-.373-2.109.5.5,0,0,1,.708-.491c.017-.134.036-.268.052-.4.52-4.236.939-8.488,1.4-12.734q-.637-.021-1.278-.009c-1.1.021-1.206-1.832-.119-1.934.545-.052,1.087-.082,1.627-.1.43-3.767.912-7.527,1.558-11.263a1.478,1.478,0,0,0-1.362-1.577c-7.806.006-15.613-.021-23.416-.238-6.815-.19-14.9.46-20.687-3.778-2.734-2-5.076-4.424-8.073-6.068a32.608,32.608,0,0,0-8.847-3.2c-6.788-1.47-13.742-1.3-20.585-2.3a35.819,35.819,0,0,1-11.652-3.4c-3.277-1.759-5.989-4.518-9.617-5.58a1.669,1.669,0,0,0-2.192,1.43,37.063,37.063,0,0,1-3.176,11.14c-.194.427-.393.854-.6,1.276a.829.829,0,0,0,.155.982" transform="translate(-57.117 -21.023)" fill="#161616"/><path d="M266.292,235.243c.81-.037,1.326.827,1.319,1.528a1.7,1.7,0,0,1-1.036,1.455c-.078.045-.154.088-.231.128a42.387,42.387,0,0,1,2.641,4.612,33.264,33.264,0,0,1,1.435,3.368,1.133,1.133,0,0,0,1.852.378,1.187,1.187,0,0,0,.473-1.164c-.037-.2-.1-.392-.138-.592a24.808,24.808,0,0,0-3.154-7.851,64.284,64.284,0,0,0-5.219-7.326,159.083,159.083,0,0,0-12.895-14.826c-8.646-8.338-18.584-15.318-25.934-24.934a74.246,74.246,0,0,1-8.907-15.594c1.709-2.535,3.676-4.911,5.594-7.286a96.566,96.566,0,0,1,7.629-8.391c4.674-4.569,10.286-9.4,16.768-11.118.349-.093.7-.183,1.053-.257,1.141-.239.751-1.792-.343-1.724-.228.014-.452.047-.679.069-7.777.768-14.724,6.311-20.177,11.488a86.173,86.173,0,0,0-8.7,9.685,55.278,55.278,0,0,0-3.114,4.624,11.9,11.9,0,0,0-1.347,2.2c-.381,1.126.678,2.6,1.146,3.6a78.592,78.592,0,0,0,14.326,21.158c7.059,7.359,15.217,13.55,22.3,20.89,3.983,4.127,7.5,8.672,11.093,13.14.937,1.167,1.849,2.352,2.723,3.559a1.712,1.712,0,0,1,1.524-.818" transform="translate(-40.947 -27.986)" fill="#161616"/><path d="M269.62,214.567c-2.711-3.878-5.459-7.728-8.153-11.618-.475-.685-1.691.106-1.229.813,4.889,7.475,9.8,14.953,14.436,22.59a67.063,67.063,0,0,1,5.458,10.032c1.375,3.487,1.758,7.179,2.236,10.865a.565.565,0,0,0,.393.507.84.84,0,0,0,.94-.41c1.81-3.554,1.007-7.484-.326-11.089a37.731,37.731,0,0,0-2.64-5.556c-.969-1.7-2.037-3.348-3.13-4.954-2.575-3.781-5.362-7.43-7.985-11.181" transform="translate(-49.985 -38.946)" fill="#161616"/><path d="M311.992,276.054a2.5,2.5,0,0,0,1.016-1.417,9.913,9.913,0,0,0,.3-1.7c.183-1.472.217-2.98.268-4.462a73.682,73.682,0,0,0-.149-9.049,104.127,104.127,0,0,0-3.293-17.778c-.225-.837-1.532-.6-1.335.265a84.74,84.74,0,0,1,2.015,17.427c.044,2.814.1,5.62-.023,8.433-.065,1.49-.189,2.973-.3,4.459-.036.473-.1,1.012-.112,1.547a2.8,2.8,0,0,0,.607,2.073.856.856,0,0,0,1.007.205" transform="translate(-59.332 -46.332)" fill="#161616"/><path d="M345.178,269.316c1.155-3.72,2.487-7.376,3.749-11.059,2.488-7.265,4.845-14.526,5.067-22.273a.693.693,0,0,0-1.382-.1c-.515,7.714-3.494,15.061-6.473,22.112-1.482,3.508-2.929,7.061-4.076,10.7-.57,1.8-1.078,3.628-1.489,5.474a13.9,13.9,0,0,0-.523,4.485q1.5-.355,2.987-.744c.271-1.01.435-2.052.667-3.1.4-1.85.912-3.677,1.474-5.485" transform="translate(-65.333 -45.206)" fill="#161616"/><path d="M420.193,157.836q.641-.012,1.278.009a30.039,30.039,0,0,1,16.869,6.254,47.106,47.106,0,0,1,7.025,6.52c.463.52.935,1.026,1.415,1.53.156.164.323.39.5.592-.334.358-.671.713-1,1.078-.768.864-1.486,1.574-2.386,2.456-2.542,2.492-4.99,5.065-7.514,7.574-5.83,5.8-11.686,11.509-17.757,17.059-4.424,4.042-8.871,7.993-12.877,12.455q-.969,1.078-1.91,2.176a157.355,157.355,0,0,0-12.922,17.419c-4.381,6.792-8.994,13.877-11.857,21.469a.973.973,0,0,0,.956,1.322,1.013,1.013,0,0,0,.859-.4c3.73-4.841,6.754-10.246,9.9-15.514a19.581,19.581,0,0,1-1.38,1.677c-.559.591-1.356-.171-1.185-.811a11.7,11.7,0,0,1,3.051-4.593,33.607,33.607,0,0,1,4.2-3.756c3.328-5.128,6.8-10.18,10.467-15.059q1.547-2.058,3.167-4.063c.5-.616,1-1.228,1.526-1.826.11-.125-.115.12.158-.175.62-.668,1.257-1.32,1.9-1.97,2.189-2.233,4.431-4.416,6.662-6.607,3.394-3.334,6.859-6.572,10.355-9.777a20.915,20.915,0,0,1,3.551-5.547c.582-.65,1.7.036,1.156.795-.273.384-.533.778-.786,1.178q2.192-1.985,4.391-3.966c2.106-1.9,4.225-3.766,6.309-5.682-.294-.353-.574-.717-.875-1.064a.646.646,0,0,1,.851-.951c.421.293.823.6,1.22.917.154-.146.315-.284.469-.431,1.383-1.322,2.877-2.543,4.174-3.951a2.81,2.81,0,0,0,.681-.957c.453-1.3-1.1-2.645-1.817-3.559a41.492,41.492,0,0,0-8.271-7.61A30.532,30.532,0,0,0,421.7,155.8c-.54.019-1.082.049-1.628.1-1.087.1-.984,1.955.12,1.934m27.7,14.187c.039-.156.075-.137,0,0" transform="translate(-72.822 -29.934)" fill="#161616"/><path d="M444.592,183.767c.3.347.581.71.875,1.064a55.268,55.268,0,0,1,6.788,10.156c1.806,3.537,3.375,7.193,5.079,10.782-2.251,1.007-4.306,2.378-6.531,3.495-2.691,1.35-5.332,2.814-7.944,4.312-5.455,3.129-10.731,6.579-15.952,10.081-5.186,3.479-10.307,7.057-15.512,10.509a141.914,141.914,0,0,0-14.54,10.474,72.544,72.544,0,0,0-7.4,7.3,31.623,31.623,0,0,0-4.481,6.334,40.454,40.454,0,0,1,7.58-5.482c1.633-1.773,3.358-3.468,5.14-5.085,1.025-.931,2.077-1.823,3.143-2.694a4.211,4.211,0,0,1-1.622.592.469.469,0,0,1-.525-.608c.442-1.449,1.976-2.253,3.2-2.991a31.787,31.787,0,0,1,4.343-2.161c1.008-.416,2.036-.782,3.07-1.128.777-.542,1.553-1.085,2.335-1.624,8.856-6.1,17.415-12.653,26.5-18.411a15.436,15.436,0,0,1,3.4-3.407c.51-.364,1.336.23.878.786l0,0c2.337-1.381,4.711-2.682,7.143-3.879-.526-.866.7-2.121,1.556-1.394.161.136.3.288.452.429a20.791,20.791,0,0,1,3.982-1.482,41.876,41.876,0,0,0,4.907-1.5,1.74,1.74,0,0,0,.79-2.312c-4.11-7.835-7.477-16.578-14.571-22.189-.4-.314-.8-.624-1.22-.917a.646.646,0,0,0-.851.951" transform="translate(-73.972 -35.106)" fill="#161616"/><path d="M458.212,235.574c-.523-2.28-.945-4.579-1.579-6.833-1.138-4.046-2.748-8.007-5.875-10.892-.153-.141-.291-.293-.452-.429-.86-.728-2.082.528-1.556,1.393a.894.894,0,0,0,.131.2c3.117,3.032,4.571,7.149,5.441,11.318.756,3.618.8,7.458,1.761,11.026a152.574,152.574,0,0,1-16.8,4.4q-9,2.058-18.019,4.013c-9.377,2.033-18.953,4.218-27.558,8.6-.659.335-1.31.69-1.955,1.055a40.422,40.422,0,0,0-7.58,5.482,32.08,32.08,0,0,0-3.042,3.217,1.3,1.3,0,0,0-.305.793,24.623,24.623,0,0,1,2.643.969c.068.035.132.077.2.111,6.532-6.7,14.682-10.9,23.523-13.791,10.118-3.307,20.6-5.649,30.927-8.205,6.619-1.638,13.334-3.491,20.129-4.216A1.55,1.55,0,0,0,459.44,242a51.527,51.527,0,0,0-1.228-6.422" transform="translate(-73.176 -41.735)" fill="#161616"/><path d="M265.346,302.106a3.219,3.219,0,0,0-.313-.13,4.733,4.733,0,0,0-2.272-.249c-.472.03-.944.031-1.416.034-.38,0-.761,0-1.141.032a14.183,14.183,0,0,1-4.837-.394,23.041,23.041,0,0,1-8.845-4.586c-.626-.532-1.571.512-.966,1.079a24.367,24.367,0,0,0,9.1,5.494c1.653.54,3.336,1.026,5.033,1.408a9.855,9.855,0,0,0,2.033.218c.017-.079.038-.154.054-.234a.669.669,0,0,1,1.333.1c0,.039,0,.078,0,.116a4.27,4.27,0,0,0,1.75-.369,2.633,2.633,0,0,0,.6-.4,1.44,1.44,0,0,0,.221-1.81,1,1,0,0,0-.337-.3" transform="translate(-47.146 -57.005)" fill="#161616"/><path d="M366.405,280.809c-.194-.071-.389-.141-.577-.226a3.03,3.03,0,0,1-.458-.267,5.321,5.321,0,0,0-1.2-.746,8.672,8.672,0,0,0-1.54-.339c-.037-.006-.074-.006-.112-.012a11.673,11.673,0,0,0-2.364-.084c-.559.032-1.116.087-1.667.17-.228.035-.453.082-.679.124a30.893,30.893,0,0,0-4.99,1.454c-.012.218-.036.434-.046.652a.923.923,0,0,1-1.828.065c-.523.2-1.045.41-1.567.61-3.115,1.2-6.29,2.26-9.5,3.185-1.132.326-2.275.636-3.423.937q-1.486.388-2.987.743a100.36,100.36,0,0,1-11.442,2.051c-.7.081-1.39.158-2.085.221-.824.074-.747,1.505.091,1.469q1.369-.058,2.732-.133a96.337,96.337,0,0,0,13.415-1.522,100.9,100.9,0,0,0,15.274-4.306,36.416,36.416,0,0,1,7.694-2.213,18.845,18.845,0,0,1,3.238-.092c1.134.046,2.441-.239,3.486.174a16.171,16.171,0,0,1,8.844,8.963,17.581,17.581,0,0,1-.756,13.826,21.933,21.933,0,0,1-9.092,9.048,46.752,46.752,0,0,1-12.425,4.514,79.972,79.972,0,0,1-14.378,2.4,24.93,24.93,0,0,1-8.335-.931,66.554,66.554,0,0,0-9.222-2.323,19.5,19.5,0,0,0-4.6-.089,5.242,5.242,0,0,1-3.727-.834,8.272,8.272,0,0,1-3.257-5.3c-.036-.19-.073-.38-.1-.571-.24-1.974-3.275-1.368-3.036.6.019.151.049.3.075.453a11.75,11.75,0,0,0,1.738,4.42,12.479,12.479,0,0,1,1.21-1.272c1.156-1.041,2.527.692,1.537,1.78a12.635,12.635,0,0,0-1.128,1.452,8.092,8.092,0,0,0,5.677,2.419,25.812,25.812,0,0,1,9.5.742c2.813.672,5.552,1.68,8.441,2,5.415.6,10.944-.513,16.235-1.56a79.006,79.006,0,0,0,14.068-3.92,27.557,27.557,0,0,0,10.5-7.023,11.506,11.506,0,0,1-.654-1.2,1.211,1.211,0,0,1,1.758-1.519,6.107,6.107,0,0,1,.668.424,20.6,20.6,0,0,0,3.332-13.228,17.641,17.641,0,0,0-6.84-12.438,17.862,17.862,0,0,0-2.665-1.666c-.068-.035-.132-.077-.2-.111a24.685,24.685,0,0,0-2.643-.969" transform="translate(-58.756 -53.631)" fill="#161616"/><path d="M372.607,317.337a11.515,11.515,0,0,0,.654,1.205c.616,1.012,1.332,1.953,1.9,3.018a18.9,18.9,0,0,1,1.726,4.585,21.216,21.216,0,0,1,.027,9.613,19.179,19.179,0,0,1-4.434,8.658c-2.8,3.035-6.648,4.858-10.465,6.27-8.212,3.038-17.354,4.98-26.147,4.543a21.473,21.473,0,0,1-5.943-1.015,17.42,17.42,0,0,1-5.15-3.185c-3.376-2.678-7.457-3.3-11.245-5.125a13.161,13.161,0,0,1-4.732-3.63,12.435,12.435,0,0,1-2.138-5.9,14.851,14.851,0,0,1,2.18-10.494,12.707,12.707,0,0,1,1.128-1.452c.989-1.087-.382-2.821-1.537-1.78a12.491,12.491,0,0,0-1.21,1.273,16.02,16.02,0,0,0-3.452,9.888c-.082,3.68.689,7.668,3,10.617.212-.229.426-.456.649-.665.862-.807,2.017.389,1.464,1.31-.195.323-.385.65-.574.978,3.011,2.658,6.795,3.7,10.5,5.186,2.333.936,4.035,2.486,6.035,3.941a16.061,16.061,0,0,0,5.969,2.622,42.753,42.753,0,0,0,13.58.315,75.492,75.492,0,0,0,15.563-3.319,49.616,49.616,0,0,0,9.251-3.82c-.218-.5-.444-.99-.673-1.49a1.293,1.293,0,0,1,2.13-1.408,8.816,8.816,0,0,1,.987,1.354c.448-.322.89-.654,1.317-1.009a21.28,21.28,0,0,0,6.278-9.089A24.535,24.535,0,0,0,380.3,326.7a22.546,22.546,0,0,0-1.943-5.941,11.863,11.863,0,0,0-3.32-4.517,5.986,5.986,0,0,0-.668-.424,1.211,1.211,0,0,0-1.758,1.518" transform="translate(-58.368 -60.653)" fill="#161616"/><path d="M368.183,356.113c.229.5.455.994.671,1.49a13.807,13.807,0,0,1,1.057,3.235,14,14,0,0,1-.064,4.878,16.04,16.04,0,0,1-5.1,8.861c-5.724,5.228-13.7,6.7-21.2,7.038a110.459,110.459,0,0,1-11.344.017,23.408,23.408,0,0,1-7.8-1.646,31.562,31.562,0,0,1-7.26-4.711c-2.643-2.117-5.581-3.64-8.347-5.57a8.739,8.739,0,0,1-3.905-8.547,21.318,21.318,0,0,1,3.062-8.481q.282-.493.574-.978c.553-.921-.6-2.117-1.465-1.31-.223.209-.435.437-.649.665-4.181,4.494-6.222,12.608-2.675,17.888.088.131.194.245.288.37.124-.106.246-.214.369-.317.9-.758,2.361.456,1.573,1.408-.145.175-.3.364-.449.554,2.054,1.84,4.7,3.067,6.977,4.547,2.991,1.942,5.523,4.436,8.71,6.11,6.243,3.279,13.562,2.95,20.414,2.768a51.877,51.877,0,0,0,15.915-2.492q.075-.4.149-.795a1.225,1.225,0,0,1,2.389-.231,26.313,26.313,0,0,0,5.567-3.42,19.231,19.231,0,0,0,6.841-10.569c.779-3.424.7-7.685-1.181-10.817a8.8,8.8,0,0,0-.988-1.353,1.292,1.292,0,0,0-2.129,1.408" transform="translate(-58.014 -67.276)" fill="#161616"/><path d="M357.1,385.527c-.051.266-.1.532-.149.795a13.658,13.658,0,0,1-6.344,10.175c-4.257,2.886-9.669,3.427-14.678,3.18a95.621,95.621,0,0,1-16.853-2.642,19.134,19.134,0,0,1-4.062-1.264,9.873,9.873,0,0,1-3.052-2.62,66.283,66.283,0,0,0-5.134-5.051,37.512,37.512,0,0,1-2.794-2.886,6.331,6.331,0,0,1-1.917-3.4c-.231-2.284,1.387-4.64,2.815-6.422.152-.189.3-.379.45-.554.787-.952-.674-2.165-1.574-1.408-.123.1-.246.212-.368.318-1.924,1.656-3.774,3.57-4.379,6.107-.01.044-.011.086-.021.129.712.075,1.434.06,2.138.2.455.093.822.708.35,1.057a4.109,4.109,0,0,1-2.653.7,7.538,7.538,0,0,0,.917,3.13c1.5-.1,3.326-.192,4.518.647a.9.9,0,0,1,.078,1.408,5.065,5.065,0,0,1-2.113.948c1.927,1.65,4.248,2.816,6.12,4.543,1.459,1.344,2.6,2.9,4.071,4.117,1.023-.062,2.039-.171,3.074-.164a.673.673,0,0,1,.246,1.267,6.992,6.992,0,0,1-1.036.285,43.587,43.587,0,0,0,7.5,2.236,13.667,13.667,0,0,1,8.376-.014.884.884,0,0,1,.027,1.624c1.068.157,2.138.3,3.212.406l.347.031c.475-.713,1.07-1.364,1.6-2.029a.311.311,0,0,1,.547.28,15.812,15.812,0,0,0-.494,1.877c5.266.323,10.811-.179,15.42-2.856,4.546-2.638,9.787-8.579,8.24-14.3-.008-.031-.026-.051-.036-.081a1.224,1.224,0,0,0-2.387.23" transform="translate(-57.429 -71.708)" fill="#161616"/><path d="M223.563,396.833a26.288,26.288,0,0,1-4.593-1.568,32.14,32.14,0,0,1-7.738-4.957c-5.014-4.261-8.587-9.939-11.271-15.886a80.189,80.189,0,0,1-6.045-19.87,64.72,64.72,0,0,1,.047-19.235c.794-5.9,2.008-12.1,6.2-16.51.357-.376.729-.743,1.13-1.092a.679.679,0,0,0-.6-1.166.707.707,0,0,0-.286.136c-4.943,3.885-7.7,9.672-9.066,15.7a61.164,61.164,0,0,0-1.342,20.471,81.6,81.6,0,0,0,6.066,21.948A49.309,49.309,0,0,0,208,392.333a34.046,34.046,0,0,0,9.58,6.216,25.2,25.2,0,0,0,5.706,1.714,9.05,9.05,0,0,0,3.009.065,8.346,8.346,0,0,0,2.6-1.2.973.973,0,0,0,.415-1.217l-.315.1a28.79,28.79,0,0,1-4.064,1.162.83.83,0,0,1-.323-1.627,8.562,8.562,0,0,0,1.217-.353c-.048-.006-.1-.015-.145-.021a16.707,16.707,0,0,1-2.114-.336" transform="translate(-36.44 -60.822)" fill="#161616"/><path d="M165.359,321.26c-.571-.152-1.139-.317-1.705-.486a15.909,15.909,0,0,0-4.145,2.529,10.113,10.113,0,0,0-2.495,4.052c-.214.484-.418.966-.6,1.452.469-1.131.963-2.25,1.5-3.347.432-.876,1.839-.437,1.469.523a73.459,73.459,0,0,0-2.338,7.209.751.751,0,0,0,.462-.543c.4-1.43.617-3.287,1.67-4.424a13.944,13.944,0,0,1,1.862-1.353c.538-.407,1.074-.822,1.632-1.2,3.087-2.106,7-3.012,10.462-4.317q6.135-2.316,12.31-4.527c2.049-.736,4.076-1.516,6.115-2.279q1.524-.571,3.056-1.117c.071-.025.142-.048.213-.071a4.137,4.137,0,0,0,2.238-1.247.613.613,0,0,0-.3-.914,2.553,2.553,0,0,0-1.324-.152c-.51.058-1.023.206-1.53.313q-1.724.365-3.441.759c-2.3.525-4.556,1.116-6.813,1.793-4.583,1.373-9.14,2.893-13.637,4.526-1.179.429-2.423.833-3.664,1.273a.954.954,0,0,1-1,1.551" transform="translate(-30.055 -59.763)" fill="#161616"/><path d="M224.958,399.5l-.1,0h0c-.158.009-.314.021-.473.026l-.137,0-.147.01c-.183.018-.362.058-.543.088.273,2.306-.308,4.3-2.581,5.41-2.386,1.168-5.1,1.694-7.558,2.725a49.765,49.765,0,0,0-13.191,8.191,40.313,40.313,0,0,0-4.484,4.934c-1.428,1.713-3.152,3.85-5.628,3.453a41.445,41.445,0,0,1-6.881-2,34.228,34.228,0,0,1-6.311-2.874,47.841,47.841,0,0,1-11.1-8.734,46.835,46.835,0,0,1-7.94-11.949c-4.532-9.8-6-20.8-5.909-31.516.082-10.24.866-20.788,3.559-30.753a73.04,73.04,0,0,1,2.338-7.21c.369-.96-1.038-1.4-1.469-.523-.54,1.1-1.035,2.217-1.5,3.348q-1.026,2.474-1.848,5.039c.218.3.43.607.663.9.877,1.1-.356,2.738-1.556,2.148a116.972,116.972,0,0,0-3.478,24.509c0,.019,0,.038,0,.057a8.813,8.813,0,0,1,1.985,1.831.882.882,0,0,1-1.162,1.3,8.081,8.081,0,0,0-.919-.5c-.27,10.786,1.2,21.786,5.5,31.718.608,1.4,1.293,2.792,2.035,4.156.208-1.062.374-2.13.531-3.177.147-.982,1.642-.9,1.555.114-.158,1.848-.3,3.777-.574,5.677a45.655,45.655,0,0,0,16.735,16.239,36.467,36.467,0,0,0,8.056,3.179,1.975,1.975,0,0,1,.176-.79,1.337,1.337,0,0,1,2.245-.42,2.991,2.991,0,0,1,.592,1.831,24.712,24.712,0,0,0,3.345.286,13.43,13.43,0,0,0,5.23-.756c.1-.233.191-.47.309-.7a.906.906,0,0,1,1.411-.293c1.773-1.342,3.058-3.286,4.56-4.9,4.164-4.482,10.113-7.767,15.781-9.9,2.821-1.064,6.306-1.5,8.482-3.769a6.122,6.122,0,0,0,1.347-6.739,1.594,1.594,0,0,1-.944.339" transform="translate(-28.545 -63.085)" fill="#161616"/><path d="M92.232,339.922c.031.57.027,1.143.036,1.715.055-.006.107-.006.166-.017,4.129-.787,8.191-2.479,12.117-3.941a124.132,124.132,0,0,0,11.813-5.081c3.832-1.9,7.615-3.945,11.261-6.179,3.5-2.146,6.928-4.869,10.915-6.078,4.409-1.338,8.468.177,12.632,1.423.565.17,1.133.334,1.7.486a.955.955,0,0,0,1-1.551,1.1,1.1,0,0,0-.132-.154,18.678,18.678,0,0,0-12.319-4.361c-4.612.15-8.125,2.533-11.73,5.148a106.954,106.954,0,0,1-23.22,13,59.967,59.967,0,0,1-7.069,2.45c-2.5.65-5.071,1.231-7.54,1.993a1.637,1.637,0,0,0-.42.2.94.94,0,0,1,.783.94" transform="translate(-17.572 -60.753)" fill="#161616"/><path d="M196.345,447.591c-.118.225-.208.463-.31.7-1.4,3.192-1.389,6.983-3.34,9.9a14.734,14.734,0,0,1-4.344,3.786c-1.8,1.2-3.534,2.473-5.394,3.573a90,90,0,0,1-11.5,5.737c-1.987.82-3.984,1.616-5.968,2.44-1.928.8-3.815,1.738-5.766,2.481a5.86,5.86,0,0,1,.817.288,1.125,1.125,0,0,1-.157,2.142,6.384,6.384,0,0,1-1.3.21,1.123,1.123,0,0,0,1.293.042c3.912-2.331,8.478-3.738,12.68-5.466s8.3-3.538,12.311-5.669c3.542-1.884,8.118-3.962,10.159-7.622,1.975-3.542,1.688-7.729,2.768-11.542a1.193,1.193,0,0,0-.536-1.287.905.905,0,0,0-1.411.293" transform="translate(-30.567 -85.907)" fill="#161616"/><path d="M146.944,432.543c-1.055.864-2.651,1.873-3.231,3.145-.779,1.708.477,3.123,2.136,3.385a34.194,34.194,0,0,0,5.08.3c1.392,0,3.543.189,4.648-.8a.564.564,0,0,0-.048-.881,4.153,4.153,0,0,0-2.037-.517c-.861-.095-1.725-.168-2.582-.294a17.453,17.453,0,0,1-2.376-.479c-.158-.046-.312-.1-.468-.155.24-.187.477-.368.687-.542.756-.627,1.529-1.234,2.262-1.889a15.888,15.888,0,0,0,3.884-4.8,20.911,20.911,0,0,0,1.757-6.2c.278-1.9.416-3.828.574-5.677.086-1.011-1.408-1.1-1.555-.114-.157,1.047-.322,2.115-.531,3.177A19.2,19.2,0,0,1,153.182,426c-1.522,2.693-3.885,4.613-6.237,6.539" transform="translate(-27.569 -79.997)" fill="#161616"/><path d="M131.723,369.955c-.209.1-.4.232-.6.352.2-.221.391-.444.6-.65.539-.53,1.125-1,1.7-1.495a6.915,6.915,0,0,0,1.717-1.574.376.376,0,0,0-.279-.581,4.332,4.332,0,0,0-2.294.86,12.41,12.41,0,0,0-2.066,1.587,20.63,20.63,0,0,0-3.519,4.164,1.122,1.122,0,0,0,.538,1.662c1.427.679,2.881.208,4.232-.417a18.4,18.4,0,0,1,2-1.012,6.15,6.15,0,0,1,2.129-.254,25.113,25.113,0,0,1,4.741.843,18.615,18.615,0,0,1,3.779,1.212,8.021,8.021,0,0,1,.919.5.882.882,0,0,0,1.162-1.3,8.778,8.778,0,0,0-1.985-1.831,19.476,19.476,0,0,0-7.484-2.646,8.439,8.439,0,0,0-5.293.576" transform="translate(-24.363 -70.327)" fill="#161616"/><path d="M146.406,333.308c-2.285-1.081-5.054-1.072-7.528-1.036-.83.012-.951,1.275-.1,1.308,2.322.09,4.814.188,6.8,1.539,2.032,1.381,2.387,4.228,4.351,5.71a1.522,1.522,0,0,0,.236.146c1.2.59,2.432-1.051,1.556-2.148-.233-.292-.444-.6-.663-.9-.529-.733-1.041-1.476-1.584-2.2a7.853,7.853,0,0,0-3.073-2.415" transform="translate(-26.554 -63.844)" fill="#161616"/><path d="M189.245,448.518v.027c0,.129.007.259.007.389a14.177,14.177,0,0,1-.092,1.549,7.285,7.285,0,0,1-.261,1.316,12.435,12.435,0,0,1-.476,1.481,8.54,8.54,0,0,1-4.042,4.22.731.731,0,0,0,.643,1.311,11.547,11.547,0,0,0,5.421-4.5,9.972,9.972,0,0,0,1.476-3.248,9.19,9.19,0,0,0,.321-2.453,2.99,2.99,0,0,0-.591-1.831,1.338,1.338,0,0,0-2.246.42,1.989,1.989,0,0,0-.176.79,3.9,3.9,0,0,0,.006.41c0,.053.006.087.009.117" transform="translate(-35.351 -85.761)" fill="#161616"/><path d="M287.6,327.679c-1.343,2.93-2.674,5.848-3.75,8.89-.352,1,1.083,1.459,1.516.54,1.327-2.817,2.581-5.674,3.988-8.453.715-1.41,1.643-2.661,2.446-4.013.791-1.333,1.591-2.66,2.372-4a1.794,1.794,0,0,0,.229-.971,1.482,1.482,0,0,0-.634-1.215,1.585,1.585,0,0,0-2.186.406c-.031.06-.061.121-.093.18-.762,1.423-1.48,2.876-2.15,4.343-.641,1.4-1.094,2.888-1.738,4.295" transform="translate(-54.532 -61.141)" fill="#161616"/><path d="M268.3,261.806a.837.837,0,0,0,.73.645,8.119,8.119,0,0,0,4.232-.742c.212-.084.418-.182.624-.277a12.521,12.521,0,0,0,1.141-.595c.34-.2.671-.422,1-.649.153-.107.333-.228.53-.359a2.182,2.182,0,0,0,.4-.163c.077-.041.153-.084.231-.129a1.7,1.7,0,0,0,1.036-1.455c.007-.7-.509-1.565-1.319-1.528a1.713,1.713,0,0,0-1.524.818c-.009.015-.02.023-.029.038-.116.188-.243.371-.339.565a8.549,8.549,0,0,1-2.7,1.777,14.034,14.034,0,0,1-1.888.656c-.55.159-1.109.316-1.68.519a.809.809,0,0,0-.435.879" transform="translate(-51.551 -49.297)" fill="#161616"/><path d="M225.843,392.369q-1.06-1.045-2.13-2.079c-1.431-1.389-2.823-2.819-4.152-4.307a56.86,56.86,0,0,1-6.889-9.092,37.122,37.122,0,0,1-4.235-11.185c-.987-4.657-1.439-9.407-2.354-14.075-.163-.831-1.583-.807-1.542.1.221,4.82.622,9.72,1.234,14.508A32.206,32.206,0,0,0,209.87,378.5a43.23,43.23,0,0,0,7.662,9.519c1.486,1.4,3.026,2.739,4.6,4.032q1.155.948,2.359,1.824a6.258,6.258,0,0,0,2.491,1.415c.506.09.75-.5.6-.889a6.4,6.4,0,0,0-1.745-2.031" transform="translate(-39.303 -67.45)" fill="#161616"/><path d="M260.017,332.9a39.576,39.576,0,0,0-2.825,6.873,13.694,13.694,0,0,1,.209,2.589c-.014,1.086.007,2.837-1.061,3.438a.579.579,0,0,1-.449.045,32.536,32.536,0,0,0-.256,4.2,26.378,26.378,0,0,0,2.441,1.734c1.09.679.159,2.327-.994,1.945a7.438,7.438,0,0,1-1.264-.567,28.41,28.41,0,0,0,1,5.028.869.869,0,0,0,.113.217.829.829,0,0,1,.355-.661,5.99,5.99,0,0,1,1.363-.776,65.13,65.13,0,0,1,.932-12,42.03,42.03,0,0,1,4.408-12.19c3.555-6.8,8.416-14.041,8.73-21.957a19.776,19.776,0,0,0-.016-2.109c-.061-.919-1.476-.754-1.566.1-.033.317-.084.625-.127.937a31.5,31.5,0,0,1-4.283,12.007c-2.208,3.736-4.693,7.3-6.713,11.151" transform="translate(-49.12 -59.199)" fill="#161616"/><path d="M285.989,383.9c-3.846-.952-6.4-4.644-9.049-7.319a35.931,35.931,0,0,0-9.843-7.037c-2.509-1.222-5.527-2.141-8.134-1.066a6,6,0,0,0-1.364.776.834.834,0,0,0-.355.66,1.054,1.054,0,0,0,1.424.958,5.306,5.306,0,0,1,.666-.227,5.031,5.031,0,0,1,.109-1.169c.128-.586,1.054-.352,1.008.212a4.457,4.457,0,0,0,.013.784c2.888-.149,5.707,1.952,8.038,3.453a38.941,38.941,0,0,1,6.956,6.031.907.907,0,0,1,1.565.667c-.011.312-.023.623-.035.935l.283.3c2.6,2.726,5.369,5.005,9.2,5.579.332.05.667.079,1,.1a5.644,5.644,0,0,0-.349-.6.5.5,0,0,1,.749-.647,6.7,6.7,0,0,1,.94,1.3c.862,0,1.726-.051,2.576-.125a20.177,20.177,0,0,0,2.89-.4,5.066,5.066,0,0,0,2.112-.948.9.9,0,0,0-.078-1.409c-1.192-.839-3.016-.744-4.518-.647-.224.015-.44.028-.647.04a17.415,17.415,0,0,1-5.158-.208" transform="translate(-49.43 -70.712)" fill="#161616"/><path d="M254.068,351.374a26.418,26.418,0,0,1-2.441-1.733q-1.051-.836-2.035-1.759a22.12,22.12,0,0,0-3.96-3.239,10.881,10.881,0,0,0-8.467-.988,23.217,23.217,0,0,1,1.467-3.868,26.9,26.9,0,0,1,2.9-4.976,62.726,62.726,0,0,1,8.556-8.711,39.634,39.634,0,0,0,7.8-8.923c1.819-3.1,3.375-6.74,3.2-10.4,0-.039,0-.078,0-.116a.669.669,0,0,0-1.333-.1c-.016.08-.037.155-.053.234a22.514,22.514,0,0,1-4.988,10.335,87.1,87.1,0,0,1-8.853,8.478,43.109,43.109,0,0,0-8.012,8.807,20.217,20.217,0,0,0-2.462,5.144,22.589,22.589,0,0,0-.6,5.634,1.074,1.074,0,0,0,1.528,1.032,8.494,8.494,0,0,1,8.223.332c.688-.455,1.866.107,1.431,1.008,1.978,1.672,3.576,3.929,5.847,5.182a7.552,7.552,0,0,0,1.266.567c1.152.38,2.083-1.266.993-1.946" transform="translate(-45.113 -58.792)" fill="#161616"/><path d="M310.628,407.868c-.891.008-.98-1.508-.1-1.567a21.616,21.616,0,0,1,4.45.174,26.56,26.56,0,0,1,3.028-1.862c2.606-1.285,5.345-1.079,8.137-.81a.82.82,0,0,0,.382-.057.884.884,0,0,0-.028-1.624,13.661,13.661,0,0,0-8.376.014,20.137,20.137,0,0,0-3.417,1.3c-1.884.929-3.542,2.169-5.6,2.719a14.456,14.456,0,0,1-5.714.35c-4.443-.607-7.333-3.52-10.549-6.344-2.962-2.6-6.977-4.971-11.049-3.667a13.042,13.042,0,0,1-1.315.5c-.1-.078-.078-.759-.077-.992,0-1.344.129-2.7.179-4.047q.141-3.809.283-7.616.017-.468.035-.935a.907.907,0,0,0-1.565-.666.806.806,0,0,0-.139.156c.269.082.54.161.808.244,1.2.375.543,2.192-.654,1.835-.16-.048-.319-.1-.479-.15l-.458,3.52a5.051,5.051,0,0,1,1.19.914.988.988,0,0,1-.811,1.614l-.7-.071q-.029.225-.059.45c-.271,2.082-1.028,4.653-.351,6.714.7,2.12,2.637,2.306,4.482,1.6a5.949,5.949,0,0,1,1.254-.32c.575-.41,1.149-.81,1.722-1.184.865-.564,1.8.686,1.275,1.453a9.85,9.85,0,0,1,2.147,1.007c3.885,2.4,6.469,6.274,10.866,7.95a17.043,17.043,0,0,0,12.161-.082c.314-.123.618-.261.915-.41a15.545,15.545,0,0,0-1.875-.107" transform="translate(-53.304 -73.491)" fill="#161616"/><path d="M268.117,382.684a34.921,34.921,0,0,0-5.014.695c-3.41.584-6.828.15-9.029-2.836a33.041,33.041,0,0,1-2.3-4.66A18.664,18.664,0,0,0,249.085,372a19.492,19.492,0,0,0-6.46-4.791,74.907,74.907,0,0,1,4.209-10.016v0c.435-.9-.742-1.463-1.431-1.008a.865.865,0,0,0-.21.176,35.362,35.362,0,0,0-5.8,11.233,1.505,1.505,0,0,0,.9,1.889,16.952,16.952,0,0,1,7.886,5.422c2.023,2.576,2.6,5.984,4.922,8.336a10.752,10.752,0,0,0,8.417,3.172c1.728-.1,3.4-.511,5.11-.751a17.1,17.1,0,0,1,4.144.062l.7.072a.988.988,0,0,0,.811-1.615,5,5,0,0,0-1.189-.914,5.636,5.636,0,0,0-2.977-.578" transform="translate(-45.985 -68.409)" fill="#161616"/><path d="M339.417,406.81c-.529.664-1.125,1.314-1.6,2.028-.1.145-.2.288-.28.44a20.981,20.981,0,0,0-1.339,3.046,18.4,18.4,0,0,0-.953,4.11,46.685,46.685,0,0,0-7.158-3.849,22.368,22.368,0,0,0-5.376-1.455,21.547,21.547,0,0,0-4.45-.174c-.883.059-.795,1.575.1,1.567a15.384,15.384,0,0,1,1.875.107c5.686.635,10.832,4.24,15.442,7.377a1.4,1.4,0,0,0,2.169-1.042,42.7,42.7,0,0,1,.641-5.97c.179-1.02.483-1.991.742-2.99.09-.347.166-.693.242-1.039a15.781,15.781,0,0,1,.494-1.877.311.311,0,0,0-.547-.279" transform="translate(-61.035 -78.145)" fill="#161616"/><path d="M277.036,401.732c-.573.373-1.146.774-1.722,1.184-5.62,4.007-11.421,9.408-18.574,9.268-6.939-.137-14.78-.353-20.39-4.979-.613-.5-1.507.483-.933,1.043a18.521,18.521,0,0,0,4.225,3.055,6.422,6.422,0,0,1,2.157-.268,1.3,1.3,0,0,1,1.179,1.366,1.1,1.1,0,0,1-.069.344,49.552,49.552,0,0,0,13.857,2.294c4.5.238,8.215-1.465,11.995-3.742,3.562-2.146,7.114-4.668,9.542-8.1,0,0,0-.01.007-.015.52-.767-.41-2.016-1.275-1.453" transform="translate(-45.2 -77.166)" fill="#161616"/><path d="M241.2,413.278a6.424,6.424,0,0,0-2.157.268,12.657,12.657,0,0,0-2.331.952,23.02,23.02,0,0,1-2.731,1.279,8.551,8.551,0,0,1-1.217.353.83.83,0,0,0,.322,1.627,28.759,28.759,0,0,0,4.064-1.162l.316-.1c.541-.169,1.083-.339,1.638-.463.169-.037.341-.055.512-.083s.359-.07.542-.088l.147-.01.137,0c.158,0,.315-.017.473-.025h0l.1,0a1.58,1.58,0,0,0,.944-.338,1.166,1.166,0,0,0,.423-.842,1.3,1.3,0,0,0-1.18-1.366" transform="translate(-44.602 -79.409)" fill="#161616"/><path d="M269.108,149.455c0,.064.01.127.014.19a11.245,11.245,0,0,0,5.665-1.728,11.486,11.486,0,0,0,4.447-5.869,7.485,7.485,0,0,0,.435-3.453c-.5-.111-.818-.739-.444-1.094a.516.516,0,0,0-.375-.139c-.549.034-.651.727-.75,1.141a23.754,23.754,0,0,1-.965,3.647,10.233,10.233,0,0,1-1.985,3.114,10.832,10.832,0,0,1-7.118,3.495c-.527.027-.641.764-.173.881.006-.092.007-.185.014-.277.061-.822,1.188-.677,1.234.09" transform="translate(-51.413 -26.394)" fill="#161616"/><path d="M377.045,158.225c-.061-.006-.121-.017-.181-.024a20.816,20.816,0,0,0,1.848,12.306,15.107,15.107,0,0,0,3.342,4.408,7.857,7.857,0,0,0,3.649,2.078c-.006-.216-.006-.431-.015-.647-.028-.686,1.055-.708,1.175-.073.042.22.061.441.1.662a.615.615,0,0,0,.307-.99c-1.074-1.1-2.654-1.593-3.817-2.617a13.607,13.607,0,0,1-2.976-3.977c-1.872-3.584-2.3-7.448-2.355-11.44a.628.628,0,0,0-.188-.462.775.775,0,0,1-.885.776" transform="translate(-72.367 -30.254)" fill="#161616"/><path d="M237.283,192.925c.074.074.139.16.212.235,1.245-.891,1.878-2.731,2.257-4.1a15.961,15.961,0,0,0,.408-6.178,19.79,19.79,0,0,0-5.218-10.609,4.656,4.656,0,0,1-1.093.514,23.994,23.994,0,0,1,4.1,10.03,13.937,13.937,0,0,1-.308,5.316,14.9,14.9,0,0,1-.9,2.466,5.849,5.849,0,0,0-.793,2.284.747.747,0,0,0,.382.635.571.571,0,0,1,.952-.589" transform="translate(-44.934 -33.101)" fill="#161616"/><path d="M246.038,159.355a45.194,45.194,0,0,0-4.7,2.756,40.543,40.543,0,0,0-4.266,3.252c-1.364,1.2-2.542,2.695-4.169,3.535a.605.605,0,0,0,.383,1.132c.109-.023.212-.064.317-.1a4.68,4.68,0,0,0,1.094-.515,24.441,24.441,0,0,0,2.645-2.228,46.453,46.453,0,0,1,4.42-3.353,42.94,42.94,0,0,1,4.679-2.695q1.2-.6,2.442-1.119c.546-.231,1.209-.41,1.782-.683a2.929,2.929,0,0,0,.72-.452.835.835,0,0,0-.479-1.448,2.383,2.383,0,0,0-.42.042,8.391,8.391,0,0,0-2.017.733q-1.234.531-2.432,1.137" transform="translate(-44.691 -30.253)" fill="#161616"/><path d="M274.736,240.221a58.411,58.411,0,0,0-6.565-10.344,60.194,60.194,0,0,0-8.955-9,88.712,88.712,0,0,1-10.6-9.933q-2.8-3.179-5.458-6.481c-1.692-2.093-3.214-4.49-5.083-6.431-.073-.075-.138-.161-.212-.235a.571.571,0,0,0-.952.589c.006.011,0,.022.01.034a42.017,42.017,0,0,0,4.126,5.881q2.181,2.913,4.46,5.75a70.38,70.38,0,0,0,9.706,10.22,84,84,0,0,1,9.595,8.892,62.42,62.42,0,0,1,7.288,10.243,55.133,55.133,0,0,1,3.039,6.25c.834,2.009,1.337,4.3,2.59,6.1.032.048.061.1.095.145a.424.424,0,0,0,.738-.244,8.407,8.407,0,0,0-.412-3.13c-.254-.855-.582-1.694-.886-2.511a58.83,58.83,0,0,0-2.521-5.8" transform="translate(-45.512 -37.973)" fill="#161616"/><path d="M288.226,251.771c0,.823,1.274,1.231,1.52.32.074-.274.134-.553.2-.831a54.448,54.448,0,0,0,.874-9.611c.146-3.512.136-7.027.015-10.541a140.808,140.808,0,0,0-2.371-20.9c-1.224-6.582-3.008-12.928-6.5-18.694-1.723-2.848-3.564-5.61-5.094-8.571a67.571,67.571,0,0,1-3.784-8.806,81.1,81.1,0,0,1-3.918-21.77c0-.064-.01-.127-.014-.19-.047-.767-1.173-.912-1.234-.09-.006.092-.007.185-.014.277-.851,12.437,3.229,25.361,9.693,35.878a77.122,77.122,0,0,1,5.076,8.824,59.232,59.232,0,0,1,3.126,9.638,113.757,113.757,0,0,1,3.238,21.133,116.3,116.3,0,0,1,.1,11.926q-.127,3.009-.4,6.008c-.132,1.449-.345,2.908-.448,4.366-.039.544-.064,1.088-.061,1.631" transform="translate(-51.456 -29.118)" fill="#161616"/><path d="M370.7,229.647c1.866-5.206,3.933-10.328,6.065-15.429a130.644,130.644,0,0,0,5.744-15.581c1.541-5.587,2.517-11.557,1.577-17.334-.036-.221-.054-.442-.1-.662-.121-.636-1.2-.613-1.175.073.009.216.008.431.015.647a51.31,51.31,0,0,1-1.886,15.663,136.964,136.964,0,0,1-5.753,15.569c-4.312,10.29-8.372,20.628-10.932,31.514a97.6,97.6,0,0,0-2.605,18.283.94.94,0,0,0,1.86.136c.01-.218.035-.435.046-.653.587-11.094,3.4-21.8,7.141-32.226" transform="translate(-69.492 -34.622)" fill="#161616"/><path d="M282.4,138.119a.694.694,0,0,0,.2.022c2.494-.163,4.951-.757,7.44-1a61.519,61.519,0,0,1,7.716-.275,59.652,59.652,0,0,1,15.226,2.4,102.7,102.7,0,0,1,14.237,5.893,94.059,94.059,0,0,0,14.493,5.428,108.916,108.916,0,0,0,16.931,3.286c.061.006.12.017.181.023a.775.775,0,0,0,.885-.776.845.845,0,0,0-.759-.936,98.914,98.914,0,0,1-30.58-8.759c-4.756-2.193-9.435-4.515-14.471-6.013a60.922,60.922,0,0,0-15.03-2.482,59.272,59.272,0,0,0-8.476.275,29.133,29.133,0,0,0-8.217,1.687.711.711,0,0,0-.217.14c-.375.354-.058.982.444,1.094" transform="translate(-54.147 -25.917)" fill="#161616"/><path d="M401.543,166a12.487,12.487,0,0,0,1.4,2.879c.122.182.24.364.378.544a13.554,13.554,0,0,0,1.28,1.442,9.6,9.6,0,0,1,1.7,1.594,3.544,3.544,0,0,1,.07,2.186c-.074.789-.144,1.579-.216,2.368-.137,1.507-.254,3-.472,4.5a64.921,64.921,0,0,1-4.766,17.815c-2.6,5.7-6.657,10.672-10.051,15.907a159.628,159.628,0,0,0-9.095,15.948q-.845,1.706-1.633,3.436c-.906,1.977-1.758,3.977-2.513,6.02q-.915,2.477-1.706,5a22.072,22.072,0,0,0-1.2,4.841.635.635,0,0,0,.536.627.473.473,0,0,0,.545-.247c1.408-2.708,2.155-5.834,3.323-8.667,1.222-2.959,2.534-5.892,3.928-8.776,2.761-5.714,5.955-11.192,9.217-16.63,3.286-5.478,7.141-10.736,9.87-16.522a66.551,66.551,0,0,0,4.972-17.452q.436-2.6.893-5.184a18.494,18.494,0,0,0,.624-4.861c-.175-1.655-1.507-2.264-2.642-3.262a15.455,15.455,0,0,1-2.463-2.82c-.288-.416-.559-.838-.8-1.263a.661.661,0,0,0-1.185.582" transform="translate(-72.003 -31.716)" fill="#161616"/><path d="M431.776,188.607a21.338,21.338,0,0,1,3.4-3.586,1.031,1.031,0,0,0-.325-1.736,10.856,10.856,0,0,1-6.568-8.39.4.4,0,0,0-.2-.311.5.5,0,0,0-.708.491,12.782,12.782,0,0,0,.373,2.109,12.307,12.307,0,0,0,4.993,7.181c-1.994,1.789-3.565,4.214-5.208,6.253q-1.576,1.957-3.17,3.9l-.136.162a36.533,36.533,0,0,0-3.112,3.975c-.468.762.5,1.734,1.207,1.081.127-.116.239-.25.363-.37a91.667,91.667,0,0,0,6-7.093l3.09-3.667" transform="translate(-80.895 -33.537)" fill="#161616"/><path d="M400.29,240.022c3.451-2.567,7.159-4.78,10.522-7.468,3.534-2.824,6.66-6.107,9.928-9.222a62.1,62.1,0,0,1,5.093-4.391c.94-.718,1.9-1.4,2.907-2.032a10.627,10.627,0,0,1,3.112-1.63.984.984,0,0,0,.766-.866,7.772,7.772,0,0,0-.247-2.37,19.381,19.381,0,0,1-.2-2.446,24.288,24.288,0,0,1,.414-4.849,22.963,22.963,0,0,1,3.22-8c.253-.4.513-.794.786-1.178.54-.759-.574-1.445-1.156-.795a20.94,20.94,0,0,0-3.551,5.548,22.693,22.693,0,0,0-1.377,4.2,21.879,21.879,0,0,0-.534,5.333,13.365,13.365,0,0,0,.5,4.172c-.563.349-1.2.63-1.745.967q-1.151.711-2.251,1.505a49.968,49.968,0,0,0-4.057,3.291c-2.738,2.444-5.33,5.043-8.015,7.544a69.873,69.873,0,0,1-8.221,6.617c-2.83,1.932-5.759,3.728-8.484,5.811l-.045.035a33.491,33.491,0,0,0-4.2,3.757,11.707,11.707,0,0,0-3.052,4.592c-.17.64.627,1.4,1.185.811a19.439,19.439,0,0,0,1.381-1.677,31.982,31.982,0,0,1,2.523-3.151,39.816,39.816,0,0,1,4.8-4.11" transform="translate(-75.011 -37.376)" fill="#161616"/><path d="M410.768,248.868a62.264,62.264,0,0,1,9.393-3.065c6.38-1.65,12.778-2.9,18.93-5.325a.82.82,0,0,0,.472-.7,23.8,23.8,0,0,1,1.555-8.567,26.2,26.2,0,0,1,4.543-7.427l0,0c.458-.556-.368-1.15-.878-.786a15.436,15.436,0,0,0-3.4,3.407,19.552,19.552,0,0,0-2.3,4.085,21.469,21.469,0,0,0-1.308,4.635,14.5,14.5,0,0,0,.034,4.072c-5.984,2.848-12.711,3.938-19.1,5.49-2.073.5-4.138,1.074-6.165,1.752-1.034.346-2.062.712-3.07,1.128a31.823,31.823,0,0,0-4.342,2.161c-1.22.738-2.754,1.542-3.2,2.991a.469.469,0,0,0,.526.608,4.194,4.194,0,0,0,1.621-.592c.831-.483,1.6-1.154,2.372-1.629a34.493,34.493,0,0,1,4.307-2.238" transform="translate(-77.229 -42.827)" fill="#161616"/><path d="M270.52,344.961a.483.483,0,0,0,.128.464,15.918,15.918,0,0,1,4.135,7.836,16.277,16.277,0,0,1,.384,4.333c-.078,1.389-.628,3.069-.207,4.417a.583.583,0,0,0,.652.445,2.289,2.289,0,0,1-.376-.544.384.384,0,0,1,.368-.546,2.359,2.359,0,0,1,.974.253,7.809,7.809,0,0,0,.936-3.854,15.61,15.61,0,0,0-5.878-13.007c-.065.111-.123.228-.195.335a.528.528,0,0,1-.922-.132" transform="translate(-51.978 -66.245)" fill="#161616"/><path d="M255.547,351.325c1.068-.6,1.047-2.353,1.061-3.439a13.691,13.691,0,0,0-.209-2.588,10.423,10.423,0,0,0-.313-1.315c-.717-2.257-2.27-4.071-3.239-6.2-.427.352-1.112-.3-.75-.76l.129-.166c-.362-.076-.83.207-.7.633.7,2.257,2.15,4.211,2.728,6.512a13.162,13.162,0,0,1,.462,3.52,13.647,13.647,0,0,1-.165,1.786,2.4,2.4,0,0,0,.052,1.695.824.824,0,0,0,.49.366.584.584,0,0,0,.449-.045" transform="translate(-48.327 -64.725)" fill="#161616"/><path d="M267.859,308.845a10.363,10.363,0,0,1-1.1,3.057c-.605.989-1.31,1.923-1.982,2.866q-1.981,2.787-4,5.552c-2.727,3.749-5.572,7.413-8.44,11.055l-.129.166c-.362.46.323,1.112.749.76a.435.435,0,0,0,.056-.04c3.366-3.7,6.554-7.546,9.636-11.484,1.548-1.978,3.031-4,4.486-6.047,1.07-1.507,2.679-3.491,2.358-5.475-.016-.1-.013-.2-.039-.293a.931.931,0,0,0-1.221-.586.676.676,0,0,0-.381.469" transform="translate(-48.444 -59.242)" fill="#161616"/><path d="M291.1,377.221a20.785,20.785,0,0,1-4.75-4.154,47.865,47.865,0,0,0-4.28-4.345,32.264,32.264,0,0,0-2.746-2.094,12.43,12.43,0,0,0-1.626-1.057,2.361,2.361,0,0,0-.974-.252.384.384,0,0,0-.368.545,2.287,2.287,0,0,0,.376.544,13.573,13.573,0,0,0,1.961,1.479,24.919,24.919,0,0,1,2.886,2.532c1.65,1.714,3.044,3.656,4.664,5.4a15.656,15.656,0,0,0,5.157,3.836,9.018,9.018,0,0,0,3.146.774,4.105,4.105,0,0,0,2.654-.7c.472-.348.1-.963-.35-1.056-.7-.144-1.425-.129-2.138-.2a5.815,5.815,0,0,1-.674-.106,10.293,10.293,0,0,1-2.937-1.142" transform="translate(-53.093 -70.196)" fill="#161616"/><path d="M278.661,318.452a55,55,0,0,1-2.871,6.539c-1.078,2.19-2.155,4.376-3.067,6.642-.845,2.1-2.023,4.433-2.232,6.7a.465.465,0,0,0,.025.2.529.529,0,0,0,.922.132c.072-.107.129-.224.195-.335a24.452,24.452,0,0,0,1.314-2.945q.774-1.825,1.618-3.62c1.073-2.281,2.193-4.531,3.328-6.781a41.189,41.189,0,0,0,2.865-6.779,21.4,21.4,0,0,0,.792-3.347,5.7,5.7,0,0,0-.366-3.218.634.634,0,0,0-1.154.065,7.707,7.707,0,0,0-.385,2.122c-.034.421-.066.843-.131,1.268a19.657,19.657,0,0,1-.854,3.357" transform="translate(-51.975 -59.816)" fill="#161616"/><path d="M266.561,377.356c-2.382-1.2-5.329-3.726-5.6-6.61a4.456,4.456,0,0,1-.013-.784c.046-.565-.881-.8-1.008-.212a4.991,4.991,0,0,0-.108,1.169c.058,2.958,2.684,5.586,4.956,7.195a19.192,19.192,0,0,0,5.127,2.453q2.775.911,5.576,1.749c.161.048.319.1.48.15,1.2.356,1.853-1.46.654-1.835-.269-.084-.539-.162-.808-.244-1.465-.447-2.936-.875-4.4-1.308a28.706,28.706,0,0,1-4.852-1.723" transform="translate(-49.927 -70.982)" fill="#161616"/><path d="M304.761,399.057a20.827,20.827,0,0,1-4.366-2.172,20.883,20.883,0,0,0-3.652-2.316,6.91,6.91,0,0,0-.848-2.663,6.718,6.718,0,0,0-.94-1.3.5.5,0,0,0-.75.647,5.58,5.58,0,0,1,.35.6,5.124,5.124,0,0,1,.6,3.282.838.838,0,0,0,.553.847c1.72.574,3.006,2,4.563,2.89a20.332,20.332,0,0,0,4.6,1.92,22.539,22.539,0,0,0,4.9.832,16.014,16.014,0,0,0,4.064-.191,7.019,7.019,0,0,0,1.036-.285.673.673,0,0,0-.246-1.267c-1.036-.007-2.051.1-3.074.164a14.453,14.453,0,0,1-2.008.014,18.655,18.655,0,0,1-4.782-1" transform="translate(-56.511 -75.023)" fill="#161616"/><path d="M81.067,452.342a11.534,11.534,0,0,1,1.16-.217c1.226-2.773,1.157-6.259,1.365-9.225q.37-5.243.738-10.487.746-10.618,1.495-21.235,1.486-21.1,2.97-42.209l.812-11.535c.242-3.44.523-6.918.469-10.375-.009-.572,0-1.145-.036-1.715a.94.94,0,0,0-.783-.94.929.929,0,0,0-1.068.8,90.872,90.872,0,0,0-1.209,10.453c-.292,3.492-.533,6.988-.8,10.483L84.572,387.37q-1.6,21.1-3.2,42.192-.437,5.766-.876,11.531c-.145,1.921-.328,3.843-.38,5.769a15.3,15.3,0,0,0,.435,5.722.509.509,0,0,0,.042.074.822.822,0,0,1,.476-.316" transform="translate(-15.382 -66.175)" fill="#161616"/><path d="M145.44,482.347a5.86,5.86,0,0,0-.817-.288,17.275,17.275,0,0,0-3.1-.465c-1.391-.135-2.781-.286-4.174-.4-2.61-.212-5.227-.37-7.839-.555l-16.2-1.147q-8.1-.573-16.2-1.124c-2.613-.179-5.227-.363-7.841-.534a34.363,34.363,0,0,0-6.945-.119,11.577,11.577,0,0,0-1.16.217.826.826,0,0,0-.115,1.571c2.5,1.02,5.333,1.061,8,1.276,2.611.211,5.224.409,7.835.612q8.1.634,16.194,1.246l16.2,1.222c2.612.2,5.223.422,7.836.592,1.394.09,2.792.143,4.188.212a21.929,21.929,0,0,0,2.689.036,6.444,6.444,0,0,0,1.3-.21,1.125,1.125,0,0,0,.157-2.142" transform="translate(-15.472 -91.765)" fill="#161616"/></g></g></g></g></svg>