<svg xmlns="http://www.w3.org/2000/svg" xmlns:xlink="http://www.w3.org/1999/xlink" width="532" height="588" viewBox="0 0 532 588"><defs><clipPath id="a"><rect width="532" height="588" transform="translate(10287 -2710)" fill="#fff" stroke="#707070" stroke-width="1"/></clipPath><clipPath id="b"><rect width="482.281" height="583.4" fill="none"/></clipPath></defs><g transform="translate(-10287 2710)" clip-path="url(#a)"><g transform="translate(10327 -2706.4)"><g clip-path="url(#b)"><path d="M76.032,583.4a5.51,5.51,0,0,1-5.247-3.092,4,4,0,0,1-.279-.778,4.11,4.11,0,0,1-.15-.6c-.02-.112-.038-.241-.056-.37l0-.023a65.958,65.958,0,0,1-2.071-10.863c-.233-1.746-.452-3.4-.732-4.981L.075,180.218a5.666,5.666,0,0,1,2.009-5.162,8.235,8.235,0,0,1,3.127-1.784L163.715,23.65C162.845,11.286,172.552,2.723,183.1.538c9.527-1.978,21.178,1.316,25.26,12.941l199.216,89.378a5.239,5.239,0,0,1,4.195,4.3c.022.127.039.251.057.376l0,.023a66.125,66.125,0,0,1,2.071,10.859c.233,1.749.453,3.4.732,4.986l67.176,381.1a4.783,4.783,0,0,1-.091,4.327,6.754,6.754,0,0,1-3.018,3.252,7.077,7.077,0,0,1-1.585.685,8.233,8.233,0,0,1-1.445.319c-3.466.869-7.059,1.413-10.538,1.94-1.707.258-3.41.515-5.087.811L77.567,583.26a8.839,8.839,0,0,1-1.534.14m-69-403.455L74.289,561.5c.3,1.727.544,3.527.776,5.268a61.972,61.972,0,0,0,1.786,9.613l382-67.335c1.731-.305,3.489-.572,5.253-.838,3.359-.508,6.834-1.035,10.044-1.849.1-.025.253-.055.364-.074.084-.014.168-.026.253-.035a1.251,1.251,0,0,0,.27-.057l.064-.02L407.837,124.6c-.3-1.729-.545-3.53-.777-5.272a60.191,60.191,0,0,0-1.855-9.833c-.017-.056-.034-.11-.05-.164l-.009,0-4.9-2.2a3.446,3.446,0,0,1-2.8,3.971L23.278,177.056c-1.734.305-3.493.573-5.259.841-1.629.247-3.263.5-4.885.777a3.446,3.446,0,0,1-2.8-.749l-1.09,1.029a3.456,3.456,0,0,1-1.787.892l-.342.06c-.025.011-.053.024-.082.04M475.878,507.956h0ZM7.057,179.916l-.019,0,.019,0M66.835,128.77l-43.77,41.318,362.126-63.831-176.984-79.4c-3.336,9.383-12.9,15.016-21.75,15.868-8.379.808-15.418-2.409-19.38-8.576Zm344.948-21.359,0,.014,0-.014M170.626,26a3.445,3.445,0,0,1,.792,1.311c2.954,8.926,11.75,8.8,14.378,8.542,7.256-.7,15.546-5.942,16.616-14.284a3.449,3.449,0,0,1,1.455-2.395,3.446,3.446,0,0,1-1.622-2.113c-2.487-9.41-11.114-11.146-17.747-9.768-7.641,1.584-15.2,7.631-13.757,17.169A3.43,3.43,0,0,1,170.626,26" transform="translate(0 0)" fill="#141414"/><path d="M404.359,146.562,5.112,216.493l75.574,397.22,393.551-68.521Z" transform="translate(-1.257 -36.051)" fill="#fff"/><rect width="318.091" height="318.175" transform="translate(57.826 214.66) rotate(-9.997)" fill="#dbdbdb"/><path d="M258.355,20.056A16.5,16.5,0,1,1,239.245,6.672a16.5,16.5,0,0,1,19.111,13.383" transform="translate(-55.494 -1.579)" fill="#b2b2b2"/><path d="M476.565,539.589l-39.684,7-95.29,16.8L226.806,583.613,127.088,601.19l-33,5.817L83.9,608.8c-1.6.282-3.868.271-5.357.945a3.183,3.183,0,0,1-.7.122l3.213,1.522q-3.5-19.842-7-39.684-8.4-47.645-16.8-95.29Q47.149,419.026,37.033,361.634q-8.788-49.86-17.577-99.718-2.909-16.5-5.817-33l-1.8-10.188c-.276-1.569-.252-3.91-.944-5.358a2.949,2.949,0,0,1-.123-.7l-2.966,3.1,39.684-7,95.29-16.8,114.785-20.233,99.718-17.577,33-5.817,10.188-1.8c1.6-.282,3.868-.271,5.358-.945a3.178,3.178,0,0,1,.7-.122l-3.213-1.522q3.5,19.842,7,39.684,8.4,47.645,16.8,95.29,10.116,57.392,20.233,114.785,8.789,49.858,17.577,99.718,2.909,16.5,5.817,33c.885,5.02,1.2,10.674,2.74,15.547a5.469,5.469,0,0,1,.123.7c.569,3.228,6.669,1.2,6.178-1.576q-3.5-19.842-7-39.684-8.4-47.645-16.8-95.29-10.116-57.392-20.233-114.785-8.788-49.858-17.577-99.718-2.909-16.5-5.817-33c-.885-5.02-1.2-10.674-2.74-15.546a5.457,5.457,0,0,1-.123-.7c-.283-1.6-1.854-1.761-3.213-1.522l-39.684,7-95.29,16.8L156.524,184.893,56.806,202.47l-33,5.817c-5.13.9-10.493,1.458-15.546,2.741-.226.057-.465.082-.7.122-1.208.213-3.221,1.649-2.966,3.1q3.5,19.842,7,39.684,8.4,47.645,16.8,95.29Q38.5,406.614,48.621,464.007q8.789,49.858,17.577,99.718,2.909,16.5,5.817,33c.885,5.02,1.2,10.674,2.741,15.547a5.607,5.607,0,0,1,.122.7c.283,1.6,1.854,1.761,3.214,1.522l39.684-7,95.291-16.8,114.785-20.233,99.718-17.577,33-5.817c5.13-.9,10.493-1.458,15.547-2.741.226-.057.465-.081.7-.122,3.528-.622,3.95-5.359-.247-4.619" transform="translate(-1.125 -34.628)" fill="#161616"/><path d="M477.484,539.75l-39.684,7-95.29,16.8L227.725,583.775l-99.718,17.577-33,5.817-10.189,1.8c-1.466.259-4.046.2-5.357.945a2.566,2.566,0,0,1-.7.122l2.273,1.34q-3.5-19.842-7-39.684-8.4-47.645-16.8-95.291Q47.127,419.006,37.011,361.614,28.222,311.753,19.433,261.9q-2.909-16.5-5.817-33l-1.8-10.189c-.28-1.591-.265-3.879-.944-5.358a3.112,3.112,0,0,1-.123-.7l-3.839,3.061,39.684-7,95.29-16.8,114.785-20.233,99.718-17.577,33-5.818,10.188-1.8c1.466-.258,4.046-.2,5.358-.944a2.527,2.527,0,0,1,.7-.123l-2.272-1.34q3.5,19.841,7,39.684,8.4,47.645,16.8,95.289,10.116,57.392,20.233,114.786,8.789,49.857,17.577,99.717,2.909,16.5,5.817,33c.881,4.994,1.156,10.713,2.741,15.547a5.049,5.049,0,0,1,.122.7c.513,2.912,6.534.678,6.111-1.72q-3.5-19.842-7-39.684-8.4-47.645-16.8-95.29-10.116-57.391-20.233-114.785-8.788-49.858-17.577-99.717-2.909-16.5-5.817-33c-.89-5.046-1.247-10.633-2.74-15.547a5.892,5.892,0,0,1-.123-.7,1.814,1.814,0,0,0-2.272-1.34l-39.684,7-95.29,16.8q-57.393,10.117-114.785,20.234L57.725,202.632c-16.153,2.847-32.493,5.194-48.549,8.557-.23.049-.464.082-.7.123-1.157.2-4.149,1.308-3.839,3.06q3.5,19.843,7,39.684,8.4,47.645,16.8,95.29Q38.551,406.74,48.667,464.13q8.788,49.86,17.577,99.718,2.908,16.5,5.817,33c.89,5.046,1.248,10.633,2.741,15.547a6.089,6.089,0,0,1,.122.7,1.815,1.815,0,0,0,2.273,1.34l39.684-7,95.29-16.8,114.785-20.233,99.718-17.577c16.152-2.847,32.492-5.195,48.548-8.557.23-.048.464-.082.7-.123,1.259-.222,3.478-1,3.737-2.5.233-1.363-.793-2.138-2.17-1.9" transform="translate(-1.136 -34.68)" fill="#161616"/><path d="M443.335,521.039,336.909,539.8,167.278,569.7l-38.936,6.863,3.272,1.648q-9.38-53.213-18.76-106.426l-29.9-169.631-6.863-38.936-2.932,3.169,106.425-18.759,169.632-29.9,38.936-6.863-3.272-1.648q9.38,53.213,18.76,106.425l29.9,169.632,6.863,38.936c.589,3.34,6.72,1.4,6.2-1.521q-9.38-53.213-18.76-106.426l-29.9-169.631L391.084,207.7c-.287-1.623-1.864-1.9-3.272-1.648L281.386,224.806l-169.632,29.9L72.819,261.57c-1.267.223-3.194,1.681-2.932,3.169L88.646,371.165q14.95,84.815,29.9,169.632l6.863,38.936c.286,1.623,1.863,1.9,3.272,1.648l106.425-18.76,169.632-29.9,38.936-6.863c3.6-.636,3.848-5.556-.34-4.818" transform="translate(-17.184 -50.663)" fill="#161616"/><path d="M444.5,521.785,338.078,540.544l-169.632,29.9-38.936,6.863,2,.477L112.749,471.36q-14.95-84.815-29.9-169.632l-6.863-38.936-3.892,3.223L178.52,247.256l169.631-29.9,38.936-6.863-2-.477,18.759,106.425q14.95,84.815,29.9,169.632l6.863,38.936c.3,1.691,6.287-.489,5.889-2.746L427.741,415.836q-14.95-84.815-29.9-169.632l-6.863-38.936c-.125-.71-1.584-.55-2-.477L282.555,225.552l-169.632,29.9-38.936,6.863c-1.381.244-4.209,1.421-3.892,3.223L88.855,371.964q14.951,84.815,29.9,169.632l6.863,38.936c.125.71,1.584.549,2,.476l106.426-18.76,169.631-29.9,38.936-6.863c2.169-.382,6.039-4.43,1.894-3.7" transform="translate(-17.236 -50.849)" fill="#161616"/><path d="M440.223,162.965l33.235-49.024c.585-.862.587-1.632-.409-2.079L405.135,81.393,296.8,32.788,271.816,21.581c-1.937-.869-7.179,2.659-4.361,3.923l67.915,30.47,108.336,48.6,24.983,11.209q-.2-1.039-.409-2.079l-33.236,49.024c-2.074,3.058,3.957,2.036,5.179.234" transform="translate(-65.587 -5.275)" fill="#161616"/><path d="M58.723,219.34,10.438,184.686l-.268,1.4,55.468-52.36q44.012-41.544,88.022-83.09l20.316-19.178c2.335-2.2-3.754-.638-4.874.419l-55.468,52.36L25.612,167.327,5.295,186.506c-.38.359-.832,1-.268,1.4l48.285,34.654c1.43,1.027,6.794-2.227,5.412-3.22" transform="translate(-1.171 -7.464)" fill="#161616"/><path d="M132.822,699.954Q115.579,724.575,98.337,749.2c-2.111,3.014,3.934,1.983,5.17.217l34.485-49.243c2.111-3.015-3.935-1.984-5.171-.218" transform="translate(-24.079 -171.754)" fill="#161616"/><path d="M561.742,628.138l49.244,34.485c2.36,1.653,7.751-1.933,5.169-3.742L566.911,624.4c-2.36-1.653-7.751,1.933-5.169,3.742" transform="translate(-138.006 -153.481)" fill="#161616"/><path d="M254.43,20.965c1.116,8.274-4.112,17.364-13.457,16.03a15.937,15.937,0,0,1-13.147-13.048c-1.387-8.235,4.277-17.406,13.456-16.03,6.9,1.035,11.7,6.43,13.148,13.048.327,1.5,6.335-.7,5.889-2.745-5.133-23.52-42.5-14.094-38.383,8.473,4.355,23.848,41.425,14.08,38.383-8.473-.187-1.389-6.176.616-5.889,2.745" transform="translate(-54.513 -1.117)" fill="#161616"/><path d="M47.382,284.932c4.591,23.4,8.967,46.844,13.266,70.3,2.171,11.724,4.263,23.461,6.391,35.192l6.27,35.213,6.151,35.233c2.009,11.752,4.059,23.5,6.027,35.256,3.979,23.511,7.881,47.035,11.565,70.6q-6.89-35.1-13.269-70.3c-2.172-11.723-4.26-23.461-6.391-35.191l-6.266-35.214-6.149-35.234c-2.01-11.752-4.057-23.5-6.026-35.256-3.979-23.511-7.882-47.035-11.569-70.6" transform="translate(-11.655 -70.086)" fill="#141414"/><path d="M115.173,669.518c.964,2.824,1.712,5.685,2.384,8.56.357,1.433.635,2.881.95,4.323l.828,4.344.71,4.365c.195,1.463.431,2.917.586,4.387a88.41,88.41,0,0,1,.682,8.861,88.669,88.669,0,0,1-2.387-8.56c-.357-1.434-.633-2.882-.949-4.323l-.825-4.345-.707-4.365c-.2-1.462-.431-2.918-.586-4.387-.351-2.932-.627-5.877-.686-8.86" transform="translate(-28.33 -164.685)" fill="#141414"/><path d="M152.012,717.58c14.266-2.981,28.57-5.746,42.887-8.435,7.155-1.365,14.324-2.651,21.487-3.975l21.507-3.853,21.529-3.735c7.184-1.2,14.36-2.448,21.551-3.612,14.373-2.368,28.761-4.66,43.187-6.733-14.265,2.983-28.569,5.75-42.887,8.438-7.155,1.366-14.324,2.65-21.487,3.974L238.279,703.5l-21.529,3.732c-7.184,1.206-14.36,2.448-21.551,3.611-14.374,2.368-28.762,4.661-43.187,6.737" transform="translate(-37.391 -169.043)" fill="#141414"/><path d="M414.09,674.155c8.545-1.972,17.128-3.729,25.724-5.409,4.295-.861,8.6-1.644,12.9-2.463l12.926-2.341,12.947-2.224c4.324-.7,8.639-1.439,12.969-2.1,8.652-1.36,17.318-2.643,26.024-3.708-8.545,1.975-17.127,3.732-25.724,5.413-4.294.862-8.6,1.641-12.9,2.462l-12.927,2.338-12.947,2.22c-4.323.7-8.639,1.439-12.969,2.1-8.653,1.359-17.319,2.644-26.023,3.712" transform="translate(-101.856 -161.338)" fill="#141414"/><path d="M516.223,202.29c2.695,12.643,5.173,25.325,7.577,38.02,1.222,6.344,2.365,12.7,3.546,19.053l3.424,19.074,3.307,19.095c1.06,6.372,2.162,12.738,3.182,19.117,2.083,12.752,4.088,25.517,5.876,38.32-2.7-12.643-5.178-25.325-7.58-38.019-1.223-6.344-2.364-12.7-3.546-19.053l-3.421-19.075-3.3-19.1c-1.062-6.372-2.161-12.738-3.182-19.117-2.082-12.752-4.088-25.517-5.879-38.32" transform="translate(-126.978 -49.758)" fill="#141414"/><path d="M564.537,444.586c1.476,5.727,2.736,11.492,3.919,17.27.612,2.886,1.147,5.785,1.718,8.677l1.6,8.7,1.478,8.72c.451,2.914.943,5.821,1.353,8.742.863,5.835,1.65,11.683,2.218,17.57-1.478-5.726-2.739-11.491-3.923-17.269-.613-2.886-1.144-5.785-1.717-8.678l-1.592-8.7-1.475-8.721c-.452-2.914-.942-5.821-1.354-8.741-.863-5.835-1.65-11.684-2.221-17.57" transform="translate(-138.862 -109.357)" fill="#141414"/><path d="M67.532,248.617c10.85-2.378,21.739-4.541,32.64-6.629,5.447-1.064,10.908-2.049,16.363-3.073l16.384-2.95,16.405-2.833c5.476-.9,10.944-1.846,16.427-2.708,10.958-1.767,21.93-3.456,32.94-4.928-10.85,2.38-21.738,4.545-32.64,6.632-5.447,1.065-10.908,2.048-16.363,3.072L133.3,238.149,116.9,240.978c-5.476.9-10.945,1.845-16.427,2.708-10.958,1.767-21.93,3.456-32.94,4.931" transform="translate(-16.611 -55.467)" fill="#141414"/><path d="M268.9,219.532c3.592-1.1,7.222-1.982,10.866-2.791,1.819-.424,3.65-.77,5.476-1.153l5.5-1.031,5.518-.914c1.847-.262,3.686-.567,5.54-.789,3.7-.488,7.414-.9,11.166-1.09-3.591,1.1-7.221,1.986-10.865,2.794-1.818.425-3.651.768-5.476,1.153l-5.5,1.028-5.519.911c-1.846.265-3.686.566-5.54.789-3.7.486-7.414.9-11.165,1.093" transform="translate(-66.142 -52.089)" fill="#141414"/><path d="M372.658,201.217c7.69-1.822,15.419-3.428,23.161-4.958,3.867-.786,7.749-1.493,11.623-2.237l11.646-2.115,11.666-2c3.9-.624,7.785-1.289,11.688-1.873,7.8-1.209,15.611-2.342,23.461-3.257-7.69,1.824-15.418,3.432-23.161,4.961-3.867.786-7.749,1.491-11.623,2.236l-11.646,2.112-11.666,1.994c-3.9.626-7.785,1.288-11.688,1.872-7.8,1.209-15.611,2.343-23.461,3.26" transform="translate(-91.664 -45.451)" fill="#141414"/><path d="M242.766,12.359a13.917,13.917,0,0,0-3.2,5.222,12.486,12.486,0,0,0-.6,2.868,9.59,9.59,0,0,0,.115,2.862,9.574,9.574,0,0,0,.86,2.732,12.47,12.47,0,0,0,1.528,2.5,13.96,13.96,0,0,0,4.774,3.838,9.46,9.46,0,0,1-6.041-2.66A11.094,11.094,0,0,1,238.069,27a11.733,11.733,0,0,1-1.173-3.308,11.712,11.712,0,0,1-.008-3.508,11.074,11.074,0,0,1,1.089-3.28,9.479,9.479,0,0,1,4.788-4.542" transform="translate(-58.237 -3.04)" fill="#141414"/><path d="M229.805,349.384a128.092,128.092,0,0,0-11.647,6.51c-.6.376-1.2.764-1.8,1.151q3.128,6.3,6.212,12.622c1.039,2.121,2.117,4.235,3.126,6.379a121.894,121.894,0,0,1,14.811-8c-1.4-2.347-2.718-4.744-4.074-7.1q-3.325-5.773-6.631-11.558" transform="translate(-53.219 -85.94)" fill="#fff"/><path d="M441.417,537.028a6.61,6.61,0,0,0,.192-3.282c-.259-1.3-.762-2.545.112-3.746a8.691,8.691,0,0,1,3.411-2.306,16.759,16.759,0,0,0,3.653-1.865,4.019,4.019,0,0,0,.367-.35,4.835,4.835,0,0,0,.62-3.322c-.295-1.539-1.6-2.612-2-4.117-.472-1.752.367-3.357.454-5.084a2.239,2.239,0,0,0-.556-1.619,1.618,1.618,0,0,0-1.078-.478,56.616,56.616,0,0,1-1.112,8.205c-.2.931-1.69.808-1.5-.142a52.752,52.752,0,0,0,.928-6.5,55.9,55.9,0,0,0-4.685-25.921,47.794,47.794,0,0,0-13.472-18.274,58.323,58.323,0,0,0-18.977-10.208,51.724,51.724,0,0,0-22.627-2.06,102.128,102.128,0,0,0-23.171,5.89,91.789,91.789,0,0,0-19.251,9.332c-11.788,7.864-22.861,19.381-26.671,33.371a60.772,60.772,0,0,0-.982,25.12A73.5,73.5,0,0,0,318.23,542.1c1.409,4.084,3.33,7.877,5.035,11.831a.917.917,0,0,1-1.521.982,28.421,28.421,0,0,1-3.632-5.4c-.135-.25-.25-.507-.382-.758a41.186,41.186,0,0,1-1.7,7.636c-.71,2.142-3.537,6.189-.778,7.868a8.813,8.813,0,0,0,7.224.629c2.962-.83,6-1.617,8.963-.351,2.466,1.053,4.339,3.007,6.466,4.571a10.38,10.38,0,0,0,7.424,2.146,10.187,10.187,0,0,0,6.831-3.556c1.87-2.3,2.788-5.038,5.531-6.535,2.693-1.469,5.954-1.5,8.936-1.272a24.5,24.5,0,0,1,5.213,1.068c.734.221,1.48.423,2.213.659a.669.669,0,0,1,.913-.021,13.26,13.26,0,0,0,9.445,2.242,30.454,30.454,0,0,0,5.577-1.3c1-.31,1.98-.7,2.98-1.015.782-.249,1.559-.553,2.286-.063a.556.556,0,0,1,.176.2,7.557,7.557,0,0,0,1.176-.6,11.341,11.341,0,0,0,3.214-3.881c1.613-2.523,3.438-4.524,6.358-5.471,2.943-.955,6.236-.637,9.248-.219,1.773.247,3.545.488,5.331.63.791.063,1.6.1,2.4.089a.677.677,0,0,1,.419-.234c3.47-.581,7.16-1.517,9.882-3.881a9.184,9.184,0,0,0,2.537-4.22c.075-.213.159-.434.249-.654a.7.7,0,0,1,.128-1.311,6.722,6.722,0,0,0,.7-.246,3.008,3.008,0,0,1,2.117-1.343c.014,0,.028,0,.042,0a7.422,7.422,0,0,0,2.187-3.293m-51.191-70.216a6.793,6.793,0,0,0,1.64-.552c.517-.277,1.039-.562,1.542-.864a12.529,12.529,0,0,0,1.357-.99c.446-.359,1-.937,1.613-.914a.544.544,0,0,1,.483.446c.052.706-.616,1.3-1.125,1.7a10.442,10.442,0,0,1-1.657,1.046,7.2,7.2,0,0,1-1.862.68c-.612.13-1.206.3-1.827.382a.474.474,0,0,1-.165-.933m-20.07,6.454a9.849,9.849,0,0,1,4.619-1.786,20.325,20.325,0,0,1,4.721.287,4.663,4.663,0,0,0,2.123-.023c.615-.211.842-.749,1.125-1.286.53-1,1.415-2.532,2.792-1.9a.734.734,0,0,1-.126,1.4c-.346.067-.6.874-.733,1.159a5.385,5.385,0,0,1-1.1,1.709,4.347,4.347,0,0,1-3.671.846,18.78,18.78,0,0,1-2.2-.468,13.59,13.59,0,0,0-2.221-.572,8.164,8.164,0,0,0-4.941,1.229c-.347.213-.717-.37-.385-.6m-19.32-.9a5.526,5.526,0,0,1,5.294,1.7c1.269,1.5,1.435,3.541,2.353,5.225,1.016,1.865,3.3,1.136,4.829.376a8.328,8.328,0,0,0,3.962-4.2.336.336,0,0,1,.647.148,7.612,7.612,0,0,1-2.671,5.6,6.632,6.632,0,0,1-6.53,1.425c-2.328-.951-2.712-3.2-3.249-5.365a4.853,4.853,0,0,0-1.381-2.665,3.717,3.717,0,0,0-3.032-1,.636.636,0,0,1-.221-1.252m1.357,27.511a14.309,14.309,0,0,1,8.809-1.52,9.3,9.3,0,0,1,4.052,1.4c1.065.795,1.366,2.173,2.259,3.119a7.071,7.071,0,0,0,7.5,1.378,14.053,14.053,0,0,0,3.846-2.359,28.416,28.416,0,0,1,3.031-2.792.384.384,0,0,1,.543.381,8.081,8.081,0,0,1-2.159,3.7,11.346,11.346,0,0,1-3.239,2.649,9.628,9.628,0,0,1-8.009.6,8.139,8.139,0,0,1-3.162-2.159c-1.03-1.17-1.142-2.968-2.659-3.588a13.406,13.406,0,0,0-10.289.3.613.613,0,0,1-.526-1.106m-26.417,2.488c3.18-2.409,7.825-3.312,10.231.566a9.256,9.256,0,0,0,2.015,2.89,6.092,6.092,0,0,0,2.913,1.265,6.245,6.245,0,0,0,3.75-.847c1.108-.591,2.111-1.457,3.248-1.966a.315.315,0,0,1,.426.39c-.909,2.108-3.37,3.408-5.461,4a7.77,7.77,0,0,1-6.561-.7,6.828,6.828,0,0,1-2.185-2.778c-.479-1.013-.735-2.224-1.777-2.824-1.828-1.05-4.284-.244-5.881.849-.579.4-1.294-.409-.718-.846m36.557,43.222c-1.623-.029-3.264-.906-4.853-1.241a14.482,14.482,0,0,0-4.49-.305,7.661,7.661,0,0,0-3.811,1.288,10,10,0,0,0-2.4,3.018c-1.372,2.179-3.557,2.273-5.682,1.21-1.485-.743-3.671-2.714-5.375-1.66-.648.4-1.27-.639-.708-1.1,1.7-1.392,3.8-.485,5.6.185.761.281,1.911.8,2.73.425,1.043-.482,1.459-2.188,2.19-3.037,1.885-2.188,5.245-3.176,8.058-3.015a16.706,16.706,0,0,1,4.939,1.189,12.843,12.843,0,0,1,4.251,2.167c.369.348-.046.881-.455.873m4.274-17.731a10.4,10.4,0,0,1-4.252,1.61c-3.723.529-7.3-1.049-10.66-2.441a.636.636,0,0,1,.441-1.192c3.015,1,6.277,2.037,9.5,1.592a8.761,8.761,0,0,0,3.69-1.295,9.134,9.134,0,0,0,1.388-1.169,4.667,4.667,0,0,1,1.381-1.164.587.587,0,0,1,.817.422c.388,1.457-1.234,2.929-2.3,3.638m35.968,8.7c-1.015.424-2.631-.218-3.718-.327a8.461,8.461,0,0,0-4.094.54c-2.629,1.082-3.8,3.54-5.547,5.6a7.475,7.475,0,0,1-7.53,2.773c-2.923-.544-6.488-2.556-9.124-.1a.557.557,0,0,1-.813-.74c2.071-2.651,5.309-1.879,8.2-1.548,1.84.21,3.757.707,5.468-.277a9.983,9.983,0,0,0,2.946-3.232c1.784-2.585,3.75-4.706,6.9-5.527a9.442,9.442,0,0,1,4.554-.121c1.086.28,2.939.977,3.131,2.237a.679.679,0,0,1-.372.722m16.939-4.5a4.987,4.987,0,0,1-.973,2.733,7.633,7.633,0,0,1-1.937,2.055,6.567,6.567,0,0,1-5.562.934c-.716-.219-.308-1.282.4-1.084a5.285,5.285,0,0,0,4.417-.89c.33-.236.636-.5.953-.752a3.115,3.115,0,0,0,.749-.948,6.51,6.51,0,0,0,.686-2.168.636.636,0,0,1,1.265.12m-12.8-18.235a.734.734,0,0,1,.59-.843l3.057-.3,1.528-.151.706-.07a1.825,1.825,0,0,1,1,.042c.467.227.747.943.231,1.307a1.6,1.6,0,0,1-.944.271l-.71.045-1.538.1-3.076.194a.746.746,0,0,1-.843-.59M406.9,495.3c-2.653,1.739-5.517,1.45-8.278.12-2.868-1.381-6.665-4.3-9.717-1.617-.465.409-1.237-.268-.813-.741,2.5-2.8,6.1-1.544,9.035-.267a19.666,19.666,0,0,0,4.822,1.844,5.7,5.7,0,0,0,4.591-1.534c2.656-2.243,4.5-5.1,7.867-6.4,1.664-.642,3.431-1,5.066-1.715.64-.282,2.774-2.052,3.284-.859a.784.784,0,0,1-.066.78c-2.048,2.668-6.049,2.667-8.806,4.232-2.724,1.547-4.372,4.446-6.985,6.158m26.026,25.316a3.407,3.407,0,0,1-1.416,1.038,19.669,19.669,0,0,1-3.283.837,6.333,6.333,0,0,0-2.432,1.252,6.2,6.2,0,0,0-2.431,5.086c.043.836-1.2,1.108-1.32.233a8.315,8.315,0,0,1,1.945-6.437,7.232,7.232,0,0,1,2.563-1.912,20.5,20.5,0,0,1,3.226-.893,6.471,6.471,0,0,0,1.426-.52,3.231,3.231,0,0,1,.817-.385,1,1,0,0,1,.906,1.7" transform="translate(-77.252 -112.051)" fill="#fff"/><path d="M390.365,615.4a3.33,3.33,0,0,1-.082-1.245c.034-.295.232-.779.1-1.053-.229-.483-1.264-.107-1.665-.018-.851.189-1.741.409-2.637.583a.645.645,0,0,1-.384.214,10.926,10.926,0,0,0-5.1,2.135c-.779.625-2.769,2.442-1.878,3.553a1.3,1.3,0,0,0,.894.382c.52.068,1.041.032,1.562.065a8.138,8.138,0,0,1,3.412.822c1.251.705,1.724,2.215,3.086,2.767a5.471,5.471,0,0,0,1.917.326,2.88,2.88,0,0,0,2.025-.44,4.322,4.322,0,0,0,1.264-4.289,10.714,10.714,0,0,0-1.577-2,5.17,5.17,0,0,1-.942-1.8" transform="translate(-93.101 -150.749)" fill="#fff"/><path d="M292.058,525.188c-.5-8.35.242-17.133,3.39-24.951,5.735-14.242,17.975-25.779,31.147-33.231a87.022,87.022,0,0,1,9.651-4.643c-.023-.023-.044-.048-.067-.071a4.88,4.88,0,0,0-.759-.534c-.064-.032-.133-.05-.2-.078-3.058.951-6.155,1.773-9.262,2.552-1.537.385-3.077.758-4.61,1.157-.532.139-1.062.284-1.592.431l-.159.044c-.061.023-.19.07-.446.158q-1.117.386-2.231.783a239.71,239.71,0,0,0-23.268,9.729,4.577,4.577,0,0,1-1.193,4.52,19.107,19.107,0,0,1-4.609,3.26c-2.8,1.568-5.757,2.909-8.058,5.213a8.826,8.826,0,0,0-2.365,3.789c-.285,1.059-.266,2.753,1.246,2.4,1.909-.441,3.663-2.377,5.767-1.656a3.78,3.78,0,0,1,2.1,2.516c.348.92.539,2.925,1.831,2.949,1.248.023,1.053,1.685.08,1.99-1.568.492-2.817-.862-3.294-2.218-.425-1.212.133-4.072-1.905-3.716-2.117.369-3.784,2.622-6.126,1.876-3.219-1.025-2.11-5.14-.88-7.256,1.682-2.89,4.549-4.762,7.323-6.479a54.347,54.347,0,0,0,4.585-2.993,9.9,9.9,0,0,0,2.094-1.935,1.583,1.583,0,0,0,.3-.743q-6.707,3.342-13.2,7.083a234.663,234.663,0,0,0-24.427,16.254c-.256,1.521-1.054,2.892-1.455,4.379-.342,1.267-.8,3.152-.359,4.444.379,1.1,1.583.256,2-.354.771-1.124,1.031-2.53,1.873-3.621a5.493,5.493,0,0,1,5.374-2,5.646,5.646,0,0,1,4.477,3.646c.451,1.357.406,2.821.852,4.171.327.989,1.362,2.156,2.515,1.7.861-.339,1.68.778.908,1.4a2.92,2.92,0,0,1-3.876-.385c-1.337-1.186-1.614-2.819-1.881-4.5a4.156,4.156,0,0,0-1.587-3.182,4.049,4.049,0,0,0-2.739-.509,3.067,3.067,0,0,0-2.291,1.341c-.82,1.246-1.1,2.753-2.2,3.826a3.842,3.842,0,0,1-3.36,1.108,2.976,2.976,0,0,1-2.184-2.925,14.754,14.754,0,0,1,.527-4.418,15.223,15.223,0,0,1,.768-2.1q-3.624,2.832-7.141,5.8-2.747,2.325-5.428,4.725a1.8,1.8,0,0,1,.317,1.067,68.822,68.822,0,0,0,2.577,19.1,65.944,65.944,0,0,0,6.78,15.428c1.176.535,1.66,2.264,1.47,3.555-.168,1.145-1.231,2.307-1.142,3.467.066.869,1.072.952,1.765,1.083,1.938.365,3.793.952,4.934,2.69,1.154,1.758,1.315,4.739,3.928,4.826,2.565.085,4.536-1.936,6.414-3.391a13.945,13.945,0,0,1,3.547-2.124,17.116,17.116,0,0,1,4.373-.746,6.562,6.562,0,0,1,3.343.156c1.028.461,1.219,1.31,1.507,2.292A4.147,4.147,0,0,0,282.548,564c2.169-.662,3.12-3.217,5.524-3.554a8.792,8.792,0,0,1,4.5.931c.626-1.513,1.594-2.963,2.277-4.363a32.53,32.53,0,0,0,2.915-9.112,62.014,62.014,0,0,1-5.708-22.714m-29.179.09c.578-.6,1.58.339,1.067.972-.972,1.2.583,2.686,1.611,3.211,1.443.738,3.107,1.171,4.259,2.378,1.358,1.423,1.31,3.466,1.711,5.264a2.648,2.648,0,0,0,1.1,1.6c.556.385.883.195,1.494.1a.657.657,0,0,1,.756.7c-.01,1.035-1.041,1.512-1.959,1.528a3.774,3.774,0,0,1-2.7-1.206,5.282,5.282,0,0,1-1.262-3.049,7.841,7.841,0,0,0-.688-3.34c-1.1-1.709-3.528-1.9-4.912-3.327-1.273-1.312-1.871-3.394-.482-4.825m22.881,25.488c-.648-.136-1.124-.59-1.763-.764a5.689,5.689,0,0,0-2.455.011c-1.437.256-2.806.772-4.232,1.071a9.09,9.09,0,0,1-4.223.24,4.969,4.969,0,0,1-1.77-.954,16.869,16.869,0,0,1-1.556-1.9c-2.267-2.485-6.38.483-8.574,1.509-3.091,1.445-6.363,1.379-8.907-1.082-.53-.513.3-1.411.864-.948a5.606,5.606,0,0,0,5.7.975,49.114,49.114,0,0,0,4.808-2.638c2.424-1.232,5.7-1.8,7.849.293.608.591.966,1.464,1.7,1.914a5.309,5.309,0,0,0,1.715.563,10.578,10.578,0,0,0,4.307-.529,10.287,10.287,0,0,1,4.354-.171c1.033.219,2.442.707,2.7,1.859a.476.476,0,0,1-.511.554" transform="translate(-58.469 -113.562)" fill="#b2b2b2"/><path d="M301.263,394.312c-2.923-3.656-5.916-7.269-8.773-10.978-1.136-1.475-2-3.285-3.527-4.413a7.538,7.538,0,0,0-5.811-1.39,1.372,1.372,0,0,1-.731-.048,181.807,181.807,0,0,0-19.671,4.874c-24,7.53-45.645,20.559-64.471,37.146-.012.011-.024.017-.036.026a6.388,6.388,0,0,0-1.384,4.98,37.631,37.631,0,0,0,2.245,7c3.4,9.482,6.813,18.955,10.172,28.45,3.169,8.962,6.424,17.888,9.118,27a99.53,99.53,0,0,1,9.161-8.447q5.069-4.365,10.409-8.393a37.276,37.276,0,0,1-2.514-4.882c-.987-2.075-1.96-4.158-2.939-6.237-1.887-4.01-3.778-8.019-5.634-12.043q-5.672-12.3-11.21-24.66a.386.386,0,0,1,.7-.331q6.1,12.094,12.1,24.235c1.96,3.976,3.884,7.969,5.811,11.96,1,2.069,2,4.137,3,6.209a41.939,41.939,0,0,1,2.1,4.687,239.7,239.7,0,0,1,29.66-18.869,37.273,37.273,0,0,1-2.678-4.181c-1.029-1.768-2.026-3.557-3.039-5.334-2.025-3.555-4.013-7.131-6.015-10.7q-6.061-10.8-11.911-21.723c-.249-.462.461-.774.724-.344q6.47,10.607,12.773,21.314c2.113,3.6,4.239,7.2,6.329,10.82,1.75,3.03,3.885,6.112,5.146,9.422q5.672-3,11.5-5.686a221.828,221.828,0,0,1,23.582-9.316c2.655-.87,5.328-1.7,8.017-2.472a36.892,36.892,0,0,1-4.193-4.256c-1.4-1.568-2.789-3.152-4.187-4.725q-4.352-4.9-8.683-9.822c-5.775-6.555-11.512-13.142-17.333-19.657-.32-.359.236-.817.563-.479,6.093,6.276,12.174,12.574,18.112,19q4.451,4.814,8.809,9.715c2.761,3.11,6.076,6.212,8.115,9.856,0,.008,0,.016.008.024q1.447-.4,2.9-.778a90.261,90.261,0,0,1,11.23-2.4.912.912,0,0,1-.067-.631q-4.866-5.4-9.421-11.062-9.048-11.215-18.053-22.465m-9.385-6.008c-3.413,1.08-7.04,1.575-10.535,2.34s-6.98,1.646-10.425,2.64A167.255,167.255,0,0,0,204.4,430.515c-.345.317-.805-.235-.468-.553A161.327,161.327,0,0,1,254.637,397.3a167.284,167.284,0,0,1,18.085-6.106c3.179-.875,6.387-1.675,9.618-2.334a47.073,47.073,0,0,1,9.508-1.317c.48,0,.4.645.031.762" transform="translate(-48.405 -92.834)" fill="#fff"/><path d="M209.971,360.851a149.435,149.435,0,0,0-13.487,10.264q2.407,6.147,4.75,12.318c.994,2.631,2.08,5.291,3,7.989,2.532-2.286,5.139-4.486,7.867-6.54q3.506-2.64,7.2-5.039c-1.352-2.61-2.6-5.277-3.9-7.9q-2.73-5.539-5.44-11.089" transform="translate(-48.33 -88.76)" fill="#fff"/><path d="M336.651,446.972c-4.391,1.574-8.988,2.666-13.46,3.994s-8.907,2.79-13.3,4.372a250.019,250.019,0,0,0-45.173,21.422,233.665,233.665,0,0,0-20.6,14.087c-3.3,2.524-6.559,5.108-9.739,7.784-3.162,2.66-6.154,5.641-9.477,8.09a1.106,1.106,0,0,1-1.311-.034c-1.941,1.459-2.733,5.027-.048,6.2,2.9,1.262,4.952-1.694,6.8-3.419q7.805-7.3,16.3-13.8a240.656,240.656,0,0,1,32.046-20.786A213.062,213.062,0,0,1,314.7,459.138c2.372-.761,4.841-1.237,7.261-1.815,3.511-.838,7.026-1.7,10.47-2.788,2.641-.833,5.754-1.773,7.924-3.466a2.664,2.664,0,0,0,.87-.893,1.635,1.635,0,0,0,.126-.3c-.1.251-.044-.351.014-.043a1.477,1.477,0,0,0-.363-.865,4.86,4.86,0,0,0-1.344-1.277,11.159,11.159,0,0,0-2.381-1.174.889.889,0,0,1-.185.067.716.716,0,0,1-.438.386" transform="translate(-54.562 -109.832)" fill="#fff"/><path d="M179.462,628.548a.852.852,0,0,0-.531-.4c-.042-.011-.139-.016-.286-.037-.02,0-.038-.01-.058-.013-.751.114-1.5.226-2.252.345a9.269,9.269,0,0,0-2.572.667,2.746,2.746,0,0,0-1.347,1.2,2.167,2.167,0,0,0-.228.769,2.2,2.2,0,0,1-.015.269,2.316,2.316,0,0,0,.035.237c0,.007.017.064.024.094a1.19,1.19,0,0,0,1.038.73,5.838,5.838,0,0,0,2.175-.2c1.357-.309,3.134-.962,3.869-2.236a1.825,1.825,0,0,0,.254-.857,1.134,1.134,0,0,0-.032-.349c0,.006-.035-.1-.044-.132s-.094-.173-.03-.085" transform="translate(-42.35 -154.496)" fill="#b2b2b2"/><path d="M215.464,586.249c-1.743-.637-3.811-1.233-5.651-.657a3.659,3.659,0,0,0-2.684,3.147c-.3,1.83-2,2.153-3.535,2.587a21.164,21.164,0,0,0-4.108,1.438,5.24,5.24,0,0,1-.921.465c-.17.208-.314.44-.274.6.08.319.706.262.93.273a9.323,9.323,0,0,0,2.166-.167c1.488-.272,2.929-.758,4.4-1.1,2.891-.68,5.714-.474,8.637-.743.981-.09,2.322-.191,3.027-.985.749-.845.375-2.294.054-3.247a2.017,2.017,0,0,0-1.056-1.378,3.3,3.3,0,0,0-.626-.176.86.86,0,0,1-.357-.054" transform="translate(-48.773 -143.983)" fill="#b2b2b2"/><path d="M214.523,565.8a15.633,15.633,0,0,0,3.041-.447,14.807,14.807,0,0,0,3.485-1.019c1.456-.678,3.2-2.164,2.515-3.98a1.227,1.227,0,0,0-1.252-.845c-.782.046-1.078.6-1.865.839a.765.765,0,0,1-.769-.3,18.275,18.275,0,0,0-5.571,3.171c-.495.414-1.385,1.209-1.163,1.953.18.6,1.075.627,1.578.632" transform="translate(-52.37 -137.625)" fill="#b2b2b2"/><path d="M164.131,591.887a9.839,9.839,0,0,1-1.294-.141.873.873,0,0,1-.467-.463,11.064,11.064,0,0,0-4.4,1.953q-.6.412-1.173.864a2.5,2.5,0,0,0-.775.784c-.181.4.378.4.711.422a10.94,10.94,0,0,0,4.734-.9,9.407,9.407,0,0,0,2.093-1.165,8.991,8.991,0,0,0,.941-.819c.076-.075.195-.186.3-.3a2.937,2.937,0,0,0-.664-.237" transform="translate(-38.368 -145.441)" fill="#b2b2b2"/><path d="M299.785,658.4c-.032-.042-.06-.067,0,0" transform="translate(-73.731 -161.939)" fill="#fff"/><path d="M315.376,615.544a20.158,20.158,0,0,0-3.113-.152.652.652,0,0,1-.373.178,3.994,3.994,0,0,0-3.533,3.853,19.977,19.977,0,0,1,.121,3.481,4.434,4.434,0,0,1-1.124,2.294c-1.006.97-2.245,1.657-3.206,2.7-.27.293-1.108,1.292-.855,1.632.108.145,1.029.085,1.231.072a5.361,5.361,0,0,0,1.107-.205,18.91,18.91,0,0,0,4.845-2.687,19.57,19.57,0,0,1,4.974-2.408c1.514-.468,3.493-.923,4.438-2.326a3.584,3.584,0,0,0-.26-3.976,6.02,6.02,0,0,0-4.25-2.455" transform="translate(-74.59 -151.371)" fill="#fff"/><path d="M307.815,652.912c.075.077.052.044,0,0" transform="translate(-75.715 -160.6)" fill="#fff"/><path d="M306.265,652.588h0" transform="translate(-75.33 -160.52)" fill="#fff"/><path d="M306,653.263c0-.032,0-.051,0-.071a.177.177,0,0,1-.02-.041,2.027,2.027,0,0,0-.1-.215l-.008-.009c-.032-.032-.061-.067-.091-.1a.279.279,0,0,0-.056-.038c-.068-.029-.278-.135,0-.014-.061-.026-.121-.054-.184-.078s-.14-.045-.212-.065l-.054-.008c-.182-.011-.363-.029-.545-.039h-.054c-.055,0-.109.008-.164.013-.2.02-.391.05-.585.086-.391.074-.78.153-1.171.228a2.116,2.116,0,0,1-.482.023l-.038.036a13.3,13.3,0,0,0-2.095,1.975,2.975,2.975,0,0,0-.523,1.044c-.008.027-.012.044-.016.053,0,.025-.005.055-.011.1a2.372,2.372,0,0,0-.019.263c0-.195.067.289.049.3a1.638,1.638,0,0,0,.132.289l.03.033c.04.043.078.087.118.13.026.02.1.084.127.1.079.051.155.1.237.15l.067.022c.076.024.16.056.235.085l.066.027.038.006a3.315,3.315,0,0,0,.642.054c.048-.011.28-.035.336-.046a3.792,3.792,0,0,0,1.2-.513,11.48,11.48,0,0,0,2.115-1.824,5.892,5.892,0,0,0,.4-.477c.133-.176.256-.357.372-.544a2.055,2.055,0,0,0,.267-.772c0-.029.008-.046.011-.063-.005,0-.011-.013-.011-.1" transform="translate(-73.688 -160.519)" fill="#fff"/><path d="M246.317,604.338a19.661,19.661,0,0,0-4.089.455c-1.694.418-2.443,1.341-3.407,2.7-1.675,2.359-4.428,3.053-7.173,3.271a27.246,27.246,0,0,0-8.162,1.786,8.552,8.552,0,0,0-3.668,2.092,2.458,2.458,0,0,0,.326,3.536c2.017,1.455,5.014,0,7.225-.018a3.6,3.6,0,0,1,2.935.876c.268.309.376.851.707,1.087a1.636,1.636,0,0,0,1.43.007c1.935-.688,3.31-2.907,4.45-4.486a17.3,17.3,0,0,1,4.471-4.78,14.693,14.693,0,0,1,3.084-1.4,6.927,6.927,0,0,0,2.645-1.294,2.435,2.435,0,0,0-.774-3.826" transform="translate(-53.923 -148.652)" fill="#b2b2b2"/><path d="M287.9,612.562a1.425,1.425,0,0,0-.09-.185c.075.123-.276-.285-.236-.249a4.229,4.229,0,0,0-.48-.353c-.309-.205-.62-.406-.93-.606-1.93.182-3.472,2.135-4.517,3.579a2.906,2.906,0,0,0-.294,2.687c.09-.019.182-.038.271-.061a8.277,8.277,0,0,0,1.522-.594,23.522,23.522,0,0,0,2.47-1.31c.081-.051.086-.054.014-.009l.124-.084c.1-.073.2-.144.3-.219.159-.118.315-.243.466-.372a4.21,4.21,0,0,0,.728-.747,3.745,3.745,0,0,0,.6-.976,1.383,1.383,0,0,0,.084-.385c-.008.085-.043-.1-.033-.115" transform="translate(-69.16 -150.332)" fill="#fff"/><path d="M281.529,619.846c.054.167.127.108-.005-.013l.005.013" transform="translate(-69.248 -152.463)" fill="#fff"/><path d="M485.123,609.312a4.618,4.618,0,0,0-2.659.234.75.75,0,0,1-.327.176c-.084.021-.182.048-.277.073-.244.111-.488.23-.731.36a.831.831,0,0,1-.518.072c-.808.367-1.516.925-1.436,1.8.135,1.489,2.04,1.8,3.19,1.624a12.84,12.84,0,0,0,2.526-.7,4.022,4.022,0,0,0,2-1.269,1.1,1.1,0,0,0,.051-1.443,3.63,3.63,0,0,0-1.82-.932" transform="translate(-117.863 -149.85)" fill="#fff"/><path d="M232.9,306.807c-3.876-4.893-7.781-9.765-11.621-14.685-1.854-2.376-3.7-4.762-5.554-7.134-1.5-1.908-3.253-4.558-6.012-4.443a.989.989,0,0,1-.308-.047c-1.268.268-2.564.451-3.824.686-1.989.37-3.974.8-5.932,1.314a70.768,70.768,0,0,0-20.233,8.866,78.28,78.28,0,0,0-16.394,14.473,1.2,1.2,0,0,1-.305.247c-.778,3.742,1.936,8.167,3.169,11.512,8.871,24.072,17.337,48.295,25.917,72.471,4.237-3.6,8.609-7.037,13.132-10.271,19.013-13.6,40.822-23.9,63.944-27.91L256.346,336.2q-11.74-14.684-23.443-29.4m23.3,36.315a53.774,53.774,0,0,1-7.547,2.077c-.225.058-.447.124-.672.182a33.715,33.715,0,0,1,2.858,4.981.549.549,0,0,1-.911.588,37.6,37.6,0,0,1-3.848-5.052c-1.822.5-3.637,1.029-5.434,1.617-3.721,1.215-7.389,2.609-10.994,4.157.944,1.755,1.834,3.536,2.6,5.369.185.443-.42.882-.731.472-1.249-1.646-2.389-3.375-3.474-5.141a131.152,131.152,0,0,0-15.041,7.9c.805,1.768,1.555,3.56,2.185,5.4.147.428-.436.921-.731.472-1.057-1.6-2.017-3.271-2.924-4.969a127.162,127.162,0,0,0-15.352,11.36,45.618,45.618,0,0,1,1.238,4.437c.13.593-.711.8-.974.311-.608-1.139-1.163-2.314-1.684-3.508-1.041.926-2.07,1.865-3.077,2.825-.339.323-.8-.228-.468-.553q1.583-1.557,3.211-3.067c-1.459-3.47-2.66-7.092-3.992-10.567q-1.878-4.9-3.788-9.789c-.52.449-1.042.9-1.559,1.353-.438.385-.979-.281-.578-.682.572-.57,1.162-1.12,1.749-1.675q-4.319-11.1-8.726-22.156c-.94,1.025-1.865,2.064-2.761,3.134-.32.382-.943-.034-.643-.451.938-1.305,1.939-2.556,2.966-3.783q-3.527-8.863-7.07-17.718c-.838.834-1.661,1.683-2.455,2.558-.286.315-.839-.049-.555-.388.864-1.032,1.76-2.032,2.672-3.017l-.163-.407c-.205-.512.547-.878.78-.37l.037.083A72.349,72.349,0,0,1,185.9,296.586a71.492,71.492,0,0,1,11.423-5.432,55.7,55.7,0,0,1,5.757-1.8,20.021,20.021,0,0,1,6.215-1,.311.311,0,0,1,.1.585,37.308,37.308,0,0,1-5.65,1.834c-1.973.621-3.932,1.314-5.866,2.045-.725.274-1.439.569-2.154.866q4.193,6.929,8.294,13.909l.106.182a80.278,80.278,0,0,1,10.943-4.2c.526-.158,1.058-.3,1.588-.448q-1.229-1.759-2.457-3.521c-.275-.393.282-.88.576-.488q1.4,1.874,2.813,3.745c1.178-.316,2.361-.612,3.553-.863a18.337,18.337,0,0,1,5.963-.618.412.412,0,0,1,.136.775,35.019,35.019,0,0,1-6.4,1.63c-.722.164-1.436.355-2.153.54q2.259,3.011,4.488,6.043,5.286,7.228,10.478,14.526a18.228,18.228,0,0,1,8,.29.357.357,0,0,1-.062.681c-2.23.359-4.5.434-6.745.7.866,1.225,1.746,2.439,2.6,3.669q3.467,4.97,6.9,9.961c.874,1.271,1.807,2.546,2.716,3.842.718-.189,1.433-.389,2.155-.559a27.809,27.809,0,0,1,6.856-1.091.388.388,0,0,1,.129.731" transform="translate(-39.991 -68.995)" fill="#fff"/><path d="M531.423,526.91c.017-.035.027-.076,0,0" transform="translate(-130.717 -129.596)" fill="#fff"/><path d="M531.351,527.141v.008l.009.053c0-.039,0-.046-.006-.066l0,0" transform="translate(-130.699 -129.662)" fill="#fff"/><path d="M536.761,525.658c.038.036.145.108,0,0" transform="translate(-132.03 -129.299)" fill="#fff"/><path d="M514.551,510.931a5.381,5.381,0,0,0-1.375-.385,12.054,12.054,0,0,0-1.822-.009.5.5,0,0,1-.352.17,10.881,10.881,0,0,0-6.866,2.682,2.474,2.474,0,0,0-.793,2.2c.185.872.94,1.139,1.762,1.118a8.665,8.665,0,0,0,3.121-.883,5.622,5.622,0,0,1,3.216-.279,4.869,4.869,0,0,0,3.18-.705,3.3,3.3,0,0,0,.833-.468.717.717,0,0,0,.112-.493c.02-.623.02-1.269-.011-1.892-.018-.352-.014-.484-.3-.68a3.989,3.989,0,0,0-.709-.376" transform="translate(-123.799 -125.571)" fill="#fff"/><path d="M531.947,527.5c-.046-.01-.115-.02,0,0" transform="translate(-130.83 -129.748)" fill="#fff"/><path d="M535.636,526.11l0-.008a.948.948,0,0,1,.014-.171,1.3,1.3,0,0,1-.027-.159,1.161,1.161,0,0,1-.071-.148c0-.005,0,0,0-.005a.139.139,0,0,1-.016-.015c-.036-.041-.076-.085-.111-.127s-.09-.067-.138-.1a4.447,4.447,0,0,1-.6-.438,13.716,13.716,0,0,0-1.878.568,5.163,5.163,0,0,0-.826.38c-.02.016-.137.094-.136.093-.048.036-.094.074-.139.112s-.233.228-.166.149a1.478,1.478,0,0,0-.143.2l-.008.023c0,.014-.028.094-.04.126s.005.048.005.046l.02.038q-.052-.088.038.027c-.027.011.059.048.082.05a.633.633,0,0,0-.08-.053c.09.046.095.054.08.053l.01.006c.021.01.051.024.066.029.084.026.167.056.252.082l.017,0a8.216,8.216,0,0,0,.989.1,7.233,7.233,0,0,0,1.8-.121c.089-.017.177-.037.266-.057l.055-.012a2.3,2.3,0,0,0,.348-.156c.022-.014.046-.029.055-.037.036-.033.072-.064.108-.1l.018-.029c.033-.051.068-.1.1-.153-.108.18.023-.116.054-.2" transform="translate(-130.7 -129.122)" fill="#fff"/><path d="M511.559,566.8l-.006,0c-.088-.022-.029.014.03.044-.013-.02-.018-.029-.024-.04" transform="translate(-125.818 -139.415)" fill="#fff"/><path d="M511.5,565.771c.023-.075.011-.042,0,0" transform="translate(-125.815 -139.154)" fill="#fff"/><path d="M495.763,577.224a1.961,1.961,0,0,1-1.058,0c-.023,0-.044.012-.067.017a10.48,10.48,0,0,0-1.979.5,2.89,2.89,0,0,0-1.833,2.2,1.064,1.064,0,0,0,.351.823c-.13-.128.135.082.214.136l.064.025c.095.036.191.068.29.1.032,0,.237.04.239.041a3.823,3.823,0,0,0,1.267-.029,14.029,14.029,0,0,0,1.612-.35c1.346-.355,2.686-.724,4.047-1.017a3.674,3.674,0,0,0,.8-.236.729.729,0,0,0,.171-.136.944.944,0,0,0,.147-.536c-.048-2.138-2.842-1.866-4.265-1.539" transform="translate(-120.73 -141.928)" fill="#fff"/><path d="M516.979,565.314l.008-.032,0-.009c0-.044.007-.088.01-.131a.662.662,0,0,1-.027-.134c-.013-.038-.038-.121-.054-.155s-.061-.108-.08-.144c-.061-.079-.124-.155-.188-.232-.015-.019-.012-.017-.021-.029s0,0-.011,0c-.065-.042-.129-.094-.191-.14l-.028-.02c-.075-.035-.152-.069-.231-.1a2.9,2.9,0,0,0-.962-.165,4.744,4.744,0,0,1-1.207-.08,4.184,4.184,0,0,0-1.865.593,4.241,4.241,0,0,0-.408.336,1.542,1.542,0,0,1-.112.165c-.012.017-.038.069-.054.1-.029.069-.055.137-.078.209,0,.01-.005.021-.006.028-.01.089-.017.178-.026.268l0,.023c0,.013.005.023.009.045.014.084.026.172.033.256a.136.136,0,0,0,0,.017c.017.038.036.075.054.112a.232.232,0,0,1,.031.035l-.023-.019c.005.011.01.022.015.032.053.027.1.049.051.018-.122-.069.173.063.159.058a.263.263,0,0,1,.053.024.318.318,0,0,1,.079,0c.07.005.139.016.21.021a11.735,11.735,0,0,0,2.641-.189c.422-.065.844-.141,1.259-.242.051-.012.23-.067.268-.075a4.643,4.643,0,0,0,.427-.184c.023-.012.036-.017.05-.023s.021-.021.042-.038l.088-.079a.983.983,0,0,1,.081-.116" transform="translate(-125.803 -138.715)" fill="#fff"/><path d="M511.511,566.651c.013.057.042.093,0,0" transform="translate(-125.819 -139.382)" fill="#fff"/><path d="M201.016,326.6q5.473,10.87,10.919,21.754a122.53,122.53,0,0,1,13.288-7.769Q219.18,330,213.236,319.356a84.1,84.1,0,0,0-12.22,7.243" transform="translate(-49.445 -78.553)" fill="#fff"/><path d="M201.7,298.357a83.772,83.772,0,0,0-8.028,3.969c-1.338.749-2.65,1.549-3.948,2.374q3.68,7.11,7.269,14.265.261.52.524,1.04a81.491,81.491,0,0,1,12.119-7.279q-3.994-7.165-7.933-14.359l0-.011" transform="translate(-46.668 -73.388)" fill="#fff"/><path d="M183.981,340.381q4.651,10.976,9.008,22.07c2.527-2.3,5.164-4.472,7.878-6.547q2.645-2.022,5.4-3.919-5.343-10.942-10.586-21.933a89.263,89.263,0,0,0-11.7,10.329" transform="translate(-45.255 -81.184)" fill="#fff"/><path d="M228.064,313.456a81.572,81.572,0,0,0-9.245,3.628q6.195,10.5,12.354,21.017a62.778,62.778,0,0,1,11.872-4.425c.882-.222,1.8-.434,2.73-.621q-7.1-10.335-14.266-20.618-1.734.47-3.445,1.019" transform="translate(-53.824 -76.852)" fill="#fff"/><path d="M251.2,341.94a46.683,46.683,0,0,0-5.525,1.281,69.656,69.656,0,0,0-9.353,3.572c.093.161.188.32.283.481,2.395,4.1,4.744,8.223,7.11,12.339,1.117,1.945,2.267,3.885,3.363,5.854a128.882,128.882,0,0,1,13.084-4.866c1.044-.327,2.094-.636,3.147-.937-1.092-1.6-2.176-3.2-3.268-4.8q-4.412-6.464-8.841-12.919" transform="translate(-58.129 -84.109)" fill="#fff"/><path d="M173.4,316.579q3.157,6.95,6.169,13.962c.446,1.035.881,2.073,1.323,3.11q2.431-2.757,5.131-5.274a79.531,79.531,0,0,1,6.375-5.326q-3.728-7.827-7.4-15.681a76.921,76.921,0,0,0-11.6,9.21" transform="translate(-42.651 -75.605)" fill="#fff"/><path d="M356.3,459.675c.017.138.014.28.018.42a.828.828,0,0,1-.4.651.837.837,0,0,1-.781.093c-.047-.024-.1-.045-.146-.069a1.574,1.574,0,0,1-.483-.355c-.078-.081-.162-.155-.234-.244a4.557,4.557,0,0,0-.341-.363,86.949,86.949,0,0,0-9.65,4.643c-13.171,7.451-25.412,18.989-31.147,33.231-3.148,7.818-3.885,16.6-3.39,24.951a62.026,62.026,0,0,0,5.707,22.714c.039-.245.1-.486.131-.733a.682.682,0,0,1,1.357.129c-.072.993-.179,1.981-.307,2.966.131.251.247.508.381.758a28.425,28.425,0,0,0,3.633,5.4.917.917,0,0,0,1.521-.982c-1.706-3.953-3.626-7.746-5.035-11.831a73.568,73.568,0,0,1-3.159-12.429,60.785,60.785,0,0,1,.982-25.12c3.81-13.99,14.884-25.507,26.671-33.372a91.811,91.811,0,0,1,19.252-9.331,102.121,102.121,0,0,1,23.17-5.89,51.739,51.739,0,0,1,22.628,2.059,58.335,58.335,0,0,1,18.977,10.209,47.779,47.779,0,0,1,13.472,18.274,55.9,55.9,0,0,1,4.686,25.921,52.9,52.9,0,0,1-.928,6.5c-.195.95,1.3,1.073,1.5.142a56.617,56.617,0,0,0,1.112-8.205l-.09-.018a.864.864,0,0,1-.618-1.338,1.727,1.727,0,0,1,.814-.615c.43-14.017-4.2-28.324-13.784-38.646a55.773,55.773,0,0,0-18.468-12.879,54.98,54.98,0,0,0-22.762-5.023,86.1,86.1,0,0,0-24.743,4.259c-3.3,1.031-6.614,2.165-9.871,3.435a2.954,2.954,0,0,1,.164.258,1.179,1.179,0,0,1,.167.426" transform="translate(-76.155 -111.007)" fill="#161616"/><path d="M372.968,590.82c-.732-.237-1.479-.439-2.212-.659a24.473,24.473,0,0,0-5.213-1.068c-2.981-.225-6.242-.2-8.936,1.272-2.742,1.5-3.661,4.236-5.531,6.535a10.186,10.186,0,0,1-6.831,3.555,10.378,10.378,0,0,1-7.423-2.145c-2.129-1.565-4-3.518-6.467-4.571-2.966-1.267-6-.48-8.963.35a8.81,8.81,0,0,1-7.224-.629c-2.759-1.678.069-5.725.778-7.867a41.268,41.268,0,0,0,1.7-7.636c.128-.985.234-1.973.307-2.966a.682.682,0,0,0-1.357-.128c-.033.246-.092.487-.131.733a32.533,32.533,0,0,1-2.915,9.112c-.683,1.4-1.651,2.849-2.276,4.363.584.256,1.142.532,1.64.8,1.116.591.106,2.217-.979,1.867-.422-.136-.837-.293-1.251-.453a5.133,5.133,0,0,0,.275,2.269,6.536,6.536,0,0,0,6.1,3.982c2.981.015,5.8-1.381,8.674-1.99a7.944,7.944,0,0,1,4.85.28,15.244,15.244,0,0,1,3.5,2.3c2.181,1.743,4.285,3.5,7.065,4.17a12.955,12.955,0,0,0,13.807-5.679c1.022-1.568,1.956-3.171,3.711-4.012a11.993,11.993,0,0,1,5.063-.912c1.922-.011,3.849.183,5.768.278,1.654.082,3.285.333,4.921.5-.149-.121-.306-.227-.452-.356a.859.859,0,0,1,0-1.284" transform="translate(-76.168 -141.256)" fill="#161616"/><path d="M449.279,583.375c-.8.015-1.606-.026-2.4-.09-1.786-.142-3.557-.384-5.331-.63-3.012-.418-6.3-.736-9.248.219-2.92.948-4.745,2.949-6.357,5.471a11.327,11.327,0,0,1-3.214,3.881,7.488,7.488,0,0,1-1.176.6.753.753,0,0,1,.06.556,2.07,2.07,0,0,1-1.333,1.246,9.934,9.934,0,0,0,5.464-3.049c1.085-1.16,1.844-2.552,2.85-3.772a7.294,7.294,0,0,1,4.113-2.418c3.277-.712,6.462-.182,9.732.256a23.9,23.9,0,0,0,5.458.271c1.387-.131,3.539-.489,4.536-1.612-.835.116-1.668.205-2.484.272a.75.75,0,0,1-.673-1.2" transform="translate(-103.379 -143.219)" fill="#161616"/><path d="M475.964,571.311a7.369,7.369,0,0,1,.832-1.556,6.719,6.719,0,0,1-.7.246.7.7,0,0,0-.128,1.31" transform="translate(-116.977 -140.145)" fill="#161616"/><path d="M492.545,543.5a5.909,5.909,0,0,1-2.084,4.852c-.585.477-1.5-.3-1-.911a5.878,5.878,0,0,0,.522-.77,4.12,4.12,0,0,1-.366.35,16.807,16.807,0,0,1-3.654,1.865,8.7,8.7,0,0,0-3.411,2.307c-.874,1.2-.372,2.442-.112,3.746a6.607,6.607,0,0,1-.192,3.281,7.416,7.416,0,0,1-2.186,3.293.911.911,0,0,1,.846,1.4,9.651,9.651,0,0,0,2.708-3.062,10.669,10.669,0,0,0,1.343-3.809,7.745,7.745,0,0,0,.013-2.1c-.036-.259-.31-.845-.222-1.072.076-.2.5-.412.673-.523,2.538-1.61,5.748-2.617,7.065-5.572.581-1.3.786-3.818-.286-5.083a6.241,6.241,0,0,1,.343,1.81" transform="translate(-118.083 -133.242)" fill="#161616"/><path d="M365.3,570.536a16.7,16.7,0,0,0-4.94-1.189c-2.813-.162-6.173.826-8.058,3.015-.731.849-1.147,2.555-2.19,3.037-.819.378-1.969-.145-2.73-.426-1.81-.669-3.9-1.576-5.605-.185-.561.458.061,1.5.709,1.1,1.7-1.053,3.889.918,5.374,1.66,2.126,1.063,4.311.969,5.683-1.21a9.968,9.968,0,0,1,2.4-3.017,7.654,7.654,0,0,1,3.811-1.288,14.48,14.48,0,0,1,4.489.3c1.589.336,3.231,1.212,4.854,1.241.409.008.823-.524.455-.872a12.844,12.844,0,0,0-4.251-2.167" transform="translate(-84.015 -140.041)" fill="#161616"/><path d="M418.6,558.993a9.441,9.441,0,0,0-4.554.121c-3.147.821-5.112,2.942-6.9,5.527a9.983,9.983,0,0,1-2.946,3.232c-1.712.984-3.628.487-5.468.277-2.895-.331-6.133-1.1-8.2,1.548a.557.557,0,0,0,.813.74c2.635-2.46,6.2-.449,9.124.1A7.475,7.475,0,0,0,408,567.76c1.746-2.055,2.918-4.514,5.547-5.6a8.461,8.461,0,0,1,4.094-.54c1.087.109,2.7.751,3.718.327a.679.679,0,0,0,.372-.722c-.192-1.261-2.046-1.957-3.131-2.237" transform="translate(-96.034 -137.443)" fill="#161616"/><path d="M449.761,556.687a6.51,6.51,0,0,1-.686,2.168,3.115,3.115,0,0,1-.749.949c-.317.253-.624.516-.953.752a5.285,5.285,0,0,1-4.417.891c-.709-.2-1.117.864-.4,1.084a6.568,6.568,0,0,0,5.562-.934,7.64,7.64,0,0,0,1.936-2.055,4.987,4.987,0,0,0,.973-2.733.636.636,0,0,0-1.265-.12" transform="translate(-108.765 -136.795)" fill="#161616"/><path d="M467.228,539.582a3.26,3.26,0,0,0-.817.386,6.466,6.466,0,0,1-1.426.52,20.5,20.5,0,0,0-3.226.894,7.223,7.223,0,0,0-2.563,1.912,8.312,8.312,0,0,0-1.945,6.436c.117.875,1.363.6,1.32-.232a6.2,6.2,0,0,1,2.43-5.087,6.331,6.331,0,0,1,2.432-1.252,19.622,19.622,0,0,0,3.283-.837,3.411,3.411,0,0,0,1.416-1.038,1,1,0,0,0-.906-1.7" transform="translate(-112.456 -132.719)" fill="#161616"/><path d="M362.887,479.065a3.718,3.718,0,0,1,3.032,1,4.861,4.861,0,0,1,1.381,2.665c.536,2.166.921,4.414,3.248,5.364a6.632,6.632,0,0,0,6.53-1.424,7.62,7.62,0,0,0,2.673-5.6.337.337,0,0,0-.648-.147,8.33,8.33,0,0,1-3.962,4.2c-1.531.759-3.811,1.488-4.828-.377-.919-1.683-1.084-3.728-2.353-5.224a5.527,5.527,0,0,0-5.295-1.7.636.636,0,0,0,.222,1.251" transform="translate(-89.082 -117.5)" fill="#161616"/><path d="M388.8,478.062a8.163,8.163,0,0,1,4.94-1.229,13.537,13.537,0,0,1,2.222.572,18.7,18.7,0,0,0,2.2.468,4.344,4.344,0,0,0,3.67-.846,5.384,5.384,0,0,0,1.1-1.709c.132-.286.388-1.092.733-1.159a.734.734,0,0,0,.127-1.4c-1.378-.635-2.263.894-2.792,1.9-.284.536-.51,1.074-1.126,1.286a4.664,4.664,0,0,1-2.123.023,20.275,20.275,0,0,0-4.719-.287,9.852,9.852,0,0,0-4.621,1.786c-.332.226.038.81.386.6" transform="translate(-95.507 -116.25)" fill="#161616"/><path d="M415.113,470.338c.621-.084,1.216-.252,1.827-.382a7.188,7.188,0,0,0,1.862-.679,10.451,10.451,0,0,0,1.657-1.047c.508-.4,1.177-.992,1.124-1.7a.543.543,0,0,0-.483-.446c-.611-.023-1.166.555-1.613.913a12.371,12.371,0,0,1-1.357.99c-.5.3-1.025.587-1.542.864a6.782,6.782,0,0,1-1.639.552.474.474,0,0,0,.164.933" transform="translate(-101.975 -114.645)" fill="#161616"/><path d="M336.124,516.96c1.042.6,1.3,1.811,1.778,2.824a6.826,6.826,0,0,0,2.184,2.778,7.773,7.773,0,0,0,6.561.7c2.091-.6,4.553-1.9,5.461-4a.315.315,0,0,0-.427-.39c-1.137.509-2.141,1.375-3.248,1.965a6.235,6.235,0,0,1-3.75.847,6.094,6.094,0,0,1-2.914-1.264,9.249,9.249,0,0,1-2.014-2.89c-2.406-3.878-7.052-2.975-10.231-.566-.577.437.138,1.242.717.845,1.6-1.093,4.054-1.9,5.881-.848" transform="translate(-81.003 -126.649)" fill="#161616"/><path d="M365.047,514.9a13.406,13.406,0,0,1,10.289-.3c1.517.619,1.629,2.417,2.659,3.588a8.139,8.139,0,0,0,3.162,2.159,9.628,9.628,0,0,0,8.009-.6,11.336,11.336,0,0,0,3.239-2.65,8.078,8.078,0,0,0,2.159-3.7.384.384,0,0,0-.543-.381,28.408,28.408,0,0,0-3.031,2.791,14.035,14.035,0,0,1-3.846,2.359,7.069,7.069,0,0,1-7.5-1.378c-.894-.947-1.194-2.325-2.259-3.119a9.287,9.287,0,0,0-4.052-1.4,14.309,14.309,0,0,0-8.809,1.52.613.613,0,0,0,.526,1.106" transform="translate(-89.581 -125.965)" fill="#161616"/><path d="M446.871,493.323c-.51-1.194-2.643.576-3.283.858-1.636.72-3.4,1.072-5.067,1.715-3.37,1.3-5.211,4.158-7.867,6.4a5.7,5.7,0,0,1-4.591,1.534,19.673,19.673,0,0,1-4.822-1.843c-2.933-1.277-6.534-2.531-9.035.267-.423.474.348,1.15.813.741,3.053-2.685,6.849.234,9.718,1.617,2.76,1.329,5.624,1.619,8.277-.12,2.613-1.712,4.262-4.612,6.986-6.158,2.757-1.565,6.758-1.565,8.806-4.232a.783.783,0,0,0,.066-.78" transform="translate(-101.362 -121.244)" fill="#161616"/><path d="M380.238,546.046a4.681,4.681,0,0,0-1.381,1.165,9.166,9.166,0,0,1-1.387,1.168,8.752,8.752,0,0,1-3.691,1.3c-3.22.444-6.482-.587-9.5-1.592a.636.636,0,0,0-.441,1.191c3.359,1.393,6.936,2.971,10.66,2.442a10.385,10.385,0,0,0,4.252-1.61c1.068-.709,2.691-2.181,2.3-3.638a.588.588,0,0,0-.817-.421" transform="translate(-89.398 -134.301)" fill="#161616"/><path d="M437.772,532.973l3.076-.194,1.537-.1.71-.045a1.6,1.6,0,0,0,.944-.272c.517-.364.237-1.081-.231-1.307a1.834,1.834,0,0,0-1-.042l-.705.07-1.528.151-3.056.3a.734.734,0,0,0-.59.843.745.745,0,0,0,.843.59" transform="translate(-107.471 -130.605)" fill="#161616"/><path d="M316.811,612.467a12.086,12.086,0,0,0-8.009.209.815.815,0,0,0-.417,1.127,5.907,5.907,0,0,0-2.409,2.131,5.683,5.683,0,0,0-.779,3.088c.015,1.178.265,2.282-.318,3.355a6.888,6.888,0,0,1-1.478,2.011,12.485,12.485,0,0,0-1.945,2.011,4.164,4.164,0,0,0-.866,2.408c.044,1.219,1,1.672,2.076,1.838,4.658.721,8.2-3.845,12.345-5.145,2.08-.652,4.348-1.016,5.878-2.717a5.473,5.473,0,0,0,.9-5.585,7.741,7.741,0,0,0-4.976-4.732m2.422,8.646c-.945,1.4-2.924,1.858-4.438,2.326a19.57,19.57,0,0,0-4.974,2.408,18.911,18.911,0,0,1-4.845,2.687,5.368,5.368,0,0,1-1.107.2c-.2.014-1.123.073-1.231-.072-.253-.34.585-1.338.855-1.631.961-1.043,2.2-1.73,3.206-2.7a4.433,4.433,0,0,0,1.124-2.295,19.9,19.9,0,0,0-.12-3.481,3.993,3.993,0,0,1,3.533-3.853.657.657,0,0,0,.373-.178,20.157,20.157,0,0,1,3.113.152,6.02,6.02,0,0,1,4.25,2.455,3.585,3.585,0,0,1,.26,3.976" transform="translate(-73.937 -150.509)" fill="#161616"/><path d="M303.429,649.022a.676.676,0,0,0-1.121-.069,3.52,3.52,0,0,1-.244.305,2.9,2.9,0,0,0-1.8,1.258,1.052,1.052,0,0,0-.089.223l-.3.174a8.408,8.408,0,0,0-2.713,2.242,3.872,3.872,0,0,0-.634,3.637A3.784,3.784,0,0,0,299,658.988c2.642.777,4.97-.826,6.77-2.613a6.782,6.782,0,0,0,1.982-3.056,3.431,3.431,0,0,0-1.111-3.521,4.367,4.367,0,0,0-3.214-.776m1.557,2.849c.052.045.075.077,0,0m-1.165-.244h0m-4.881,4.391c-.06-.067-.032-.042,0,0m6-2.78c-.116.187-.238.369-.372.544a5.727,5.727,0,0,1-.4.477,11.487,11.487,0,0,1-2.114,1.825,3.771,3.771,0,0,1-1.2.512c-.056.011-.288.036-.336.047a3.264,3.264,0,0,1-.642-.055.307.307,0,0,0-.038-.005l-.066-.027c-.075-.029-.159-.061-.235-.085l-.067-.022c-.082-.045-.158-.1-.237-.15-.029-.018-.1-.081-.127-.1-.038-.044-.077-.087-.117-.13l-.03-.034a1.563,1.563,0,0,1-.133-.289c.019-.009-.047-.492-.049-.3a2.524,2.524,0,0,1,.02-.262c.005-.044.008-.075.01-.1s.009-.026.017-.054a3,3,0,0,1,.523-1.044,13.366,13.366,0,0,1,2.1-1.975l.038-.035a2.211,2.211,0,0,0,.483-.023c.391-.075.78-.154,1.171-.228.193-.037.388-.066.584-.086l.164-.014h.054c.182.01.363.028.545.039a.46.46,0,0,1,.054.008c.072.02.143.038.212.065s.122.051.184.077c-.281-.121-.072-.015,0,.014a.282.282,0,0,1,.056.038c.03.035.06.069.09.1l.009.009a2.091,2.091,0,0,1,.1.215.162.162,0,0,0,.02.041c0,.02,0,.039,0,.071,0,.087.005.106.011.1,0,.017-.006.034-.011.063a2.07,2.07,0,0,1-.267.771" transform="translate(-72.885 -159.56)" fill="#161616"/><path d="M390.912,613.717a4.892,4.892,0,0,0,.194-1.363,2.02,2.02,0,0,0-1.814-1.787,10.157,10.157,0,0,0-3.206.283,18.027,18.027,0,0,0-4.054.887.748.748,0,0,0-.427.48,10.3,10.3,0,0,0-2.574,1.116c-1.712,1.038-3.4,2.54-3.778,4.6a3.366,3.366,0,0,0,2.5,3.87,8.132,8.132,0,0,0,2.006.231,23.312,23.312,0,0,1,2.337-.085,2.442,2.442,0,0,1,1.623.868,6.734,6.734,0,0,0,2.236,1.762,4.417,4.417,0,0,0,4.446-.485,5.2,5.2,0,0,0,2.347-3.8,10.64,10.64,0,0,0-1.513-4.886,2.539,2.539,0,0,1-.327-1.694m-.1,9.2a2.885,2.885,0,0,1-2.026.44,5.454,5.454,0,0,1-1.917-.325c-1.362-.553-1.835-2.062-3.086-2.767a8.126,8.126,0,0,0-3.411-.823c-.522-.032-1.042,0-1.563-.065a1.3,1.3,0,0,1-.893-.382c-.89-1.111,1.1-2.929,1.879-3.554a10.935,10.935,0,0,1,5.1-2.135.641.641,0,0,0,.384-.214c.9-.174,1.786-.394,2.638-.582.4-.089,1.435-.465,1.665.018.13.274-.069.759-.1,1.053a3.33,3.33,0,0,0,.083,1.245,5.17,5.17,0,0,0,.942,1.8,10.655,10.655,0,0,1,1.577,2,4.32,4.32,0,0,1-1.263,4.289" transform="translate(-92.289 -150.171)" fill="#161616"/><path d="M414.961,596.68a.75.75,0,0,0-.06-.557.575.575,0,0,0-.176-.2c-.728-.491-1.505-.186-2.286.063-1,.318-1.977.706-2.981,1.016a30.4,30.4,0,0,1-5.576,1.3,13.254,13.254,0,0,1-9.446-2.243.67.67,0,0,0-.913.022.858.858,0,0,0,0,1.284c.145.129.3.235.451.355a13.933,13.933,0,0,0,9.51,2.772,24.777,24.777,0,0,0,6.163-1.13c1.026-.317,2.036-.691,3.039-1.074.289-.11.621-.225.943-.365a2.07,2.07,0,0,0,1.333-1.246" transform="translate(-96.726 -146.518)" fill="#161616"/><path d="M469.924,577.932a9.963,9.963,0,0,0,3.263-4.061c.658-1.509.949-3.23,2.275-4.322a.9.9,0,0,0,.149-.172.911.911,0,0,0-.846-1.4c-.015,0-.028,0-.043,0a3.009,3.009,0,0,0-2.116,1.343,7.338,7.338,0,0,0-.832,1.556c-.09.221-.173.441-.25.655a9.181,9.181,0,0,1-2.536,4.221c-2.721,2.363-6.411,3.3-9.882,3.88a.678.678,0,0,0-.42.234.751.751,0,0,0,.673,1.2c.816-.068,1.649-.156,2.484-.272a17.677,17.677,0,0,0,8.08-2.858" transform="translate(-112.788 -139.707)" fill="#161616"/><path d="M489.445,528.218c.032.008.059.011.09.018a1.615,1.615,0,0,1,1.078.478,2.235,2.235,0,0,1,.556,1.618c-.087,1.728-.925,3.332-.454,5.084.406,1.5,1.709,2.578,2,4.116a4.837,4.837,0,0,1-.619,3.323,5.821,5.821,0,0,1-.523.77c-.5.614.415,1.388,1,.911a5.909,5.909,0,0,0,2.084-4.852,6.265,6.265,0,0,0-.342-1.81,5.639,5.639,0,0,0-.367-.854c-.52-.954-1.271-1.752-1.24-2.9.057-2.046,1.179-3.891.179-5.895-.544-1.09-2.028-2.377-3.248-1.959a1.734,1.734,0,0,0-.814.616.864.864,0,0,0,.618,1.338" transform="translate(-120.198 -129.428)" fill="#161616"/><path d="M497.449,574.7a6.9,6.9,0,0,0-1.366.017.6.6,0,0,0-.427-.057c-1.3.314-2.647.324-3.944.7a5.816,5.816,0,0,0-2.985,1.727,3.924,3.924,0,0,0-.976,3.061,3.327,3.327,0,0,0,2.083,2.522c1.961.819,4.247.038,6.184-.446.658-.164,1.321-.316,1.971-.512a6.912,6.912,0,0,0,2.069-.809,2.839,2.839,0,0,0,1.15-2.607,4.056,4.056,0,0,0-3.76-3.594m1.815,3.484a.947.947,0,0,1-.147.537.748.748,0,0,1-.171.135,3.646,3.646,0,0,1-.8.236c-1.361.293-2.7.661-4.047,1.017a14.049,14.049,0,0,1-1.612.35,3.807,3.807,0,0,1-1.268.029s-.206-.039-.24-.041c-.1-.027-.194-.058-.289-.094l-.065-.026c-.078-.054-.344-.263-.215-.136a1.066,1.066,0,0,1-.351-.822,2.894,2.894,0,0,1,1.833-2.2,10.569,10.569,0,0,1,1.98-.5l.067-.016a1.952,1.952,0,0,0,1.057,0c1.423-.327,4.217-.6,4.266,1.539" transform="translate(-119.966 -141.347)" fill="#161616"/><path d="M515.879,561.274a5.581,5.581,0,0,0-1.2-.167,3.324,3.324,0,0,0-1.5.2,1.681,1.681,0,0,0-.692.6,4.238,4.238,0,0,0-3.177,1.46,2.674,2.674,0,0,0,.507,3.938,4.314,4.314,0,0,0,2.417.443,20.284,20.284,0,0,0,2.768-.259c1.561-.265,3.425-.891,3.588-2.748a3.448,3.448,0,0,0-2.711-3.468m-5.075,3.36c.011-.042.023-.075,0,0m.054.762.006,0c.006.01.011.02.024.041-.06-.031-.118-.067-.03-.045m-.043-.109c.042.093.013.057,0,0m5.273-.437c-.014.006-.027.011-.05.023a4.36,4.36,0,0,1-.427.184c-.037.008-.216.063-.268.075-.415.1-.837.177-1.259.242a11.739,11.739,0,0,1-2.641.189c-.07-.005-.139-.015-.21-.021a.361.361,0,0,0-.078,0,.294.294,0,0,0-.053-.024c.014.005-.282-.127-.16-.058.055.031,0,.009-.05-.018-.006-.01-.01-.021-.016-.032l.023.019a.305.305,0,0,0-.03-.035c-.018-.038-.037-.075-.054-.112l0-.017c-.008-.084-.02-.172-.034-.256a.4.4,0,0,0-.009-.045c0-.009,0-.012,0-.023.01-.09.017-.179.026-.268a.173.173,0,0,1,.006-.028,2.225,2.225,0,0,1,.078-.209c.015-.029.041-.081.053-.1s.154-.213.112-.165a3.324,3.324,0,0,1,2.273-.928,4.754,4.754,0,0,0,1.207.08,2.9,2.9,0,0,1,.963.165c.078.029.155.062.231.1l.028.02c.063.046.126.1.191.14.01.007.005,0,.01,0s.006.011.021.029c.063.077.127.153.188.232.019.036.07.122.081.144s.041.117.054.155a.621.621,0,0,0,.026.134c0,.044,0,.088-.009.131l0,.009c-.005.017-.005.02-.008.032a.919.919,0,0,0-.081.116l-.087.079c-.02.017-.031.028-.042.038" transform="translate(-125.123 -138.017)" fill="#161616"/><path d="M245.137,567.358a.452.452,0,0,1-.035-.892,1.962,1.962,0,0,1,1.234.12,65.933,65.933,0,0,1-6.78-15.428,68.817,68.817,0,0,1-2.577-19.1,1.8,1.8,0,0,0-.317-1.068c-.757.674-1.518,1.343-2.265,2.027-.311.284-.616.57-.921.851.258,12.532,3.837,25.821,12.187,35.383.249-.736.372-1.822-.527-1.895" transform="translate(-57.429 -130.611)" fill="#161616"/><path d="M296.543,590.777c-.5-.264-1.056-.54-1.64-.8a8.8,8.8,0,0,0-4.5-.931c-2.4.338-3.355,2.893-5.524,3.554a4.148,4.148,0,0,1-5.032-2.653c-.288-.982-.48-1.832-1.507-2.292a6.561,6.561,0,0,0-3.343-.157,17.112,17.112,0,0,0-4.373.747,13.964,13.964,0,0,0-3.547,2.123c-1.878,1.455-3.849,3.477-6.414,3.392-2.613-.087-2.775-3.068-3.928-4.826-1.14-1.738-3-2.325-4.934-2.69-.693-.13-1.7-.214-1.765-1.082-.09-1.161.973-2.322,1.142-3.467.19-1.292-.294-3.02-1.47-3.554a1.956,1.956,0,0,0-1.234-.121.452.452,0,0,0,.036.892c.9.072.775,1.159.526,1.895a3.079,3.079,0,0,1-.2.477,10.611,10.611,0,0,0-1.615,3.285,3.794,3.794,0,0,0,2.86,4.268c1.614.488,4.18.084,5.127,1.69,1.153,1.954,1.428,4.149,3.763,5.134a7.328,7.328,0,0,0,5.9-.478c2.423-1.192,4.159-3.427,6.7-4.418a18.257,18.257,0,0,1,4.272-1.091,3.441,3.441,0,0,1,1.436-.09c.671.237.681,1.093.952,1.676a6.22,6.22,0,0,0,4.305,3.281c2.53.579,4.314-.544,6.138-2.153a3.221,3.221,0,0,1,3.4-.982,21.952,21.952,0,0,1,2.244.782c.414.16.829.317,1.251.453,1.085.35,2.095-1.276.979-1.867" transform="translate(-60.797 -142.167)" fill="#161616"/><path d="M288.274,575.593a10.3,10.3,0,0,0-4.354.17,10.548,10.548,0,0,1-4.307.529,5.273,5.273,0,0,1-1.715-.562c-.736-.449-1.093-1.323-1.7-1.914-2.148-2.087-5.424-1.524-7.849-.293a48.956,48.956,0,0,1-4.807,2.638,5.607,5.607,0,0,1-5.7-.975c-.559-.462-1.394.436-.864.949,2.543,2.461,5.817,2.526,8.907,1.081,2.193-1.025,6.307-3.993,8.574-1.509a16.846,16.846,0,0,0,1.555,1.9,4.969,4.969,0,0,0,1.77.955,9.1,9.1,0,0,0,4.223-.241c1.426-.3,2.8-.815,4.232-1.071a5.676,5.676,0,0,1,2.455-.011c.64.173,1.115.628,1.763.764a.478.478,0,0,0,.512-.554c-.256-1.152-1.664-1.641-2.7-1.859" transform="translate(-63.169 -140.802)" fill="#161616"/><path d="M300.32,485.579a54.4,54.4,0,0,1-4.584,2.993c-2.774,1.718-5.642,3.589-7.323,6.479-1.231,2.115-2.339,6.23.879,7.255,2.342.746,4.009-1.506,6.126-1.875,2.038-.356,1.48,2.5,1.906,3.715.477,1.357,1.725,2.71,3.293,2.219.973-.3,1.168-1.967-.08-1.99-1.292-.024-1.483-2.029-1.831-2.949a3.772,3.772,0,0,0-2.1-2.516c-2.1-.721-3.857,1.214-5.767,1.656-1.512.35-1.531-1.344-1.246-2.4a8.826,8.826,0,0,1,2.365-3.789c2.3-2.3,5.256-3.644,8.058-5.213a19.107,19.107,0,0,0,4.609-3.26,4.579,4.579,0,0,0,1.194-4.52q-1.561.75-3.11,1.519a1.581,1.581,0,0,1-.3.743,9.887,9.887,0,0,1-2.094,1.936" transform="translate(-70.64 -118.408)" fill="#161616"/><path d="M252.649,522.9a2.976,2.976,0,0,0,2.184,2.926,3.841,3.841,0,0,0,3.36-1.108c1.1-1.072,1.384-2.58,2.2-3.827a3.065,3.065,0,0,1,2.292-1.341,4.055,4.055,0,0,1,2.74.508,4.159,4.159,0,0,1,1.587,3.182c.266,1.684.544,3.317,1.881,4.5a2.919,2.919,0,0,0,3.875.384c.773-.626-.047-1.743-.907-1.4-1.152.452-2.188-.715-2.515-1.7-.446-1.349-.4-2.813-.852-4.17a5.647,5.647,0,0,0-4.477-3.647,5.5,5.5,0,0,0-5.375,2c-.842,1.092-1.1,2.5-1.872,3.621-.419.612-1.625,1.451-2,.355-.446-1.292.017-3.178.358-4.444.4-1.487,1.2-2.858,1.455-4.379q-1.327,1.008-2.641,2.031a15.175,15.175,0,0,0-.767,2.1,14.735,14.735,0,0,0-.527,4.418" transform="translate(-62.141 -126.516)" fill="#161616"/><path d="M276.226,554.114a7.84,7.84,0,0,1,.688,3.34,5.277,5.277,0,0,0,1.262,3.049,3.774,3.774,0,0,0,2.7,1.206c.918-.016,1.949-.492,1.959-1.528a.657.657,0,0,0-.756-.7c-.612.094-.938.285-1.494-.1a2.648,2.648,0,0,1-1.1-1.6c-.4-1.8-.353-3.841-1.711-5.264-1.152-1.207-2.816-1.64-4.259-2.378-1.028-.526-2.583-2.011-1.611-3.211.513-.633-.488-1.569-1.067-.972-1.388,1.431-.79,3.513.483,4.825,1.384,1.427,3.817,1.617,4.912,3.327" transform="translate(-66.422 -134.246)" fill="#161616"/><path d="M165.242,324.64c-1.234-3.346-3.947-7.77-3.168-11.512-.9.522-2.156-.44-1.436-1.466q.906-1.294,1.909-2.523a.954.954,0,0,0-.75.328c-3.2,3.594-1.573,8.429-.04,12.383,2.242,5.788,4.112,11.735,6.139,17.6q6.753,19.553,13.615,39.068,3.623,10.338,7.246,20.675c.8-.7,1.594-1.4,2.4-2.085-8.581-24.176-17.045-48.4-25.917-72.471" transform="translate(-39.345 -76.04)" fill="#161616"/><path d="M216.494,501.283c.321-.387.646-.771.985-1.147-2.694-9.115-5.949-18.042-9.118-27-3.358-9.5-6.775-18.969-10.171-28.45a37.718,37.718,0,0,1-2.246-7.006,6.384,6.384,0,0,1,1.385-4.98c-1.243,1.038-2.8-.505-2.267-1.75-2.387,3.043-2.414,6.521-1.225,10.113,1.635,4.937,3.472,9.815,5.207,14.717q5.3,14.958,10.663,29.893c1.862,5.185,3.824,10.312,5.963,15.384a1,1,0,0,1,.826.228" transform="translate(-47.489 -106.002)" fill="#161616"/><path d="M226.78,279.463a16.893,16.893,0,0,1-2.1.559.988.988,0,0,0,.308.048c2.759-.114,4.517,2.535,6.012,4.444,1.858,2.372,3.7,4.757,5.554,7.133,3.84,4.921,7.745,9.793,11.62,14.686q11.673,14.737,23.444,29.4l12.536,15.68c1.1-.191,2.206-.363,3.312-.525a1.543,1.543,0,0,0-.225-.384c-16.408-20.345-32.7-40.8-49.346-60.947-2.214-2.679-4.375-5.41-6.644-8.042a9.561,9.561,0,0,0-4.056-2.943.66.66,0,0,1-.419.894" transform="translate(-55.266 -68.521)" fill="#161616"/><path d="M374.877,446.5l-.149-.055a.681.681,0,0,1-.035.122.9.9,0,0,0,.184-.067" transform="translate(-92.165 -109.814)" fill="#161616"/><path d="M311.51,376.289c-.428.081-.854.174-1.28.257a1.372,1.372,0,0,0,.731.049,7.54,7.54,0,0,1,5.811,1.389c1.526,1.128,2.391,2.938,3.527,4.413,2.857,3.709,5.85,7.322,8.774,10.978q9,11.255,18.052,22.465,4.569,5.664,9.421,11.062a.807.807,0,0,1,.9-.655c.426.056.872.128,1.325.217-5.716-8.089-12-15.748-18.177-23.486q-4.765-5.967-9.569-11.9c-3.027-3.758-6.3-7.419-9.089-11.356-1.308-1.846-2.488-3.622-4.529-4.735a10.337,10.337,0,0,0-6.939-1.211,1.424,1.424,0,0,0-.624.282c.416-.056.829-.127,1.246-.179a1.225,1.225,0,0,1,.425,2.411" transform="translate(-76.213 -91.897)" fill="#161616"/><path d="M162.226,305.335a1.181,1.181,0,0,0,.3-.247,78.3,78.3,0,0,1,16.395-14.473,70.759,70.759,0,0,1,20.233-8.866c1.958-.51,3.942-.944,5.932-1.314,1.261-.235,2.556-.418,3.824-.686a16.837,16.837,0,0,0,2.1-.56.66.66,0,0,0,.42-.894.975.975,0,0,0-.694-.664,18.7,18.7,0,0,0-5.528.1,44.216,44.216,0,0,0-5.581,1.034,70.047,70.047,0,0,0-10.831,3.585,72.552,72.552,0,0,0-19.357,12.079,56.654,56.654,0,0,0-6.742,6.913c-.666.82-1.305,1.66-1.909,2.522-.719,1.026.532,1.988,1.436,1.466" transform="translate(-39.498 -68.248)" fill="#161616"/><path d="M324.3,447.529q-1.453.373-2.9.777a.558.558,0,0,1-.826.669c-.133-.1-.255-.216-.385-.321-2.688.771-5.361,1.6-8.016,2.472a221.825,221.825,0,0,0-23.582,9.316q-5.826,2.682-11.5,5.686c.142.373.281.747.4,1.126.182.587-.66.856-1.009.474-.254-.277-.486-.578-.719-.876a239.782,239.782,0,0,0-29.66,18.869,11.778,11.778,0,0,1,.386,1.412.659.659,0,0,1-1.144.537c-.234-.282-.447-.581-.654-.887q-5.334,4.036-10.409,8.393a99.312,99.312,0,0,0-9.161,8.447c-.339.376-.664.76-.986,1.147a.98.98,0,0,1,.032,1.568l-.008.006a1.107,1.107,0,0,0,1.312.034c3.322-2.449,6.314-5.43,9.477-8.09,3.18-2.675,6.437-5.26,9.738-7.785a233.794,233.794,0,0,1,20.6-14.087A250.022,250.022,0,0,1,310.465,455q6.584-2.373,13.3-4.371c4.473-1.329,9.069-2.421,13.461-3.995a.719.719,0,0,0,.438-.386.563.563,0,0,0,.035-.122c-.575-.213-1.153-.41-1.715-.606a.776.776,0,0,1-.448-.388,90.261,90.261,0,0,0-11.23,2.4" transform="translate(-55.132 -109.49)" fill="#161616"/><path d="M232.967,509.449q2.686-2.393,5.428-4.725,3.51-2.972,7.141-5.8,1.312-1.026,2.641-2.03A234.677,234.677,0,0,1,272.6,480.643q6.485-3.748,13.2-7.083,1.549-.772,3.11-1.519a239.7,239.7,0,0,1,23.268-9.73q1.114-.4,2.231-.783c.256-.088.385-.135.446-.158l.159-.043q.8-.222,1.592-.431c1.534-.4,3.073-.773,4.611-1.158,3.107-.779,6.2-1.6,9.262-2.552a4.774,4.774,0,0,0-.634-.25.95.95,0,0,1-.594-1.111.994.994,0,0,1,.307-.52.951.951,0,0,1,.71-.224,5.918,5.918,0,0,1,2.132.9,5.682,5.682,0,0,1,.5.428c3.162-1.059,6.963-2.309,9.176-4.911a3.5,3.5,0,0,0,.786-3.5c-.971-2.665-3.912-3.839-6.579-4.363-.452-.089-.9-.162-1.324-.217a.807.807,0,0,0-.9.655.919.919,0,0,0,.068.632.779.779,0,0,0,.448.388c.562.2,1.141.394,1.715.606l.149.055a11.146,11.146,0,0,1,2.382,1.174,4.858,4.858,0,0,1,1.343,1.277,1.474,1.474,0,0,1,.363.865c-.058-.308-.118.294-.014.043a1.643,1.643,0,0,1-.126.3,2.655,2.655,0,0,1-.869.893c-2.17,1.694-5.283,2.633-7.924,3.466-3.444,1.086-6.959,1.95-10.47,2.788-2.421.578-4.89,1.054-7.262,1.815a213.085,213.085,0,0,0-36.008,15.74A240.643,240.643,0,0,0,245.815,494.9q-8.475,6.511-16.3,13.8c-1.845,1.726-3.9,4.681-6.8,3.419-2.684-1.169-1.893-4.737.048-6.2l.008-.006a.98.98,0,0,0-.032-1.568,1,1,0,0,0-.825-.228.936.936,0,0,0-.262.064,5.868,5.868,0,0,0-3.119,6.306,5.611,5.611,0,0,0,4.9,4.609c2.743.369,4.535-1.1,6.351-2.772.3-.281.61-.566.921-.851.747-.684,1.509-1.353,2.265-2.027" transform="translate(-53.734 -109.068)" fill="#161616"/><path d="M197.943,418.678c.012-.01.024-.016.036-.026,18.826-16.587,40.47-29.617,64.472-37.146a181.97,181.97,0,0,1,19.67-4.875c.427-.083.853-.176,1.28-.257a1.225,1.225,0,0,0-.425-2.411c-.416.052-.829.123-1.246.179-.475.064-.949.136-1.423.205-1.107.162-2.212.334-3.312.525-23.122,4.011-44.932,14.31-63.944,27.91-4.523,3.236-8.9,6.673-13.133,10.272-.808.686-1.6,1.387-2.4,2.085-.482.421-.972.833-1.45,1.258a1.509,1.509,0,0,0-.391.532c-.536,1.245,1.025,2.788,2.267,1.75" transform="translate(-48.105 -91.983)" fill="#161616"/><path d="M245.909,484.945a11.781,11.781,0,0,0-.386-1.412,41.858,41.858,0,0,0-2.1-4.686c-.991-2.074-2-4.14-2.995-6.209-1.927-3.992-3.852-7.984-5.811-11.96q-5.987-12.151-12.1-24.235a.385.385,0,0,0-.7.33q5.556,12.353,11.21,24.66c1.856,4.025,3.747,8.033,5.634,12.043.979,2.08,1.952,4.161,2.939,6.237a37.1,37.1,0,0,0,2.514,4.882c.206.305.42.6.654.887a.659.659,0,0,0,1.144-.537" transform="translate(-54.551 -107.302)" fill="#161616"/><path d="M286.6,460.482c-.118-.379-.257-.753-.4-1.126-1.261-3.309-3.4-6.392-5.146-9.422-2.09-3.619-4.216-7.215-6.329-10.82Q268.446,428.4,261.957,417.8c-.263-.43-.973-.118-.724.344q5.87,10.909,11.911,21.723c2,3.568,3.99,7.144,6.015,10.7,1.013,1.778,2.009,3.566,3.039,5.334a37,37,0,0,0,2.678,4.182c.232.3.465.6.719.876.349.381,1.191.112,1.009-.474" transform="translate(-64.244 -102.718)" fill="#161616"/><path d="M341.484,436.716c0-.008,0-.016-.008-.023-2.039-3.643-5.354-6.747-8.116-9.857q-4.353-4.9-8.809-9.715c-5.938-6.424-12.019-12.721-18.112-19-.328-.338-.884.119-.564.478,5.82,6.516,11.559,13.1,17.334,19.657q4.333,4.918,8.683,9.822c1.4,1.573,2.783,3.157,4.186,4.725a36.958,36.958,0,0,0,4.193,4.257c.13.1.252.221.385.321a.558.558,0,0,0,.827-.669" transform="translate(-75.214 -97.899)" fill="#161616"/><path d="M206.955,407.307c.263.493,1.1.282.974-.311a45.5,45.5,0,0,0-1.238-4.437c-.476.41-.951.823-1.42,1.24.52,1.2,1.075,2.369,1.684,3.508" transform="translate(-50.491 -99.019)" fill="#161616"/><path d="M179.336,333.544q-3.017-7.012-6.169-13.961c-.234.226-.472.449-.7.678q3.544,8.856,7.07,17.718c.372-.444.74-.891,1.123-1.325-.44-1.037-.877-2.075-1.322-3.11" transform="translate(-42.422 -78.609)" fill="#161616"/><path d="M172.566,318.25c-.232-.508-.984-.142-.779.37q.08.2.162.407c.216-.234.435-.464.654-.694l-.037-.083" transform="translate(-42.247 -78.221)" fill="#161616"/><path d="M200.748,386.781q-2.332-6.176-4.75-12.318-.748.633-1.49,1.274,1.9,4.892,3.788,9.789c1.332,3.475,2.533,7.1,3.992,10.568.483-.448.976-.884,1.464-1.324-.924-2.7-2.01-5.359-3-7.99" transform="translate(-47.844 -92.108)" fill="#161616"/><path d="M183.6,343.751c-.4.419-.786.847-1.176,1.273q4.4,11.064,8.726,22.156c.483-.456.966-.912,1.458-1.359q-4.359-11.1-9.008-22.07" transform="translate(-44.871 -84.554)" fill="#161616"/><path d="M199.493,329.784q5.245,10.991,10.586,21.934c.49-.339.986-.67,1.482-1q-5.421-10.9-10.919-21.754c-.384.273-.769.543-1.148.822" transform="translate(-49.07 -80.916)" fill="#161616"/><path d="M189.494,306.769c-.238.151-.477.3-.713.453q3.659,7.857,7.4,15.68c.369-.277.736-.556,1.109-.827l-.523-1.041q-3.6-7.153-7.27-14.265" transform="translate(-46.435 -75.457)" fill="#161616"/><path d="M215.871,359.543q-.754.489-1.5.986,2.713,5.549,5.44,11.089c1.295,2.626,2.546,5.294,3.9,7.9.5-.327,1-.658,1.5-.977-1.01-2.143-2.087-4.258-3.126-6.379q-3.1-6.316-6.212-12.622" transform="translate(-52.73 -88.438)" fill="#161616"/><path d="M230.437,392.169c.3.449.878-.044.731-.472-.63-1.836-1.38-3.627-2.185-5.4-.49.3-.984.592-1.47.9.907,1.7,1.867,3.364,2.924,4.969" transform="translate(-55.962 -95.021)" fill="#161616"/><path d="M252.885,380.732c.311.41.917-.029.731-.472-.766-1.835-1.655-3.616-2.6-5.369q-.8.345-1.605.7c1.085,1.766,2.225,3.494,3.473,5.141" transform="translate(-61.349 -92.214)" fill="#161616"/><path d="M236.079,348.856c-.094-.161-.189-.32-.283-.481-.538.247-1.072.5-1.605.76q3.306,5.785,6.631,11.559c1.356,2.353,2.677,4.75,4.074,7.1.391-.178.778-.364,1.171-.538.161-.071.325-.135.486-.205-1.1-1.969-2.245-3.91-3.364-5.855-2.366-4.115-4.716-8.24-7.11-12.339" transform="translate(-57.605 -85.691)" fill="#161616"/><path d="M217.223,319.17q5.944,10.642,11.986,21.228c.465-.234.927-.474,1.4-.7.058-.028.117-.053.175-.081Q224.625,329.1,218.426,318.6q-.605.28-1.2.57" transform="translate(-53.431 -78.368)" fill="#161616"/><path d="M205.613,298.275q3.931,7.2,7.932,14.358c.256-.125.507-.259.764-.381.133-.064.27-.12.4-.183l-.107-.181q-4.116-6.974-8.294-13.909c-.234.1-.47.185-.7.285,0,0,0,.007,0,.011" transform="translate(-50.575 -73.295)" fill="#161616"/><path d="M256.052,341.856q4.427,6.456,8.841,12.919c1.092,1.6,2.176,3.2,3.268,4.8.63-.179,1.264-.342,1.9-.508-.909-1.3-1.842-2.573-2.716-3.843q-3.436-4.99-6.9-9.96c-.858-1.231-1.737-2.445-2.6-3.669-.137.017-.277.027-.416.046-.458.061-.913.136-1.368.211" transform="translate(-62.982 -84.025)" fill="#161616"/><path d="M231.593,305.142c-.293-.392-.851.1-.575.489.822,1.171,1.637,2.347,2.457,3.52.311-.087.62-.179.931-.262q-1.407-1.873-2.813-3.746" transform="translate(-56.806 -75.022)" fill="#161616"/><path d="M277.175,372.117a.549.549,0,0,0,.911-.588,33.711,33.711,0,0,0-2.857-4.981c-.636.167-1.268.342-1.9.517a37.664,37.664,0,0,0,3.848,5.052" transform="translate(-67.232 -90.162)" fill="#161616"/><path d="M249.914,332.972c.566-.114,1.138-.217,1.714-.3q-5.189-7.3-10.477-14.526-2.221-3.037-4.489-6.043c-.337.087-.677.164-1.014.255q7.175,10.279,14.266,20.618" transform="translate(-57.963 -76.768)" fill="#161616"/><path d="M183.76,303.313c.236-.153.475-.3.713-.453,1.3-.824,2.61-1.624,3.948-2.374a83.769,83.769,0,0,1,8.028-3.968c.232-.1.469-.189.7-.286.715-.3,1.43-.592,2.154-.866,1.934-.731,3.895-1.424,5.867-2.045a37.324,37.324,0,0,0,5.649-1.834.311.311,0,0,0-.1-.585,20.028,20.028,0,0,0-6.216,1,55.887,55.887,0,0,0-5.757,1.8,71.436,71.436,0,0,0-11.423,5.433,72.324,72.324,0,0,0-15.552,12.52c-.219.231-.437.461-.654.694-.911.985-1.807,1.985-2.672,3.017-.284.339.269.7.555.388.794-.875,1.617-1.724,2.455-2.558.231-.229.469-.452.7-.678a76.919,76.919,0,0,1,11.6-9.21" transform="translate(-41.414 -71.549)" fill="#161616"/><path d="M194.157,324.651c.379-.279.765-.549,1.148-.822a84.306,84.306,0,0,1,12.22-7.244q.6-.288,1.2-.569a81.5,81.5,0,0,1,9.245-3.628c1.139-.368,2.289-.705,3.445-1.02.336-.091.676-.167,1.014-.253.716-.185,1.431-.377,2.152-.541a35.039,35.039,0,0,0,6.4-1.631.411.411,0,0,0-.136-.774,18.3,18.3,0,0,0-5.963.619c-1.192.25-2.376.546-3.554.863-.311.083-.621.174-.93.262-.53.149-1.062.29-1.589.449a80.319,80.319,0,0,0-10.942,4.2c-.133.063-.27.12-.4.183-.256.122-.507.256-.764.382a81.529,81.529,0,0,0-12.119,7.279c-.373.271-.74.55-1.109.827a79.368,79.368,0,0,0-6.375,5.326q-2.7,2.517-5.131,5.274c-.383.434-.752.881-1.123,1.325-1.028,1.228-2.028,2.478-2.967,3.783-.3.418.323.833.644.451.9-1.069,1.821-2.109,2.76-3.133.391-.426.778-.855,1.176-1.274a89.379,89.379,0,0,1,11.7-10.329" transform="translate(-43.735 -75.784)" fill="#161616"/><path d="M208.742,355.471q.746-.5,1.5-.986c.6-.387,1.192-.775,1.8-1.151a127.967,127.967,0,0,1,11.647-6.51c.533-.258,1.068-.513,1.605-.76a69.653,69.653,0,0,1,9.353-3.572,46.564,46.564,0,0,1,5.525-1.28c.455-.076.911-.151,1.369-.212.138-.018.277-.029.416-.046,2.245-.271,4.514-.345,6.745-.7a.357.357,0,0,0,.062-.681,18.228,18.228,0,0,0-8-.29c-.577.087-1.148.191-1.715.3-.931.187-1.847.4-2.73.621a62.889,62.889,0,0,0-11.873,4.425c-.057.028-.117.053-.175.081-.468.227-.93.467-1.4.7a122.71,122.71,0,0,0-13.287,7.769c-.5.332-.991.663-1.482,1q-2.747,1.9-5.4,3.919c-2.714,2.075-5.35,4.251-7.878,6.547-.492.447-.976.9-1.458,1.359-.587.555-1.177,1.105-1.749,1.676-.4.4.14,1.067.578.682.517-.455,1.038-.9,1.559-1.353q.742-.641,1.489-1.275a149.435,149.435,0,0,1,13.487-10.264" transform="translate(-47.101 -83.38)" fill="#161616"/><path d="M265.385,362.58a27.812,27.812,0,0,0-6.856,1.091c-.722.17-1.437.37-2.155.559-.633.168-1.268.33-1.9.51q-1.58.451-3.147.936a129.123,129.123,0,0,0-13.083,4.867c-.161.07-.325.135-.486.206-.393.173-.78.36-1.17.537a121.846,121.846,0,0,0-14.811,8c-.5.32-1,.651-1.5.977q-3.686,2.4-7.2,5.038c-2.728,2.055-5.335,4.254-7.867,6.54-.489.441-.981.876-1.464,1.324q-1.625,1.511-3.211,3.067c-.329.324.129.876.468.553,1.007-.961,2.037-1.9,3.077-2.825.469-.419.944-.829,1.42-1.24a127.162,127.162,0,0,1,15.352-11.36c.486-.305.98-.6,1.47-.9a131.16,131.16,0,0,1,15.041-7.9q.8-.356,1.605-.7c3.606-1.548,7.273-2.942,10.994-4.157,1.8-.587,3.612-1.113,5.434-1.617.633-.174,1.265-.351,1.9-.517.225-.059.447-.124.672-.182a53.779,53.779,0,0,0,7.547-2.077.388.388,0,0,0-.129-.731" transform="translate(-49.298 -89.185)" fill="#161616"/><path d="M294.139,390.845a47.164,47.164,0,0,0-9.508,1.317c-3.232.66-6.439,1.461-9.619,2.336a167.229,167.229,0,0,0-18.084,6.1,161.355,161.355,0,0,0-50.709,32.664c-.338.317.123.869.468.552a167.258,167.258,0,0,1,66.522-37.231q5.167-1.491,10.424-2.64c3.5-.765,7.123-1.26,10.536-2.34.369-.117.449-.76-.031-.763" transform="translate(-50.696 -96.138)" fill="#161616"/><path d="M366.413,458.887a.954.954,0,0,0-.71.223.994.994,0,0,0-.307.52.95.95,0,0,0,.594,1.111,4.611,4.611,0,0,1,.634.25c.066.029.135.047.2.078a4.916,4.916,0,0,1,.759.534c.023.023.044.048.067.071a4.686,4.686,0,0,1,.34.363c.072.088.155.163.234.244a1.571,1.571,0,0,0,.483.354c.048.023.1.045.146.069a.895.895,0,0,0,1.185-.744c0-.139,0-.282-.018-.42a1.179,1.179,0,0,0-.167-.426,2.951,2.951,0,0,0-.164-.258,2.453,2.453,0,0,0-.25-.306c-.121-.123-.263-.222-.393-.336a5.332,5.332,0,0,0-.5-.427,5.917,5.917,0,0,0-2.132-.9" transform="translate(-89.873 -112.872)" fill="#161616"/><path d="M245.2,601.526a1.008,1.008,0,0,0-.654.256,11.293,11.293,0,0,0-6.879,1.75c-1.151.815-1.968,2.051-3.34,2.537a18.39,18.39,0,0,1-4.968.575,15.756,15.756,0,0,0-9.321,3.579c-1.9,1.625-3.6,4.654-2.229,7.136,1.318,2.389,4.4,2.158,6.677,1.8a9.975,9.975,0,0,1,2.273-.215,2.03,2.03,0,0,1,1.973,1.294,3.172,3.172,0,0,0,2.739,1.531c5.847.227,7.528-7.673,12.1-9.88,2.331-1.126,5.55-2.252,5.948-5.234.336-2.521-1.685-5.213-4.316-5.126m1.421,5.945a6.929,6.929,0,0,1-2.645,1.294,14.694,14.694,0,0,0-3.084,1.4,17.3,17.3,0,0,0-4.471,4.781c-1.139,1.58-2.515,3.8-4.45,4.486a1.635,1.635,0,0,1-1.43-.007c-.332-.236-.439-.777-.707-1.086a3.6,3.6,0,0,0-2.935-.876c-2.211.019-5.208,1.473-7.225.017a2.457,2.457,0,0,1-.326-3.536,8.562,8.562,0,0,1,3.668-2.093,27.226,27.226,0,0,1,8.162-1.785c2.745-.218,5.5-.912,7.173-3.271.964-1.359,1.714-2.282,3.407-2.7a19.661,19.661,0,0,1,4.089-.456,2.435,2.435,0,0,1,.774,3.826" transform="translate(-53.454 -147.96)" fill="#161616"/><path d="M289.056,610.09a5.221,5.221,0,0,0-2.528-1.59,1.44,1.44,0,0,0-1.654.4c-.015.022-.022.044-.035.065a6.325,6.325,0,0,0-3.979,2.2,16.276,16.276,0,0,0-1.929,2.312,4.947,4.947,0,0,0-.743,3.112c.06,1.084.287,2.35,1.467,2.748,1.062.357,2.442-.163,3.435-.533a13.663,13.663,0,0,0,4.982-3.032c1.439-1.484,2.529-3.865.984-5.679m-8.35,6.946-.005-.013c.132.121.058.18.005.013m6.41-4.652a3.7,3.7,0,0,1-.6.976,4.234,4.234,0,0,1-.728.747c-.151.13-.306.253-.466.372-.1.075-.2.146-.3.219l-.124.084-.014.009a23.351,23.351,0,0,1-2.47,1.309,8.272,8.272,0,0,1-1.522.595c-.09.022-.18.042-.271.061a2.906,2.906,0,0,1,.294-2.687c1.046-1.445,2.588-3.4,4.518-3.58.31.2.621.4.93.607a4.221,4.221,0,0,1,.48.353c-.04-.036.312.372.236.249a1.414,1.414,0,0,1,.09.185c-.01.017.026.2.033.115a1.383,1.383,0,0,1-.084.385" transform="translate(-68.424 -149.654)" fill="#161616"/><path d="M198.77,592.174a5.574,5.574,0,0,0-.4.434,5.338,5.338,0,0,0,.921-.465,21.118,21.118,0,0,1,4.108-1.439c1.532-.434,3.235-.756,3.536-2.587a3.658,3.658,0,0,1,2.684-3.147c1.84-.575,3.907.02,5.651.657a.85.85,0,0,0,.357.054,4.911,4.911,0,0,1-.691-.175,1.59,1.59,0,0,1-1.222-1.968.605.605,0,0,1,.124-.208,7.822,7.822,0,0,0-6.975.685,6.238,6.238,0,0,0-2.326,3.342c-.14.382.005.267-.414.437a9.3,9.3,0,0,1-1.042.288,22.948,22.948,0,0,0-2.389.694,5.341,5.341,0,0,0-3.174,2.712c-.017.051-.027.1-.04.158a6.249,6.249,0,0,1,.65-.472c.616-.387,1.092.559.646,1" transform="translate(-48.574 -143.361)" fill="#161616"/><path d="M219.6,589a6.781,6.781,0,0,0-1.807-4.284,3.82,3.82,0,0,0-1.727-.852,8.443,8.443,0,0,1-1.755-.7.745.745,0,0,0-.841.235.589.589,0,0,0-.124.208,1.59,1.59,0,0,0,1.222,1.968,5,5,0,0,0,.691.175,3.246,3.246,0,0,1,.626.175,2.021,2.021,0,0,1,1.056,1.378c.32.953.694,2.4-.054,3.247-.705.794-2.046.9-3.026.985-2.923.27-5.747.063-8.637.744-1.471.346-2.912.832-4.4,1.1a9.351,9.351,0,0,1-2.165.168c-.226-.012-.851.046-.931-.274-.039-.161.106-.393.274-.6a5.577,5.577,0,0,1,.4-.434c.445-.442-.031-1.388-.647-1a6.332,6.332,0,0,0-.65.473c-.806.666-1.476,1.607-.863,2.626.845,1.4,3.13,1.149,4.522,1.068,2.071-.121,4.055-.636,6.094-.957a55.142,55.142,0,0,1,6.206-.284c3.147-.14,6.876-1.3,6.531-5.17" transform="translate(-48.214 -143.43)" fill="#161616"/><path d="M162.567,589.3a11.265,11.265,0,0,0-6.7,2.034,6.207,6.207,0,0,0-2.467,2.288,2.2,2.2,0,0,0,.8,2.8,4.757,4.757,0,0,0,3,.476,14.6,14.6,0,0,0,3.219-.587,11.428,11.428,0,0,0,5.51-3.459c1.96-2.318-1.547-4.22-3.355-3.553m.3,3.417a9.407,9.407,0,0,1-2.093,1.165,10.941,10.941,0,0,1-4.734.9c-.333-.024-.892-.02-.711-.422a2.5,2.5,0,0,1,.776-.784c.38-.3.772-.59,1.173-.864a11.069,11.069,0,0,1,4.4-1.953.873.873,0,0,0,.467.463,9.839,9.839,0,0,0,1.294.141,2.937,2.937,0,0,1,.664.237c-.1.112-.221.222-.3.3a8.991,8.991,0,0,1-.941.819" transform="translate(-37.68 -144.921)" fill="#161616"/><path d="M177.02,625.483a1.047,1.047,0,0,0-.225.34c-.619.051-1.238.106-1.854.178a8.614,8.614,0,0,0-3.178.872,4.163,4.163,0,0,0-2.113,5.047c.891,2.137,3.579,2.236,5.516,1.825,2.211-.47,4.718-1.623,5.718-3.78a3.682,3.682,0,0,0-.3-3.712c-.768-1.022-2.5-1.783-3.566-.77m1.864,2.87a1.824,1.824,0,0,1-.255.857c-.734,1.274-2.511,1.927-3.869,2.237a5.835,5.835,0,0,1-2.175.2,1.189,1.189,0,0,1-1.037-.731c-.008-.029-.023-.087-.024-.094a1.962,1.962,0,0,1-.035-.237,2.6,2.6,0,0,0,.015-.268,2.156,2.156,0,0,1,.228-.77,2.742,2.742,0,0,1,1.346-1.2,9.334,9.334,0,0,1,2.572-.668c.75-.117,1.5-.229,2.252-.343.02,0,.038.01.059.013.146.021.243.025.285.036a.852.852,0,0,1,.532.4c-.064-.089.017.059.03.085s.046.138.044.131a1.183,1.183,0,0,1,.032.349" transform="translate(-41.665 -153.736)" fill="#161616"/><path d="M513.675,508.557c-1.208-.528-3.356-1-4.4.066a.773.773,0,0,0-.1.161A10.31,10.31,0,0,0,502,511.24a4.729,4.729,0,0,0-1.556,3.714,3.534,3.534,0,0,0,2.08,3.061,6.352,6.352,0,0,0,4.29-.026c.717-.218,1.33-.62,2.022-.881a4.919,4.919,0,0,1,2.046-.023,6.306,6.306,0,0,0,4.235-1.467,2.588,2.588,0,0,0,1.232-1.451,8.857,8.857,0,0,0-.094-2.179,2.973,2.973,0,0,0-.684-2.217,6.354,6.354,0,0,0-1.895-1.212m1.174,2.81c.031.623.031,1.268.011,1.891a.719.719,0,0,1-.112.494,3.327,3.327,0,0,1-.833.468,4.873,4.873,0,0,1-3.18.705,5.62,5.62,0,0,0-3.215.278,8.65,8.65,0,0,1-3.122.883c-.821.021-1.577-.245-1.762-1.117a2.474,2.474,0,0,1,.793-2.2,10.883,10.883,0,0,1,6.866-2.682.5.5,0,0,0,.352-.169,12.05,12.05,0,0,1,1.822.008,5.368,5.368,0,0,1,1.375.386,4,4,0,0,1,.71.376c.28.2.277.328.295.68" transform="translate(-123.094 -124.951)" fill="#161616"/><path d="M531.443,527.278a.661.661,0,0,1,.081.052c.014,0,.01-.007-.081-.052" transform="translate(-130.722 -129.697)" fill="#161616"/><path d="M535.083,522.783a1.215,1.215,0,0,0-1.15.385,6.407,6.407,0,0,0-3.441.786c-1.033.617-1.936,1.713-1.474,2.975.472,1.29,2.071,1.51,3.259,1.571,1.3.066,2.951.034,3.977-.884a2.872,2.872,0,0,0,.507-3.688,2.41,2.41,0,0,0-1.678-1.146m-.257,2.165c.146.107.038.036,0,0m-4.025.954c.027-.076.017-.035,0,0m-.055.173v-.008l0,0c0,.02,0,.027.006.066l-.009-.053m.466.262c-.116-.02-.046-.01,0,0m3.666-.4-.019.029-.107.1a.49.49,0,0,1-.055.038,2.187,2.187,0,0,1-.349.155l-.054.013c-.088.02-.177.04-.265.057a7.232,7.232,0,0,1-1.8.12,8.239,8.239,0,0,1-.99-.1l-.016,0c-.085-.026-.167-.055-.252-.082a.622.622,0,0,1-.066-.029l-.011-.007c-.023,0-.109-.038-.082-.05-.061-.077-.074-.086-.039-.028s.025.048-.02-.038l-.005-.045c.012-.032.036-.112.041-.127l.008-.023a1.639,1.639,0,0,1,.142-.2c-.067.08.131-.118.167-.148s.091-.075.139-.112c0,0,.115-.077.136-.093a5.251,5.251,0,0,1,.826-.381,13.817,13.817,0,0,1,1.878-.568,4.382,4.382,0,0,0,.6.437c.048.032.092.066.138.1s.074.086.111.127l.015.015s0,0,0,0a1.235,1.235,0,0,0,.07.149,1.363,1.363,0,0,0,.028.158,1.022,1.022,0,0,0-.015.172l0,.008c-.031.086-.161.382-.054.2-.031.052-.066.1-.1.153" transform="translate(-130.095 -128.588)" fill="#161616"/><path d="M486.343,606.936c-2.065-.985-5.241-.85-6.874.911a1.434,1.434,0,0,0-.164.227,3.682,3.682,0,0,0-2.637,2.66c-.442,2.294,1.773,4.081,3.844,4.307a9.6,9.6,0,0,0,3.753-.526,7.7,7.7,0,0,0,3.377-1.682,3.775,3.775,0,0,0,1.121-3.2,3.883,3.883,0,0,0-2.419-2.7m-.078,4.041a4.03,4.03,0,0,1-2,1.27,12.883,12.883,0,0,1-2.527.7c-1.15.173-3.055-.135-3.19-1.624-.079-.876.629-1.436,1.436-1.8a.827.827,0,0,0,.518-.072c.244-.13.486-.248.731-.36.1-.025.193-.052.277-.072a.75.75,0,0,0,.327-.177,4.63,4.63,0,0,1,2.659-.234,3.625,3.625,0,0,1,1.82.933,1.1,1.1,0,0,1-.051,1.442" transform="translate(-117.234 -149.14)" fill="#161616"/><path d="M212.938,567.2a12.605,12.605,0,0,0,4.094-.251,15.928,15.928,0,0,0,4.728-1.4c2.583-1.324,4.629-4.2,3.317-7.153A3.706,3.706,0,0,0,221.4,556.2a3.5,3.5,0,0,0-2.526,1.488,18.182,18.182,0,0,0-7.132,3.514,3.951,3.951,0,0,0-1.629,3.637,3.236,3.236,0,0,0,2.822,2.356m.467-4.793a18.283,18.283,0,0,1,5.572-3.171.768.768,0,0,0,.77.3c.786-.236,1.082-.793,1.864-.84a1.23,1.23,0,0,1,1.252.846c.687,1.816-1.06,3.3-2.515,3.98a14.848,14.848,0,0,1-3.486,1.019,15.616,15.616,0,0,1-3.041.447c-.5,0-1.4-.029-1.577-.632-.222-.744.668-1.539,1.162-1.953" transform="translate(-51.668 -136.81)" fill="#161616"/></g></g></g></svg>