<svg xmlns="http://www.w3.org/2000/svg" xmlns:xlink="http://www.w3.org/1999/xlink" width="532" height="599" viewBox="0 0 532 599"><defs><clipPath id="a"><rect width="532" height="599" transform="translate(9443 -2851)" fill="#fff" stroke="#707070" stroke-width="1"/></clipPath><clipPath id="b"><rect width="466.546" height="561.46" fill="none"/></clipPath></defs><g transform="translate(-9443 2851)" clip-path="url(#a)"><g transform="translate(9463 -2851.5)"><path d="M175.784,17.2c1.4,1.5,1.831,2.047,3.809,2.519a20.62,20.62,0,0,0,4.657.463c3.109.021,6.211-.374,9.318-.165,6.5.436,10.613,4.511,12.863,10.395,2.409,6.294,3.221,13.3,4.534,19.872,1.54,7.713,2.834,15.407,5.564,22.8.444,1.208.768-.935.74-1.265-.719-8.9-2.578-17.505-4.365-26.246-1.436-7.026-2.392-14.472-5.234-21.113-2.267-5.3-5.973-9.822-11.907-10.894-3.325-.6-6.719-.169-10.065-.034a28.532,28.532,0,0,1-4.752-.108,16.662,16.662,0,0,1-2.254-.444,13.367,13.367,0,0,0-2.8-.247c-1.389-.125-.615,3.925-.112,4.467" transform="translate(195.233 14.19)"/><path d="M182.519,7.658c4.562,2.271,9.7,2.826,14.629,3.968s9.883,2.214,14.785,3.509c1.939.51,4.149.863,5.818,2.051.26.182.495.554.747.692q.254,1.082-.125-1.667-.022-3-.271-1.191c-.347,1.112-.565,2.3-.837,3.433-.252,1.038-.176,2-.341,3.041.173-1.093-.2.167-.309.6-.332,1.377-.664,2.76-1,4.139a82.518,82.518,0,0,0-1.81,8.559c-.034.256.156,3.088.791,2.07a32.016,32.016,0,0,0,2.384-5.588c.808-2.119,1.576-4.257,2.362-6.385l-.584,1.019c.9-.37,1.121-1.728,1.428-2.578a34.684,34.684,0,0,0,1.091-3.4,17.409,17.409,0,0,0-.192-9.82c-1.588-4.333-5.755-4.962-9.762-5.924C206.67,3.081,201.972,2,197.237,1.283S187.43-.65,182.682.431c-1.8.408-1.633,6.5-.163,7.227" transform="translate(202.217 0)"/><path d="M3.072,262.013a26.253,26.253,0,0,0-1.284,3.8c-.243,1.707-.319,3.428-.4,5.148l-.47,9.853Q.435,290.94,0,301.074c-.015.336.112,7.06,1.836,6.37,12.266-4.919,24.88-9.6,38-11.6A81.344,81.344,0,0,1,58.6,294.8c3.022.247,5.894.192,8.938.635a48.659,48.659,0,0,1,8.864,2.147c.446.152.366-1.927.047-2.191a48.17,48.17,0,0,0-8.785-5.92,34.555,34.555,0,0,0-8.449-3.358,57.734,57.734,0,0,0-19.193-.455C26.7,287.534,13.99,292.271,1.588,297.313q.92,3.185,1.836,6.37.428-10.443.806-20.885.178-4.971.357-9.94c.066-1.8.131-3.608.057-5.412a43.718,43.718,0,0,0-.9-4.957c-.051-.33-.438-1.294-.673-.476" transform="translate(0.001 291.764)"/><g transform="translate(-19 1.5)"><g clip-path="url(#b)"><path d="M65.825,561.336A4.21,4.21,0,0,1,64.2,560.6a3.892,3.892,0,0,1-1.542-2.573c-.01-.072-.019-.15-.027-.231a15.679,15.679,0,0,1-.82-4.917c-.034-.576-.065-1.12-.116-1.466L.054,128.452c-.578-3.971,3.613-6.093,6.391-6.5l140.909-20.537-.528-1.2c-.264-.6-.536-1.193-.809-1.79a56.228,56.228,0,0,1-2.415-5.874c-.653-2-2.388-7.3,1.884-10.443a9.248,9.248,0,0,1,3.887-1.512l.426-.087c.653-.142,1.3-.278,1.949-.4,4.158-1.394,8.345-2.708,12.445-3.983L161.587,40.5l-8.049-4.659a15.069,15.069,0,0,1-7.135-9.5l-.3-1.282A13.422,13.422,0,0,1,157.312,8.525L181.482,5a15.214,15.214,0,0,1,13.464,5.135,15.027,15.027,0,0,1,10.133-6.463L229.249.15A13.423,13.423,0,0,1,244.716,12.8l.075,1.316a15.071,15.071,0,0,1-4.126,11.145l-6.385,6.761,6.994,31.807,9.331-1.364q1.381-.2,2.764-.412c2.161-.326,4.393-.664,6.618-.94,1.6-.2,3.192-.4,4.834-.471a20.5,20.5,0,0,1,2.545.065,5.45,5.45,0,0,1,2.768-.359,5.093,5.093,0,0,1,3.529,2.165c1.706,2.435,1.7,5.305,1.688,7.4v.628c.012,2.231-.045,4.593-.17,7.022-.085,1.639-.179,3.425-.293,5.269l123.369-17.98a7.956,7.956,0,0,1,1.615-.1,4.08,4.08,0,0,1,4.022,3.424c.01.071.019.147.026.228a15.693,15.693,0,0,1,.821,4.916c.034.575.065,1.119.115,1.466L466.5,497.756c.146,1,.144,3.506-3,5.3a10.357,10.357,0,0,1-3.4,1.2l-.278.037c-.069.009-.139.016-.208.029-10.548,2.108-21.43,3.5-31.956,4.849-5.19.665-10.556,1.352-15.773,2.112L68.3,561.356a6.842,6.842,0,0,1-2.472-.019m3.9-4.26.009,0ZM7.344,129.04,68.752,550.389c.1.651.136,1.345.178,2.079.024.418.06,1.029.117,1.574l341.817-49.817c5.279-.769,10.676-1.46,15.9-2.129,10.4-1.332,21.161-2.709,31.471-4.77.231-.045.46-.077.69-.107l.162-.022a1.266,1.266,0,0,0,.125-.03L397.8,75.817c-.1-.65-.136-1.344-.178-2.078-.024-.418-.06-1.029-.116-1.573L271.536,90.525a3.566,3.566,0,0,1-4.068-3.812c.262-3.273.443-6.629.591-9.517.118-2.295.172-4.522.161-6.619v-.692c0-.634,0-1.349-.053-1.97a3.491,3.491,0,0,1-.361-.015,20.424,20.424,0,0,0-2.662-.139c-1.364.062-2.754.235-4.225.416-2.187.272-4.373.6-6.487.921-.933.14-1.865.282-2.8.418l-12.614,1.843a3.566,3.566,0,0,1-4-2.761l-7.9-35.908a5.658,5.658,0,0,1,1.449-5.019l6.9-7.309a7.909,7.909,0,0,0,2.192-5.84l-.076-1.315a6.294,6.294,0,0,0-7.319-6l-24.17,3.523a8.1,8.1,0,0,0-6.679,8.221l.041.713a6.4,6.4,0,0,0,2.726,4.983l6.313,4.319a4.97,4.97,0,0,1,2.045,4.9l-4.67,31.1a3.565,3.565,0,0,1-6.753.984L184.854,35.5a4.964,4.964,0,0,1,.561-5.286l4.816-5.939a6.4,6.4,0,0,0,1.192-5.555l-.165-.7a8.1,8.1,0,0,0-8.746-5.971L158.34,15.579a6.3,6.3,0,0,0-5.3,7.841l.3,1.282a7.913,7.913,0,0,0,3.768,4.972l8.7,5.034a5.658,5.658,0,0,1,2.824,4.4l2.876,39.331a3.565,3.565,0,0,1-2.5,3.664c-4.988,1.545-10.146,3.143-15.221,4.848a3.581,3.581,0,0,1-.475.124c-.67.125-1.335.267-2.009.414l-.527.108a9.716,9.716,0,0,0-.966.226,8.066,8.066,0,0,0,.568,2.521,50.164,50.164,0,0,0,2.123,5.128c.286.626.571,1.25.847,1.875l1.719,3.893c.121.274.238.57.356.873.091.234.183.474.288.706a3.565,3.565,0,0,1-2.738,4.99L7.472,129.01a1.172,1.172,0,0,0-.128.03m184.5-95.427,8.744,18.644,2.734-18.206-5.146-3.52a13.373,13.373,0,0,1-2.256-1.946l-.148.185ZM403.623,67.769l0,.007,0-.007M176.12,80.922a3.563,3.563,0,0,1-2.785-3.221l-2.807-38.4v0a7.837,7.837,0,0,0-3.936-6.071l-8.7-5.034a5.683,5.683,0,0,1-2.7-3.577l-.3-1.284a4.836,4.836,0,0,1,4.052-5.983l24.17-3.523a5.749,5.749,0,0,1,6.3,4.3l.164.7a4.882,4.882,0,0,1-.926,4.231l-4.818,5.941a6.576,6.576,0,0,0-.689,6.994l17.1,36.467a3.565,3.565,0,0,1-2.7,5.04l-.456.067c-1.607.239-3.24.455-4.879.672a95.908,95.908,0,0,0-14.3,2.631,3.571,3.571,0,0,1-1.779.062m1.714-39.462,2.3,31.485c3.708-.8,7.464-1.3,11.13-1.785l.467-.061ZM164.448,23.75l5.713,3.305a15.283,15.283,0,0,1,5.181,4.958,13.311,13.311,0,0,1,2.95-7.518l2.541-3.133Zm44.987,51.74a3.564,3.564,0,0,1-2.755-4.009l5.653-37.644a6.573,6.573,0,0,0-2.657-6.507l-6.309-4.316a4.876,4.876,0,0,1-2.1-3.792l-.041-.714a5.75,5.75,0,0,1,4.81-5.913l24.171-3.523a4.833,4.833,0,0,1,5.59,4.574l.076,1.318a5.688,5.688,0,0,1-1.565,4.2l-6.9,7.307a7.842,7.842,0,0,0-2.041,6.941l7.689,34.963a3.565,3.565,0,0,1-2.965,4.292q-8.467,1.241-16.931,2.5l-2.43.36a3.553,3.553,0,0,1-1.294-.045m9.546-37.916-4.535,30.2q5.412-.8,10.825-1.6Zm-8.61-18.407,3.329,2.277a13.306,13.306,0,0,1,4.973,6.364,15.281,15.281,0,0,1,3.55-6.23l4.532-4.8Z" transform="translate(0 0)" fill="#141414"/><path d="M396.86,90.913,6.644,148.331,72.628,575.452l390.216-57.419Z" transform="translate(-1.467 -20.078)" fill="#fff"/><rect width="329.234" height="321.213" transform="translate(44.352 158.248) rotate(-8.292)" fill="#dbdbdb"/><path d="M243.169,93.967a1.363,1.363,0,0,0-.326-.3c-1.373-.882-4.883.645-6.212,1.117-6.872,2.44-14.192,1.777-21.455,2.756a121.862,121.862,0,0,0-23.216,5.482,2.97,2.97,0,0,0-1.852,1.251,2.913,2.913,0,0,0-.108,1.678,61.52,61.52,0,0,0,4.086,15.062,4.992,4.992,0,0,0,1.361,2.122c1.046.82,2.519.716,3.84.573l18.314-1.985c-1.9,2.592-2.932,6.308-1.117,8.959.471.687,1.1,1.253,1.575,1.939a5.452,5.452,0,0,1-1.121,7.154c15.144.108,29.51-3.177,44.362-5.469l46.8-7.221c1.425-.22,3.094-.624,3.623-1.967.54-1.37-.447-2.81-.923-4.2a12.887,12.887,0,0,1-.213-5.385,144.484,144.484,0,0,0-.495-31.938L280.8,88.2c1.662,10.626,3.975,21.088,5.753,31.694a8.6,8.6,0,0,1-.011,4.239,3,3,0,0,1-3.265,2.137,3.851,3.851,0,0,1-2.094-1.81c-2.515-3.851-3.127-8.6-3.819-13.143q-1.482-9.738-3.832-19.317a1.347,1.347,0,0,0-1.719-1.347l-20.86,1.79c-4.723,12.261-.869,26.86-6.837,38.565a5.9,5.9,0,0,1-1.691,2.482,2.993,2.993,0,0,1-3.759.3,3.62,3.62,0,0,1-1.066-2.315c-.453-3.2.848-6.358,1.9-9.417,1.316-3.815,1.446-7.537,2.425-11.39.995-3.914,2.13-8.359,2.024-12.427-.029-1.115-.016-3.306-.785-4.274" transform="translate(-41.947 -18.461)" fill="#b2b2b2"/><path d="M242.009,78.659,223.74,39.7a8.848,8.848,0,0,1,.984-9.412l4.817-5.939a2.611,2.611,0,0,0,.477-2.263l-.164-.695a3.46,3.46,0,0,0-3.737-2.553l-24.17,3.523a2.586,2.586,0,0,0-1.8,1.092,2.618,2.618,0,0,0-.356,2.1l.3,1.282a3.388,3.388,0,0,0,1.617,2.123l8.7,5.034a10.156,10.156,0,0,1,5.075,7.887l2.941,40.22-6.408.933-3-41.011a3.341,3.341,0,0,0-1.686-2.581l-8.7-5.034a10.212,10.212,0,0,1-4.85-6.428l-.3-1.282a8.585,8.585,0,0,1,7.2-10.635l24.17-3.523a10.327,10.327,0,0,1,11.309,7.713l.164.695a8.679,8.679,0,0,1-1.642,7.526l-4.817,5.939a2.7,2.7,0,0,0-.265,2.87L248.561,77.7Z" transform="translate(-42.675 -2.747)" fill="#fff"/><path d="M224.678,13.435a9.029,9.029,0,0,1,9.886,6.745l.164.7a7.412,7.412,0,0,1-1.392,6.43l-4.817,5.94a3.959,3.959,0,0,0-.429,4.211l18.229,38.873L242.4,76.9,224.531,38.8a7.587,7.587,0,0,1,.82-8.07l4.817-5.939a3.87,3.87,0,0,0,.727-3.357l-.164-.7a4.712,4.712,0,0,0-5.16-3.52L201.4,20.741a3.816,3.816,0,0,0-3.208,4.74l.3,1.282a4.666,4.666,0,0,0,2.217,2.932l8.7,5.034a8.87,8.87,0,0,1,4.443,6.878l2.853,39.038-3.881.566-2.9-39.647a4.627,4.627,0,0,0-2.317-3.59l-8.7-5.035a8.932,8.932,0,0,1-4.249-5.618l-.3-1.283a7.312,7.312,0,0,1,6.146-9.082Zm-.367-2.52L200.14,14.438a9.858,9.858,0,0,0-8.257,12.187l.3,1.282a11.489,11.489,0,0,0,5.452,7.237l8.7,5.035a2.081,2.081,0,0,1,1.053,1.569l2.9,39.649.2,2.729,2.708-.394,3.881-.566,2.344-.342-.172-2.363L216.4,41.423a11.445,11.445,0,0,0-5.706-8.9l-8.7-5.035a2.107,2.107,0,0,1-1.014-1.314l-.3-1.282a1.326,1.326,0,0,1,.169-1.087,1.3,1.3,0,0,1,.928-.548l24.171-3.523a2.173,2.173,0,0,1,2.314,1.586l.164.694a1.326,1.326,0,0,1-.226,1.168l-4.817,5.939a10.111,10.111,0,0,0-1.148,10.755l17.868,38.1.8,1.712,1.87-.273,3.92-.571,3.395-.495-1.457-3.106L230.4,36.377a1.42,1.42,0,0,1,.1-1.526l4.817-5.94a9.939,9.939,0,0,0,1.893-8.62l-.164-.7a11.625,11.625,0,0,0-12.73-8.68" transform="translate(-42.314 -2.386)"/><path d="M270.134,109.148,382.171,92.819,398,90.512,396.4,90.2l6.232,42.76L417.6,235.633l18.1,124.183q7.792,53.469,15.585,106.939l5.163,35.433q.8,5.488,1.6,10.977c.242,1.666.117,4.335.855,5.865a2.9,2.9,0,0,1,.108.745l3.377-2.456L423.427,523l-93.568,13.637-113.2,16.5-97.863,14.263-32.25,4.7L76.5,573.558c-1.494.218-3.883.108-5.259.767a2.6,2.6,0,0,1-.665.1l1.595.316-6.232-42.76L50.977,429.3l-18.1-124.183Q25.086,251.65,17.292,198.18q-2.582-17.717-5.164-35.433-.8-5.488-1.6-10.977c-.242-1.665-.118-4.334-.855-5.865a2.894,2.894,0,0,1-.108-.744l-3.377,2.455,147.6-21.511,20.7-3.017c1.642-.239,5.228-3.273,1.781-2.771l-147.6,21.511-20.7,3.018c-1.011.147-3.577,1.082-3.377,2.455l6.232,42.76L25.79,292.736q9.048,62.092,18.1,124.183,7.793,53.469,15.585,106.939,2.583,17.717,5.164,35.433.8,5.488,1.6,10.977c.233,1.6.089,4.421.855,5.865a2.689,2.689,0,0,1,.109.745c.08.553,1.308.357,1.595.315l38.961-5.678,93.568-13.637,113.2-16.5,97.863-14.263c15.772-2.3,31.916-3.806,47.551-6.93.219-.044.444-.065.665-.1,1.011-.147,3.577-1.082,3.377-2.455l-6.232-42.76L442.788,372.2q-9.049-62.092-18.1-124.183Q416.9,194.545,409.1,141.077q-2.583-17.717-5.164-35.433-.8-5.488-1.6-10.977c-.234-1.6-.089-4.42-.856-5.865a2.679,2.679,0,0,1-.108-.744c-.08-.554-1.308-.357-1.595-.316L287.745,104.07l-15.829,2.307c-1.642.239-5.229,3.273-1.782,2.771" transform="translate(-1.012 -19.363)" fill="#161616"/><path d="M429.223,458.222,318.4,474.374,143.316,499.891,103.432,505.7l1.595.315L89.365,398.557q-12.476-85.6-24.951-171.2-2.856-19.6-5.712-39.19l-3.377,2.455,110.824-16.152L341.233,148.95l39.884-5.812-1.595-.315,15.661,107.462q12.476,85.6,24.951,171.2,2.856,19.595,5.712,39.19c.171,1.172,5.223-.418,4.972-2.141q-7.83-53.731-15.662-107.461-12.475-85.6-24.951-171.2-2.855-19.595-5.711-39.19c-.081-.554-1.309-.357-1.595-.316L272.075,156.519,96.991,182.036l-39.884,5.812C56.1,188,53.53,188.93,53.73,190.3q7.83,53.731,15.662,107.462,12.476,85.6,24.951,171.2,2.855,19.595,5.712,39.19c.08.553,1.308.357,1.595.315l110.823-16.152L387.557,466.8l39.884-5.812c1.642-.239,5.229-3.273,1.782-2.771" transform="translate(-11.864 -30.985)" fill="#161616"/><path d="M44.8,225.634q-2.965-20.342-5.929-40.684L35.5,187.405l37.554-5.473c1.642-.239,5.229-3.273,1.782-2.771L37.28,184.635c-1.011.148-3.577,1.083-3.377,2.456q2.964,20.342,5.929,40.684c.171,1.172,5.223-.418,4.972-2.14" transform="translate(-7.485 -39.556)" fill="#161616"/><path d="M535.4,510.669q2.965,20.342,5.929,40.684L544.7,548.9l-37.554,5.473c-1.642.239-5.229,3.273-1.782,2.771l37.554-5.473c1.011-.148,3.577-1.083,3.377-2.456q-2.964-20.342-5.929-40.684c-.171-1.172-5.223.418-4.972,2.14" transform="translate(-111.292 -112.221)" fill="#161616"/><path d="M193.557,107.534c4.744-1.067,9.447-2.253,14.156-3.466,2.35-.605,4.7-1.295,7.067-1.809.432-.094,1.5-.439,1.9-.052.31.3.112,1.885.129,2.413.146,4.793.422,9.534.181,14.332-.115,2.27-.35,4.5-.658,6.75a21.258,21.258,0,0,0-.249,6.44c.375,2.12,1.741,3.893,2.157,5.978a5.6,5.6,0,0,1-.326,2.6c-.217.909-.015,1.462-.954,2.01-.976.57-.724,2.459.609,2.122a5.862,5.862,0,0,0,3.978-3.662,8.608,8.608,0,0,0-.707-6.085,28.666,28.666,0,0,1-1.321-2.912,9.207,9.207,0,0,1-.2-3.8c.235-2.529.717-5.019.877-7.558.344-5.482.708-11.048.522-16.542-.074-2.187-.217-4.773-2.719-5.481-2.076-.587-4.726.816-6.668,1.418-6.084,1.886-12.167,3.748-18.191,5.821a.779.779,0,0,0,.424,1.477" transform="translate(-42.554 -21.793)" fill="#161616"/><path d="M342.667,84.54a5.4,5.4,0,0,1,.22,2.2c.016.979.03,1.954.072,2.933.084,1.946.134,3.894.161,5.842a110.447,110.447,0,0,1-.575,11.936q-.271,2.868-.64,5.725a24.693,24.693,0,0,0-.5,5.2,6.369,6.369,0,0,0,.652,2.327,12.328,12.328,0,0,1,1.057,1.91c.21.705-.19,1-.615,1.543a5.068,5.068,0,0,1-2.129,1.628c-1.086.513-.665,2.415.608,2.122,1.8-.414,3.9-.659,4.983-2.315a4.76,4.76,0,0,0-.117-5.258,6.188,6.188,0,0,1-1.071-2.244,10.256,10.256,0,0,1,.166-2.843c.27-2.144.554-4.285.778-6.435.462-4.432.707-8.887.936-13.335.117-2.27.178-4.547.165-6.82-.01-1.988.144-4.31-1.041-6s-4.028.017-3.111,1.88" transform="translate(-75.034 -18.102)" fill="#161616"/><path d="M222.666,153.88c6.147.21,12.42-1.186,18.5-1.94,6.12-.76,12.218-1.66,18.321-2.545,12.2-1.771,24.418-3.459,36.606-5.327,3.419-.524,6.868-.968,10.252-1.689,3.486-.743,6.925-1.7,10.374-2.6a.86.86,0,0,0-.248-1.7c-3.138.11-6.288.149-9.419.373s-6.217.663-9.315,1.091c-6.108.844-12.205,1.754-18.306,2.647-12.2,1.784-24.436,3.385-36.593,5.421-3.416.573-6.836,1.113-10.257,1.653a63.611,63.611,0,0,0-10.278,2.145,1.307,1.307,0,0,0,.361,2.475" transform="translate(-48.93 -30.494)" fill="#161616"/><path d="M195.585,106.953a34.615,34.615,0,0,0-3.579.667,7.36,7.36,0,0,0-2.953.986c-2.1,1.546-1.286,4.39-.609,6.463.823,2.514,2.03,4.916,3.1,7.332q.859,1.948,1.719,3.895c.538,1.218.932,2.957,2.315,3.423a1.5,1.5,0,0,0,1.909-.81c.491-1.2-.171-2.209-.678-3.285-.489-1.039-.984-2.077-1.476-3.115-1.006-2.122-2.034-4.235-3.011-6.371a23.683,23.683,0,0,1-1.222-3.079c-.159-.536-.664-1.787-.216-2.26a2.33,2.33,0,0,1,.771-.356c.459-.195.911-.407,1.37-.6,1.009-.429,2.006-.884,3.018-1.3a.836.836,0,0,0-.454-1.585" transform="translate(-41.455 -23.62)" fill="#161616"/><path d="M226.28,98.389c6.109.081,12.262-1.174,18.3-2.033l18.114-2.578c12.16-1.73,24.313-3.515,36.467-5.282,3.353-.488,6.707-.966,10.059-1.462q2.644-.392,5.254-.951a34.909,34.909,0,0,0,4.888-1.658.937.937,0,0,0-.259-1.776,39.389,39.389,0,0,0-4.4-.255c-1.522.069-3.045.26-4.557.447-3.109.386-6.206.889-9.306,1.342l-18.1,2.644q-18.23,2.664-36.45,5.394c-6.761,1.009-13.838,1.568-20.378,3.611a1.349,1.349,0,0,0,.372,2.556" transform="translate(-49.72 -18.194)" fill="#161616"/><path d="M255.641,116.932a3.179,3.179,0,0,1-.679.025,2.972,2.972,0,0,1-2.138-1.113,3.154,3.154,0,0,1-.636-2.438L263.978,34.9a2.7,2.7,0,0,0-1.073-2.674l-6.313-4.318a8.678,8.678,0,0,1-3.722-6.744l-.041-.713a10.327,10.327,0,0,1,8.636-10.619L285.637,6.31a8.584,8.584,0,0,1,9.937,8.136l.076,1.317a10.209,10.209,0,0,1-2.814,7.544l-6.9,7.308a3.336,3.336,0,0,0-.88,2.953l15.681,71.3a3.407,3.407,0,0,1-2.33,3.944,3.294,3.294,0,0,1-.489.11,3.016,3.016,0,0,1-3.418-2.345l-15.68-71.3a10.155,10.155,0,0,1,2.612-9.008l6.9-7.308a3.385,3.385,0,0,0,.943-2.5l-.076-1.316a2.613,2.613,0,0,0-.939-1.907,2.584,2.584,0,0,0-2.034-.533l-24.17,3.523a3.458,3.458,0,0,0-2.852,3.513l.041.714a2.607,2.607,0,0,0,1.1,2.03l6.312,4.319a8.846,8.846,0,0,1,3.629,8.739L258.5,114.055a3.426,3.426,0,0,1-2.859,2.877" transform="translate(-55.688 -1.372)" fill="#fff"/><path d="M285.459,7.209a7.313,7.313,0,0,1,8.483,6.95l.076,1.316a8.935,8.935,0,0,1-2.468,6.6l-6.9,7.308a4.625,4.625,0,0,0-1.2,4.1l15.68,71.3a2.149,2.149,0,0,1-1.463,2.454,2.044,2.044,0,0,1-.3.066,1.743,1.743,0,0,1-1.99-1.358L279.7,34.644a8.87,8.87,0,0,1,2.295-7.86l6.9-7.308a4.661,4.661,0,0,0,1.288-3.443l-.076-1.315a3.816,3.816,0,0,0-4.427-3.628l-24.171,3.523a4.713,4.713,0,0,0-3.939,4.847l.041.713a3.873,3.873,0,0,0,1.654,3.01l6.312,4.317a7.587,7.587,0,0,1,3.09,7.5L256.88,113.5a2.162,2.162,0,0,1-1.783,1.806,1.863,1.863,0,0,1-.407.015,1.766,1.766,0,0,1-1.6-2.091l11.789-78.505a3.958,3.958,0,0,0-1.613-3.914L256.951,26.5a7.409,7.409,0,0,1-3.17-5.766l-.041-.713a9.029,9.029,0,0,1,7.549-9.287Zm-.367-2.52L260.921,8.212A11.625,11.625,0,0,0,251.2,20.164l.041.713a9.939,9.939,0,0,0,4.274,7.722l6.312,4.318a1.421,1.421,0,0,1,.532,1.434l-11.789,78.505a4.429,4.429,0,0,0,.9,3.423,4.292,4.292,0,0,0,3.039,1.586,4.456,4.456,0,0,0,.954-.035,4.708,4.708,0,0,0,3.934-3.948l11.789-78.505a10.111,10.111,0,0,0-4.17-9.98l-6.311-4.317a1.322,1.322,0,0,1-.55-1.053l-.041-.714a2.173,2.173,0,0,1,1.766-2.181l24.17-3.523a1.3,1.3,0,0,1,1.046.26,1.327,1.327,0,0,1,.472.993l.076,1.316a2.107,2.107,0,0,1-.6,1.548l-6.9,7.308a11.449,11.449,0,0,0-2.93,10.156l15.681,71.3a4.278,4.278,0,0,0,4.845,3.331,4.509,4.509,0,0,0,.675-.152,4.686,4.686,0,0,0,3.2-5.435l-15.681-71.3a2.079,2.079,0,0,1,.562-1.806l6.9-7.308a11.5,11.5,0,0,0,3.159-8.492l-.076-1.316a9.857,9.857,0,0,0-11.392-9.323" transform="translate(-55.327 -1.011)"/><path d="M172.334,688.185c12.964-2.369,25.962-4.514,38.971-6.58,6.5-1.054,13.014-2.027,19.522-3.038l19.54-2.912,19.558-2.79c6.525-.887,13.045-1.816,19.577-2.66,13.057-1.734,26.126-3.386,39.228-4.814-12.964,2.371-25.961,4.518-38.97,6.583-6.5,1.055-13.015,2.025-19.522,3.038L250.7,677.922l-19.559,2.787c-6.525.888-13.044,1.815-19.577,2.66-13.057,1.733-26.126,3.386-39.227,4.817" transform="translate(-38.06 -146.953)" fill="#141414"/><path d="M411.358,658.235c4.01-1.063,8.052-1.9,12.106-2.665,2.024-.4,4.06-.722,6.09-1.081l6.109-.954,6.126-.831c2.048-.235,4.09-.511,6.145-.7,4.1-.428,8.217-.776,12.364-.9-4.009,1.066-8.052,1.907-12.106,2.668-2.024.4-4.06.72-6.091,1.08l-6.109.951-6.126.829c-2.048.236-4.091.51-6.145.7-4.1.428-8.217.776-12.364.9" transform="translate(-90.849 -143.797)" fill="#141414"/><path d="M514.317,170.679c2.007,10.482,3.79,21,5.495,31.523.873,5.26,1.665,10.532,2.5,15.8l2.369,15.817,2.247,15.835c.706,5.284,1.455,10.563,2.118,15.853,1.371,10.575,2.662,21.161,3.728,31.781-2.01-10.482-3.794-21-5.5-31.523-.874-5.26-1.664-10.533-2.5-15.8l-2.366-15.817-2.244-15.835c-.707-5.284-1.453-10.563-2.118-15.853-1.371-10.575-2.663-21.161-3.731-31.78" transform="translate(-113.588 -37.695)" fill="#141414"/><path d="M547.352,397.349c1.309,5.695,2.394,11.421,3.4,17.16.524,2.867.968,5.745,1.449,8.617l1.322,8.635,1.2,8.653c.356,2.891.757,5.775,1.071,8.672.674,5.787,1.267,11.586,1.635,17.418-1.311-5.694-2.4-11.422-3.4-17.16-.525-2.866-.965-5.745-1.448-8.617l-1.32-8.636-1.2-8.653c-.358-2.891-.755-5.775-1.07-8.672-.673-5.788-1.268-11.586-1.639-17.417" transform="translate(-120.884 -87.755)" fill="#141414"/><path d="M45.065,338.077c3.015,17.4,5.805,34.828,8.518,52.269,1.378,8.718,2.673,17.448,4.008,26.172l3.881,26.189,3.759,26.207c1.209,8.743,2.462,17.479,3.629,26.227,2.38,17.49,4.678,34.992,6.751,52.526-3.017-17.4-5.809-34.827-8.521-52.269-1.378-8.718-2.672-17.447-4.007-26.172L59.2,443.038,55.449,416.83c-1.212-8.742-2.461-17.479-3.629-26.227-2.379-17.49-4.679-34.992-6.755-52.526" transform="translate(-9.953 -74.665)" fill="#141414"/><path d="M90.551,650.773a19.1,19.1,0,0,1,1.463,3.862c.2.65.321,1.311.479,1.967l.354,1.985.231,2c.034.674.11,1.342.1,2.022a18.872,18.872,0,0,1-.3,4.119,18.907,18.907,0,0,1-1.466-3.861c-.2-.649-.319-1.311-.479-1.967l-.351-1.986-.228-2c-.035-.674-.109-1.342-.1-2.022a19.106,19.106,0,0,1,.3-4.119" transform="translate(-19.931 -143.725)" fill="#141414"/><path d="M115.574,149.414c5.34-1.257,10.712-2.29,16.1-3.245,2.689-.5,5.389-.917,8.084-1.372l8.1-1.245,8.121-1.123c2.714-.33,5.421-.705,8.14-.993,5.433-.622,10.877-1.163,16.354-1.48-5.34,1.26-10.712,2.295-16.1,3.249-2.688.5-5.389.914-8.084,1.371l-8.1,1.242-8.121,1.12c-2.713.333-5.421.7-8.14.993-5.433.623-10.877,1.165-16.354,1.484" transform="translate(-25.525 -30.91)" fill="#141414"/><path d="M269.5,135.472a54.771,54.771,0,0,1,6.787-1.889c1.137-.272,2.286-.464,3.43-.693l3.448-.566,3.466-.445c1.162-.1,2.317-.252,3.485-.315a53.976,53.976,0,0,1,7.045-.123,53.983,53.983,0,0,1-6.787,1.893c-1.137.273-2.287.461-3.43.693l-3.449.563-3.466.442c-1.162.106-2.318.251-3.486.315a54.641,54.641,0,0,1-7.043.126" transform="translate(-59.52 -29.014)" fill="#141414"/><path d="M329.386,125.863a12.729,12.729,0,0,1,3.063-1.346c.517-.182,1.046-.283,1.568-.422l1.587-.295,1.6-.174c.542-.014,1.076-.072,1.624-.044a12.578,12.578,0,0,1,3.321.42,12.578,12.578,0,0,1-3.063,1.349c-.517.183-1.046.281-1.568.422l-1.587.292-1.605.17c-.541.016-1.076.071-1.624.044a12.725,12.725,0,0,1-3.32-.416" transform="translate(-72.746 -27.292)" fill="#141414"/><path d="M239.662,141.881a5.267,5.267,0,0,1,1.734-1.152,7.082,7.082,0,0,1,.9-.325l.922-.2.94-.076a7.243,7.243,0,0,1,.958.054,5.214,5.214,0,0,1,1.991.613,5.223,5.223,0,0,1-1.733,1.156,7.364,7.364,0,0,1-.9.324l-.923.2-.94.073a7.252,7.252,0,0,1-.959-.054,5.272,5.272,0,0,1-1.99-.61" transform="translate(-52.93 -30.948)" fill="#141414"/><path d="M376.011,118.957c4.276-1.1,8.585-1.981,12.9-2.781,2.157-.42,4.326-.761,6.49-1.138l6.507-1.013,6.525-.891c2.182-.253,4.357-.549,6.544-.76,4.369-.467,8.749-.854,13.162-1.014-4.276,1.106-8.584,1.984-12.9,2.784-2.157.422-4.326.759-6.489,1.138l-6.508,1.01-6.525.887c-2.181.256-4.356.549-6.544.761-4.369.467-8.748.854-13.161,1.018" transform="translate(-83.043 -24.594)" fill="#141414"/><path d="M162.817,305.139c4.906-.022,9.824.349,14.717.616,10.007.545,20.011,1.134,30.016,1.706q7.584.434,15.167.872c4.168.244,8.345.429,12.473,1.027q-8.037-25.715-15.913-51.481c-3.539,3.579-7.621,6.712-11.432,9.978q-22.2,19.023-45.029,37.283" transform="translate(-35.958 -56.953)" fill="#fff"/><path d="M410,221.671c.012.033.023.068.036.1s.037.087.058.131l.009,0c.1-.073.216-.185.251-.213.094-.076.186-.154.277-.233a1.841,1.841,0,0,1,.238-.227c.032-.038.065-.076.1-.115a1.545,1.545,0,0,1-.673.18,1.436,1.436,0,0,1-.374-.064c.026.148.055.295.082.443" transform="translate(-90.531 -48.833)" fill="#b2b2b2"/><path d="M353.127,207.68l.063,0-.037-.012c-.044,0-.044,0-.027.008" transform="translate(-77.986 -45.865)" fill="#fff"/><path d="M351.493,199.569a1.208,1.208,0,0,1,.37-.75c.009-.009.02-.013.029-.022a1.248,1.248,0,0,1,.542-.831,9.877,9.877,0,0,1-.51-2.044c-.111-.933-.175-1.872-.252-2.808a20.488,20.488,0,0,0-.85-5.253,8.512,8.512,0,0,0-2.146-3.4,4.888,4.888,0,0,0-1.741-1.076c-.316-.105-1.512-.372-1.622-.142a11.576,11.576,0,0,0,.133,1.4c.026.461.053.923.083,1.385.06.921.134,1.842.247,2.758a21.42,21.42,0,0,0,1.234,5.271,13.169,13.169,0,0,0,4.293,5.722c.065-.054.124-.113.192-.164,0-.017,0-.033,0-.05" transform="translate(-76.261 -40.45)" fill="#fff"/><path d="M411.7,220.294l0-.026a.224.224,0,0,0-.033.1.7.7,0,0,1,.03-.069" transform="translate(-90.919 -48.647)" fill="#b2b2b2"/><path d="M410.145,222.128l0,0,0,0h0" transform="translate(-90.581 -49.057)" fill="#b2b2b2"/><path d="M409.848,222.232l.018-.008c-.216-.016-.073.03-.018.008" transform="translate(-90.494 -49.078)" fill="#b2b2b2"/><path d="M411.1,221.28l.01-.012c-.052.053-.13.155-.01.012" transform="translate(-90.778 -48.867)" fill="#b2b2b2"/><path d="M355.724,206.009l-.009,0c-.009.019-.027.06-.044.1l.009-.012c.016-.03.03-.059.044-.089" transform="translate(-78.551 -45.498)" fill="#fff"/><path d="M255.659,227.547l.02-.005.015-.007c-.061,0-.1.011-.106.023a.688.688,0,0,1,.071-.01" transform="translate(-56.447 -50.251)" fill="#fff"/><path d="M245.273,224.665a27.213,27.213,0,0,0-6.067-.884,33.248,33.248,0,0,0-4.5.152c-.786.082-2.912.051-3.343.894-.692,1.353,2.03,1.545,2.746,1.561,1.5.034,3.011.034,4.514-.007q2.329-.062,4.652-.261c.543-.047,1.081-.108,1.618-.158-.008-.019-.021-.034-.029-.053a1,1,0,0,1,.41-1.244" transform="translate(-51.072 -49.418)" fill="#fff"/><path d="M253.567,225.73l-.033.013-.009.005h0l-.039.025a.257.257,0,0,0,.085-.045h0" transform="translate(-55.983 -49.853)" fill="#fff"/><path d="M367.23,193.074c2.831-1.808,6.2-5.7,3.819-9.192-1.129-1.661-3.6-.429-4.988.365a13.931,13.931,0,0,0-4.137,3.666,24.123,24.123,0,0,0-4,9.246,35.985,35.985,0,0,0,9.308-4.086" transform="translate(-79.048 -40.429)" fill="#fff"/><path d="M250.74,217.271c-1.171-3.969-2.1-8.01-3.3-11.969-.548-1.8-1.233-3.8-2.814-4.967a3.961,3.961,0,0,0-2.743-.83c-1.067.128-1.207.571-1.237,1.554a18.918,18.918,0,0,0,2.678,10.057,20.4,20.4,0,0,0,6.172,6.433,3.083,3.083,0,0,1,1.249-.278" transform="translate(-53.144 -44.056)" fill="#fff"/><path d="M253.593,225.724l.007-.006-.03.012h0l.016,0,.008,0" transform="translate(-56.001 -49.85)" fill="#fff"/><path d="M408.49,197.752c-1.306.3-.847,2.567-.731,3.445.2,1.487.393,2.975.646,4.454s.545,2.951.881,4.412c.1.445.207.88.309,1.312.061-.04.114-.09.176-.127a.953.953,0,0,1,1.16.3,27.589,27.589,0,0,0,0-6.513c-.128-1.074-.8-7.666-2.44-7.283" transform="translate(-90.016 -43.67)" fill="#fff"/><path d="M431.009,207.259a3.891,3.891,0,0,0,.334-2.463c-.075-.324-.26-.986-.584-1.157-.277-.147-.871.019-1.169.053a18.979,18.979,0,0,0-9.6,4.059,20.372,20.372,0,0,0-5.5,6.969,2.806,2.806,0,0,1,.455,1.189c3.873-1.759,7.868-3.258,11.717-5.069,1.7-.8,3.516-1.8,4.344-3.58" transform="translate(-91.542 -44.961)" fill="#fff"/><path d="M255.67,227.815c0-.019-.008-.044-.014-.069l-.01-.026c.009.087.023.12.029.111l0-.016" transform="translate(-56.46 -50.292)" fill="#fff"/><path d="M255.346,227.119l0,.01,0,0-.006-.014" transform="translate(-56.394 -50.16)" fill="#fff"/><path d="M255.388,227.19l-.034-.054a.267.267,0,0,0,.021.049c.036.056.083.113.013,0" transform="translate(-56.395 -50.163)" fill="#fff"/><path d="M174.534,542.386c5.571-5.444,11.131-10.91,16.922-16.121a233.881,233.881,0,0,1,18.535-14.94c6.367-4.652,12.914-9.038,19.577-13.255q4.98-3.152,10.053-6.14c2.667-1.57,5.315-3.246,8.067-4.683a32.191,32.191,0,0,1-6.3-5.941c-.616-.764.481-1.959,1.219-1.259,9.053,8.6,22.094,11.148,34.177,11.03,5.958-.058,11.87-.965,17.825-1.033A30.49,30.49,0,0,1,303.1,491a42.258,42.258,0,0,1,7.608,3.067c4.772,2.376,9.811,5.154,15.338,4.176,4.466-.789,7.012-4.68,7.516-8.95.556-4.715-1.863-8.9-5.423-11.842-4.024-3.324-9.376-4.94-14.4-6.01-5.555-1.183-11.256-1.781-16.691-3.489a31.977,31.977,0,0,1-12.984-7.412c-.8-.79.548-2.164,1.367-1.413a24.7,24.7,0,0,0,9.484,5.29.817.817,0,0,1,.172-.271c1.729-1.814,3.835-2.76,6.042-3.89l6.569-3.367,12.912-6.618c15.4-7.9,30.757-15.867,46.387-23.305,3.023-1.439,6.564-4.358,6.006-8.141-.487-3.307-3.781-5.284-6.649-6.32a19.18,19.18,0,0,0-18.7,3.026,27.093,27.093,0,0,1-4.778,13.605c-3.4,4.794-8.173,8.375-13.2,11.312a79.72,79.72,0,0,1-17.818,7.43,164.422,164.422,0,0,1-35.652,5.889,173.552,173.552,0,0,1-24.137.136,96.354,96.354,0,0,1-12.975-1.7,23.494,23.494,0,0,0-6.253,1.3,16.776,16.776,0,0,0-5.657,3.635c-.585.573-1.541-.378-1.021-.988a20.3,20.3,0,0,1,7.3-5.47,39.6,39.6,0,0,1-6.875-3,28.832,28.832,0,0,1-12.162-13.091c-2.332,2.567-3.62,6.2-5.067,9.254a21.3,21.3,0,0,1-3.029,5.108,36.693,36.693,0,0,1-4.967,4.521c-3.569,2.786-7.4,5.227-10.981,8.007-3.806,2.955-7.745,5.729-11.71,8.468l-23.6,16.3q-11.7,8.078-23.353,16.216-5.82,4.088-11.64,8.179a85.935,85.935,0,0,1-10.215,6.56c1.078,1.305,1.2,3.75,1.454,5.283q.534,3.249,1.006,6.511.907,6.27,1.815,12.54c.617,4.264,1.092,8.549,1.609,12.826.253,2.1.524,4.192.76,6.291.134,1.193.271,2.373.325,3.554a24.789,24.789,0,0,1,3.31-.6c1.671-.267,3.342-.532,5.016-.777l10.294-1.506,10.295-1.507c3.312-.484,7.15-1.479,10.455-.667a1.406,1.406,0,0,1,.376.153c2.729-2.72,5.712-5.224,8.511-7.866,3.173-2.994,6.341-5.992,9.462-9.04" transform="translate(-24.26 -90.84)" fill="#fff"/><path d="M255.237,227.009a.138.138,0,0,1-.024-.053c-.025-.04-.051-.079-.076-.118a5.245,5.245,0,0,0-.38-.5,1.355,1.355,0,0,1-.028,1.045c.022,0,.043.005.064.006h0c.049-.005.1-.006.149-.011.1-.009.2-.023.3-.04.034-.006.092-.026.149-.044-.016-.03-.108-.192-.156-.285" transform="translate(-56.257 -49.987)" fill="#fff"/><path d="M356.5,380.717a33.72,33.72,0,0,1-8.5,6.591,45.22,45.22,0,0,1-10.938,4.682c-.678.174-1.094-.862-.541-1.247,3.416-2.38,7.3-4.021,10.747-6.376a33.689,33.689,0,0,0,7.716-7.007,19,19,0,0,0,4.225-12.343,19.939,19.939,0,0,0-4.359-11.391,23.8,23.8,0,0,0-10.354-7.513,22.8,22.8,0,0,0-6.54-1.372,30.649,30.649,0,0,0-5.832.348c-.026.2-.038.4-.069.591a19.724,19.724,0,0,1-5.893,11.189c-6.847,6.643-17.429,7.995-26.521,7.826-.684-.012-.665-1.106-.012-1.183,5.382-.633,10.886-.975,16.011-2.876a22.572,22.572,0,0,0,10.311-7.643c5.241-7.128,3.594-16.157.664-23.872-2.817-7.417-7.044-14.54-13.408-19.444-5.387-4.151-11.9-6.392-18.707-5.17a19.288,19.288,0,0,0-8.3,3.571,20.805,20.805,0,0,0-3.724,3.826,13.188,13.188,0,0,1,8.911.019c5.271,1.831,7.961,7.231,9.477,12.251.766,2.537,1.314,5.333.453,7.923-.948,2.858-3.342,4.011-5.921,5.085a36.881,36.881,0,0,0-8.278,4.994c-2.431,1.893-4.356,4.236-4.824,7.361a9.879,9.879,0,0,0,2.09,7.4c1.532,2,3.915,3.2,6.134,4.282a.963.963,0,0,1-.22,1.83c-2.92.465-5.364-1-7.285-3.124a11.473,11.473,0,0,1-2.893-7.632c0-.224,0-.449,0-.673a23.771,23.771,0,0,0-11.552,5.217q1.743,6.1,3.412,12.222c.3,1.111-1.553,1.614-1.933.554-1.271-3.545-2.543-7.091-3.789-10.645a26.667,26.667,0,0,0-6.715,11.661c-1.473,5.6-.6,11.441,3.053,15.842,3.62,4.361,9.031,6.977,14.359,8.7,11.164,3.6,23.615,3.872,35.165,2.266.6-.083.889.827.3,1.046-6.289,2.337-13.482,2.664-20.13,2.345a65.819,65.819,0,0,1-20.14-3.858c-5.8-2.2-11.3-5.683-14.477-11.157a17.873,17.873,0,0,1-1.6-3.667,16.83,16.83,0,0,0-2.887,2.516c-5.954,6.573-9.345,16.15-5.608,24.622,3.488,7.9,10.932,12.519,18.815,15.221,8.149,2.792,16.832,3.483,25.392,3.54,6.233.042,12.48-.244,18.687-.807a153.4,153.4,0,0,0,34.37-6.775c10.374-3.446,21.726-8.55,27.316-18.541a24.4,24.4,0,0,0,2.475-16.742,23.12,23.12,0,0,0-12.367-16.227,23,23,0,0,1-5.77,11.767" transform="translate(-54.334 -67.178)" fill="#b2b2b2"/><path d="M413.089,395.235a54.9,54.9,0,0,1,4.7-3.166c1.4-.925,2.845-2.027,3.11-3.792a5.99,5.99,0,0,0-1.315-4.384c-2.267-2.9-6.579-3.333-9.995-3.14a29.612,29.612,0,0,0-11.257,3.064,15.431,15.431,0,0,1,1.965,1.042,23.943,23.943,0,0,1,9.855,13.238,16.54,16.54,0,0,1,2.933-2.862" transform="translate(-87.973 -84.081)" fill="#fff"/><path d="M290.056,353.551c-.087.012-.173.034-.26.046,0,.224-.009.449,0,.672a11.475,11.475,0,0,0,2.893,7.633c1.921,2.123,4.365,3.59,7.285,3.124a.963.963,0,0,0,.22-1.829c-2.218-1.081-4.6-2.285-6.133-4.282a9.878,9.878,0,0,1-2.09-7.4c.467-3.124,2.393-5.468,4.824-7.361a36.9,36.9,0,0,1,8.278-4.994c2.579-1.073,4.973-2.227,5.921-5.085.86-2.591.312-5.385-.453-7.923-1.515-5.02-4.206-10.419-9.477-12.251a13.2,13.2,0,0,0-8.911-.02c-.792,1.014-1.536,2.069-2.284,3.121a10.331,10.331,0,0,1,11.1-.6,12.486,12.486,0,0,1,4.888,5.953,23.69,23.69,0,0,1,2.187,7.961c.141,2.78-1.252,4.345-3.28,6.017-2.32,1.914-4.859,3.512-7.328,5.227-2.256,1.568-4.519,3.24-5.944,5.646a12.166,12.166,0,0,0-1.516,4.335c.023,0,.044,0,.067,0,1.168.022,1.122,1.867.02,2.011" transform="translate(-64.001 -69.152)" fill="#161616"/><path d="M286.949,317.989c-.055.06-.114.115-.168.176-.548.623.458,1.618,1.055,1.021.111-.111.23-.212.346-.317a1.112,1.112,0,0,1-1.233-.88" transform="translate(-63.301 -70.229)" fill="#161616"/><path d="M291.534,310.923a20.829,20.829,0,0,1,3.724-3.826,19.293,19.293,0,0,1,8.3-3.571c6.8-1.221,13.32,1.019,18.707,5.17,6.364,4.9,10.592,12.027,13.408,19.444,2.93,7.714,4.578,16.744-.664,23.872a22.569,22.569,0,0,1-10.31,7.643c-5.126,1.9-10.63,2.243-16.012,2.876-.653.077-.672,1.17.012,1.184,9.093.168,19.675-1.184,26.522-7.827A19.724,19.724,0,0,0,341.11,344.7c.031-.2.044-.394.069-.591-.549.07-1.1.143-1.653.209a.935.935,0,0,1-.509-1.774,15.834,15.834,0,0,1,2.348-.817,34.5,34.5,0,0,0-1.673-10.833A54.788,54.788,0,0,0,326.348,308.1c-5.716-5.611-13.121-8.933-21.215-8.291-7.637.606-16.859,5.583-18.106,13.835a.971.971,0,0,0,.009.309,1.113,1.113,0,0,0,1.233.88.977.977,0,0,0,.707-.405l.275-.388c.747-1.052,1.492-2.107,2.284-3.121" transform="translate(-63.388 -66.197)" fill="#161616"/><path d="M286.254,364.488c.087-.012.172-.034.26-.046,1.1-.143,1.148-1.989-.02-2.01-.023,0-.044,0-.067,0a22,22,0,0,0-12.674,3.985q.476,1.643.95,3.286a23.764,23.764,0,0,1,11.552-5.217" transform="translate(-60.459 -80.044)" fill="#161616"/><path d="M260.965,395.35a16,16,0,0,0-2.288,1.346,17.843,17.843,0,0,0,1.6,3.667c3.179,5.475,8.673,8.956,14.477,11.158a65.842,65.842,0,0,0,20.14,3.858c6.648.319,13.841-.009,20.13-2.345.589-.219.3-1.131-.3-1.046-11.55,1.607-24,1.337-35.165-2.266-5.329-1.72-10.739-4.335-14.359-8.7-3.654-4.4-4.526-10.24-3.053-15.842a26.655,26.655,0,0,1,6.715-11.661c-.4-1.151-.8-2.306-1.2-3.458a29.917,29.917,0,0,0-7.259,9.456,24.765,24.765,0,0,0-2.378,14.393,17.828,17.828,0,0,1,1.914-.88,1.266,1.266,0,0,1,1.018,2.317" transform="translate(-56.932 -81.729)" fill="#161616"/><path d="M354.113,356.037c.554-.066,1.1-.139,1.653-.208a30.584,30.584,0,0,1,5.832-.348,22.775,22.775,0,0,1,6.54,1.371,23.8,23.8,0,0,1,10.354,7.513,19.939,19.939,0,0,1,4.359,11.391,19,19,0,0,1-4.225,12.343,33.675,33.675,0,0,1-7.716,7.008c-3.449,2.354-7.331,3.995-10.747,6.376-.553.385-.138,1.42.541,1.247a45.221,45.221,0,0,0,10.938-4.682,33.72,33.72,0,0,0,8.5-6.591,23,23,0,0,0,5.77-11.767c-.657-.325-1.327-.63-2.023-.895-1.318-.5-.777-2.763.631-2.429q.826.2,1.625.446c.073-9.688-6.392-18.385-15.233-22.043a24.349,24.349,0,0,0-14.961-1.323,15.929,15.929,0,0,0-2.348.817.936.936,0,0,0,.509,1.774" transform="translate(-77.975 -77.917)" fill="#161616"/><path d="M244.222,427.554c-.266.242-.509.509-.751.775a28.834,28.834,0,0,0,12.163,13.091,39.634,39.634,0,0,0,6.875,3,14.661,14.661,0,0,1,5.879-1.251c1.582.012,1.547,2.583.028,2.744l-.278.032a96.387,96.387,0,0,0,12.975,1.7,173.454,173.454,0,0,0,24.138-.136,164.383,164.383,0,0,0,35.652-5.888,79.756,79.756,0,0,0,17.818-7.43c5.028-2.937,9.8-6.518,13.2-11.312a27.1,27.1,0,0,0,4.779-13.605c-.062.05-.125.1-.186.147-1,.842-2.186-.7-1.251-1.568.482-.447.993-.861,1.516-1.26a28.809,28.809,0,0,0-.563-5.227,1.048,1.048,0,0,1-1.552-1.247,6.145,6.145,0,0,1,.839-1.522,23.946,23.946,0,0,0-9.855-13.238,15.484,15.484,0,0,0-1.965-1.042c-.314.15-.629.3-.941.457-.793.405-1.525-.612-1.152-1.264-.033-.01-.065-.023-.1-.034q-.8-.249-1.625-.446c-1.408-.334-1.949,1.928-.631,2.429.7.264,1.366.57,2.023.895a23.124,23.124,0,0,1,12.367,16.226,24.4,24.4,0,0,1-2.476,16.742c-5.59,9.991-16.942,15.1-27.316,18.541a153.359,153.359,0,0,1-34.37,6.775c-6.207.563-12.454.849-18.687.807-8.56-.058-17.243-.748-25.391-3.54-7.883-2.7-15.327-7.318-18.815-15.221-3.738-8.471-.348-18.048,5.607-24.622a16.862,16.862,0,0,1,2.887-2.516,16.047,16.047,0,0,1,2.288-1.345,1.267,1.267,0,0,0-1.018-2.318,17.979,17.979,0,0,0-1.914.881,22.315,22.315,0,0,0-8.4,8.1c-2.615,4.2-4.568,9.022-4.6,14.03a22.332,22.332,0,0,0,1.321,7.607c.141-.093.273-.192.42-.281a.848.848,0,0,1,1.057,1.325" transform="translate(-53.319 -84.587)" fill="#161616"/><path d="M267.685,358.649c.38,1.06,2.234.557,1.933-.554q-1.657-6.124-3.412-12.221-.471-1.646-.95-3.287c-6.253-21.6-13.188-43.014-20.046-64.43q-3.636-11.352-7.27-22.7a1.264,1.264,0,0,0-1.829-.789.932.932,0,0,1,.154,1.464c-.319.342-.652.675-.982,1.009q7.92,25.75,15.912,51.481c.851.123,1.7.257,2.545.42,1.161.224,1.315,2.061.023,2.177-.573.051-1.146.086-1.72.119q3.932,12.551,7.939,25.077c.875,2.722,1.791,5.431,2.721,8.134.4,1.153.792,2.307,1.2,3.458,1.246,3.554,2.518,7.1,3.789,10.645" transform="translate(-51.963 -56.212)" fill="#161616"/><path d="M207.213,267.07c3.811-3.265,7.893-6.4,11.432-9.978.33-.334.662-.667.982-1.009a.932.932,0,0,0-.154-1.464,1.28,1.28,0,0,0-1.48-.117c-4.073,2.688-7.732,6.127-11.481,9.248q-5.667,4.718-11.289,9.488-11.251,9.541-22.393,19.206c-4.225,3.672-8.388,7.42-12.575,11.135a.863.863,0,0,0-.292.812q1.11-.034,2.221-.037,22.782-18.322,45.029-37.283" transform="translate(-35.326 -56.166)" fill="#161616"/><path d="M236.768,323.176c-.845-.163-1.695-.3-2.545-.42-4.129-.6-8.306-.784-12.473-1.027q-7.583-.443-15.167-.872c-10.005-.573-20.009-1.16-30.016-1.706-4.893-.266-9.811-.637-14.717-.615-.74,0-1.481.014-2.221.037h-.062c-1.568.05-1.447,2.5.027,2.7,4.983.668,10.042.824,15.059,1.116q7.583.441,15.162.909c10,.612,20,1.266,30,1.81a137.074,137.074,0,0,0,15.251.366c.573-.034,1.146-.069,1.72-.119,1.292-.116,1.138-1.953-.023-2.177" transform="translate(-34.992 -70.349)" fill="#161616"/><path d="M281.961,216.156a16.325,16.325,0,0,1-1.273,7.138c-1,2.456-2.309,4.961-1.6,7.687,1.2,4.592,6.253,6.422,10.263,7.821,4.285,1.5,9.6,4.013,10.26,9.079.684,5.227-3.43,11.07-.806,16.085a.852.852,0,0,0,1.615-.464,21.216,21.216,0,0,1,1.01-7.664,24.456,24.456,0,0,0,1.438-7.337c-.1-5.46-4.179-9.138-8.793-11.356-2.188-1.052-4.533-1.68-6.761-2.63-1.83-.781-4.08-1.875-4.875-3.84-1.032-2.553.775-5.281,1.42-7.713a18.2,18.2,0,0,0,.316-7.128,18.965,18.965,0,0,0-8.243-13.4c-.689-.452-1.442.534-.771,1.033a17.413,17.413,0,0,1,6.8,12.688" transform="translate(-60.712 -44.682)" fill="#161616"/><path d="M338.214,232.657a43.633,43.633,0,0,1,6.4,8.748,17.769,17.769,0,0,1,2.008,10.737c-.539,3.542-2.694,6.585-3.276,10.137a21.716,21.716,0,0,0,1.759,11.668,31.849,31.849,0,0,0,2.92,5.466,30.605,30.605,0,0,0,3.868,4.969.552.552,0,0,0,.932-.563c-.663-1.66-1.644-3.177-2.43-4.782-.864-1.768-1.772-3.506-2.554-5.313a20.178,20.178,0,0,1-1.963-10.695c.5-3.7,2.747-6.872,3.375-10.559a20.85,20.85,0,0,0-1.124-10.2,31.768,31.768,0,0,0-5.5-9.661c-2.347-2.909-5.173-5.41-7.462-8.359a10.881,10.881,0,0,1-2.161-9.08c.614-3.348,2.114-6.47,3.065-9.726a23.791,23.791,0,0,0-3.833-21.48c-.507-.661-1.489.132-1.007.8a21.542,21.542,0,0,1,2.27,20.517c-2.38,6.05-5.949,12.5-2.367,18.863,1.814,3.222,4.64,5.773,7.079,8.509" transform="translate(-72.796 -40.574)" fill="#161616"/><path d="M387.946,278.416c-.426,6.931,7.232,10.458,11.349,14.709a16.355,16.355,0,0,1,4.788,8.306,9.7,9.7,0,0,1-2.411,8.319c-2.239,2.689-4.4,5.064-5.174,8.592a11.372,11.372,0,0,0,1.932,9.566c.64.8,1.748.007,1.459-.882a14.478,14.478,0,0,1-.315-9.062c1.028-2.979,3.434-4.9,5.294-7.332,4.072-5.322,2.828-12.356-.841-17.525a36.044,36.044,0,0,0-7.209-7.082c-2.125-1.689-5.089-3.889-5.249-6.865-.141-2.623,2.069-4.542,4-5.944,2.378-1.729,4.973-3.11,7.233-5.009a17.731,17.731,0,0,0,6.006-8.511,11.547,11.547,0,0,0-1.239-9.575c-.478-.726-1.744.025-1.318.8,3.564,6.445-1.87,12.8-7.073,16.136-4.355,2.789-10.858,5.325-11.23,11.363" transform="translate(-85.675 -55.175)" fill="#161616"/><path d="M410.532,222.794a6.562,6.562,0,0,0,1.9-1.558,1.278,1.278,0,0,1-.161-2.365c.333-.157.673-.3,1.008-.451a2.806,2.806,0,0,0-.455-1.189c-.216.428-.425.863-.625,1.307-.428.952-2.066.622-1.838-.478.189-.91.323-1.811.427-2.71a.953.953,0,0,0-1.16-.3c-.063.037-.116.087-.177.127a10.144,10.144,0,0,1,.344,2.872.8.8,0,0,1-1.4.394,7.457,7.457,0,0,1-.753-1.379,4.948,4.948,0,0,0-.457,1.052,5.835,5.835,0,0,0-.231,2.139,3.763,3.763,0,0,0,.75,2.074,2.254,2.254,0,0,0,2.823.463m-1.094-2.249h0l0,0,0,0m-.192.076-.019.008c-.055.022-.2-.024.019-.008m.959-.746-.01.012c-.12.143-.042.041.01-.012m.453-.753a.55.55,0,0,0-.03.069.224.224,0,0,1,.033-.1l0,.026m-.351.632c-.032.039-.065.076-.1.114a1.84,1.84,0,0,0-.238.227c-.09.08-.183.157-.277.233-.036.029-.153.139-.252.213l-.009,0c-.02-.043-.04-.086-.058-.13s-.024-.067-.036-.1c-.026-.148-.055-.3-.081-.443a1.424,1.424,0,0,0,.374.064,1.542,1.542,0,0,0,.672-.18" transform="translate(-89.873 -47.473)" fill="#161616"/><path d="M407.884,214.041a.8.8,0,0,0,1.4-.394,10.176,10.176,0,0,0-.344-2.872c-.1-.432-.207-.867-.309-1.312q-.5-2.193-.881-4.412c-.252-1.48-.45-2.967-.646-4.454-.116-.878-.575-3.142.731-3.445,1.641-.383,2.312,6.21,2.44,7.283a27.592,27.592,0,0,1,0,6.513c-.1.9-.237,1.8-.427,2.71-.228,1.1,1.411,1.43,1.838.478q.3-.667.626-1.307a20.368,20.368,0,0,1,5.5-6.968,18.964,18.964,0,0,1,9.6-4.059c.3-.034.892-.2,1.17-.054.324.171.51.834.584,1.157a3.893,3.893,0,0,1-.334,2.464c-.828,1.78-2.643,2.78-4.344,3.58-3.85,1.812-7.844,3.31-11.718,5.068-.335.153-.675.295-1.008.451a1.278,1.278,0,0,0,.161,2.365,1.238,1.238,0,0,0,.856-.047c4.15-1.682,8.274-3.559,12.323-5.471,3.065-1.447,6.142-3.781,6.273-7.478a4.493,4.493,0,0,0-1.628-3.882c-1.226-.788-3.179-.259-4.5.03a21.594,21.594,0,0,0-13.349,9.213,53.092,53.092,0,0,0-.4-6.944c-.3-2.261-.464-7.357-3.806-7.242-3.872.132-3.136,5.237-2.764,7.721q.432,2.895,1.077,5.752a24.3,24.3,0,0,0,1.134,4.176,7.41,7.41,0,0,0,.753,1.379" transform="translate(-89.359 -43.068)" fill="#161616"/><path d="M253.565,225.732l-.017.011.033-.013-.016,0" transform="translate(-55.997 -49.853)" fill="#161616"/><path d="M253.537,225.754h0" transform="translate(-55.994 -49.858)" fill="#161616"/><path d="M252.858,223.531c-.125-.4-.235-.812-.355-1.218a3.083,3.083,0,0,0-1.249.278c.424.3.855.584,1.3.862a.884.884,0,0,1-.076,1.523l.03-.011-.007.006-.008,0h0a.243.243,0,0,1-.084.045.921.921,0,0,1-.789.09c-.836-.3-1.674-.545-2.514-.764a1,1,0,0,0-.41,1.244c.008.019.021.034.029.052a9.8,9.8,0,0,1,2.811.043.8.8,0,0,1,.219,1.5,7.208,7.208,0,0,1-1.352.517,5.614,5.614,0,0,0,1.173.7,5.172,5.172,0,0,0,1.892.415,3.593,3.593,0,0,0,2.346-.609,2.341,2.341,0,0,0,.542-2.808,6.066,6.066,0,0,0-1.149-1.815l-.019-.017c-.431.837-2,1.045-2.333-.036m1.3,2.852-.015.006a.148.148,0,0,1-.02.006.506.506,0,0,0-.071.009c0-.012.046-.027.106-.022m-.559.106c-.049,0-.1.006-.149.012h0c-.021,0-.042,0-.064-.005a1.463,1.463,0,0,0,.119-.572,1.448,1.448,0,0,0-.091-.473,5.222,5.222,0,0,1,.38.5l.076.118,0-.009.006.014c.011.018.023.035.034.053.07.108.022.052-.013,0,.048.093.14.254.156.285-.057.016-.115.037-.149.043-.1.017-.2.03-.3.04m.5.037.011.026c.005.026.009.051.013.069l0,.016c-.006.009-.02-.023-.029-.111" transform="translate(-54.908 -49.098)" fill="#161616"/><path d="M255.353,227.136l0,0a.158.158,0,0,0,.024.053.268.268,0,0,1-.021-.049" transform="translate(-56.395 -50.163)" fill="#161616"/><path d="M235.238,222.867q2.956-.006,5.908-.229a24.887,24.887,0,0,0,4.811-.582,7.15,7.15,0,0,0,1.352-.517.8.8,0,0,0-.219-1.5,9.8,9.8,0,0,0-2.811-.043c-.536.051-1.074.112-1.617.158q-2.321.2-4.652.262c-1.5.04-3.011.04-4.514.007-.714-.016-3.438-.209-2.746-1.561.432-.842,2.556-.812,3.343-.894a33.246,33.246,0,0,1,4.5-.152,27.208,27.208,0,0,1,6.067.884c.841.219,1.678.464,2.514.764a.92.92,0,0,0,.789-.089l.038-.025h0l.009-.005.017-.011h0a.884.884,0,0,0,.076-1.523c-.444-.279-.876-.567-1.3-.862a20.414,20.414,0,0,1-6.172-6.433,18.927,18.927,0,0,1-2.678-10.057c.031-.982.171-1.426,1.238-1.554a3.958,3.958,0,0,1,2.743.83c1.581,1.163,2.266,3.165,2.814,4.967,1.2,3.959,2.134,8,3.3,11.969.12.405.23.814.355,1.218.335,1.081,1.9.873,2.333.036a1,1,0,0,0,.078-.727c-1.077-4.267-2.383-8.5-3.642-12.721-1-3.36-2.764-6.81-6.5-7.611a4.541,4.541,0,0,0-4.235,1.05c-.949,1.1-.672,3.131-.577,4.473a21.612,21.612,0,0,0,7.3,14.477,52.481,52.481,0,0,0-6.96-.556c-2.218-.014-7.011-.567-7.643,2.464-.8,3.83,4.193,4.1,6.676,4.1" transform="translate(-50.46 -43.45)" fill="#161616"/><path d="M351.582,218.082a.051.051,0,0,0-.015-.1.051.051,0,0,0,.015.1" transform="translate(-77.635 -48.142)" fill="#161616"/><path d="M354.469,204.652c-.957.252-1.459-.639-1.314-1.421-.009.009-.02.012-.028.022a1.2,1.2,0,0,0-.371.75c0,.016,0,.033,0,.05-.068.051-.127.109-.192.164a17.38,17.38,0,0,0,1.569,1.1.913.913,0,0,1-.655,1.628,7.771,7.771,0,0,1-.754-.238l-.063,0c-.019-.006-.019-.011.027-.008a8.521,8.521,0,0,1-1.413-.622,4.637,4.637,0,0,0-.256,1.7.993.993,0,0,0,.627.8,4.178,4.178,0,0,0,4.1-.876,4.337,4.337,0,0,0,1.54-3.879q-1.394.462-2.821.838m.219.745.009,0-.044.088-.009.013c.018-.041.035-.08.044-.1" transform="translate(-77.523 -44.884)" fill="#161616"/><path d="M349.262,200.866a8.551,8.551,0,0,0,1.413.622l.037.012c.249.084.5.178.754.238a.913.913,0,0,0,.655-1.628,17.382,17.382,0,0,1-1.569-1.1,13.174,13.174,0,0,1-4.293-5.722,21.428,21.428,0,0,1-1.234-5.271c-.113-.917-.186-1.837-.247-2.759-.03-.461-.057-.923-.083-1.384a11.453,11.453,0,0,1-.134-1.4c.11-.231,1.306.037,1.622.142a4.888,4.888,0,0,1,1.741,1.076,8.509,8.509,0,0,1,2.146,3.4,20.491,20.491,0,0,1,.851,5.253c.076.937.14,1.875.252,2.808a9.833,9.833,0,0,0,.511,2.045,1.244,1.244,0,0,0-.543.831c-.145.782.358,1.674,1.314,1.421s1.892-.531,2.821-.838a39.48,39.48,0,0,0,8.345-3.854c2.909-1.8,5.687-4.338,6.243-7.881.44-2.807-.923-6.731-4.323-6.384a13.04,13.04,0,0,0-8.482,4.97,20.643,20.643,0,0,0-3.461,6.518c-.006-.087-.013-.175-.02-.262a23.382,23.382,0,0,0-.911-5.4,9.857,9.857,0,0,0-5.312-6.18,5.388,5.388,0,0,0-4.082-.116c-1.755.82-1.371,2.9-1.281,4.48.207,3.613.645,7.384,2.242,10.681a13.023,13.023,0,0,0,5.029,5.682m9.121-13.7a13.931,13.931,0,0,1,4.137-3.666c1.387-.795,3.859-2.027,4.988-.365,2.377,3.5-.987,7.384-3.819,9.192a35.984,35.984,0,0,1-9.308,4.086,24.123,24.123,0,0,1,4-9.246" transform="translate(-75.508 -39.68)" fill="#161616"/><path d="M332.141,477.91a24.7,24.7,0,0,1-9.483-5.289c-.819-.753-2.171.623-1.367,1.413a31.957,31.957,0,0,0,12.985,7.411c5.434,1.709,11.136,2.307,16.691,3.49,5.027,1.07,10.379,2.687,14.4,6.01,3.56,2.94,5.978,7.127,5.422,11.841-.5,4.27-3.05,8.161-7.516,8.951-5.527.977-10.566-1.8-15.338-4.177a42.317,42.317,0,0,0-7.608-3.067,30.452,30.452,0,0,0-8.483-.958c-5.955.069-11.868.975-17.826,1.032-12.083.118-25.124-2.432-34.177-11.03-.737-.7-1.833.495-1.219,1.259a32.185,32.185,0,0,0,6.3,5.94c.721-.376,1.445-.747,2.184-1.082a1.007,1.007,0,0,1,1.029,1.7c-.341.279-.7.533-1.054.8a45.293,45.293,0,0,0,21.688,6.147,114.612,114.612,0,0,0,18.955-1.136,40.576,40.576,0,0,1,9.416-.351,24.891,24.891,0,0,1,8.531,2.878c5.065,2.566,10.127,5.655,16,5.6a11.9,11.9,0,0,0,11.293-8,16.158,16.158,0,0,0-1.455-13.457c-2.615-4.465-7.047-7.65-11.674-9.8-7.522-3.491-16.5-3.4-24.632-5.3a10.706,10.706,0,0,1-1.956.468,1.054,1.054,0,0,1-1.109-1.3" transform="translate(-61.495 -104.331)" fill="#161616"/><path d="M108.477,522.687a2.549,2.549,0,0,1,.491.466,85.883,85.883,0,0,0,10.215-6.56q5.825-4.082,11.641-8.179,11.633-8.169,23.352-16.216l23.6-16.3c3.965-2.739,7.9-5.513,11.711-8.468,3.58-2.78,7.41-5.22,10.98-8.006a36.6,36.6,0,0,0,4.967-4.521,21.318,21.318,0,0,0,3.029-5.108c1.447-3.058,2.735-6.687,5.067-9.254.242-.266.485-.534.751-.775a.848.848,0,0,0-1.058-1.325c-.146.089-.279.189-.42.281a18.639,18.639,0,0,0-6.211,7.325c-.79,1.514-1.54,3.046-2.376,4.535a36.653,36.653,0,0,1-2.766,4.69,23.986,23.986,0,0,1-4.867,4.173c-1.811,1.327-3.682,2.593-5.566,3.814-2,1.3-4.109,2.421-6.12,3.7s-3.943,2.641-5.913,3.958c-7.945,5.316-15.755,10.846-23.625,16.274-7.82,5.394-15.652,10.772-23.436,16.218q-6.544,4.579-13.076,9.174c-4.338,3.04-8.944,5.939-12.672,9.729a1.091,1.091,0,0,0,.063,1.592,2.785,2.785,0,0,1,.453-.956,1.3,1.3,0,0,1,1.782-.259" transform="translate(-23.38 -96.797)" fill="#161616"/><path d="M262.865,507.353c-.739.335-1.462.706-2.183,1.082-2.753,1.437-5.4,3.113-8.067,4.683q-5.079,2.989-10.054,6.14c-6.662,4.217-13.209,8.6-19.577,13.255a233.87,233.87,0,0,0-18.534,14.94c-5.791,5.211-11.351,10.677-16.922,16.121-3.12,3.049-6.29,6.046-9.462,9.041-2.8,2.641-5.782,5.145-8.511,7.866a1.1,1.1,0,0,1-.07,1.943c-.26.153-.537.279-.812.408a.837.837,0,0,0,.945.142,58.847,58.847,0,0,0,9.3-6.684c3-2.474,5.878-5.079,8.723-7.732,5.695-5.311,11.208-10.815,16.95-16.078,11.619-10.649,24.344-19.873,37.41-28.648,3.661-2.458,7.361-4.857,11.023-7.315,3.269-2.193,6.7-4.256,9.822-6.661.35-.269.713-.523,1.054-.8a1.007,1.007,0,0,0-1.028-1.7" transform="translate(-37.251 -112.029)" fill="#161616"/><path d="M399.895,414.841c.061-.051.125-.1.186-.146a19.178,19.178,0,0,1,18.7-3.025c2.868,1.035,6.162,3.014,6.649,6.32.558,3.783-2.983,6.7-6.006,8.141-15.63,7.439-30.983,15.41-46.387,23.305l-12.912,6.618-6.569,3.367c-2.207,1.131-4.313,2.077-6.042,3.89a.815.815,0,0,0-.172.271,1.054,1.054,0,0,0,1.11,1.3,10.722,10.722,0,0,0,1.956-.468,32.235,32.235,0,0,0,4.436-2.062l6.345-3.246L374.11,452.5l25.607-13.1c4.228-2.163,8.49-4.3,12.643-6.6,3.733-2.07,7.657-3.986,11.073-6.567,2.825-2.135,5.075-5.4,4.954-9.056-.13-3.9-3.651-6.57-6.917-8.019-6.879-3.053-15.358-1.678-21.31,2.856-.524.4-1.035.813-1.516,1.259-.934.867.253,2.41,1.251,1.568" transform="translate(-76.701 -90.002)" fill="#161616"/><path d="M396.773,383.465c.312-.16.627-.307.941-.458a29.613,29.613,0,0,1,11.257-3.064c3.416-.193,7.728.242,9.995,3.14a5.991,5.991,0,0,1,1.315,4.385c-.265,1.765-1.709,2.866-3.11,3.791a54.888,54.888,0,0,0-4.7,3.166,16.54,16.54,0,0,0-2.933,2.862,6.126,6.126,0,0,0-.839,1.521,1.049,1.049,0,0,0,1.552,1.248c.026-.013.052-.018.077-.034,1.57-.96,2.74-2.521,4.2-3.662,1.346-1.053,2.823-1.879,4.256-2.8,2.746-1.763,4.793-4.316,4.535-7.735a9.442,9.442,0,0,0-5.4-7.375c-3.117-1.578-6.8-1.6-10.183-1.128a27.248,27.248,0,0,0-11.88,4.624.784.784,0,0,0-.234.256c-.372.652.359,1.669,1.152,1.264" transform="translate(-87.352 -83.273)" fill="#161616"/><path d="M260.09,467.935a16.784,16.784,0,0,1,5.657-3.635A23.5,23.5,0,0,1,272,463l.277-.032c1.519-.161,1.554-2.732-.027-2.744a14.667,14.667,0,0,0-5.879,1.251,20.294,20.294,0,0,0-7.3,5.47c-.52.61.436,1.561,1.021.988" transform="translate(-57.183 -101.642)" fill="#161616"/><path d="M114.233,594.876a5.486,5.486,0,0,1,1.757-.865c-.054-1.182-.191-2.362-.325-3.555-.235-2.1-.506-4.194-.76-6.292-.517-4.277-.991-8.561-1.609-12.826q-.907-6.27-1.815-12.54-.472-3.26-1.006-6.512c-.252-1.533-.376-3.978-1.454-5.283a2.52,2.52,0,0,0-.491-.465,1.3,1.3,0,0,0-1.782.259,2.779,2.779,0,0,0-.453.956c-.45,1.548.048,3.678.23,5.108q.4,3.142.858,6.277.938,6.394,1.876,12.787c.613,4.179,1.365,8.338,2.076,12.5.37,2.165.719,4.335,1.11,6.5a25.585,25.585,0,0,0,1.6,6.174.98.98,0,0,0,1.586.268,4.883,4.883,0,0,1-1.072-.262,1.316,1.316,0,0,1-.325-2.23" transform="translate(-23.435 -120.651)" fill="#161616"/><path d="M157.019,603.457c.275-.129.552-.256.812-.407a1.1,1.1,0,0,0,.07-1.944,1.4,1.4,0,0,0-.376-.152c-3.305-.813-7.143.182-10.455.666l-10.295,1.507-10.294,1.507c-1.674.245-3.345.509-5.016.776a24.749,24.749,0,0,0-3.31.6,5.478,5.478,0,0,0-1.757.865,1.316,1.316,0,0,0,.325,2.23,4.873,4.873,0,0,0,1.072.262,15.079,15.079,0,0,0,3.952-.267c1.762-.231,3.523-.465,5.28-.72l10.3-1.495,10.3-1.494c3.018-.439,6.57-.609,9.4-1.938" transform="translate(-25.6 -132.654)" fill="#161616"/><path d="M215.165,282.967a13.587,13.587,0,1,1-11.486,15.405,13.586,13.586,0,0,1,11.486-15.405" transform="translate(-44.951 -62.462)" fill="#172852"/><path d="M216.025,290.949a7.9,7.9,0,0,1,4.935-.827,8.034,8.034,0,0,1,5.384,3.506,4.882,4.882,0,0,1,.781,1.7,18.39,18.39,0,0,0-3.972-.976,48.78,48.78,0,0,1-6.506-1.382c-.495-.2-1.114-.4-1.321-.947-.121-.482.357-.831.7-1.074" transform="translate(-47.551 -64.054)" fill="#ffd83d"/><path d="M210.976,297.2a7.765,7.765,0,0,1,1.747-3.56,10.075,10.075,0,0,0,3.487,5.332,9.658,9.658,0,0,0,7.364,1.948,14.039,14.039,0,0,0,2.983-.841,7.923,7.923,0,1,1-15.581-2.878" transform="translate(-46.561 -64.851)" fill="#ffd83d"/><path d="M225.378,295.577a18.365,18.365,0,0,1,3.972.977l.085.03a8.168,8.168,0,0,1,.4,2.468,7.437,7.437,0,0,1-1.726-.85,6.468,6.468,0,0,1-2.735-2.625" transform="translate(-49.775 -65.279)" fill="#ff6f03"/></g></g></g></g></svg>