<?xml version="1.0" encoding="utf-8"?>
<!-- Generator: Adobe Illustrator 27.5.0, SVG Export Plug-In . SVG Version: 6.00 Build 0)  -->
<svg version="1.1" id="Layer_1" xmlns="http://www.w3.org/2000/svg" xmlns:xlink="http://www.w3.org/1999/xlink" x="0px" y="0px"
	 viewBox="0 0 24 24" style="enable-background:new 0 0 24 24;" xml:space="preserve">
<style type="text/css">
	.st0{fill:#161616;}
</style>
<g>
	<path class="st0" d="M7,5.5c3.6,0,6.4,2.9,6.4,6.5s-2.9,6.5-6.4,6.5S0.6,15.6,0.6,12S3.5,5.5,7,5.5z M17.3,5.9
		c1.8,0,3.2,2.7,3.2,6.1h0c0,3.4-1.4,6.1-3.2,6.1c-1.8,0-3.2-2.7-3.2-6.1S15.5,5.9,17.3,5.9z M22.3,6.5c0.6,0,1.1,2.4,1.1,5.5
		c0,3-0.5,5.5-1.1,5.5c-0.6,0-1.1-2.5-1.1-5.5S21.7,6.5,22.3,6.5z"/>
</g>
</svg>
