<svg xmlns="http://www.w3.org/2000/svg" xmlns:xlink="http://www.w3.org/1999/xlink" width="1504.213" height="2917.8" viewBox="0 0 1504.213 2917.8"><defs><clipPath id="a"><rect width="1504.213" height="2917.8" fill="none"/></clipPath></defs><g transform="translate(0 0.003)"><g transform="translate(0 -0.003)" clip-path="url(#a)"><path d="M734,37.908Q691.043,131.8,648.085,225.693c-7.188,15.711-14.877,32.077-27.8,42.015s-32.753,10.782-42.558-3l2.979,72.414c-9.985-19.86-42.449-13.032-45.469,9.563L510.695,333.3c6.832,3.817,4.147,17.364-3.173,19.756s-15.072-3.824-18.28-11.65c-9.377,18.638-32.5,26.391-49.329,16.539,1.1,20.372-17.783,38.8-35.416,34.571-52.3,32.69-97.613,79.595-131.052,135.648-3.493,5.856-7.008,12.807-5.284,19.6s11.807,9.586,13.876,2.92c-27.711,11.9-48.773,41.717-52.938,74.944a56.219,56.219,0,0,1,33.219-10.094c-13.873,13.935-22.747,34.077-24.237,55.008q24.7-10.127,49.4-20.253-6.237,38.787-12.473,77.571l33.822-16.05a236.735,236.735,0,0,0-10.944,65.84,31.469,31.469,0,0,0,24.77-9.849q-.044,24.632-.087,49.262l28.786-18.773c-.768,16.639,9.415,33.141,23.479,38.044A65.534,65.534,0,0,1,407.7,812.4a133.948,133.948,0,0,1,8.478,64.895,88.636,88.636,0,0,0,46.112-23.608q6.074,28.854,12.148,57.708c17.435-7.641,32.757-21.347,43.357-38.786q6.664,21.335,13.328,42.671l33.217-34.669,20.721,28.161,28.58-30.875c9.749,2.853,18.424,10.146,23.657,19.887a181.147,181.147,0,0,1,99.772-2.741q9.4,10.122,18.8,20.249c6.628-35.543,74.242,25.882,82.2-9.31l16.788,42.539c12.216-9.614,29.87,6.2,30.259,23.035s-9.907,31.364-20.216,43.507L829.916,985.2c-9.5,25.071-48.884,21.694-54.937-4.712l-22.819,34.882c-8.741-7-19.233-10.724-29.784-12.778-29.288-5.706-59.236.737-88.407,7.162l-78.765,17.35-31.744-23.827c-19.765,23.536-56.634,24.64-77.469,2.319-.979,19.732-21.051,32.389-38.4,30.188s-32.141-14.665-46-26.684l-1.8,33c-16.233-15.688-35.848-32.437-56.72-27.4-13.407,3.236-23.824,14.9-36.091,21.83s-30.456,6.818-36.248-7.249c-7.8,9.609-9,25.267-2.8,36.264a88.472,88.472,0,0,1-51.48-5.655q2.831,20.387,5.664,40.775c-19.049-18.435-45.462,9.729-57.756,34.455s-38.324,53.147-57.653,35.09a86.161,86.161,0,0,0,3.011,56.568l-36.347,11.149c-3.672,12.255,11.748,24.883,20.877,17.1l-33.6,62.817c-3.372,6.3-6.86,13.8-4.521,20.682s13.715,7.525,13.959.16c-17.173,25.922-27.24,57.795-28.48,90.17l47.735-7.075-33.594,96.693,58.785-12.763L61.891,1606.138a32.3,32.3,0,0,0,35.518.377c21.312,6.341,8.9,46.232,22.085,66.223,8.134,12.331,23.634,13.528,36.584,18.2s26.146,20.6,18.935,33.649l29.946,1.6c1.547,10.57,3.606,22.157,11.066,28.747s21.666,2.64,21.679-8.074l11.532,40.034,23.155-19.329c-.235,5.4.158,11.7,4.059,14.827s11-2.136,8.239-6.549l14.48,25.976,18.691,33.53c-4.875-4.217-3.183-14.627,2.7-16.6s12.314,5.7,10.259,12.25q-14.763,61.819-29.527,123.638,48.245-43.155,96.491-86.309l9.582,33.5c18.918,2.115,36.045,18.1,41.49,38.724l33.785-16.107c-2.607,17.207,25.134,24.938,29.878,8.326l18.033,35.442,23.116-11.889L560,1999.069c9.66-12.358,29.427-4.456,35.887,10.338s3.8,32.372,1,48.568a160.582,160.582,0,0,1,51.573-8.219q-4.929,27.482-9.858,54.966a39.788,39.788,0,0,0,36.718-7.979q-3.106,20.2-6.211,40.4l41.594-16.525c-11.6,7.722-7.572,32.064,5.707,34.51l-10.833,34.854,28.629-3.555a38.406,38.406,0,0,1-8.674,26.3l39.738,9.555c-13.04,8.381-9.08,33.007,3.508,42.231s28.845,7.707,43.75,5.855c-7.884,11.1-12.964,26.607-7.815,39.6s23.837,17.65,30.293,5.425q-5.294,15.589-10.588,31.18c47.979-7.217,108.362-28.616,111.056-83.335.9-18.261-5.615-35.858-12.5-52.4-99.589-239.208-298.213-406.788-505.517-528.591-75.846-44.563-155.972-86.155-213.277-157.927s-85.392-184.327-40.255-266.484c25.375-46.188,69.313-75.376,114.288-94.493,83.833-35.637,175.008-42.048,264.555-42.179,162.389-.235,324.69,18.93,486.947,11.489,71.382-3.273,152.912-18.576,190.442-87.411,30.931-56.73,18.765-134.7-18.657-186.18s-95.233-79.368-153.281-90.534-117.394-7.426-176.265-6.259a1999.409,1999.409,0,0,1-367.623-26.745c-49.943-8.306-109.146-27.764-122.423-82.91-5.834-24.235-.737-50.306,8.139-73.326,15.652-40.6,43.236-75.158,77.328-96.888,38.8-24.732,84.078-32.464,125.634-50.58C735.734,369.6,797.077,10.184,769.288,5.962S734,37.908,734,37.908" transform="translate(-0.399 -0.822)" fill="#b2b2b2"/><path d="M733.386,36.024q-35.139,76.025-70.256,152.063c-10.192,22.076-19.046,48.441-34.233,66.878-13.073,15.87-36.79,24.21-51.376,5.946-.833-1.044-1.18,2.894-1.175,3,.9,24.14,1.912,48.277,2.864,72.417l1.582-3.021c-6.965-12.324-20.73-15.033-32.3-9.638a25.269,25.269,0,0,0-12.826,13.335c-1.923,4.656-1.185,4.847-5.854,2.381-6.463-3.414-12.857-7.014-19.281-10.518-1.634-.892-1.826,6.164-.472,7.214,10.864,8.434-5.783,13.218-8.51,12.706-5.682-1.067-9.544-6.113-12.18-11.446-.338-.682-.869-.554-1.193.033-10.155,18.366-31.111,25.275-48.428,16.157-1.341-.706-1.409,2.977-1.407,3.619.068,20.012-16.177,30.769-31.532,31.339-10.469.388-23.128,12.911-31.924,19.64a398.225,398.225,0,0,0-60.74,57.748q-12.489,14.627-23.73,30.536c-7.9,11.187-18.024,23.694-22.64,37.182-1.888,5.518-2.844,13.453.315,18.673,3.451,5.7,10.94,7.178,14.222.781.543-1.057.95-7.689-1.071-6.771-28.653,13.018-48.72,42.294-53.63,76.666-.119.835-.19,6.528,1.49,5.445a59.939,59.939,0,0,1,32.9-9.947l-.483-7.334c-14.608,15.377-22.978,35.252-25.041,57.641-.032.343.066,5.209,1.287,4.709l49.4-20.244-1.191-5.619-12.483,77.565c-.165,1.026-.3,6.356,1.53,5.49l33.824-16.045-1.357-6.265a256.957,256.957,0,0,0-11.234,67.51c-.027.838-.111,4.724,1.317,4.747,9.627.157,17.681-3.061,25.1-9.99l-1.669-3.6q-.042,24.631-.084,49.262c0,.642.326,4.481,1.666,3.608l28.786-18.769-1.663-3.612c-.053,18.576,8.707,35.209,24.478,41.682a.473.473,0,0,0,.664-.019c5.613-7.227,23.929-27.755,33.084-21.057,3.865,2.827,5.771,21.163,6.431,26.3a135.23,135.23,0,0,1,.189,31.093c-.058.572-.026,5.046,1.307,4.792,17.292-3.3,32.817-11.217,46.441-23.746l-1.445-1.716Q466.93,883.679,473,912.536c.171.811.541,2.137,1.445,1.719a97.833,97.833,0,0,0,36.223-28.514c.365-.464,5.025-7.656,5.505-7.62,3.175.235,3.583,6.606,4.4,9.207L529.9,917.2c.136.436.68,1.531,1.233.954,8.8-9.187,17.441-20.465,27.178-28.361,6.425-5.209,8.156-2.473,12.843,3.9l12.951,17.6c.21.287.6.753.967.362L596.5,899.308c3.944-4.26,8.256-10.745,12.861-13.892,10.566-7.219,21.355,5.319,26.977,14.9a.818.818,0,0,0,.639.51,186.611,186.611,0,0,1,61.369-8.317c10.094.373,20.988.946,30.81,3.8,11,3.2,18.035,13.265,26.057,21.907.778.838,1.292-1.491,1.365-1.822,4.851-21.754,42.445-1.338,53.618,1.744,7.073,1.951,16.718,4.522,23.177-.822a20.937,20.937,0,0,0,3.116-3.829c.438-.573.568-1.78,1.053-2.23,1.777-1.651-1.014-1.608.8-.42,2.117,1.383,5.609,15.124,6.888,18.367l8.394,21.272c.227.574.572,1.4,1.231.969,7.619-4.954,15.841-2.267,21.92,4.5,9.972,11.1,6.366,26-.592,37.979-1.986,3.418-6.26,12.277-9.911,13.861-4.291,1.863-8.1-3-11.07-5.536l-25.433-21.744c-.368-.315-.81.041-.977.431-10.174,23.784-46.383,21.45-53.36-4.168-.277-1.018-.973-1.529-1.588-.591l-10.271,15.685c-2.672,4.08-6.532,13.4-10.271,15.685-4.343,2.659-9.826-2.706-13.825-4.5a76.54,76.54,0,0,0-12.334-4.2c-22.6-5.783-46.143-3.4-68.78.786-22.831,4.22-45.5,9.723-68.206,14.729-10.443,2.3-24.4,8.429-34.886,6.259-10.692-2.214-22.875-15.318-31.948-22.126a.492.492,0,0,0-.7.02c-20.67,23.229-55.038,24.27-76.769,2.316-1.062-1.072-1.525,2.6-1.554,2.892-1.864,18.854-21.01,28.444-35.886,27.282-17.94-1.4-33.218-14.778-46.954-26.648-1.1-.954-1.527,2.456-1.549,2.875q-.9,16.5-1.794,33l1.547-2.871c-17.856-17.105-40.449-36.337-64.843-24.631-16.538,7.936-49.035,42.224-63.9,12.236-.4-.8-.917-.516-1.314.037-8.894,12.39-9.409,29.459-2.649,43.2l.494-7.491a92.572,92.572,0,0,1-51.132-5.511c-1.741-.7-1.625,3.992-1.49,4.964l5.665,40.774q.745-2.477,1.488-4.954c-20.211-17.5-43.02,8.267-54.152,26.6-11.979,19.721-35.018,64.909-61.259,42.979-.618-.517-1.1.551-1.231,1.053a99,99,0,0,0,3.135,62.163q.381-3.383.763-6.766-18.174,5.575-36.346,11.16c-.744.229-.923,1.242-1.065,1.981-2.769,14.43,8.874,31.9,22.448,22.829q-.57-3.575-1.14-7.15Q41.066,1273.415,29,1296.006c-5.387,10.091-13.864,21.511-15.105,33.688-.607,5.958.305,13.322,5.6,16.169,5.532,2.977,10.114.067,11.323-6.109.162-.828-.249-7.591-1.812-5.166-17.5,27.158-27.339,58.934-28.992,92.47-.03.61-.06,4.952,1.292,4.752l47.735-7.063-1.015-6.449q-16.8,48.339-33.6,96.677c-.305.877-.65,6.852,1.022,6.489l58.786-12.748q-.6-2.867-1.206-5.735-6.33,50.209-12.66,100.416c-.155,1.232-.45,4.837.876,5.641,6.593,4,13.6,6.172,21.151,5.527,7.1-.606,15.055-6.953,21.233-.94,9.195,8.95,6.424,31.379,8.617,43.709,2.466,13.858,8.4,23.857,20.335,29.2,6.584,2.949,13.622,4.216,20.378,6.514,8.842,3.007,26.933,13.682,20.944,27.363-.53,1.212-1.264,7.141.8,7.251l29.946,1.6q-.649-1.418-1.3-2.835c1.8,11.87,4.374,29.252,16.037,33.831,9.416,3.7,18.059-2.492,19.179-13.225l-2.107,1.788,11.532,40.032c.154.537.671,1.472,1.27.972l23.156-19.328-1.707-3.731c-.084,6.558.94,22.193,10.215,19.188,5.6-1.816,5.893-8.542,4.215-13.739l-1.422,6.192q16.586,29.754,33.172,59.506.416-3.593.833-7.183-2.3-9.368,5.052-9.191,7.243,1.143,5.626,10.3c-.16,5.521-2.94,12.309-4.218,17.662l-7.909,33.118-16.344,68.443c-.167.7-.331,8.044,1.385,6.509l59.5-53.224,28.946-25.892c1.8-1.614,3.951-4.776,6.4-4.147,2.977.765,3.053,5.329,3.972,8.544l5.99,20.939c.132.461.456,1.052.925,1.122,18.908,2.814,34.5,17.073,40.565,37.6.206.7.6,1.286,1.26.972l33.785-16.106q-.834-2.387-1.669-4.772c-.969,12.318,6.165,21.735,17.321,22.395a14.969,14.969,0,0,0,7.593-1.381c2.163-1.068,3.96-4.714,5.694-5.407,3.056-1.223-3.863-3.364,1.951,1.063,2.117,1.611,3.774,7.418,5.009,9.844l11.02,21.658c.249.49.583.578.993.368l23.116-11.889-1.634-2.69q3.167,21.374,6.335,42.749c.062.417.662,3.769,1.639,2.691,7.715-8.507,18.967-6.974,27.242-.089,14.819,12.33,11.082,35.551,8.063,53.281-.115.675-.3,6.359,1.244,5.867a171.451,171.451,0,0,1,51.573-8.218q-.625-2.935-1.249-5.87-4.932,27.483-9.862,54.966c-.246,1.367-.454,5.442,1.252,5.872,13.263,3.34,25.879.5,37.063-8.127l-1.6-5.724-6.214,40.4c-.093.609-.256,6.478,1.259,5.877l41.595-16.524-.517-7.7c-12.82,10.179-9.348,37.877,6.225,42.216q-.539-3.34-1.078-6.681-5.419,17.427-10.836,34.854c-.314,1.01-.771,6.912,1.08,6.683l28.63-3.555-1.41-3.894a34.977,34.977,0,0,1-7.785,22.482c-1.043,1.36-1.686,7.183.52,7.714l39.738,9.557q-.26-3.857-.521-7.716c-11.157,8.451-10.874,26.649-4.932,38.917,10.217,21.1,34.672,19.066,52.711,16.887q-.417-3.658-.835-7.317c-8.471,12.708-14.475,31.01-7.669,46.4,5.874,13.285,23.339,18.316,31.649,5.389l-1.764-6.141q-5.294,15.589-10.589,31.178c-.338.993-.751,6.987,1.1,6.7,51.816-8.027,127.371-36.018,109.759-112.087-4.869-21.032-14.576-40.9-23.429-60.073q-13.626-29.512-29.293-57.729a914.827,914.827,0,0,0-66.677-102.914c-98.742-132.392-226.141-234.052-359.665-316.7-69.255-42.868-143.443-78.138-205.939-133.62-61.441-54.545-111.432-136.813-106.1-228.975,5.578-96.487,79.078-150.71,153.214-178.278,86.486-32.159,178.736-35.7,269-34.9,96.248.86,192.337,7.785,288.52,11.206,47.71,1.7,95.459,2.539,143.187,1.334,38.075-.962,76.416-2.547,113.73-11.925,31.9-8.019,63.889-21.935,88.241-47.356,23.581-24.616,37.121-58.193,39.448-94.28,5.275-81.781-40.541-151.634-102.771-187.706-78.973-45.776-169.764-40.354-255.826-38.374a2008.342,2008.342,0,0,1-283.179-13.388c-42.117-5.005-85.507-9.032-126.689-20.677-29.984-8.479-63.164-23.231-79.945-54.591-25.369-47.407,4.792-108.911,34.3-144.651,28.992-35.116,66.61-53.3,106.591-66.872,30.046-10.2,61.845-18.028,88.5-37.579,19.65-14.412,36.391-33.532,50.872-54.238,31.367-44.847,53.527-97.606,70.805-151.089,15.245-47.184,27.3-96.464,33.176-146.341,1.82-15.441,3.359-31.379,2.177-46.965-.5-6.53-.988-16.982-7.308-19.627-17.3-7.241-32.572,17.312-35.984,33.1-.326,1.509.815,8.8,1.558,5.355,1.83-8.467,6.015-16.98,11.67-22.864,4.986-5.187,18.686-13.114,25.014-6.606,5.613,5.773,3.4,22.927,3.046,30.154-2.276,45.991-12.923,92.056-25.173,135.771-15.454,55.149-35.857,109.5-64.379,157.709-13.586,22.961-29.288,44.666-47.932,62.611-20.256,19.5-42.771,30.9-68.015,39.893-38.52,13.723-78.985,23.45-113.129,49.077-30.069,22.568-54.222,55.627-67.92,93.442-11.947,32.982-14.864,72.38,4.646,102.524,17.265,26.676,46.111,40.216,73.48,48.463,39.788,11.988,81.934,15.888,122.747,20.909q68.492,8.424,137.354,12.1,70.844,3.78,141.8,2.529c45.5-.8,91.108-3.418,136.565.335,76.952,6.353,163.5,35,207.421,112.949,22.138,39.293,31.671,89.507,18.817,134.6-10.69,37.5-36.425,65.895-67.046,83.218-31.486,17.812-67.018,25.18-101.789,28.881-41.912,4.462-84.358,4.346-126.415,4.054-94.187-.654-188.226-7.27-282.339-10.864-90.232-3.446-182.049-6.482-271.525,9.667-73.1,13.193-158.606,39.662-207.361,107.683-42.156,58.813-41.3,140.146-16.9,207.609,28.527,78.873,87.335,133.5,150.61,175.876,66.993,44.86,138.2,80.962,205.105,126.144,64.84,43.788,127.228,92.535,184.85,147.846,57.5,55.191,110.24,117.052,154.431,186.313A871.937,871.937,0,0,1,911.655,2189.7c10.049,22.244,24.266,48.769,21.911,74.558-1.7,18.6-11.85,33.879-24.781,44.766-24.156,20.337-55.567,28.254-84.847,32.792q.549,3.349,1.1,6.7l10.586-31.18c.4-1.19-.118-8.7-1.763-6.141-5.04,7.841-14.17,8.073-21.259,3.629-14.419-9.04-7.637-30.012.283-41.9.691-1.037,1.115-7.552-.835-7.317-12.395,1.5-25.944,3.2-37.787-2.4-12.655-5.979-23.671-26.817-8.95-37.969,1.42-1.075,1.4-7.254-.521-7.716l-39.738-9.555q.26,3.856.52,7.713c6.752-8.807,9.566-18.557,9.564-30.118,0-.745-.233-4.04-1.409-3.894l-28.63,3.556q.54,3.342,1.08,6.683,5.415-17.427,10.831-34.855c.469-1.51.828-6.149-1.078-6.681-10.785-3-15.207-18.849-5.191-26.8,1.258-1,.986-8.3-.517-7.7l-41.595,16.527,1.259,5.876q3.1-20.2,6.209-40.4c.123-.8.091-7.029-1.6-5.724-11.033,8.51-23.406,11.095-36.375,7.83q.627,2.936,1.253,5.872,4.927-27.484,9.853-54.968c.185-1.027.438-5.879-1.249-5.87a171.447,171.447,0,0,0-51.572,8.221l1.243,5.867c3.046-17.9,6.5-39.85-2.778-56.316-7.414-13.16-24.91-20.2-35.691-8.3l1.639,2.692q-3.172-21.374-6.343-42.748c-.124-.833-.439-3.305-1.634-2.691l-13.209,6.794c-5.209,2.679-7.59,4.888-11.919-.445-6.241-7.691-10.406-20.451-15.029-29.534-.586-1.15-1.273-.053-1.532.655-4.365,11.9-28.825,10.138-27.667-4.577.075-.944.011-5.573-1.668-4.772-6.171,2.942-29.337,18.085-33.964,12.53-2.044-2.453-3.2-7.588-4.951-10.51a57.057,57.057,0,0,0-7.739-10.115,49.154,49.154,0,0,0-19.927-12.815c-7.462-2.448-8.587-4.769-11.027-13.3l-5.988-20.939c-.146-.509-.677-1.5-1.263-.973q-48.245,43.155-96.491,86.309.693,3.255,1.385,6.51l16.874-70.65q4.219-17.663,8.437-35.325c1.714-7.174,4.881-15.231,4.909-22.764.035-8.939-8.87-19.771-15.926-10.823-4.656,5.9-3.362,15.982,1.053,21.319,1.119,1.353,1.518-5.954.832-7.184l-33.17-59.505c-1.414-2.538-1.751,5.171-1.421,6.192a7.218,7.218,0,0,1-5.393.326q-6.518-.426-4.774-11.433c.006-.482-.414-4.81-1.707-3.73l-13.232,11.044c-4.267,3.563-6.93,7.963-10.575,2.584-2.419-3.569-3.245-11.267-4.485-15.568l-5.125-17.793c-.831-2.883-1.987.641-2.107,1.788-.93,8.915-12.931,9.987-18.328,6.631-8.458-5.26-10.46-17.58-11.945-27.37-.113-.744-.322-2.783-1.3-2.835l-29.946-1.588.8,7.251c6.1-13.953-.208-28.292-11.24-36.346-16.567-12.1-42.087-6.511-48.734-32.676-3.791-14.923-.788-32.584-7.619-46.521-2.121-4.328-6.443-9.687-11.146-9.6-2.3.044-5.927,3.087-8.263,3.755a32.152,32.152,0,0,1-7.658,1.177c-6.8.255-12.907-1.672-18.926-5.318q.437,2.821.876,5.641l12.645-100.439c.093-.745.371-6.077-1.206-5.734l-58.785,12.778q.512,3.245,1.023,6.489l33.587-96.71c.323-.93.689-6.7-1.015-6.449l-47.735,7.088q.647,2.375,1.292,4.751a176.825,176.825,0,0,1,27.968-87.87l-1.812-5.166c-1.235,6.277-16.826,6.707-8.449-14.006,2.973-7.35,7.633-14.306,11.339-21.223q11.561-21.575,23.1-43.163c.558-1.044.768-8.423-1.141-7.15-4.186,2.793-8.165,2.921-12.525.376a17.037,17.037,0,0,1-5.142-4.783q-1.379-7.381,4.567-7.2c3.809-2.524,10.256-3.142,14.539-4.454q7.27-2.228,14.539-4.457c1.812-.556,1.307-5.369.762-6.766-4.572-11.722-9.978-31.86-4.523-44.328,2.695-6.158,3.514-2.624,7.414-1.1a19.232,19.232,0,0,0,9.366,1.182c13.018-1.521,24.048-13.5,31.958-24.3,14.258-19.464,37.81-76.257,67.075-50.9,1.475,1.278,1.562-4.42,1.488-4.954l-5.663-40.778-1.49,4.963a93.571,93.571,0,0,0,51.828,5.8c2.1-.357,1.111-6.236.494-7.491q-6.1-12.556-.393-24.075.333-3.142,2.4-2.742c1.614.2,3.033,3.138,4.4,4.4a21.342,21.342,0,0,0,11.6,5.148c11.935,1.7,22.2-4.687,31.835-11.75,12.757-9.349,25.167-17.918,40.986-14.178,15.432,3.649,28.476,15.913,40.191,27.142,1.067,1.022,1.528-2.524,1.547-2.872l1.8-33-1.549,2.876c16.344,14.132,36.292,31.187,58.218,26.126,14.851-3.428,26.028-15.31,27.729-32.5l-1.554,2.892c15.8,15.973,38.534,20.337,58.383,12.093a51.5,51.5,0,0,0,12.475-7.321c1.512-1.209,3.6-4.267,5.346-4.887,4.279-1.52,7.6,2.567,10.788,4.963,6.346,4.766,12.644,9.632,19.046,14.3,5.942,4.334,12.6.525,19.281-.946,29.888-6.578,59.744-14.016,89.823-19.389,29.627-5.294,64.731-8.565,91.029,10.973.442.328.75-.059,1-.439l17.11-26.182,3.423-5.236q1.569-3.795,2.1.335c1.362,1.349,2.275,4.643,3.508,6.341,5.383,7.416,13.9,11.33,22.211,12.037,8.81.748,18.328-2.119,24.608-9.445.944-1.1,2.969-5.536,3.872-5.955,2.674-1.238,7.427,4.679,9.476,6.427l25.437,21.694a.471.471,0,0,0,.674-.019c13.117-15.711,28.185-39.17,17.775-61.521-3.991-8.567-12.4-16.614-21.472-15.59-1.208.136-4.2,1.782-4.97,1.563-3.553-1.014-4.754-7.163-6.013-10.353q-5.875-14.888-11.751-29.775c-.485-1.229-1.351-1.491-1.757.049-9.623,36.456-73.1-31.48-82.372,10.11l1.365-1.823c-5.307-5.716-10.371-12.209-16.111-17.353-4.439-3.979-8.654-4.475-14.431-5.569a180.8,180.8,0,0,0-44.436-2.818,182.864,182.864,0,0,0-21.2,2.515c-5.895,1.052-15.649,5.811-21.364,3.868-4.3-1.462-7.371-7.474-11.158-10.657a42.067,42.067,0,0,0-13.855-7.487l-.328.147L601.4,885.719c-3.887,4.2-8.281,10.9-12.861,13.9-6.113,4-8.565-2.134-12.385-7.325L564.5,876.451c-.216-.294-.6-.745-.968-.361l-15.1,15.761c-2.675,2.793-11.442,15.226-15.1,15.761-5.331.782-6.288-10.3-7.784-15.094q-3.666-11.733-7.33-23.466c-.287-.92-.934-1.488-1.522-.558-11.048,17.494-25.537,30.3-43.068,38.4l1.445,1.719Q469,879.761,462.923,850.908c-.109-.519-.659-2.438-1.445-1.716q-20.141,18.53-45.784,23.47L417,877.454a148.6,148.6,0,0,0-8.878-68.588c-.085-.221-.492-1.231-.906-1.09-11.237,3.848-19.624,10.4-28.7,18.59-5.652,5.1-8.541,4.377-14.116-.706a37.714,37.714,0,0,1-12.191-28.23c0-.64-.325-4.485-1.663-3.612L321.761,812.6l1.665,3.608.09-49.263c0-.39-.453-4.738-1.67-3.6-7.223,6.748-15.076,9.859-24.438,9.709q.658,2.373,1.316,4.748a243.856,243.856,0,0,1,10.654-64.171c.31-1.009.653-7.22-1.357-6.265L274.2,723.416q.765,2.745,1.53,5.49,6.232-38.788,12.463-77.575c.091-.568.228-6.2-1.191-5.618l-49.4,20.259q.643,2.355,1.287,4.709a86.627,86.627,0,0,1,23.434-52.376c.94-.99,1.472-7.348-.484-7.334A61.065,61.065,0,0,0,228.3,621.213l1.49,5.446c4.734-33.205,24.8-60.744,52.245-73.223q-.535-3.385-1.071-6.771c-2.044,3.986-4.37,3.54-7.266,2.589-6.1-2-3.889-10.821-1.7-15.71,2.458-5.5,6.291-10.574,9.495-15.548Q292.817,500.405,305.7,484.2a406.947,406.947,0,0,1,50.775-53.281q13.384-11.692,27.661-22c4.679-3.379,9.451-7.193,14.454-9.927,5.775-3.155,10.669-2.222,16.689-3.762,15.863-4.061,25.459-20.442,25.4-38.145q-.7,1.81-1.408,3.619a34.962,34.962,0,0,0,31.9.9c6.316-2.95,9.9-7.655,15.018-12.408,1.983-1.842.852-2.91,3.524-2.529.482.069,4.68,5.718,5.315,6.229,15.252,12.284,28.527-13.909,15.495-24.026l-.472,7.214L534.6,349.472c.866.473,1.182-1.113,1.3-1.752,4-21.763,33.66-26.32,43.918-8.428,1.1,1.914,1.607-2.452,1.582-3.021-1.034-24.136-2.012-48.277-3.094-72.41l-1.175,3c12.029,14.911,32.347,12.342,45.573.714,17.339-15.242,26-41.6,35.706-63.006q37.725-83.2,75.41-166.429c.24-.529-.117-2.8-.432-2.119" transform="translate(0 0.003)" fill="#161616"/><path d="M1280.709,2354.192a937.286,937.286,0,0,0-33.835-175.26l-.536-28.444c-10.53-62.471-36.88-121.419-75.1-168.019-20.062-24.458-43.99-46.747-54.46-77.95-5.648-16.833-18.574-40.776-30.823-29.3q-53.471-65.679-106.941-131.358c-12.392,12.5-29.646-7.343-36.768-24.314a2088.186,2088.186,0,0,0-422.065-190.147c-33.291-10.7-68.289-21.446-93.466-48.331s-35.866-75.735-13.136-105.284c16.375-33.748,44.359-60.046,76.669-72.051l57.311,48.156,16-26.938c15.443,8.881,36.922-1.483,41.961-20.248l25.9,21.019,35.274-28.443,21.223,26.647,28.7-29.908,35.781,31.3c1.806-19.267,26.857-19.688,42.58-12.046s37.1,16.183,47.239.574l43.7,17.014a306.335,306.335,0,0,1,155.52,3.823l17.218-24.588,20.212,17.59c13.536-10.12,23.687-25.9,28.042-43.593q11.166,10.2,22.33,20.4a40.289,40.289,0,0,0,20.373-14.625l21.428,23.142a53.628,53.628,0,0,0,17.254-27.36l24.959,26.836c52.852-60.075,115.2-109.413,183.182-144.97l-18.9-8.735q20.7-49.154,41.4-98.309c4.066-9.656,8.192-19.549,9.186-30.187,1.337-14.309-3.106-28.41-7.478-41.919q-32.674-100.958-65.348-201.914c-14.737-5.724-23.452-26.258-18.195-42.865-24.158,1.79-48-19.262-52.352-46.23-72.425,41.451-154.068-31.883-234.854-40.59-31.035-3.344-63.23,3.026-92.956-7.616-10.283-3.681-20.051-9.347-30.652-11.581-11.47-2.417-23.256-.689-34.881.421a327.946,327.946,0,0,1-128.682-13.471c-48.761,20.263-106.224,11.155-148.2-23.489,48.376-50.232,104.919-90.346,165.94-117.722a38.041,38.041,0,0,0-2.426-33.385l25.833-5.391q1.486-21.7,2.973-43.4l49.612-94.19c11.869-22.534,23.776-45.149,32.916-69.259C913.11,175.055,917.05,103.057,900.314,37.58c-3.85-15.061-11.781-32.422-25.621-32.873-17.57-.572-24.744,25.027-26.557,44.824C835.778,184.5,811.664,336.444,711.507,410.949,664.8,445.694,608,457.739,557.167,484.035s-99.8,76.449-99.236,139.726c.558,62.3,50.6,112.125,103.72,128.349s109.293,7.315,164.165,2.7c141.876-11.922,285.667,6.056,421.828,52.74,78.375,26.872,166.492,81.293,171.547,173.842,4.115,75.341-53.583,140.069-117.065,163.112s-131.948,15.05-198.542,11.619c-105.271-5.423-210.7,1.192-315.924,7.806-112.541,7.073-228.091,14.953-330.707,67.754-28.352,14.587-56.18,33.275-74.606,61.7-29.978,46.249-29.323,111.469-9,164.02s57.5,94.356,96.925,130.393c137.619,125.8,308.207,194.608,460.387,296.663s295.538,257.507,314.29,456.65" transform="translate(-63.798 -0.687)" fill="#b2b2b2"/><path d="M1281.178,2352.838a946.037,946.037,0,0,0-28.109-157.17,147.919,147.919,0,0,1-5.532-37.749c-.2-10.669-2.187-20.571-4.539-30.9a376.738,376.738,0,0,0-20.236-62.84c-17.894-42.375-43.45-76.27-72.017-109.781-14.46-16.962-26.292-34.285-34.449-56.091-5.245-14.023-12.387-29.4-26.808-30.083-.827-.039-1.641,1.19-2.442,1.126-4.048-.325-6.661-5.136-9.128-8.163q-6.859-8.422-13.717-16.843-13.716-16.851-27.418-33.719-28.784-35.4-57.583-70.789c-.282-.346-.714-.722-1.139-.361-12.06,10.235-24.714-4.3-31.3-15.4-3.437-5.8-2.988-7.807-8.114-10.964-7.9-4.865-16.006-9.345-24.033-13.928q-39.6-22.608-79.98-43.413-82.483-42.494-167.828-77.321c-55.351-22.584-111.579-41.14-167.862-60.373-24.865-8.5-50.238-19.038-69.942-38.887-19.556-19.7-33.142-53.287-24.28-82.741,2.382-7.917,6.8-14.2,10.73-21.087,3.484-6.1,6.773-12.158,10.764-17.864a145.86,145.86,0,0,1,32.5-33.518,131.185,131.185,0,0,1,19.585-12.043c4.719-2.354,8.718-4.753,14.362-2.488,3.251,1.3,6.692,5.6,9.554,8q22.3,18.7,44.582,37.422c.382.32.794-.06,1-.406l10.278-17.328c3.409-5.748,4.373-7.506,9.86-7.005,7.786.711,14.251,1.344,21.6-2.636a32.881,32.881,0,0,0,9.4-7.544c1.971-2.311,3.429-6.911,5.377-8.657,2.756-2.469-1.717-1.022,2.245-1.465,2.493-.279,5.883,4.026,7.921,5.678l16.187,13.124a.5.5,0,0,0,.674-.019c9.349-7.563,18.771-17.009,28.864-23.24,6.676-4.121,8.608-1.492,13.375,4.505l13.259,16.684c.228.287.638.739,1.01.352q7.177-7.459,14.357-14.915c4.133-4.3,10.479-14.366,16.907-12.08,4.942,1.759,10.519,9.209,14.637,12.813l17.891,15.661c.83.727,1.376-1.312,1.453-1.809,4.355-28.211,41.68-9,54.762-4.312,8.308,2.975,18.174,5.616,26.571,1.555,6.733-3.256,5.9-6.206,14.313-4.017,6.725,1.75,13.509,5.268,20.027,7.809,5.066,1.975,11.43,5.921,16.745,6.519,6.2.7,14.982-3.207,21.244-4.224a308.621,308.621,0,0,1,44.942-3.944,313.029,313.029,0,0,1,89.334,11.969.88.88,0,0,0,.658-.551c3.675-5.255,11.342-20.675,16.924-21.39,5.3-.677,15.274,11.093,19.5,14.763a.507.507,0,0,0,.694-.019,79.488,79.488,0,0,0,20.493-23.9c2.3-4.15,3.537-9.83,6.069-13.7,2.284-3.487,1.294-4.216,5.567-1.527,2.751,1.731,5.569,5.106,7.973,7.309,2.126,1.95,4.238,3.921,6.379,5.848,5.083,4.575,1.347,2.752,6.476,2.041,3.361-.466,7.111-3.515,9.864-5.643,1.509-1.167,4.166-5.066,5.88-5.5,4.008-1.006,5.588,2.055,8.033,4.7l14.732,15.919a.531.531,0,0,0,.729-.02c7.373-6.48,10.42-13.778,15.7-22.023,1.794-2.8.325-3.139,3.6-2.321,1.637.409,5.492,5.909,6.933,7.459l15.252,16.408a.532.532,0,0,0,.733-.02c53.146-60.029,115.129-109.037,183.189-144.892,1.512-.8,1.356-7.335-.174-8.043l-18.9-8.735q.249,3.807.5,7.616c14.893-35.37,30.629-70.444,44.671-106.257,12.323-31.425,2.768-57.75-7.117-88.288l-36.939-114.13q-9.236-28.533-18.47-57.065c-1.22-3.768-2.292-10.76-4.555-13.818-.986-1.33-3.924-2.109-5.277-3.019a31.375,31.375,0,0,1-12.517-33.305c.3-1.142.863-7.1-1.107-7.029-23.865.914-46.04-17.413-51.183-44.154-.151-.784-.59-2.313-1.509-1.8-38.885,21.487-81.042,10.763-120.2-3.908-39.856-14.93-79.329-34.749-121.778-37.523-24.262-1.585-48.828,1.61-72.866-3.5-11.485-2.442-21.891-7.806-32.9-11.95-12.451-4.688-24.549-4.736-37.487-3.557-24.938,2.271-49.647,3.008-74.594.267a327.83,327.83,0,0,1-35.04-5.8q-9.656-2.139-19.2-4.861c-1.516-.432-5.76-2.382-7.613-2.27-2.868.174-6.383,2.5-9.238,3.458-46.927,15.684-98.86,5.278-138.6-26.757q.085,3.929.17,7.858a554.693,554.693,0,0,1,107.592-86.891q14.16-8.7,28.763-16.443,7.3-3.867,14.694-7.485c3.946-1.931,11.934-3.544,14.884-6.987,8.165-9.528,2.791-31.321-2.274-40.662q-.248,3.705-.5,7.411l25.832-5.41c.948-.2,1.126-2.118,1.182-2.934.827-12.152.806-24.87,2.51-36.893,1.774-12.514,10.75-24.764,16.438-35.566Q841.1,339.2,858.661,306c20.893-39.655,39.3-79.746,47.347-125.408a352.023,352.023,0,0,0-1.135-127.933c-3.063-15.643-6.51-34.856-17.5-46.153-9.767-10.037-22.8-7.556-30.395,4.153-7.809,12.037-9.617,27.757-10.956,42.186-1.854,19.959-3.953,39.888-6.5,59.749-5.038,39.25-11.747,78.339-22.049,116.286-20.089,74-55.591,143.993-115.87,184.3-66.479,44.46-150.066,50.159-206.814,113.818-21.858,24.52-37.629,56.285-38.46,91.712-.768,32.733,11.442,63.355,31.007,87.017,57.551,69.6,145.991,60.694,222.377,53.573,88.6-8.26,177.625-5.958,265.669,8.306A1042.606,1042.606,0,0,1,1105.8,797.433c36.811,10.946,73.408,23.332,107.561,42.638,59.729,33.764,121.845,98.313,99.779,181.983-22.687,86.025-104.66,125.221-177.1,132-44.3,4.146-88.738-.2-133.018-2.477-46.471-2.393-93.013-2.456-139.513-1.206-89.794,2.413-180.008,7.3-269.516,15.884-82.249,7.892-165.58,22.84-241.018,62.557-33.059,17.4-65.062,41.213-81.917,79.1-14.676,32.991-17.092,71.783-11.109,107.721,13.847,83.188,72.263,143.947,129.242,192.8,130.639,112.018,285.614,177.794,426.7,269.968,124.422,81.29,246.693,194.416,301.643,349.284a480.7,480.7,0,0,1,25.295,113.875c.525,5.363,3.662,1.465,3.3-2.22-15.307-156.21-105.924-284.692-211.792-379.172-121.906-108.793-267.787-173.594-402.871-257.529-69.074-42.92-138.286-91-195.4-153.062-55.058-59.835-103.372-156.183-60.384-241.264,19.411-38.417,54.965-60.784,89.748-77.741,38.952-18.991,80.026-31.805,121.646-40.693,82.76-17.674,167.546-20.8,251.453-25.836,90.694-5.441,181.573-9.318,272.356-4.275,78.3,4.35,165.343,14.319,234.924-35.443,50.88-36.387,86.8-102.3,70.2-171.594-16.093-67.2-74.153-108.276-127.65-133.1-34.594-16.055-71.106-26.965-107.406-36.782a1042.019,1042.019,0,0,0-129.025-26.279c-86.728-12.016-173.171-11.164-260.108-3.073-75.352,7.013-166.126,8.37-214.789-69.9-23.427-37.682-23.367-83.564-1.368-122.06,19.2-33.6,49.685-58.119,81.41-74.641,35.765-18.627,74.1-29.783,110.327-47.125,32.8-15.7,62.452-37.277,86.454-67.28,42.142-52.677,64-121.8,77.28-190.18,7.1-36.535,11.807-73.587,15.606-110.728,1.885-18.435,1.405-42.369,13.6-56.685,16.183-19,32.833,4.637,37.862,21.9,13.648,46.84,13.715,99.98,4.055,147.732-10.069,49.771-33.512,92.64-56.3,136q-16.522,31.438-33.072,62.857c-4.4,8.346-7.566,13.107-8.221,22.6q-1.272,18.442-2.545,36.884.591-1.467,1.182-2.933l-25.832,5.372c-2.059.428-1.188,6.131-.5,7.41q6.444,10.461,3.188,23.9a14.164,14.164,0,0,1-7.251,5.233c-3.164,1.821-6.627,3.131-9.89,4.736q-11.488,5.657-22.736,11.917a526.393,526.393,0,0,0-45.409,28.42,561.433,561.433,0,0,0-81.274,69.532c-1.362,1.4-1.395,6.595.17,7.858,34.175,27.582,77.21,39.386,118.767,32.272a139.307,139.307,0,0,0,14.294-3.216c4.686-1.32,10.7-5.069,15.494-5.375,5.544-.355,13.73,4.008,19.108,5.338q9.614,2.377,19.333,4.171a326.266,326.266,0,0,0,78.461,4.905c11.68-.69,23.4-2.816,35.105-2.557,13.905.307,25.705,6.393,38.619,11.408,22.75,8.836,46.58,7.8,70.283,7.826,46.944.059,88.533,17.783,132.379,34.706,41.821,16.143,87.137,29.792,129.078,6.772l-1.509-1.8c5.414,28.337,27.657,49.211,53.521,48.306l-1.108-7.029a49.261,49.261,0,0,0,.176,27.07c4.176,13.833,15.943,18.344,20.969,30.464,7.495,18.075,12.395,38.3,18.466,57.06l19.176,59.255,18.466,57.06c7.69,23.764,18.451,47.677,9.642,73.084-13.062,37.671-30.835,73.981-46.218,110.515-.607,1.439-1.375,6.751.5,7.615l18.9,8.732q-.087-4.022-.175-8.043a630.415,630.415,0,0,0-108.861,72.729,656.578,656.578,0,0,0-48.446,44.52q-5.974,6.069-11.811,12.307c-3.124,3.338-6.568,8.822-10.265,11.219-6.058,3.929-9.876-3.071-14.154-7.667l-13.867-14.9c-.6-.643-1.185.659-1.314,1.084-2.165,7.162-8.554,24.434-16.453,23.8-6.46-.516-16.218-15.571-20.917-20.645a.53.53,0,0,0-.728.02c-4.936,6.12-11.039,12.771-18.717,12.071-8.188-.746-16.875-11.913-23.266-17.73-.6-.547-1.137.56-1.266,1.041-3.563,13.248-9.617,25.153-18.594,34.67-4.97,5.268-7.612,7.266-13.96,2.91-5.092-3.495-9.716-8.468-14.435-12.581-.408-.354-.777.094-1,.419-4.915,7.01-11.708,22.408-20.373,22.938-4.532.276-10.812-2.807-15.328-3.8q-5.775-1.275-11.587-2.324a305.4,305.4,0,0,0-111.308.482c-5.677,1.079-10.918,2.839-16.774,1.591-4.253-.906-8.642-3.36-12.745-4.956l-27.311-10.619c-.518-.2-.668-.049-1.019.421-14.986,20.1-39.837-.946-57.122-4.663-13.5-2.9-30.377-.326-33.134,17.571l1.453-1.809L716.4,1289.674a.516.516,0,0,0-.7.02q-5.741,5.986-11.482,11.971c-3.934,4.1-8.331,10.545-12.913,13.488-6.06,3.892-8.583-1.777-12.583-6.789L666.783,1293.4c-.266-.333-.589-.677-1-.348-9.386,7.59-18.765,16.989-28.854,23.324-6.642,4.169-9.6,2.008-15.451-2.745l-16.185-13.15c-.6-.489-1.066.5-1.222.984-5.883,18.444-25.074,27.138-40.737,19.23-.434-.219-.725-.036-.986.4q-4.574,7.69-9.146,15.384c-3.119,5.246-4.432,9.956-10.635,7.115-3.922-1.8-7.749-6.519-11.142-9.372l-14.326-12.05q-11.144-9.375-22.283-18.758c-4.875-4.107-3.343-3.648-8.332-2.913-3.482.513-7.309,3.153-10.516,4.793a139.009,139.009,0,0,0-40.4,31.612c-10.6,11.944-18.262,26.006-26.667,39.818-13.547,22.261-11.643,52.545-2.334,76.289,12.659,32.29,39.527,51.318,67.729,63.516,34.439,14.893,70.894,24.141,106.038,36.682q56.089,20.015,111.2,43.357a2111.314,2111.314,0,0,1,215.576,106.262c10.091,5.706,21.582,10.684,30.923,17.827,6.379,4.877,9.489,14.545,15.086,20.655,4.395,4.8,10.25,9.75,16.677,9.717,2.449-.013,5-2.326,7.1-2.289,5.211.093,10.1,9.062,13.307,13q47.283,58.069,94.594,116.108c.292.358.72.682,1.149.349,12.63-9.83,22.844,11.657,27.2,22.545,5.679,14.183,11.1,27.117,19.761,39.4,18.5,26.244,41.406,47.733,59.025,74.935a358.927,358.927,0,0,1,43.722,97.1c5.247,18.532,8.625,36.5,9.024,55.982.36,17.579,6.786,33.738,11,50.6a962.422,962.422,0,0,1,23.6,135.473c.35,3.421,2.11.839,1.9-1.4" transform="translate(-63.318 -0.033)" fill="#161616"/><path d="M908.626,2346.816c-48.182-227.957-207.513-372.07-382.534-497.229-75.043-53.663-155.466-97.543-228.345-154.9S158.293,1563.722,126.025,1470.1s-22.678-185.477,38.874-257.883c54.228-63.791,135.625-107.369,213.115-119.227a2157.31,2157.31,0,0,1,588.2-8.892c77.738,9.511,164.833,20.483,226.255-34.305,14.219-12.682,26.6-29.142,31.328-48.924,9.054-37.852-12.812-78.177-42.419-98.524s-65.241-25.266-99.667-29.55q-202.04-25.145-404.782-42.144c-80.959-6.787-165.572-13.838-234.854-61.749S325.8,617.888,360.608,534.842C390.35,463.881,464.635,434.366,532.3,417.065s141.922-32.9,187.329-92.282c22.034-28.815,34.756-65.273,43.732-102.008A629.191,629.191,0,0,0,779.28,25.638l43.542-7.247c22.532,99.382,10.326,208.3-33.411,298.162S670.868,476.267,584.632,507.771C558.44,517.34,530.4,524,508.865,543.4s-33.568,57.2-17.138,82.2c6.724,10.231,16.99,16.631,27.211,21.988,71.407,37.433,152.817,38.092,231.316,44.287,117.107,9.241,272.868,8.114,385.769,44.527,61.627,19.876,116.19,58.252,165.737,104.261s52.908,127.844,45.417,199.9c-6.051,58.207-39.3,109.746-81.624,143.492s-93.024,51.518-143.867,62.507c-237.615,51.359-487.548-35.368-723,27.5-29.454,7.865-59.282,18.537-82.577,40.408s-38.832,57.254-32,90.635c7.755,37.874,19.758,69.932,47.78,92.4,102.868,82.465,244.747,132.664,371.372,180.719s222.141,121.94,316.126,229.374c94.168,107.642,174.4,293.333,174.945,444.846" transform="translate(-26.596 -2.696)" fill="#161616"/><path d="M908.649,2345.239c-29.1-136.213-101.749-249.9-193.345-341.817-47.518-47.686-99.183-89.836-152.123-129.411-63.324-47.337-129.976-87.84-195.186-131.619-61.657-41.394-121.77-87.582-170.31-147.934-47.22-58.71-85.215-133.531-89.012-214.4-3.93-83.685,35.385-153.294,92.658-202.5,56.327-48.394,122.668-74.746,192.279-84.872a2156.084,2156.084,0,0,1,495.771-14.5c38.533,3.326,76.893,8.372,115.355,12.519,32.988,3.557,66.48,5.747,99.447.8,51.45-7.725,127.523-43.9,122.16-115.648-2.353-31.478-20.745-59.811-43.9-76.348-29.09-20.773-64.361-25.917-97.832-30.15q-125.161-15.826-250.658-28.108c-79.548-7.918-159.8-11.622-239.044-22.814-69.14-9.766-142.721-30.661-192.654-89.388-44.228-52.016-70.94-133.22-37.452-200.644,30.678-61.766,95.323-88.425,152.718-104.53,60-16.837,125.3-26.406,176.274-69.342,55.882-47.066,74.746-130.637,83.629-205.056A652.642,652.642,0,0,0,779.99,24.044l-1.112,4.539,20.782-3.459,14-2.33c1.316-.219,7.49-2.285,8.644-1.439.49.36,1.682,11.016,1.845,11.859q1.8,9.336,3.192,18.767Q829.772,68.5,830.974,85.2a458.145,458.145,0,0,1-.224,68.426c-6.54,83.968-36.231,164.314-84.949,228.08-45.463,59.507-105.248,102.581-171.617,125.4-30.307,10.421-65.286,20.594-82.518,53.678-11.828,22.709-14.029,53.668,3.745,73.327,13.09,14.478,33.072,22.041,50,28.681A339.973,339.973,0,0,0,597,678.186c38.2,8.358,77.123,11.245,115.895,13.943,71.863,5,143.816,8.288,215.662,13.522,70.868,5.163,143.508,11.934,211.82,35.238,35.5,12.111,69.113,30.587,100.42,52.978a586.509,586.509,0,0,1,46.306,37c13.9,12.237,27.08,24.742,36.794,41.579,18.766,32.528,24.229,72.481,24.465,110.655.246,39.6-3.231,79.693-19.457,115.355-35.171,77.3-107.858,117.612-179.456,137.222-156.5,42.863-319.67,17.8-478.4,11.745-79.98-3.05-160.614-1.738-239.534,14.731-59.384,12.393-146.205,36.438-150.9,120.653-1.686,30.244,10.676,66.209,26.205,90.394,18.655,29.052,50.137,47.536,77.208,64.817,64.522,41.186,134.041,71.523,203.788,99.208,67.87,26.939,137.689,48.875,202.733,84.082,62.159,33.645,119.349,77.63,171.252,128.825,51.754,51.049,97.821,107.191,134.461,173.138,37.567,67.615,67.124,142.233,83.445,220.1,7.461,35.592,12.1,71.907,12.37,108.525.032,4.344,3.6,4.25,3.567-.1-.534-72.053-16.921-143.2-40.79-209.637-24.755-68.9-57.991-134.421-99.141-192.465-40.786-57.531-90.89-108.277-143.071-152.223a717.944,717.944,0,0,0-172.706-108.249c-67.372-29.7-137.238-51.923-204.9-80.881-66.269-28.362-132.111-60.723-191.222-105.4-14.927-11.281-28.408-23.175-38.341-40.358-8.957-15.5-14.543-33.224-18.616-51.062-9.972-43.676,10.829-83.026,43.376-105.82,32.323-22.638,71.939-31.012,108.871-38.274,38.436-7.558,77.356-11.625,116.319-13.408,157.439-7.2,314.6,22.227,471.981,9.027,73.552-6.168,151.726-19.325,216.806-61.06,55.414-35.536,97.677-94.858,104.489-167.922,5.778-61.969,4.333-135.667-35.033-184.4-10.9-13.492-24.391-24.443-37.3-35.3a544.5,544.5,0,0,0-45.53-34.576c-30.758-20.785-63.577-37.475-98.115-48.364-66.329-20.912-135.853-27.8-204.322-32.789-69.377-5.059-138.857-8.208-208.251-13.025-38.2-2.651-76.522-5.173-114.278-12.59a348.655,348.655,0,0,1-58.2-16.377c-16.631-6.4-35.727-13.627-49.25-26.8-17.982-17.522-15.756-44.864-3.779-65.793,9.607-16.787,24.693-27.483,40.693-35.125,31.58-15.085,65.064-22.6,96.051-39.8,121.352-67.37,199.893-207.744,203.17-360.545a473.223,473.223,0,0,0-11.17-112.616c-.1-.467-.47-1.84-1.125-1.732l-43.543,7.245c-1.408.235-1.185,3.571-1.113,4.539A628.7,628.7,0,0,1,771.389,173c-6.944,42.767-17.268,87.021-37.617,124.34-36.5,66.944-104.391,90.268-168.328,106.952-58.155,15.175-120.505,28.4-167.864,72.68C354.873,516.9,338.348,578.1,352.445,638.486c15.315,65.6,58.8,118.071,112.023,147.124,64.7,35.316,137.993,41.414,208.532,47.353q125.634,10.578,251.049,24.131,63.354,6.887,126.639,14.571c37.145,4.509,76.595,6.433,111.542,22.731,32.869,15.329,65.821,51.167,61.577,94.965-3.924,40.5-40.914,68.39-71.57,82.089-63.881,28.548-136.418,15.04-202.626,7.45a2158.78,2158.78,0,0,0-495.936.5c-38.216,4.458-77.229,8.1-114.592,18.631a365.642,365.642,0,0,0-92.1,40.593c-56.563,34.776-109.906,87.062-130.657,158.118-41.755,142.975,50.058,284.122,143.676,368.657,59.22,53.474,126.225,94.237,191.838,136.508,60.492,38.973,119.589,80.837,175.994,127.056,101.679,83.316,196.267,184.752,248.851,316.076a631.539,631.539,0,0,1,30.955,102.126c.5,2.346,1.229-.883,1.005-1.929" transform="translate(-26.117 -2.083)" fill="#161616"/><path d="M1031.886,26.121q.512,12.743,1.123,25.477.315,6.369.646,12.737c.108,2.122.208,4.246.326,6.368.055.97.093,1.947.18,2.915a9.3,9.3,0,0,0,.408,2.619c.078.189.219.253.28-.008a20.858,20.858,0,0,0,.021-5.55c-.109-2.123-.237-4.245-.356-6.367q-.363-6.474-.733-12.947-.734-12.7-1.607-25.376c-.035-.528-.3-.273-.286.132" transform="translate(-254.321 -3.767)" fill="#fff"/><path d="M1033.547,112.3a173.437,173.437,0,0,1-.053,19.664c-.394,6.651-1.324,13.249-1.668,19.9-.009.18.164,1.294.361.655a48.62,48.62,0,0,0,1.674-9.42c.35-3.454.6-6.923.717-10.4a190.923,190.923,0,0,0-.459-20.68c-.085-1.13-.62-.581-.573.282" transform="translate(-254.306 -16.341)" fill="#fff"/><path d="M1024.565,193.373c-.329,1.8-.741,3.573-1.028,5.4-.3,1.893-.666,3.766-.991,5.653-.637,3.707-1.353,7.4-2.108,11.075-1.621,7.9-3.586,15.684-4.725,23.692-.023.161.114,1.818.411,1.22a23.123,23.123,0,0,0,.978-2.346c.274-.749.66-1.419.912-2.172.566-1.7,1.059-3.445,1.469-5.194.934-3.988,1.8-8,2.546-12.043.73-3.958,1.353-7.938,1.913-11.931.586-4.178.939-8.357,1.2-12.569.032-.5-.351-2.026-.579-.78" transform="translate(-250.334 -28.303)" fill="#fff"/><path d="M1002.3,279.969c-2.438,6.093-5.028,12.113-7.427,18.228-1.233,3.142-2.435,6.3-3.639,9.453-.591,1.55-1.166,3.1-1.7,4.674a19.081,19.081,0,0,0-1.457,5.563c-.012.392-.059,1.621.44,1.76.583.164.809-.827.986-1.27.323-.806.637-1.617.956-2.426.605-1.537,1.165-3.09,1.718-4.651,1.179-3.333,2.334-6.674,3.511-10.009,2.4-6.8,4.514-13.731,6.821-20.57.061-.182-.092-1.036-.2-.753" transform="translate(-243.521 -41.072)" fill="#fff"/><path d="M959.452,359.256c-1.407,2.814-3.2,5.348-4.849,7.992-1.738,2.792-3.53,5.539-5.47,8.156-2,2.706-4.077,5.328-6.306,7.8-1.124,1.246-2.266,2.484-3.42,3.692a45.111,45.111,0,0,0-3.381,3.539c-1.189,1.552-2.833,2.68-4.137,4.11a29.257,29.257,0,0,1-2.2,2.332c-.77.679-1.533,1.34-2.262,2.078-.139.141-.146,1.194.07,1.111,1.417-.541,2.708-1.417,4.089-2.047a19.094,19.094,0,0,0,3.725-2.428c.592-.462,1.235-.8,1.817-1.25.65-.507,1.257-1.119,1.867-1.688,1.238-1.154,2.442-2.322,3.591-3.591A84.136,84.136,0,0,0,954.6,372.289a103.361,103.361,0,0,0,5.074-11.916c.09-.238-.031-1.494-.219-1.117" transform="translate(-228.553 -52.705)" fill="#fff"/><path d="M884.3,435.736c-.628.563-1.256,1.115-1.919,1.625s-1.335.945-1.972,1.448c-1.338,1.055-2.64,2.114-4.026,3.089-2.823,1.984-5.569,4.092-8.436,6-2.9,1.934-5.892,3.7-8.916,5.378-1.533.849-3.051,1.729-4.6,2.539-.722.377-1.486.695-2.19,1.11-.371.218-.637.547-1,.772-.471.291-.982.52-1.469.771a92.042,92.042,0,0,1-11.026,5.033c-.4.144-.287,1.873.039,1.8,3.318-.746,6.622-1.427,9.886-2.462.749-.237,1.494-.495,2.235-.758.864-.307,1.656-.375,2.513-.755q2.375-1.055,4.7-2.237a81.857,81.857,0,0,0,17.505-12.446,94.427,94.427,0,0,0,8.8-9.725c.176-.21.072-1.358-.121-1.186" transform="translate(-206.655 -63.935)" fill="#fff"/><path d="M766.688,498.51c-1.585.542-3.207.828-4.782,1.366-1.594.545-3.181,1.117-4.777,1.66-3.2,1.09-6.381,2.291-9.547,3.505-3.2,1.226-6.385,2.482-9.541,3.836l-4.768,2.045-2.3.985c-.866.371-1.617.9-2.467,1.293-3.694,1.7-7.255,3.717-10.932,5.451-.341.16-.2,1.614.033,1.532,3.163-1.1,6.4-1.882,9.559-3.021,1.6-.578,3.192-.973,4.777-1.593l4.771-1.867c6.429-2.516,12.748-5.342,19.07-8.178,1.836-.823,3.658-1.708,5.468-2.6,1.849-.91,3.6-1.995,5.462-2.885.329-.157.187-1.608-.033-1.532" transform="translate(-176.806 -73.149)" fill="#fff"/><path d="M650.632,544.69a6.647,6.647,0,0,0-2.5.266c-.874.293-1.75.58-2.625.873-1.658.553-3.263,1.225-4.887,1.893a94.15,94.15,0,0,0-9.582,4.806,88.217,88.217,0,0,0-9.34,5.882c-1.533,1.118-3.071,2.227-4.581,3.385q-1.029.788-2.047,1.6c-.812.644-1.5,1.392-2.269,2.09a93.92,93.92,0,0,0-9.544,9.307c-.271.326-.225,2.358.213,2.052,2.918-2.045,5.641-4.47,8.514-6.6,1.43-1.061,2.922-1.955,4.36-3.005q2.261-1.652,4.575-3.21a188.18,188.18,0,0,1,18.768-11.236c1.819-.937,3.638-1.877,5.443-2.848.967-.52,1.937-1.031,2.921-1.508a12.877,12.877,0,0,0,2.7-1.814c.269-.222.314-1.915-.117-1.928" transform="translate(-148.639 -79.924)" fill="#fff"/><path d="M540.805,619.458a91.046,91.046,0,0,0-7.348,5.957,48.772,48.772,0,0,0-6.274,7.5,80.565,80.565,0,0,0-9.524,18.239c-.75,2.029-1.39,4.091-1.949,6.2a50.557,50.557,0,0,0-1.118,6.574c-.028.211.119,1.483.35.818.482-1.384,1.117-2.671,1.558-4.088.494-1.591,1.061-3.148,1.613-4.713a79.411,79.411,0,0,1,3.98-9.3,96.689,96.689,0,0,1,11.1-16.97,71.371,71.371,0,0,1,7.771-8.705c.273-.245.107-1.708-.155-1.507" transform="translate(-126.827 -90.894)" fill="#fff"/><path d="M522.741,730.263c1.057,16.188,10,32.138,22.171,40.586a26.7,26.7,0,0,0,5.281,2.714c.848.346,1.76.524,2.632.823a19.71,19.71,0,0,0,2.941.694c.247.045.217-.939.027-1.049A29.658,29.658,0,0,1,551.025,771c-.68-.592-1.462-1.052-2.178-1.589-.8-.6-1.543-1.292-2.352-1.879a59.577,59.577,0,0,1-8.046-7.068,57.662,57.662,0,0,1-11.828-18.619,71.308,71.308,0,0,1-3.413-11.965c-.152-.755-.5-.032-.469.383" transform="translate(-128.835 -107.052)" fill="#fff"/><path d="M626.495,826.35a95.893,95.893,0,0,0,18.5,10.847c3.2,1.506,6.424,2.918,9.694,4.2q2.368.928,4.756,1.784,1.236.443,2.477.866c.766.262,1.524.381,2.3.595a92.22,92.22,0,0,0,11.363,2.344c.19.027.191-.726.023-.786-1.77-.637-3.626-1.106-5.344-1.9-1.569-.725-3.2-1.266-4.809-1.862s-3.169-1.269-4.787-1.838q-2.475-.869-4.929-1.817a186.7,186.7,0,0,1-18.759-8.408c-3.44-1.785-6.886-3.5-10.4-5.088-.307-.138-.29.9-.084,1.063" transform="translate(-154.37 -121.099)" fill="#fff"/><path d="M779.716,865.33a9.944,9.944,0,0,0,4.521,9.311,26.048,26.048,0,0,0,10.128,3.572c5.313.96,10.635,1.866,15.952,2.8,5.183.909,10.374,1.7,15.573,2.41a83.615,83.615,0,0,0,8.892,1.041c2.967.086,5.918.673,8.886.82.321.016.284-1.174-.027-1.266-2.518-.742-5.066-1.3-7.617-1.881-2.482-.565-4.932-1.3-7.43-1.818-5.005-1.039-9.993-2.122-15.031-2.974l-14.836-2.51c-3.865-.654-7.886-1.01-11.583-2.541a13.828,13.828,0,0,1-4.661-2.976,10.258,10.258,0,0,1-1.47-1.883,6.8,6.8,0,0,1-.8-2.3c-.137-.663-.442-.234-.5.2" transform="translate(-192.154 -126.897)" fill="#fff"/><path d="M990.315,889.3c7.939,6.245,18.226,7.308,27.616,7.451,9.7.147,19.412-.631,29.095.215,1.348.118,2.682.1,4.035.276,1.23.164,2.435.387,3.671.468a15.318,15.318,0,0,1,4.046,1.154c1.268.469,2.533.979,3.777,1.527.31.137.313-.938.086-1.1a32.5,32.5,0,0,0-6.736-3.544c-1-.393-1.9-.984-2.923-1.331q-1.845-.628-3.723-1.116c-1.177-.307-2.294-.657-3.5-.858-1.176-.2-2.354-.361-3.54-.463-2.485-.215-4.988-.356-7.481-.353-9.654.011-19.395.969-29-.482a54.149,54.149,0,0,1-15.209-4.716c-.778-.368-.758,2.439-.213,2.867" transform="translate(-243.979 -130.069)" fill="#fff"/><path d="M1197.808,895.938c10.413,2.544,21.1,3.757,31.65,5.385,10.417,1.607,20.827,3.3,31.265,4.723,1.488.2,2.976.412,4.465.608s2.97.209,4.46.377a72.206,72.206,0,0,0,8.922.836c.36-.005.3-1.263-.03-1.366a69.711,69.711,0,0,0-8.013-1.7c-2.617-.5-5.193-1.124-7.824-1.566q-7.9-1.326-15.821-2.507l-31.264-4.683c-5.941-.89-11.867-1.817-17.854-2.172-.514-.031-.484,1.937.044,2.066" transform="translate(-295.113 -131.165)" fill="#fff"/><path d="M1428.265,920.45a119.845,119.845,0,0,0,11.687,4.977c3.891,1.573,7.8,3.078,11.714,4.583,7.83,3.011,15.64,6.107,23.536,8.892,2.135.753,4.312,1.276,6.469,1.957,2.24.707,4.49,1.338,6.738,2.008.305.09.361-1.425.039-1.574-2-.928-3.988-1.9-6-2.792l-2.652-1.179c-1.018-.453-1.976-1.026-3-1.457-3.871-1.632-7.792-3.151-11.712-4.623-7.81-2.935-15.6-5.968-23.447-8.763l-6.569-2.339a60.765,60.765,0,0,0-6.74-2.148c-.531-.121-.521,2.212-.061,2.457" transform="translate(-351.929 -134.704)" fill="#fff"/><path d="M1608.061,1006.265a128.642,128.642,0,0,1,30.092,43.084c.939,2.221,1.985,4.412,2.793,6.7.822,2.325,1.582,4.685,2.279,7.062.168.575.361-.512.31-.735a115.789,115.789,0,0,0-9.474-26.888,106.076,106.076,0,0,0-15.16-22.151,77.349,77.349,0,0,0-10.649-9.839c-.533-.41-.7,2.286-.19,2.771" transform="translate(-396.251 -147.245)" fill="#fff"/><path d="M1664.167,1163.425a164.757,164.757,0,0,1-8.539,26.17,119.2,119.2,0,0,1-6.361,12.462c-1.209,2.055-2.478,4.068-3.768,6.059s-2.756,3.837-3.954,5.876a73.311,73.311,0,0,1-4.839,6.6c-1.674,2.232-3.479,4.263-5.261,6.384-.154.184-.12,1.275.122,1.09,1.751-1.34,3.278-3.024,4.995-4.409a36.178,36.178,0,0,0,4.462-4.628c.74-.859,1.524-1.637,2.217-2.544q1.066-1.4,2.093-2.831c1.332-1.857,2.6-3.762,3.79-5.736a120.756,120.756,0,0,0,11.864-26.459,95.431,95.431,0,0,0,3.677-16.938,1.93,1.93,0,0,0-.1-1.18c-.152-.192-.3-.28-.393.083" transform="translate(-402.067 -170.683)" fill="#fff"/><path d="M1497.928,1338.673c-4.584,1.927-9.344,3.1-14.034,4.619-4.661,1.511-9.344,2.949-14.083,4.112-4.87,1.2-9.764,2.231-14.7,2.982-1.16.176-2.279.513-3.444.7q-1.9.3-3.8.545c-1.153.15-2.309.271-3.461.433-.6.085-1.136.294-1.727.411a19.036,19.036,0,0,1-2.08.19c-5.539.464-11.1.586-16.652.523-.252,0-.249,1.1.025,1.132a123.935,123.935,0,0,0,14.944.858c1.157,0,2.316-.044,3.473-.041.59,0,1.152.147,1.74.168.693.024,1.39-.025,2.081-.061q1.82-.1,3.636-.241c1.251-.1,2.55-.343,3.8-.318a37.645,37.645,0,0,0,7.395-1.054c2.4-.445,4.79-.944,7.167-1.516a114.409,114.409,0,0,0,14.448-4.422q1.989-.768,3.963-1.593c1.276-.534,2.487-1.257,3.719-1.911,2.568-1.362,5.117-2.769,7.682-4.137.284-.152.131-1.466-.09-1.373" transform="translate(-350.903 -196.435)" fill="#fff"/><path d="M1170.773,1367.968a14.228,14.228,0,0,1-2.414-1.438,7.479,7.479,0,0,0-2.265-1.232c-.879-.358-1.719-.827-2.6-1.194-.775-.324-1.559-.59-2.353-.851q-5.008-1.646-10.107-2.925c-6.691-1.683-13.416-3.2-20.187-4.408-6.7-1.2-13.417-2.154-20.171-2.906a76.311,76.311,0,0,0-10.128-.811c-3.434.08-6.9-.414-10.333-.53q-2.813-.1-5.627-.147c-1.939-.035-3.87.09-5.81.061q-5.819-.091-11.638.007c-.418.007-.4,1.848.041,1.865q5.1.2,10.2.547c3.408.23,6.794.7,10.192,1.073s6.785.75,10.172,1.171c1.773.22,3.5.645,5.264.926,1.688.268,3.382.483,5.072.731,13.484,1.983,26.937,4.619,40.241,7.8,3.728.891,7.449,1.816,11.177,2.708a33.024,33.024,0,0,0,5.638,1.069,18.64,18.64,0,0,0,2.632.324,7.925,7.925,0,0,1,1.393-.177c.525.041,1.047.082,1.573.106.414.019.341-1.6.04-1.77" transform="translate(-262.936 -198.32)" fill="#fff"/><path d="M867.705,1356.274c-3.014-.588-6.009-1.174-9.06-1.472-2.889-.283-5.774-.594-8.669-.8-5.774-.409-11.544-.759-17.325-.985s-11.54-.384-17.314-.5c-1.39-.03-2.742.145-4.135.148l-4.7.011c-1.441,0-2.883,0-4.325.015-1.512.014-3,.246-4.508.253-6.52.033-13.037.027-19.553.328-.31.014-.294,1.333.029,1.365,5.895.6,11.8.956,17.708,1.321,2.9.178,5.764.594,8.668.764l4.143.242a42.92,42.92,0,0,1,4.52.265,67.415,67.415,0,0,0,8.663.506c2.885.1,5.77.154,8.657.206,5.9.1,11.785.146,17.681.062,3.261-.045,6.514-.168,9.773-.3,3.28-.136,6.5-.539,9.758-.993.1-.014.093-.413-.009-.433" transform="translate(-191.721 -198.466)" fill="#fff"/><path d="M560.491,1355.889c-3.178.162-6.4-.233-9.577.089s-6.366.631-9.517,1.154c-6.33,1.049-12.629,2.281-18.862,3.927-6.269,1.656-12.447,3.633-18.58,5.839q-4.606,1.656-9.168,3.465-2.24.89-4.468,1.813c-1.566.654-3.044,1.561-4.6,2.255-3.34,1.487-6.667,3.021-9.948,4.668-3.337,1.675-6.706,3.323-9.9,5.333-.4.254-.2,2.45.14,2.321,2.992-1.152,5.9-2.556,8.859-3.823,2.978-1.278,5.963-2.541,8.963-3.751a39.6,39.6,0,0,1,4.438-1.7,46.693,46.693,0,0,0,4.465-1.5q4.554-1.719,9.152-3.284c12.244-4.17,24.706-7.743,37.186-10.882,3.565-.9,7.119-1.835,10.69-2.7,3.613-.878,7.107-2.313,10.727-3.116.022,0,.019-.1,0-.1" transform="translate(-114.765 -198.955)" fill="#fff"/><path d="M294.191,1464.718a116.594,116.594,0,0,0-9.556,10.4,122.737,122.737,0,0,0-8.122,11.519,138.454,138.454,0,0,0-12.848,26.768,152.1,152.1,0,0,0-4.793,16.781c-.031.133.066.782.15.468a160.9,160.9,0,0,1,25.049-52.075,140.9,140.9,0,0,1,10.231-12.769c.188-.2.035-1.234-.111-1.091" transform="translate(-63.801 -214.929)" fill="#fff"/><path d="M249.883,1674.687a189.16,189.16,0,0,0,11.847,44.443,162.425,162.425,0,0,0,22.207,38.533c2.467,3.133,5.15,6.1,7.867,8.959a69.464,69.464,0,0,0,8.545,7.573c.34.257.374-1.155.181-1.376-2.431-2.792-4.8-5.643-7.21-8.462-2.359-2.764-4.622-5.589-6.827-8.5-4.332-5.727-8.464-11.614-12.262-17.813a180.985,180.985,0,0,1-18-39.31,166.442,166.442,0,0,1-6-24.337c-.114-.712-.42-.163-.353.294" transform="translate(-61.584 -245.649)" fill="#fff"/><path d="M476.628,1918.679c-.456,4.251,2.9,6.7,5.772,8.476q6.582,4.067,13.222,8.01,13.042,7.716,26.166,15.254,26.333,15.094,52.732,30.037c4.888,2.753,9.877,5.334,14.823,7.962,2.4,1.276,4.867,2.324,7.273,3.582,2.521,1.318,5.035,2.63,7.6,3.823.424.2.433-1.082.125-1.289-2.088-1.409-4.206-2.739-6.341-4.052l-3.178-1.953c-1.084-.666-2.083-1.479-3.156-2.17-4.17-2.682-8.469-5.131-12.73-7.621s-8.477-5.011-12.745-7.461q-6.373-3.656-12.763-7.274c-16.987-9.658-33.968-19.36-51.092-28.705-4.82-2.63-9.639-5.257-14.482-7.833-2.219-1.181-4.514-2.235-6.686-3.523-1.533-.91-3.989-2.562-3.875-4.847.036-.725-.549-1.533-.669-.416" transform="translate(-117.461 -281.465)" fill="#fff"/><path d="M798.443,2074.7c3.523,2.424,7,4.9,10.559,7.268,3.386,2.252,6.839,4.39,10.17,6.746,6.727,4.759,13.537,9.341,20.154,14.3q9.888,7.411,19.429,15.4,4.747,3.99,9.422,8.09,2.3,2.018,4.569,4.074c1.536,1.39,3.129,2.673,4.667,4.062q2.588,2.339,5.141,4.728c1.679,1.564,3.447,2.951,5.12,4.52,3.288,3.08,6.5,6.272,9.821,9.3.367.334.444-1.138.226-1.408-2.762-3.425-5.712-6.653-8.675-9.854q-.981-1.06-1.968-2.112c-.8-.857-1.5-1.82-2.312-2.665-1.487-1.547-3-3.059-4.523-4.562-3.005-2.97-5.984-5.942-9.1-8.762-3.082-2.789-6.193-5.541-9.363-8.2a374.924,374.924,0,0,0-39.623-29.127c-3.826-2.435-7.717-4.815-11.67-6.977-1.914-1.047-3.823-2.142-5.782-3.078-2.037-.974-4.108-1.808-6.169-2.709-.325-.143-.32.811-.093.967" transform="translate(-196.746 -304.297)" fill="#fff"/><path d="M1069.566,2266.947c12.8,14.817,25.525,29.7,37.626,45.255,5.949,7.647,11.8,15.4,17.465,23.311,2.811,3.924,5.572,7.894,8.338,11.857,2.782,3.986,5.395,8.146,8.232,12.077,6.247,8.656,11.919,17.866,17.853,26.8.317.476.472-.816.334-1.084a428.907,428.907,0,0,0-31.463-51.091,559.186,559.186,0,0,0-35.959-45.71c-7.066-8.02-14.388-15.812-22.031-23.124-.619-.593-.753,1.293-.394,1.708" transform="translate(-263.559 -332.383)" fill="#fff"/><path d="M1306.874,2563.16c2.4,7.071,5.288,13.964,7.976,20.906,2.631,6.794,5.147,13.684,7.462,20.626,2.277,6.827,4.537,13.656,6.6,20.573,2.027,6.812,3.766,13.735,5.821,20.53.546,1.806.979,3.659,1.469,5.485.5,1.883.893,3.872,1.57,5.683a49.85,49.85,0,0,1,1.436,5.593q.706,2.909,1.474,5.794c.258.963.573-.2.509-.656-.552-3.864-1.271-7.687-2.02-11.507-.372-1.9-.649-3.811-1.044-5.708q-.574-2.761-1.2-5.5-2.494-10.889-5.633-21.544a413.99,413.99,0,0,0-14.3-40.492c-1.512-3.675-3.133-7.262-4.771-10.865-.781-1.718-1.612-3.394-2.434-5.087-.4-.825-.8-1.651-1.208-2.469a27.249,27.249,0,0,0-1.462-2.358c-.26-.413-.289.84-.234,1" transform="translate(-322.09 -375.958)" fill="#fff"/><path d="M912.492,2709.766l342.537,437.909c118.434-196.456,255.442-378.547,407.925-542.154-93.937,83.072-221.457,92.748-340.518,99.034-136.63,7.215-213.286,20.987-349.938,14.358" transform="translate(-224.895 -382.333)" fill="#161616"/><path d="M912.158,2710.151c44.692,57.464,89.091,115.218,133.785,172.68q66.393,85.359,132.934,170.569,37.7,48.307,75.429,96.591c.415.531.935.6,1.317-.037q69.264-114.72,146.749-222.684,77.435-107.85,162.541-208.225,48.029-56.61,98.372-110.619c1.32-1.417.718-8.538-.917-7.1-35.244,31.031-76.109,52.446-118.837,66.552-43.365,14.318-88.316,21.579-133.227,26.083-47.551,4.769-95.3,6.274-142.931,9.6-44.9,3.133-89.74,7.217-134.662,9.88-46.658,2.766-93.295,3.278-140,2.078-6.792-.174-13.619.36-20.4.034-1.408-.067-1.417,5.358.118,5.432,6.818.328,13.612,1.442,20.439,1.748,6.526.294,13.056.478,19.584.649q18.513.489,37.031.388c22.541-.11,45.077-.8,67.595-1.948,44.523-2.271,88.958-6.27,133.427-9.558,48.18-3.562,96.471-5.23,144.614-9.423,45.082-3.926,90.223-10.2,134.069-23.036,42.686-12.5,84.153-31.475,120.5-60.04q6.939-5.453,13.6-11.341-.459-3.549-.917-7.1-89.269,95.842-171.317,199.833-81.792,103.712-155.772,214.886-41.877,62.938-81.1,128.064l1.317-.037q-67.013-85.585-134.094-171.1-66.458-84.772-133.217-169.242c-25.175-31.91-50.482-63.685-75.618-95.635-.553-.7-.8,1.555-.409,2.056" transform="translate(-224.766 -381.69)" fill="#161616"/><path d="M1368.895,2790.233c1.076,10.631,2.259,21.238,3.121,31.9q1.261,15.591,1.914,31.241c.889,20.938.943,41.95.149,62.894-.223,5.879-.561,11.752-.784,17.63-.232,6.15-.406,12.307-.656,18.457-.011.274-.038.935.21,1.115s.358-.136.391-.4c.655-5.162,1.216-10.3,1.668-15.493.462-5.314.752-10.641.992-15.978.482-10.731.634-21.494.621-32.238-.026-21.43-1.03-42.864-2.888-64.189-1.032-11.852-2.263-23.758-4.117-35.484-.213-1.352-.7-.278-.62.549" transform="translate(-337.379 -409.263)" fill="#fff"/><path d="M1367.321,3110.619a334.345,334.345,0,0,1,.826,62.938c-.256,2.929-.441,5.859-.747,8.784-.321,3.063-.774,6.119-1.027,9.189-.021.251.3,1.622.492.813,1.212-5.013,1.645-10.28,2.386-15.4a157.108,157.108,0,0,0,1.246-16.335,282.757,282.757,0,0,0-.616-32.737c-.463-5.993-1.154-11.919-2.124-17.832-.143-.87-.475.194-.436.577" transform="translate(-336.759 -456.318)" fill="#fff"/><path d="M873.611,1658.525c2.747-3.12,1.3-7.484-1.174-10.176a17.081,17.081,0,0,0-12.253-5.3,172.358,172.358,0,0,0-17.945.887,125.063,125.063,0,0,0-18.005,2.948c-11.184,2.744-22.2,7.792-30.925,16.34a58.305,58.305,0,0,0-16.542,30.163,51.908,51.908,0,0,0,6.33,36.28c6.208,10.444,15.234,18.406,24.329,25.414a198.419,198.419,0,0,0,31.93,20.168,194.032,194.032,0,0,0,34.391,13.377c10.183,2.874,20.614,4.3,30.816,7.065a83.762,83.762,0,0,1,13.308,4.352,38.057,38.057,0,0,1,5.817,3.365c.9.623,1.779,1.269,2.653,1.93a15.592,15.592,0,0,1,2.357,2.381,25.56,25.56,0,0,1,3.822,5.989c.361.809.595-.828.412-1.237a44.975,44.975,0,0,0-7.9-11.98,39.457,39.457,0,0,0-11.5-8.215,63.682,63.682,0,0,0-13.375-4.893c-4.529-1.15-9.1-2.074-13.66-3.047a196.27,196.27,0,0,1-33.74-10.306,202.11,202.11,0,0,1-31.774-16.517c-9.694-6.181-19.334-13.095-27.589-21.594a63.721,63.721,0,0,1-10.067-13.3,45.367,45.367,0,0,1-3.34-7.508,36.812,36.812,0,0,1-1.734-7.745q-.052-.474-.094-.948c-.013-.16-.062-.927-.032-.4-.041-.734-.066-1.468-.071-2.2,0-.157,0-.315,0-.472,0-.081.008-.734,0-.354-.008.343.005-.173.006-.2.008-.156.014-.313.02-.469q.053-1.094.16-2.183c.016-.156.032-.311.047-.467,0,.009.057-.5.024-.233s.032-.242.031-.233c.029-.206.057-.412.088-.618q.15-1,.344-2a37.778,37.778,0,0,1,.909-3.735,52.872,52.872,0,0,1,6.993-14.667,58.779,58.779,0,0,1,25.28-20.809c10.907-4.824,22.635-6.86,34.221-8.243q4.477-.534,8.96-1c2.525-.265,4.975-.849,7.523-.557a23.945,23.945,0,0,1,6.347,1.858,10.492,10.492,0,0,1,4.606,3.321c1.138,1.607.805,3.114-.179,4.743-.118.194-.013,1.246.178,1.031" transform="translate(-191.212 -241.099)" fill="#161616"/><path d="M983.36,1762.571c13.749,3.783,27.385,7.663,40.806,12.793a328.353,328.353,0,0,1,38.75,17.894,421.088,421.088,0,0,1,71.187,49.065c23.617,19.948,45.612,42.3,66.422,65.888,20.855,23.643,40.6,48.508,59.887,73.785,9.311,12.2,18.789,24.3,27.6,36.967,8.4,12.086,16.373,24.821,21.473,39.182,1.27,3.576,2.387,7.206,3.32,10.912.323,1.283.788-.424.655-1.044-6.8-31.581-25.327-57.318-43.553-81.517-19.456-25.833-39.371-51.29-60.367-75.536-20.786-24-42.653-46.876-66.148-67.46-22.22-19.466-45.941-36.957-71.136-51.088-24.931-13.982-51.3-24.885-78.7-30.639-3.408-.716-6.807-1.312-10.253-1.734-.582-.071-.583,2.357.055,2.532" transform="translate(-242.242 -258.267)" fill="#161616"/><path d="M1886.653,2542.778c2.877-1.276,5.816-2.305,8.683-3.6q4.323-1.954,8.644-3.917c5.668-2.577,11.278-5.313,16.9-8.014,5.337-2.562,10.666-5.194,16.062-7.593,4.453-1.98,9.157-3.661,13.976-3.84,4.481-.167,9.03,1.22,12.094,5.125a17.585,17.585,0,0,1,2.947,5.789,21.1,21.1,0,0,1,.591,2.726q.126.888.209,1.783c0,.046.074,1.035.035.379q.036.607.054,1.213c.019.614.015,1.225.016,1.839,0,1.008.036-.621-.008.385-.014.308-.026.616-.044.924q-.051.925-.135,1.847-.041.462-.09.922c-.011.1-.142,1.236-.078.741-.335,2.582-.836,5.136-1.369,7.673a169.245,169.245,0,0,1-4.566,17.156c-2.092,6.476-4.513,12.825-7.208,19.01-.664,1.523-1.356,3.03-2.064,4.527-.815,1.723-1.432,3.549-2.17,5.313-1.415,3.385-3.086,6.644-4.741,9.883a2.625,2.625,0,0,0-.127,1.737c.09.35.326.865.641.437,1.685-2.294,3.238-4.692,4.818-7.078.772-1.165,1.586-2.292,2.354-3.461a35.65,35.65,0,0,0,2.1-4.117,158,158,0,0,0,7.149-17.493,179.532,179.532,0,0,0,5.243-18.874,93.229,93.229,0,0,0,2.547-17.36c.169-5.55-.259-11.449-2.594-16.442a15.981,15.981,0,0,0-10.534-9.03c-4.758-1.18-9.766-.019-14.318,1.648-5.382,1.97-10.46,4.851-15.588,7.52q-8.835,4.6-17.669,9.2c-2.931,1.52-5.824,3.144-8.728,4.73-2.928,1.6-5.875,3.141-8.7,4.957-1.443.927-2.944,1.725-4.432,2.552-.182.1-.13.9.1.8" transform="translate(-464.937 -368.447)" fill="#161616"/><path d="M1775.416,2546.456q.886-.542,1.774-1.08a9.472,9.472,0,0,0,1.994-1.579c1.215-1.24,2.454-2.451,3.674-3.687q3.68-3.732,7.437-7.367,7.525-7.285,15.278-14.254,15.579-14.053,32.044-26.749,16.429-12.654,33.746-23.741,8.689-5.561,17.57-10.724a80.344,80.344,0,0,1,14.743-7.164,58.967,58.967,0,0,1,7.345-1.86,32.644,32.644,0,0,1,7.238-.781c4.093.1,8.728,1.294,11.935,4.328a14.84,14.84,0,0,1,2.154,2.667c.308.471.578-.066.677-.4a3.189,3.189,0,0,0-.084-1.946c-2.2-4.863-5.858-8.928-10.558-10.481a26.863,26.863,0,0,0-14.39-.453,60.491,60.491,0,0,0-14.713,5.7c-5.928,3.168-11.705,6.752-17.436,10.35q-17.632,11.067-34.4,23.782-16.856,12.779-32.647,27.229c-10.6,9.672-20.762,19.972-30.464,30.785a33.42,33.42,0,0,0-3.337,5.005c-.236.385-.3,2.871.424,2.426" transform="translate(-437.429 -358.106)" fill="#161616"/><path d="M894.313,2676.428c-2.05-.529-4.119-.917-6.173-1.424s-4.1-.988-6.171-1.323c-4.006-.647-7.955-1.512-11.959-2.164-4.108-.669-8.206-1.389-12.327-1.953l-11.947-1.638c-5.416-.741-11.3-1.206-16.388,1.468-6.859,3.6-7.735,12.992-5.983,20.447a78.705,78.705,0,0,0,4.284,11.9q2.344,5.681,4.8,11.3,4.9,11.248,10.213,22.258,10.7,22.188,23.023,43.293c4.023,6.878,8.281,13.535,12.646,20.138,1.062,1.607,2.154,3.186,3.248,4.765,1.112,1.607,2.169,3.3,3.417,4.77,2.455,2.9,4.564,6.229,6.868,9.292,1.125,1.495,2.307,2.933,3.474,4.386.57.709.677-1.514.392-1.969-2.185-3.489-4.369-6.976-6.584-10.442-2.149-3.363-4.12-6.842-6.214-10.248-4.205-6.841-8.271-13.783-12.343-20.727-7.89-13.453-15.436-27.159-22.448-41.225q-10.588-21.24-19.642-43.394c-.732-1.788-1.472-3.573-2.1-5.413-.249-.731-.477-1.51-.675-2.328-.026-.1-.291-1.349-.219-.945-.043-.241-.077-.488-.109-.731-.011-.084-.1-1.024-.073-.6s-.008-.325-.01-.416c0-.18-.01-.363,0-.543-.036.888.158-.932.047-.269a5.449,5.449,0,0,1,.234-.989c.059-.172.12-.344.185-.513.027-.072.264-.62.117-.305a8.719,8.719,0,0,1,2.147-2.894c3.979-3.524,9.73-3.56,14.533-3.23,7.462.511,14.881,1.684,22.344,2.185,1.99.134,3.978.3,5.966.456l2.8.219c1.065.083,2.1.025,3.166.042,1.923.03,3.861.291,5.78.445a54.818,54.818,0,0,0,5.958.106c1.924-.057,3.845.111,5.772.078.534-.01.456-1.738-.041-1.866" transform="translate(-202.736 -391.407)" fill="#161616"/><path d="M717.238,2686.9c2.013,5.537,4.458,10.841,6.782,16.216q3.45,7.979,7.153,15.8c4.849,10.261,9.81,20.42,15.053,30.435,10.517,20.086,21.675,39.737,33.666,58.742q17.9,28.369,37.88,54.938c13.278,17.668,27.167,34.784,41.772,51.057,14.381,16.024,29.341,31.5,45.56,45.121q2.878,2.416,5.759,4.826c.558.469.751-1.932.339-2.355-7.763-7.968-15.293-16.21-22.99-24.257-3.795-3.968-7.443-8.089-11.2-12.1s-7.489-8.092-11.178-12.2c-14.51-16.175-28.549-32.9-41.932-50.277q-20.176-26.2-38.427-54.2c-6.022-9.223-11.918-18.549-17.61-28.037s-11.112-19.19-16.56-28.871c-5.459-9.7-10.6-19.615-15.618-29.617-4.985-9.939-9.985-19.869-14.665-30-1.075-2.327-2.164-4.609-3.345-6.87-.2-.386-.432.1-.5.286a2.205,2.205,0,0,0,.061,1.376" transform="translate(-176.736 -394.01)" fill="#161616"/><path d="M166.159,1150.408c-7.645,3.085-15.1,6.676-22.523,10.37a113.513,113.513,0,0,0-10.977,6.684q-5.3,3.444-10.417,7.214A263.647,263.647,0,0,0,83.7,1209.564a297.082,297.082,0,0,0-32.233,42.7A303.214,303.214,0,0,0,26.8,1301.345c-3.407,8.623-6.346,17.509-9,26.464-2.7,9.1-5,18.359-6.826,27.739q-.674,3.469-1.237,6.963c-.091.57.312,2.406.6,1.06,1.91-8.963,4.02-17.861,6.569-26.621q1.9-6.52,4.078-12.927c1.425-4.189,3.041-8.261,4.641-12.366a319.564,319.564,0,0,1,23.665-48.132,299.032,299.032,0,0,1,31.137-42.89,282.509,282.509,0,0,1,37.622-35.919q10.087-7.974,20.786-14.931c7.205-4.678,14.376-9.413,21.866-13.5q2.8-1.527,5.635-2.974c.571-.292.235-3.077-.18-2.909" transform="translate(-2.397 -168.808)" fill="#161616"/><path d="M1099.658,278.379c-.323,14.661-1.264,29.314-2.743,43.881s-3.612,29.045-6.327,43.37c-2.708,14.29-6.034,28.447-9.929,42.379-3.963,14.18-8.572,28.134-13.591,41.875-2.552,6.989-5.1,13.96-7.878,20.839-2.806,6.945-5.7,13.883-8.76,20.686-.757,1.678-1.536,3.343-2.318,5.007a2.252,2.252,0,0,0-.1,1.439c.06.218.276.778.5.363,3.307-6.215,6.594-12.429,9.61-18.834q2.262-4.8,4.4-9.675c1.456-3.332,3-6.6,4.361-9.982a433.925,433.925,0,0,0,14.259-41.71q6.212-21.576,10.507-43.779,4.3-22.311,6.576-45.035c1.527-15.049,2.384-30.211,2.411-45.361q0-2.745-.009-5.49c0-.322-.07-1.449-.516-1.436s-.447,1.183-.453,1.463" transform="translate(-258.278 -40.632)" fill="#161616"/><path d="M1779.393,1269.211c4.518,21.127,1.782,43.326-5.032,63.42-6.774,19.977-17.9,37.883-30.422,53.757-13.073,16.572-27.806,31.425-42.808,45.706q-5.885,5.6-11.841,11.106c-4.122,3.794-8.165,7.681-12.329,11.417-8.18,7.338-16.481,14.5-24.81,21.617-4.138,3.537-8.2,7.224-12.378,10.688q-6.4,5.3-12.839,10.549c-8.482,6.917-16.989,13.792-25.46,20.727q-3.141,2.572-6.283,5.143c-.347.284-.136,2.008.189,1.763,8.8-6.645,17.594-13.3,26.3-20.094q6.467-5.044,12.906-10.134c4.261-3.371,8.612-6.6,12.86-9.986,17.171-13.7,34.159-27.835,50.406-42.914,15.494-14.38,30.759-29.442,44.24-46.26,13.112-16.359,24.681-34.683,31.844-55.352,7.044-20.326,10.438-42.59,7.254-64.3-.382-2.6-.828-5.188-1.377-7.753-.234-1.1-.524.443-.425.9" transform="translate(-393.111 -186.053)" fill="#161616"/><path d="M1259.153,3256.331q-2.21-2.672-4.41-5.356a29.439,29.439,0,0,1-4.356-6.157c-.427-.924-.991-.623-1.252.254a4.14,4.14,0,0,0,.305,3.176c2.067,2.45,4,5.049,6.054,7.508l6.1,7.283q5.938,7.093,11.931,14.124,12.084,14.238,24.177,28.465,24.036,28.2,48.1,56.369l12.247,14.333c3.665,4.289,7.187,8.928,11.275,12.713,3.5,3.241,7.732,5.175,12.3,4.764a21.13,21.13,0,0,0,12.056-5.6c7.662-6.928,11.063-17.85,14.42-27.884a246.945,246.945,0,0,1,11.987-29.559,261.935,261.935,0,0,1,15.869-27.746c5.861-9.066,12.4-17.487,18.948-25.915,1.606-2.067,3.268-4.078,4.947-6.07.537-.636.155-4.008-.625-3.3-3.6,3.254-7.1,6.626-10.415,10.246a152.02,152.02,0,0,0-9.659,11.911,209.348,209.348,0,0,0-16.768,26.6,242.983,242.983,0,0,0-13.241,29.306c-1.888,5.045-3.518,10.2-5.278,15.3a66.669,66.669,0,0,1-6.437,14.319c-4.759,7.43-13.723,13.89-22.053,10.469-4.594-1.886-7.937-6.145-11.257-10l-12.121-14.084q-23.943-27.817-47.911-55.607-23.91-27.709-47.976-55.245c-1.93-2.2-3.987-4.247-5.909-6.451q-.168,2.024-.338,4.047a7.332,7.332,0,0,1,2.469,1.748c.69.678,1.36,1.384,2.039,2.076q2.315,2.358,4.617,4.728c.246.252.3-.579.157-.753" transform="translate(-307.823 -476.061)" fill="#161616"/><path d="M1362.61,3307.071a3.1,3.1,0,0,1,.854,1.032q.131.431.271.857a3.178,3.178,0,0,0,.616.932c.661.663,1.448,1.218,2.157,1.816,1.433,1.206,2.862,2.409,4.319,3.579,2.842,2.281,5.658,4.6,8.5,6.88,5.7,4.585,11.518,9.014,17.162,13.691.783.649,1.351-1.088,1.446-1.612a78.389,78.389,0,0,1,8.115-23.622,79.869,79.869,0,0,1,6.94-10.759c1.249-1.622,2.558-3.18,3.938-4.66,1.49-1.6,2.922-3.244,4.4-4.853.438-.478.875-.955,1.295-1.453.334-.4.646-1,1.157-.912a4.1,4.1,0,0,1,1.869,1.213,4.4,4.4,0,0,1,.56,4.885c-.132.31.036,1.971.443,1.375,2.219-3.251.989-9.02-1.557-11.609a6.2,6.2,0,0,0-.953-.813c-.535-.36-.843-.5-1.427-.218a21.082,21.082,0,0,0-2.668,1.562,18.755,18.755,0,0,0-2.541,1.892q-1.328,1.292-2.591,2.667a74.656,74.656,0,0,0-15.23,25.3,83.322,83.322,0,0,0-4.2,17.439l1.56-2.433c-5.764-4.047-11.385-8.377-17.095-12.526-2.793-2.029-5.606-4.021-8.4-6.054-1.442-1.049-2.9-2.064-4.36-3.074-.724-.5-1.434-1.056-2.183-1.505-.276-.166-.488-.369-.833-.283a.711.711,0,0,0-.438.3,1.114,1.114,0,0,1-1.02-.26c-.329-.213-.344,1.011-.1,1.224" transform="translate(-335.792 -481.698)" fill="#161616"/><path d="M1256.295,1172.6a11.146,11.146,0,0,1,1.778-.491,1.673,1.673,0,0,1,1.028.3c.232.125.526.454.786.483a5.537,5.537,0,0,0,1.629-.518c.653-.2,1.309-.367,1.965-.55,2.376-.66,4.719-1.438,7.11-2.037a111.24,111.24,0,0,1,14.66-2.649,132.405,132.405,0,0,1,29.336.136c2.7.3,5.4.672,8.092,1.093,1.34.21,2.656.4,4,.525a16.058,16.058,0,0,0,4.291.219c.351-.062.256-1.489.025-1.671a14.375,14.375,0,0,0-3.394-1.823,34.443,34.443,0,0,0-3.682-1.436c-2.453-.73-4.917-1.375-7.417-1.863a88.363,88.363,0,0,0-14.648-1.643,107.959,107.959,0,0,0-29.548,3.309q-4.011,1.023-7.957,2.342c-1.324.444-2.622,1-3.921,1.534a2.83,2.83,0,0,0-.815.358,7.872,7.872,0,0,0-.883,1.319,6.215,6.215,0,0,1-2.469,1.667c-.268.143-.185,1.461.03,1.4" transform="translate(-309.58 -170.309)" fill="#161616"/><path d="M1355.136,1127.947a58.8,58.8,0,0,1,14.606,5.979,60.559,60.559,0,0,1,12.491,9.85q1.516,1.516,2.927,3.15c.927,1.073,1.778,2.29,2.741,3.314.169.18.175-1,.1-1.16a39.8,39.8,0,0,0-4.784-7.407,43.854,43.854,0,0,0-19.484-14.12,36,36,0,0,0-8.648-1.905c-.4-.036-.437,2.173.05,2.3" transform="translate(-333.901 -165.176)" fill="#161616"/><path d="M1425.822,1161.47c3.953-10.044,12.165-16.882,21.058-20.669,1.316-.561,2.677-1.05,4.009-1.541s2.778-.533,4.091-1.072c.307-.126.269-1.416-.033-1.532a9.87,9.87,0,0,0-3.714-.4c-.6.013-1.17-.1-1.768-.028q-.943.106-1.878.279a22.421,22.421,0,0,0-6.843,2.486,30.943,30.943,0,0,0-11.294,10.938,40.848,40.848,0,0,0-4.1,8.763,4.684,4.684,0,0,0-.1,2.215c.047.255.315,1.211.57.564" transform="translate(-351.25 -166.725)" fill="#161616"/><path d="M1427.981,1187.613c.247.6-.015-.543.1-.48-.032-.017-.063.107-.113.1-.1-.006-.311.137-.437.158a2.728,2.728,0,0,1-1.24-.154,3.062,3.062,0,0,1-1.151-.628c-.1-.094-.23-.3-.3-.357.34.245-.169,1.652-.053,1.969l.063-.071q.254-.3.244.461a.549.549,0,0,0,.4.389,144.011,144.011,0,0,1,22.88,1.221c3.752.506,7.5,1.119,11.225,1.867a34.034,34.034,0,0,0,5.626.623c.937.034,1.857.063,2.789.185a13.655,13.655,0,0,0,2.777.328c.445-.035.333-1.916.032-2.129a14.814,14.814,0,0,0-2.528-1.251c-1.015-.465-2-.976-3-1.478a26.075,26.075,0,0,0-5.466-2.144,106,106,0,0,0-11.406-2.2,120.967,120.967,0,0,0-23.052-.888.561.561,0,0,0-.387.412c-.215.53-.283.9-.449,1.427.072-.229.117-.329-.041-.094a2.586,2.586,0,0,0-.314.92,5.124,5.124,0,0,0,.1,2.539,2.178,2.178,0,0,0,1.818,1.288,2.2,2.2,0,0,0,2.122-.5,3.225,3.225,0,0,0-.031-3.051c-.173-.334-.292.177-.319.326a2.308,2.308,0,0,0,.111,1.206" transform="translate(-350.979 -173.583)" fill="#161616"/><path d="M1224.055,1077.6q.73-.02,1.46-.037a2.507,2.507,0,0,1,1.916.536c.772.6,1.913.305,2.853.276,1.95-.064,3.9-.079,5.85-.128,4.024-.1,8.051-.068,12.074.062,4.077.131,8.169.358,12.236.7q3.007.253,6.007.6c1.982.231,4,.69,5.988.782.544.026,1.078-.065,1.623-.021.6.05,1.206.145,1.806.222,1.082.136,2.161.284,3.245.4,2.271.243,4.536.591,6.813.749.424.03.381-2.029-.047-2.2a93.755,93.755,0,0,0-11.907-3.4c-.986-.248-1.894-.614-2.9-.775q-1.632-.261-3.267-.493-2.907-.412-5.823-.734a160.77,160.77,0,0,0-24.3-.825c-2.261.093-4.506.266-6.759.5q-.82.083-1.641.176a3.807,3.807,0,0,0-1.639.294c-.153.1-.156.172-.282.287-.794.72-.72.71-1.521.847-.607.1-1.213.207-1.82.314-.387.067-.327,1.875.041,1.865" transform="translate(-301.608 -157.477)" fill="#161616"/><path d="M878.677,290.214q2.039,11.932,4.239,23.826c.713,3.889,1.42,7.779,2.169,11.659.695,3.6,1.681,7.1,2.615,10.631.164.62.342-.485.318-.673-.514-4.114-.951-8.246-1.693-12.315-.72-3.946-1.479-7.882-2.237-11.82-1.484-7.721-2.992-15.435-4.572-23.131-.1-.479-.295-1.138-.71-.62-.4.5-.228,1.87-.13,2.445" transform="translate(-216.531 -42.197)" fill="#161616"/><path d="M847.056,349.679c-2.789-1.7-5.564-3.436-8.368-5.106-1.365-.812-2.718-1.66-4.117-2.393-.671-.352-1.335-.718-2.026-1.019-.341-.149-.684-.292-1.026-.438-.512-.218-.616-.288-1.075.075-.5.4-.495,1.828-.5,2.366a6.41,6.41,0,0,0,.43,2.807q-.587-2.868-.3-1.007a3.992,3.992,0,0,0,.3,1.007,2.547,2.547,0,0,0,1.049,1.234c.675.481,1.344.951,2.047,1.381,1.449.887,2.924,1.689,4.411,2.492,2.933,1.585,5.893,3.105,8.84,4.655.868.457,1.015-1.657,1.04-2.218a10.321,10.321,0,0,0-.141-2.41c-.08-.411-.2-1.207-.56-1.425" transform="translate(-204.549 -49.969)" fill="#161616"/><path d="M956.415,181.708l1.835-.316c.732-.125,1.667-.541,1.976.613.049.183.313.975.635.916,2.386-.439,4.776-.853,7.153-1.343l3.484-.718a16.427,16.427,0,0,0,3.664-.886,20.384,20.384,0,0,1,3.478-.964c1.166-.3,2.323-.622,3.478-.979.609-.189,1.228-.355,1.829-.573.655-.237,1.191-.623,1.822-.909a13.929,13.929,0,0,0,3.357-1.637c.335-.272.305-1.868-.121-2.027-1.16-.433-2.32-.144-3.5-.243a11.435,11.435,0,0,0-1.844-.133c-.552.038-1.1.111-1.654.168-2.379.247-4.781.868-7.162.909a19.651,19.651,0,0,0-3.485.643l-3.484.718c-2.389.492-4.767,1.061-7.147,1.6-.547.125-.633,1.129-.717,1.6-.188,1.044-2.854,1.24-3.637,1.427-.457.109-.311,2.194.046,2.132" transform="translate(-235.638 -25.31)" fill="#161616"/><path d="M1065.176,165.1c2.827.439,5.654.64,8.49.916a35.327,35.327,0,0,0,8.455-.568,30.281,30.281,0,0,0,4.085-.852c.686-.2,1.333-.57,2.013-.812q1.083-.385,2.151-.815c1.273-.51,2.533-1.057,3.761-1.694.669-.346,1.234-.87,1.9-1.235q1.027-.562,2.036-1.167a56.919,56.919,0,0,0,8.288-6.013c.2-.18.1-1.364-.12-1.218a59.893,59.893,0,0,1-7.45,4.281,16.514,16.514,0,0,1-3.814,1.578,28.858,28.858,0,0,0-3.921,1.226,22.54,22.54,0,0,1-4.005,1.137,39.472,39.472,0,0,0-4.073.89,61.6,61.6,0,0,1-8.425,1.428,49.8,49.8,0,0,1-9.428.218c-.486-.048-.552,2.6.059,2.7" transform="translate(-262.417 -22.248)" fill="#161616"/><path d="M586.612,486.769c-5.165-4.487-11.078-8.407-17.511-9.945a39.811,39.811,0,0,0-9.511-1.073,29.2,29.2,0,0,0-9.446,1.66c-.9.308-1.773.684-2.641,1.078s-1.633.949-2.475,1.426a17.75,17.75,0,0,0-4.9,3.49c-.238.273-.394,2.278.137,2.223a21.448,21.448,0,0,0,4.343-1.414,20.337,20.337,0,0,1,2.182-.461c.787-.177,1.566-.4,2.357-.563a72.507,72.507,0,0,1,9.278-1.237,40.023,40.023,0,0,1,9.38.426c1.552.255,3.135.481,4.663.882s3,1.066,4.523,1.428a22.089,22.089,0,0,1,4.805,2.053,26.068,26.068,0,0,1,4.638,3.055c.464.375.777-2.511.182-3.027" transform="translate(-133.066 -69.809)" fill="#161616"/><path d="M480.252,529.954c.042.989.069,1.973.078,2.962l.154-1.085a6.167,6.167,0,0,0-.423,3.21c.014.988.026,1.974.064,2.962.083,2.115.154,4.231.249,6.345.182,4.089.39,8.177.595,12.264.413,8.26,1.1,16.505,1.845,24.734.088.975.493.477.487-.239-.074-8.322-.182-16.656-.593-24.967-.2-4.087-.381-8.178-.611-12.263-.119-2.114-.249-4.228-.374-6.341-.063-1.073-.151-2.142-.242-3.212-.069-.827-.039-2.1-.723-2.626l.268.867c-.079-.875-.144-1.748-.192-2.626-.01-.172-.034-1.046-.312-1.008s-.276.839-.268,1.024" transform="translate(-118.312 -77.613)" fill="#161616"/><path d="M498.293,2134.407c-.323.146-.646.294-.967.448a2.606,2.606,0,0,1-.478.233c-.137.027-.359-.061-.48-.026a7.154,7.154,0,0,0-1.894,1.444,40,40,0,0,0-3.643,3.284,59.643,59.643,0,0,0-6.278,7.839,65.492,65.492,0,0,0-8.729,19.437c-.541,1.984-.916,4.1-1.271,6.133a27.2,27.2,0,0,0-.61,6.261c.008.13.164.852.36.468a7.34,7.34,0,0,0,.467-1.828c.168-.8.339-1.6.521-2.394a37.723,37.723,0,0,1,1.24-4.5c.574-1.583,1.014-3.225,1.613-4.8q.869-2.29,1.9-4.5a71.79,71.79,0,0,1,10.532-16.659c1.22-1.411,2.466-2.812,3.747-4.15.662-.691,1.37-1.323,2.044-2a15.391,15.391,0,0,0,.891-1.268c.368-.452.772-.873,1.161-1.3.248-.273.234-2.289-.13-2.125" transform="translate(-116.803 -313.201)" fill="#161616"/><path d="M458.009,2142.077c-.738-1.812-1.321-3.676-1.891-5.562q.083.567.166,1.134a12.2,12.2,0,0,0-.3-3.494c-.122-.453-.26-.9-.379-1.354q-.272-1.034-.491-2.084c-.349-1.676-.638-3.283-.809-4.682a39.988,39.988,0,0,1-.348-4.608c-.024-.923-.026-1.847-.016-2.771-.007.666.023-.683.027-.805q.025-.609.063-1.218a75.608,75.608,0,0,1,1.432-10.093,45.213,45.213,0,0,1,1.274-5.509c.6-1.781,1.368-3.485,1.961-5.265.057-.172-.028-1.583-.257-1.3a15.868,15.868,0,0,0-1.839,3.284c-.521,1.117-1.045,2.21-1.577,3.313a31.81,31.81,0,0,0-2.359,8.065,60.444,60.444,0,0,0-.26,19.126,57.816,57.816,0,0,0,2.364,10.323c.116.352.3.819.674.889l.5.094-.343-.451a44.622,44.622,0,0,0,2.12,4.341c.266.493.39-1.107.283-1.369" transform="translate(-111.345 -307.335)" fill="#161616"/><path d="M1119.054,2042.292a4.744,4.744,0,0,1,.946-.738,8.25,8.25,0,0,0,1-.35,4.551,4.551,0,0,1,1.144-.592c.569-.1.562.418,1.042.6.513.191,1.334-.5,1.829-.75q1.058-.531,2.149-.974a32.449,32.449,0,0,1,8.644-2.173,40.188,40.188,0,0,1,8.9-.02,14.426,14.426,0,0,0,2.3.281c.3-.018.564-.193.845-.235a5.127,5.127,0,0,1,1.127.05,8.125,8.125,0,0,0,1.116.095,5.955,5.955,0,0,1,1.1-.1,10.953,10.953,0,0,0,2.16.166c.418-.037.229-1.552.028-1.77a11.533,11.533,0,0,0-2.135-1.752,26.008,26.008,0,0,0-2.189-1.56c-.368-.2-.768-.357-1.118-.594a7.724,7.724,0,0,0-1.115-.788,10.538,10.538,0,0,0-2.266-.589,25.707,25.707,0,0,0-9.193-.143,31.532,31.532,0,0,0-8.884,2.909c-1.336.663-3.476,1.361-3.958,3.06-.31,1.092-1.041,1.486-1.782,2.219-.361.357-.586.771-.926,1.148-.278.308-.634.562-.936.841s-.094,1.977.171,1.764" transform="translate(-275.725 -297.882)" fill="#161616"/><path d="M1189.667,2101.505a25.063,25.063,0,0,1,2.959,3.354q-.086-.444-.173-.889c.066,1.1.009,2.7.785,3.522a8.633,8.633,0,0,0,1.469,1.072,26.367,26.367,0,0,0,3.1,1.809,23.91,23.91,0,0,0,6.411,2.142,18.57,18.57,0,0,0,3.306.051,25.472,25.472,0,0,0,3.456-.236,18.618,18.618,0,0,0,3.287-.7,29.738,29.738,0,0,0,3.193-1.558c2.329-1.087,4.974-2.55,6.526-4.877.156-.234.235-1.845-.185-1.8a15.442,15.442,0,0,0-3.472,1.4,28.631,28.631,0,0,1-3.722,1.21,18.347,18.347,0,0,1-2.068.093c-.611.078-1.222.156-1.834.225a25.272,25.272,0,0,1-3.983.128q-.935-.042-1.866-.154c-.751-.09-1.4-.386-2.128-.538-1.316-.274-2.612-.525-3.909-.916a25.508,25.508,0,0,1-7.214-3.407.334.334,0,0,0-.5.014c-1.086,1.464-.842,1.52-1.588.921-.212-.169-.417-.342-.619-.526-.408-.373-.8-.773-1.183-1.177-.1-.1-.2.667-.051.837" transform="translate(-293.19 -308.249)" fill="#161616"/><path d="M1499.077,2479.929c-2.619-.312-5.255-.548-7.866-.94-2.5-.376-4.976-.882-7.5-1.133-5.112-.512-10.225-.992-15.347-1.363-2.481-.18-4.989-.111-7.477-.221s-4.985-.227-7.479-.329c-2.615-.108-5.234-.172-7.85-.226-2.5-.052-4.976.134-7.471.024-5.733-.251-11.459-.458-17.2-.515-.338,0-.342,1.744.039,1.8,5.113.734,10.229,1.36,15.359,1.922s10.231,1.487,15.364,2.131c4.988.626,10.006.987,14.981,1.738,5.055.764,10.25.857,15.342,1.13,2.872.153,5.721.2,8.6.132,2.86-.065,5.74.152,8.6.25.811.027.847-4.286-.1-4.4" transform="translate(-350.135 -363.214)" fill="#161616"/><path d="M998.639,2484.4c-3.377-1.492-6.709-3.027-10.139-4.364-1.763-.688-3.493-1.439-5.277-2.051-1.7-.584-3.4-1.172-5.092-1.8-3.463-1.293-7.035-2.284-10.541-3.414-3.43-1.1-6.881-2.076-10.353-3-.958-.253-1.931-.437-2.9-.636a3.873,3.873,0,0,0-1.448-.192c-.194.037-.351.172-.536.21a3.5,3.5,0,0,1-.906-.128,20.214,20.214,0,0,0-2.889-.111c-1.007,0-2.066-.364-3.079-.451-.453-.038-.414,2.194-.038,2.392.754.394,1.5.742,2.279,1.071,1.028.434,1.908,1.164,2.927,1.645q.631.3,1.26.591c.427.2.663.584,1.062.835a16.179,16.179,0,0,0,2.6,1.1c3.392,1.368,6.884,2.439,10.362,3.49,6.907,2.086,13.867,4.07,20.877,5.611l2.9.637c.972.214,1.931.328,2.9.5s1.927.521,2.9.607c1.032.09,2.05.264,3.078.436.542.09.571-2.752.053-2.981" transform="translate(-232.943 -362.222)" fill="#161616"/><path d="M1018.857,2502.016c-.608.482-1.6,1.681-2.338,1.148a.151.151,0,0,0-.227.006,78.806,78.806,0,0,0-9.035,7.323,47.262,47.262,0,0,0-4.072,4.318q-1.983,2.247-3.866,4.605a106.775,106.775,0,0,0-13.472,21.616c-.556,1.2-.943,2.47-1.478,3.689-.5,1.145-1.01,2.292-1.45,3.471-.912,2.444-1.75,4.927-2.569,7.412-.088.267.1,1.739.316,1.275.863-1.869,1.8-3.677,2.775-5.475.455-.841.876-1.707,1.316-2.558.246-.475.481-.974.753-1.431.248-.418.573-.708.827-1.127,2.2-3.638,4.3-7.345,6.55-10.942a181.226,181.226,0,0,1,15.79-20.789c1.631-1.926,3.3-3.828,5.051-5.608.848-.861,1.678-1.725,2.493-2.627.56-.62.694-1.509,1.248-2.112a15.239,15.239,0,0,1,1.484-1.263c.18-.152.06-1.053-.1-.93" transform="translate(-241.614 -367.143)" fill="#161616"/><path d="M580.688,2159.692a11.011,11.011,0,0,1-2.171-.419,14.525,14.525,0,0,0-2.539-.69c-.724-.139-1.448-.388-2.174-.484a24.845,24.845,0,0,0-2.527-.077c-3.12-.08-6.264-.212-9.385-.148q-9.287.189-18.545,1.119a210.246,210.246,0,0,0-37.047,7.253c-1.7.493-3.429.963-5.1,1.6-.834.315-1.609.8-2.447,1.1-.869.309-1.75.58-2.623.876-1.7.576-3.387,1.164-5.054,1.845a42.634,42.634,0,0,0-4.938,2.15c-.353.2-.307,2.23.134,2.191a41.186,41.186,0,0,0,4.528-.9c1.521-.312,3.03-.659,4.542-1.014a27.574,27.574,0,0,1,4.561-.92,30.919,30.919,0,0,0,4.4-.674c6.126-1.256,12.27-2.4,18.435-3.378,6.116-.975,12.284-1.675,18.43-2.368q9.243-1.041,18.53-1.554c3.486-.188,6.964-.444,10.453-.545q1.352-.04,2.7-.066a15.437,15.437,0,0,0,2.518-.328c1.808-.327,3.564-.8,5.386-.973.756-.072.694-3.471-.078-3.6" transform="translate(-119.758 -316.643)" fill="#161616"/><path d="M232.849,1928.164a23.367,23.367,0,0,1-2.572-1.31,10.135,10.135,0,0,0-2.84-1.062c-1.858-.491-3.748-.915-5.63-1.274a42.306,42.306,0,0,0-11.048-.306,48.288,48.288,0,0,0-21.54,7.509,12.306,12.306,0,0,0-1.417,1.293c-.411.351-.869.645-1.295.974a31.8,31.8,0,0,0-2.648,2.266c-.478.462-.862,1-1.329,1.467-.391.388-.814.74-1.212,1.119-.891.845-1.742,1.746-2.581,2.657-.258.281-.166,1.982.179,1.731a22.094,22.094,0,0,1,4.8-2.942c.714-.273,1.4-.685,2.093-1.024a11.137,11.137,0,0,1,2.573-1.255c.24-.039.44.057.673,0a3.555,3.555,0,0,0,.642-.306c.368-.179.737-.356,1.108-.527.907-.419,1.824-.812,2.743-1.2q2.5-1.051,5.071-1.847a81.145,81.145,0,0,1,10.811-2.408,55.175,55.175,0,0,1,11.028-.732c2.086.077,4.141.079,6.218.358a22.892,22.892,0,0,0,2.927.443c.48,0,.962-.131,1.443-.121a11.682,11.682,0,0,1,1.728.263c.709.125.738-3.462.072-3.768" transform="translate(-44.016 -282.326)" fill="#161616"/><path d="M131.193,1804.667a20.081,20.081,0,0,1-2.417,2.694,16.363,16.363,0,0,1-2.837,2.63c-1.02.573-1.9,1.6-2.971,2.034a26.816,26.816,0,0,0-3.232,1.916c-1.067.626-2.233,1.112-3.337,1.663a33.863,33.863,0,0,1-3.609,1.538,47.876,47.876,0,0,1-7.4,1.917c-1.377.261-2.766.388-4.15.583-.717.1-1.434.167-2.154.23a2.148,2.148,0,0,0-1.99,1.276,4.256,4.256,0,0,0,.072,3.338,2.3,2.3,0,0,0,1.616,1.381c.668.122,1.346.185,2.02.24a19.653,19.653,0,0,0,3.878-.114,27.884,27.884,0,0,0,7.566-2.066,26.131,26.131,0,0,0,7.068-3.937c1.067-.923,2.2-1.743,3.257-2.683.55-.489.942-1.16,1.462-1.7s1.045-1.091,1.538-1.669c.6-.7,1.069-1.535,1.645-2.269q.763-.972,1.478-1.989c.947-1.344,1.773-2.9,2.6-4.349.077-.135-.022-.777-.1-.667" transform="translate(-23.855 -264.814)" fill="#161616"/><path d="M75.879,1624.04c-2.548.207-5.061-.038-7.6-.026-1.237.006-2.471.005-3.707.041a5.72,5.72,0,0,1-1.857-.112,6.858,6.858,0,0,0-2.044-.2q.05,2.31.1,4.621c.427-.043.855-.109,1.283-.135.214-.009.428-.013.642-.008a.674.674,0,0,1,.719.277c.711.335,1.749-.149,2.474-.331,1.587-.4,3.155-.887,4.711-1.417a66.49,66.49,0,0,0,9.414-4.054,25.763,25.763,0,0,0,4.406-2.569c1.471-1.195,3.029-2.228,4.53-3.384,1.445-1.113,2.684-2.468,4.089-3.625,1.456-1.2,2.865-2.452,4.235-3.774.375-.361.2-2.582-.233-2.276-1.424,1.012-2.861,2.009-4.318,2.96-1.316.86-2.855,1.412-4.24,2.15a26.282,26.282,0,0,1-4.423,2.071,42.036,42.036,0,0,0-4.435,2.074c-3.006,1.358-6.078,2.59-9.171,3.668-1.558.543-3.133,1.026-4.709,1.5a6.4,6.4,0,0,0-2.463.839,1.617,1.617,0,0,1-.7.719q-.314.151-.636.281c-.417.16-.851.279-1.276.411-1.038.323-.726,4.79.1,4.621,1.276-.262,2.412-.852,3.685-1.074,1.3-.226,2.585-.486,3.878-.744,2.533-.5,5-1.256,7.568-1.569.2-.025.166-.948-.02-.933" transform="translate(-14.791 -235.815)" fill="#161616"/><path d="M131.381,1441.678a11.507,11.507,0,0,1,3.862,2.882c-.1-.239-.2-.477-.293-.716a4.863,4.863,0,0,0,.65,2.024c.267.347.6.645.888.978a21.748,21.748,0,0,1,1.5,1.993,22.611,22.611,0,0,1,2.3,4.291,25.249,25.249,0,0,1,1.25,4.422c.157.789.408,1.327.546,1.937a17.213,17.213,0,0,1,.148,2.062c.021.255.22.834.38.321a13.4,13.4,0,0,0,.318-2.293,19.526,19.526,0,0,0,.2-2.7,20.312,20.312,0,0,0-1.343-6.932,21.561,21.561,0,0,0-5.894-8.981.264.264,0,0,0-.4.011c-.568.466-.674.128-1.154-.192-.3-.2-.6-.364-.907-.549-.627-.384-1.248-.756-1.9-1.075-.523-.254-.674,2.249-.149,2.512" transform="translate(-32.3 -211.179)" fill="#161616"/><path d="M153.063,1428.625a42.708,42.708,0,0,0,5.572,1.67c1.931.448,3.85.948,5.8,1.282a76.921,76.921,0,0,0,11.515,1.137,48.423,48.423,0,0,0,11.3-1.021c1.868-.409,3.73-.824,5.579-1.335a15.44,15.44,0,0,0,2.425-.958c.986-.455,2.059-.724,3.072-1.1a59.39,59.39,0,0,0,11.977-5.782c.286-.188.169-1.825-.1-1.732-3.561,1.211-7.052,2.559-10.666,3.578q-1.363.384-2.735.719c-.428.1-.863.232-1.3.305-.489.083-.979,0-1.468.062-1.86.239-3.711.77-5.572,1.054-3.737.572-7.521.938-11.285,1.29a86,86,0,0,1-11.492.335c-2.1-.085-4.2-.141-6.284-.427-2.13-.292-4.25-.665-6.377-.977-.367-.054-.365,1.745.041,1.9" transform="translate(-37.648 -208.484)" fill="#161616"/><path d="M184.66,1352.707a20.218,20.218,0,0,1,2.167,1.573c.349.314.7.624,1.06.916a2.033,2.033,0,0,0,.6.326,2.279,2.279,0,0,0,.256.081.4.4,0,0,0,.306-.071c.165-.083.188-.561.2-.716a2.839,2.839,0,0,0-.1-.986,11.351,11.351,0,0,0-1.958-3.37c-.717-.98-1.333-2.06-1.98-3.1a.583.583,0,0,0-.447-.386l-.228.11a1.738,1.738,0,0,0-.366.76,4.752,4.752,0,0,0-.159.944,8.968,8.968,0,0,0,.048,2.247,4.771,4.771,0,0,0,.2.933,1.73,1.73,0,0,0,.4.739" transform="translate(-45.34 -197.654)" fill="#161616"/><path d="M195.6,1346.156a7.668,7.668,0,0,1-.311-.846c-.012-.039-.136-.481-.085-.284s-.051-.243-.06-.282c-.124-.555.032.449-.013-.124-.013-.171-.033-.343-.055-.512-.064-.484,0,.44,0,.112a1.635,1.635,0,0,0-.009-.416q-.017.634-.006.313c0-.081.007-.163.011-.244.011-.177.107-.712-.006.038-.022.1-.044.207-.066.311.048-.177.042-.18-.018-.009q-.167.434.128-.367l.132-.636a10.969,10.969,0,0,0,.109-1.1c.044-.625-.1.606.008-.044.026-.158.046-.317.072-.475.013-.074.1-.549.075-.412a12.371,12.371,0,0,1,.579-1.634,8,8,0,0,1,.926-1.86,10.236,10.236,0,0,1,2.729-2.505c.293-.179.234-1.869-.112-1.8a5.958,5.958,0,0,0-3.266,1.886c-.216.235-.458.313-.678.532a4.741,4.741,0,0,0-.6.808,14.486,14.486,0,0,0-.9,1.553,8.064,8.064,0,0,0-.456,1.16,7.055,7.055,0,0,0-.243,1.532q-.023,1.481-.011.367c0,.059-.005.119-.008.177q-.016.476-.02.95.016-.713,0-.246c-.016.36-.02.722-.018,1.082,0,.571.037,1.144.09,1.712a11.029,11.029,0,0,0,1.528,4.85c.456.712.754-.312.825-.765a5.24,5.24,0,0,0-.282-2.821" transform="translate(-47.675 -195.658)" fill="#161616"/><path d="M217.771,1329.815a5.7,5.7,0,0,1,1.5.072c.581.213.659.744,1.144.955a4.573,4.573,0,0,0,1.313.1c.438.033.876.057,1.313.1a11.991,11.991,0,0,0,4.963-.569,10.5,10.5,0,0,1,2.51-.3c.872-.076,1.749-.165,2.616-.294,1.741-.26,3.487-.465,5.229-.728.494-.074.449-2.258-.051-2.333-1.752-.262-3.508-.475-5.26-.727-.873-.126-1.753-.219-2.629-.3a10.816,10.816,0,0,1-2.524-.306,12.223,12.223,0,0,0-4.987-.563c-.373.037-.748.056-1.122.085a4.979,4.979,0,0,0-1.5.113c-.482.228-.5.729-1.1.955a5.643,5.643,0,0,1-1.5.073c-.764.038-.718,3.627.079,3.666" transform="translate(-53.518 -194.41)" fill="#161616"/><path d="M283.04,1330.624a8.066,8.066,0,0,0,3.694,3.316,12.277,12.277,0,0,0,2.32.61,7.7,7.7,0,0,0,1.3.139,6.623,6.623,0,0,0,1.219-.236,11.6,11.6,0,0,0,2.426-.6,14.372,14.372,0,0,0,2.206-1.3,9.632,9.632,0,0,0,3.523-4.043,1.829,1.829,0,0,0,.076-1c-.012-.071-.148-.666-.293-.456a8.484,8.484,0,0,1-3.463,2.979,6.78,6.78,0,0,1-2.215.407,10.2,10.2,0,0,1-2.252.01,14.224,14.224,0,0,1-2.261-.648,6.108,6.108,0,0,1-2.094-1.08,11.325,11.325,0,0,1-3.328-3.726c-.628-1.244-1.213.607-1.3,1.2-.179,1.269-.269,3.307.443,4.435" transform="translate(-69.618 -194.365)" fill="#161616"/><path d="M326.269,1283.031c-.882-.352-1.762-.692-2.656-1-.457-.159-.593,2.748-.053,3.062a6.938,6.938,0,0,1,1.1.681c.5.437.619,1.143,1.046,1.628a7.284,7.284,0,0,0,2.219,1.27c1.454.74,2.94,1.43,4.444,2.034a95.788,95.788,0,0,0,9.252,3.166,74.8,74.8,0,0,0,9.459,2.027q2.385.364,4.783.6a32.427,32.427,0,0,0,4.8.311c.925-.046,1.814-.3,2.744-.345s1.835-.106,2.751-.178a23.824,23.824,0,0,0,5.5-.862c.627-.2.585-2.822-.064-2.966a37.521,37.521,0,0,0-4.838-.562,24.4,24.4,0,0,1-4.833-.618c-3.044-.919-6.325-.953-9.446-1.5a110.721,110.721,0,0,1-18.78-4.994c-1.68-.614-3.358-1.238-5.025-1.89-.791-.31-1.588-.691-2.4-.934-.746-.225-.584.281-1.176.474-.46.151-1.047-.216-1.484-.4l.068,3.115c.879.189,1.759.344,2.645.486.479.078.486-2.382-.057-2.6" transform="translate(-79.659 -188.105)" fill="#161616"/><path d="M368.025,1258.841c.112.492,0-.567.057-.55a3.13,3.13,0,0,1-.342.275,1.806,1.806,0,0,1-1.054.058,4.064,4.064,0,0,1-2.227-1.251,4.981,4.981,0,0,1-.405-.533c-.242-.339,0-.3-.121-.131-.014.137-.028.274-.041.411q-.185.6.035.338c.01,0,.286-.209.234-.17.285-.224.526-.478.8-.719a5.522,5.522,0,0,1,3.8-1.071,15.376,15.376,0,0,1,4.329.8c1.924.6,3.878,1.225,5.765,1.961a114.64,114.64,0,0,0,12.084,3.574,225.243,225.243,0,0,0,49.035,7.556c1.141.046,2.274-.151,3.414-.1q1.8.079,3.6.133c2.283.07,4.567.118,6.85.125,4.682.015,9.4-.1,14.065-.541.359-.034.328-1.748-.038-1.766-4.635-.232-9.273-.349-13.909-.6-2.346-.125-4.693-.258-7.037-.433q-1.624-.12-3.246-.26c-1.221-.105-2.4-.44-3.61-.6-9.171-1.223-18.349-2.24-27.448-4.091-9.064-1.845-18.1-3.748-27.062-6.185-4.323-1.176-8.609-2.55-12.94-3.679-2.683-.7-6.924-1.3-8.683,1.851-1.423,2.549-1.056,6.342,1.485,7.673a2.693,2.693,0,0,0,2.621.247c1-.667.852-2.625.6-3.687-.084-.355-.2-.849-.519-.464a3.038,3.038,0,0,0-.094,1.828" transform="translate(-89.492 -183.546)" fill="#161616"/><path d="M589.423,1258.954a6.6,6.6,0,0,1,1.119-.127c.788.057.551.212,1.036.49a3,3,0,0,0,1.593.081c1.371-.069,2.736-.179,4.105-.307,2.491-.232,4.973-.579,7.456-.9,5.159-.658,10.314-1.355,15.469-2.046,5.1-.685,10.189-1.423,15.279-2.183s10.226-1.382,15.273-2.451c5.743-1.216,11.557-2,17.315-3.145.271-.054.22-1.284-.028-1.266-5.109.367-10.192,1.024-15.295,1.469-2.609.229-5.225.375-7.836.635-2.551.254-5.1.609-7.644.92q-15.3,1.866-30.565,4.046c-2.855.411-5.728.75-8.571,1.256-1.429.255-2.86.493-4.281.807a11.445,11.445,0,0,0-1.966.464c-.358.149-.377.314-.695.606a3.14,3.14,0,0,1-1.79.549c-.237.038-.182,1.124.024,1.1" transform="translate(-145.226 -182.998)" fill="#161616"/><path d="M797.751,1234.342c5.866,1.005,11.706,2.3,17.6,3.069,5.876.763,11.77,1.391,17.679,1.707s11.8.424,17.707.34c2.952-.042,5.9-.221,8.848-.391q2.028-.116,4.053-.261c.736-.053,1.473-.107,2.209-.166.867-.07,1.7-.293,2.573-.375,6.594-.621,13.329-1.188,19.817-2.707.185-.044.154-.908-.02-.9-5.882.286-11.75,1.081-17.632,1.448-2.948.184-5.89.188-8.844.3s-5.9.107-8.853.177c-11.782.285-23.611-.023-35.373-.825-6.6-.45-13.217-.752-19.774-1.755-.055-.009-.069.32.008.334" transform="translate(-196.602 -181.077)" fill="#161616"/><path d="M956.459,1227.885c11.161,2.907,22.106,6.79,33.246,9.771a248.325,248.325,0,0,0,33.517,6.357,185.564,185.564,0,0,0,34.233.893c11.415-.689,22.752-2.421,34.15-3.348a242.694,242.694,0,0,1,33.187-.777,267.011,267.011,0,0,1,31.706,3.708c10.616,1.879,21.134,4.384,31.743,6.274,10.482,1.867,20.934,3.557,31.516,4.543,5.242.489,10.492.791,15.751.877a104.536,104.536,0,0,0,15.606-.54c5.057-.682,10.136-1.212,15.14-2.335a124.294,124.294,0,0,0,15.228-4.528c2.505-.912,4.961-1.935,7.387-3.09.251-.119.147-1.286-.026-1.233a152.136,152.136,0,0,1-30.226,6.072,202.943,202.943,0,0,1-30.928.333c-10.616-.614-21.133-1.985-31.708-3.113-5.228-.558-10.427-1.439-15.661-1.913-5.34-.483-10.673-1.223-16-1.878-21.375-2.632-42.75-5.237-64.284-4.36-11.4.464-22.782,1.364-34.186,1.7a266.03,266.03,0,0,1-34.058-1.023c-11.4-1.13-22.606-3.154-33.912-5.087-11.115-1.9-22.2-3.914-33.245-6.29-2.746-.59-5.473-1.265-8.2-1.974-.133-.034-.209.907.021.967" transform="translate(-235.695 -180.036)" fill="#161616"/><path d="M1508.653,1144.084c-3.487-2.114-7.129-3.731-10.706-5.622-1.705-.9-3.515-1.6-5.277-2.345-1.843-.779-3.65-1.678-5.516-2.386a156.957,156.957,0,0,0-22.3-6.514c-3.71-.806-7.5-1.325-11.253-1.832a69.751,69.751,0,0,0-11.5-1.025c-1.917.063-3.851-.134-5.77-.187s-3.851-.077-5.778-.069q-5.792.022-11.558.521c-4.243.364-8.489.975-12.713,1.58q-6.534.936-12.97,2.459c-.281.067-.2,1.4.029,1.366q5.721-.8,11.469-1.346,2.878-.273,5.762-.452c1.878-.117,3.731-.062,5.609-.086a220.54,220.54,0,0,1,22.97.809c1.943.177,3.84.6,5.776.814s3.842.457,5.757.731c3.765.538,7.572,1.092,11.286,1.989s7.465,1.608,11.176,2.548c3.746.946,7.485,1.956,11.195,3.072,4.112,1.237,8.233,2.4,12.286,3.879,1.965.715,3.937,1.352,5.882,2.146,2.033.828,4.068,1.611,6.12,2.375.272.1.432-2.179.03-2.424" transform="translate(-343.354 -164.949)" fill="#161616"/><path d="M1211.5,1053.013c-10.244-1.659-20.427-3.736-30.683-5.3-10.073-1.538-20.263-2.472-30.4-3.328-10.266-.866-20.542-1.443-30.829-1.829-2.479-.093-4.951-.009-7.432-.074q-3.9-.1-7.81-.172c-2.541-.045-5.083-.084-7.624-.089s-5.07.215-7.62.221c-5.7.015-11.412.039-17.114.214-5.807.178-11.69.262-17.478.839-.257.026-.233,1.287.029,1.3,5.144.251,10.306.078,15.454.239s10.3.183,15.452.324a51.254,51.254,0,0,1,7.447.313,59.55,59.55,0,0,0,7.82.474q3.909.165,7.816.365c2.467.125,4.985.119,7.441.412,5.122.612,10.292.8,15.435,1.188s10.279.8,15.417,1.217c10.14.83,20.279,1.76,30.4,2.853,11.448,1.236,22.934,1.875,34.338,3.6.43.065.556-2.666-.059-2.766" transform="translate(-259.853 -152.933)" fill="#161616"/><path d="M999.818,793.357a11.085,11.085,0,0,0,2.624.7c.926.045,1.867-.023,2.794-.031,1.814-.015,3.6.228,5.409.207,3.664-.042,7.335-.108,11,.037,7.2.286,14.416.254,21.62.477,14.458.445,28.914,1.384,43.336,2.6q6.116.518,12.23,1.049a12.941,12.941,0,0,0,2.956.059,14.966,14.966,0,0,1,2.955.083,38.245,38.245,0,0,0,6.269.017c.539-.052.433-2.51-.059-2.7a33.335,33.335,0,0,0-5.38-1.549q-1.3-.264-2.594-.521c-.964-.191-1.823-.655-2.787-.811-3.64-.586-7.29-1.09-10.942-1.569-7.156-.94-14.362-1.653-21.554-2.128-14.452-.956-28.909-1.206-43.381-.842-4.092.1-8.2.415-12.286.641-2,.111-3.955.487-5.95.644q-1.581.124-3.162.258a10.233,10.233,0,0,0-3.146,1.012c-.463.2-.434,2.214.051,2.365" transform="translate(-246.323 -115.67)" fill="#161616"/><path d="M1256.938,798.438a243.978,243.978,0,0,0,32.183,4.84c5.3.474,10.644.658,15.954.88q3.992.166,7.985.219c1.3.018,2.606.089,3.9.038,1.365-.053,2.714-.218,4.083-.223a146.986,146.986,0,0,0,18.2-.7c.35-.045.317-1.866-.04-1.9-5.37-.5-10.8-.426-16.19-.637-2.682-.1-5.327-.456-8-.6-2.728-.148-5.453-.329-8.179-.495-10.656-.648-21.26-1.863-31.894-2.82-6.025-.543-12.048-1.093-18.071-1.6-.455-.038-.526,2.865.066,3" transform="translate(-309.683 -116.721)" fill="#161616"/><path d="M1617.7,900.532a70.509,70.509,0,0,0-16.9-5.12,109.693,109.693,0,0,0-17.319-1.529,114.742,114.742,0,0,0-17.172,1.03c-2.877.413-5.755.9-8.6,1.528-1.409.311-2.78.849-4.181,1.209s-2.78.739-4.162,1.142a86.756,86.756,0,0,0-18.484,7.266c-.378.214-.213,2.418.133,2.322,2.711-.762,5.374-1.721,8.072-2.544,2.774-.847,5.571-1.58,8.381-2.252a138.983,138.983,0,0,1,16.934-2.732,152.108,152.108,0,0,1,34.327.031c6.365.73,12.692,1.721,19.04,2.58.518.071.494-2.684-.063-2.932" transform="translate(-377.25 -131.166)" fill="#161616"/><path d="M670.07,681.406c2.877-2.524,2.53-7.3,1.168-10.693a10.286,10.286,0,0,0-4.132-5.243,13.9,13.9,0,0,0-6.62-2.158,69.518,69.518,0,0,0-15.442,1.2q-3.983.664-7.93,1.582c-2.64.614-5.244,1.508-7.832,2.363q-2.2.727-4.376,1.532c-.672.248-1.344.5-2.005.783-.836.355-1.492.96-2.319,1.341-2.778,1.28-6.05,2.533-8.241,4.92-.222.242-.319,1.778.109,1.83a7.791,7.791,0,0,0,3.279-.517c1.21-.375,2.42-.751,3.627-1.139q.829-.267,1.66-.521a14.408,14.408,0,0,1,1.673-.191,37.357,37.357,0,0,0,3.686-1.167c4.719-1.453,9.513-2.548,14.316-3.581,4.706-1.012,9.466-1.811,14.231-2.37a51.714,51.714,0,0,1,6.606-.41,12.811,12.811,0,0,1,6.144,1.233,7.617,7.617,0,0,1,3.639,4.2,5.975,5.975,0,0,1-1.33,6.074c-.158.16-.038,1.042.09.93" transform="translate(-150.872 -97.321)" fill="#161616"/><path d="M671.79,645.042c.032,0,.03-.166,0-.166s-.03.166,0,.166" transform="translate(-165.564 -94.627)" fill="#161616"/><path d="M676.48,627.068a37.343,37.343,0,0,1,4.4-.91c.618-.051,1.216,0,1.838-.11.858-.153,1.711-.362,2.565-.543a11.989,11.989,0,0,1,1.838-.148c.731-.046,1.475-.221,2.2-.329,1.482-.222,2.934-.591,4.4-.937,5.609-1.327,11.245-2.465,16.851-3.812,5.755-1.384,11.48-2.912,17.2-4.452,5.607-1.51,11.353-2.808,16.828-4.846,1.561-.581,3.171-1.024,4.752-1.53.849-.271,1.733-.488,2.559-.842.734-.316,1.433-.7,2.188-.947a89.3,89.3,0,0,0,9.859-3.719c.308-.145.306-1.656-.035-1.633a67.274,67.274,0,0,0-8.8,1.375c-1.343.274-2.7.325-4.037.595-1.469.3-2.931.642-4.4.963-1.34.293-2.7.469-4.033.762-1.472.323-2.931.756-4.393,1.133-2.808.724-5.616,1.446-8.419,2.2-5.74,1.544-11.492,3.044-17.2,4.744-5.627,1.676-11.2,3.545-16.82,5.242l-4.754,1.434a22.446,22.446,0,0,0-4.487,1.754c-1.589.9-3.424,1.061-5.037,1.9a33.943,33.943,0,0,1-5.08,1.858c-.173.057-.118.828.017.8" transform="translate(-166.696 -88.381)" fill="#161616"/><path d="M646.512,687.912c-.375.552-.467,1.12-1.184.526a.289.289,0,0,0-.458.013,139.106,139.106,0,0,1-15.349,17.918c-2.839,2.8-5.818,5.374-8.854,7.887-1.507,1.247-3.046,2.44-4.6,3.61-1.6,1.2-3.067,2.585-4.711,3.7-3.679,2.488-7.589,4.521-11.246,7.039-.375.258-.3,2.587.149,2.485,3.581-.814,7.033-2.665,10.315-4.437.825-.445,1.634-.974,2.478-1.374s1.68-.709,2.511-1.2c1.687-1,3.32-2.125,4.933-3.271a97.288,97.288,0,0,0,17.587-16.28,52.213,52.213,0,0,0,4.218-5.379c.646-1,1.353-1.958,2.026-2.941.319-.465.637-.93.946-1.4a7.065,7.065,0,0,0,.813-3.411l-.224.677q.461-.709.916-1.426a2.9,2.9,0,0,0,.232-1.749c-.012-.114-.243-1.351-.5-.976" transform="translate(-147.845 -100.932)" fill="#161616"/><path d="M425.061,838.241c.339.159.683.3,1.022.462.455.212.758.56,1.172.785a10.13,10.13,0,0,0,2.061.654,27.125,27.125,0,0,0,4.185.79,26.8,26.8,0,0,0,8.884-.4,35.342,35.342,0,0,0,8.419-3,14.357,14.357,0,0,0,1.961-1.1c.633-.458,1.212-1.025,1.845-1.494a16.86,16.86,0,0,0,3.742-3.642c.136-.189.258-1.733-.1-1.635a23.351,23.351,0,0,0-3.855,1.771,13.909,13.909,0,0,1-1.9.645c-.654.216-1.3.562-1.94.822a34.146,34.146,0,0,1-8.295,2.2,45.292,45.292,0,0,1-8.585.358,39.763,39.763,0,0,1-4.184-.509c-.677-.113-1.38-.355-2.059-.405-.4-.03-.741.092-1.157.042a8.681,8.681,0,0,1-1.152-.288c-.631-.169-.778,3.6-.068,3.931" transform="translate(-104.645 -121.743)" fill="#161616"/><path d="M410.745,756.4c-1.61-6.034-5.945-11.355-11.141-13.579a16.906,16.906,0,0,0-15.659,1,12.625,12.625,0,0,0-3.572,3.573c-.277.425-.343.786-.573,1.131s-.469.734-.678,1.117a16.9,16.9,0,0,0-1.145,2.986c-.058.185,0,1.84.291,1.525.353-.381.769-.675,1.134-1.045.2-.2.384-.412.582-.611a2.154,2.154,0,0,1,.675-.428c1.072-.56,1.912-1.528,3.044-2.019,1.162-.5,2.217-1.21,3.418-1.632a20.24,20.24,0,0,1,3.707-.871,21.793,21.793,0,0,1,7.726.2,19.6,19.6,0,0,1,3.585,1.109c.535.226,1.066.305,1.6.57a11,11,0,0,1,1.646.989,17.134,17.134,0,0,1,2.958,2.526,13.4,13.4,0,0,1,2.2,4.236c.176.514.265-.577.21-.783" transform="translate(-93.152 -108.786)" fill="#161616"/><path d="M376.784,692.533l-4.1-1.1c-1.381-.373-2.729-.848-4.1-1.252s-2.73-.781-4.1-1.171c-.631-.18-1.261-.362-1.891-.541a14.162,14.162,0,0,0-2.2-.326l.582,1.148c-.543-3.814,1.409-7.774,3.542-10.6.193-.257.119-1.8-.154-1.572-3.8,3.132-4.928,9-4.529,14.018.042.524.134,1.509.66,1.708a15.814,15.814,0,0,0,2.209.789c.629.14,1.259.276,1.889.416,1.362.3,2.725.611,4.089.9s2.729.5,4.089.82l4.092.967c.6.142.883-3.935-.09-4.2" transform="translate(-88.67 -99.354)" fill="#161616"/><path d="M444.175,603.933a17.043,17.043,0,0,0-7.529-14.093,14.764,14.764,0,0,0-7.531-2.451,21.835,21.835,0,0,0-9.544,2.426,50.659,50.659,0,0,0-9.963,6.353c-.342.275-.222,2.368.137,2.223,1.378-.559,2.7-1.257,4.046-1.9,1.365-.649,2.762-1.146,4.152-1.716a32.6,32.6,0,0,1,8.633-2.238,18.032,18.032,0,0,1,7.575.587,16.024,16.024,0,0,1,6.063,3.476,10.45,10.45,0,0,1,3.456,7.345c.017,1.009.506,1.005.5-.014" transform="translate(-100.903 -86.191)" fill="#161616"/></g></g></svg>