<svg xmlns="http://www.w3.org/2000/svg" width="772.3" height="469.429" viewBox="0 0 772.3 469.429"><g transform="translate(-5951.514 -2714.783)"><path d="M0,382.609,46.979,0,154.656,13.221q20.5,2.517,35.24,9.528A64.8,64.8,0,0,1,213.63,41.268a64.8,64.8,0,0,1,12.227,27.509q3.237,16,.72,36.5L199.732,323.909q-2.517,20.5-9.528,35.24a62.06,62.06,0,0,1-46.027,35.96q-16,3.237-36.5.72ZM115.447,74.986,84.575,326.414l15.3,1.879a29.744,29.744,0,0,0,9.49-.187,16.135,16.135,0,0,0,11.967-9.35,29.745,29.745,0,0,0,2.477-9.163L149.451,100.8a29.746,29.746,0,0,0-.187-9.49,16.136,16.136,0,0,0-9.35-11.967,29.745,29.745,0,0,0-9.163-2.477Z" transform="translate(6113.39 2747.56)" fill="#fff"/><path d="M111.155,403.213,0,389.565,47.833,0,158.988,13.648q21.267,2.611,36.618,9.956a67.964,67.964,0,0,1,24.745,19.368,67.964,67.964,0,0,1,12.806,28.7q3.408,16.666.8,37.939L207.115,328.241q-2.611,21.267-9.956,36.618a65.175,65.175,0,0,1-48.064,37.552Q132.429,405.819,111.155,403.213ZM7.811,383.463l104.2,12.794q19.811,2.432,35.148-.6a58.554,58.554,0,0,0,43.92-34.314q6.661-14.159,9.081-33.96L227,108.754q2.432-19.811-.6-35.148a61.306,61.306,0,0,0-11.6-26.3,61.306,61.306,0,0,0-22.718-17.615q-14.159-6.661-33.96-9.081L53.935,7.811Zm95.547-47.786-18.783-2.306L116.3,74.986l18.783,2.306A33.3,33.3,0,0,1,145.605,80.2a19.337,19.337,0,0,1,10.952,14.017,33.3,33.3,0,0,1,.277,10.913L131.2,313.926a33.3,33.3,0,0,1-2.909,10.522A19.337,19.337,0,0,1,114.271,335.4,33.3,33.3,0,0,1,103.358,335.677Zm-10.972-8.409,11.826,1.452a26.929,26.929,0,0,0,8.121-.071,12.733,12.733,0,0,0,9.874-7.714,26.927,26.927,0,0,0,2.034-7.863l25.637-208.795a26.926,26.926,0,0,0-.071-8.121,12.733,12.733,0,0,0-7.714-9.874,26.926,26.926,0,0,0-7.863-2.034L122.4,82.8Z" transform="translate(6109.484 2743.655)" fill="#161616"/><path d="M175.806,8.156l30.419,387.605-76.441-4.006-3.11-56.41-48.394-2.536-8.439,55.805L0,384.954,70.769,2.652ZM114.813,98.705,88.946,266.092l34.646,1.816Z" transform="translate(6300.484 2784.742)" fill="#fff"/><path d="M72.055,2.7,183.232,8.526,214.2,403.179l-83.573-4.38-3.11-56.41-42.078-2.205L77,395.988,0,391.953ZM176.726,15.2l-98.9-5.183L8.346,385.372l62.679,3.285,8.439-55.805,54.71,2.867,3.11,56.41,69.309,3.632Zm-54.24,87.029,8.98,173.087-42.4-2.222,26.459-171.218Zm1.578,165.68-6.813-131.32L97.175,266.5Z" transform="translate(6296.311 2781.033)" fill="#161616"/><path d="M33.6,400.67,0,16.655,108.073,7.2q20.572-1.8,36.451,1.993a64.8,64.8,0,0,1,27.065,13.179,64.8,64.8,0,0,1,17.679,24.365q6.493,14.979,8.293,35.551l19.2,219.437q1.8,20.572-1.993,36.451a62.06,62.06,0,0,1-37.545,44.744q-14.979,6.493-35.551,8.293Zm48.966-324.9L104.64,328.119,120,326.775a29.745,29.745,0,0,0,9.243-2.156,16.136,16.136,0,0,0,9.762-11.634,29.745,29.745,0,0,0,.518-9.477L121.19,93.946a29.746,29.746,0,0,0-2.156-9.243A16.136,16.136,0,0,0,107.4,74.941a29.746,29.746,0,0,0-9.477-.518Z" transform="translate(6496.06 2750.09)" fill="#fff"/><path d="M145.771,398.5,34.208,408.262,0,17.265,111.564,7.5q21.345-1.867,37.888,2.125a67.964,67.964,0,0,1,28.231,13.8,67.964,67.964,0,0,1,18.493,25.406q6.8,15.593,8.672,36.944l19.2,219.437q1.867,21.345-2.125,37.888a65.176,65.176,0,0,1-39.206,46.724Q167.122,396.627,145.771,398.5ZM40.579,400.669l104.582-9.15q19.884-1.74,34.256-7.89a58.554,58.554,0,0,0,35.826-42.7q3.572-15.235,1.822-35.106l-19.2-219.437q-1.74-19.884-7.89-34.256a61.306,61.306,0,0,0-16.812-23.319A61.306,61.306,0,0,0,147.28,16.308q-15.235-3.572-35.106-1.822L7.593,23.636ZM124.1,334.062l-18.852,1.649L82.562,76.377l18.852-1.649a33.3,33.3,0,0,1,10.9.658A19.337,19.337,0,0,1,125.937,86.82a33.3,33.3,0,0,1,2.54,10.617L146.812,307a33.3,33.3,0,0,1-.658,10.9,19.337,19.337,0,0,1-11.434,13.627A33.3,33.3,0,0,1,124.1,334.062Zm-12.48-5.944,11.87-1.038a26.926,26.926,0,0,0,7.929-1.758,12.734,12.734,0,0,0,8.054-9.6,26.927,26.927,0,0,0,.354-8.114L121.5,98.047a26.926,26.926,0,0,0-1.758-7.929,12.733,12.733,0,0,0-9.6-8.054,26.926,26.926,0,0,0-8.114-.355l-11.87,1.038Z" transform="translate(6492.264 2746.294)" fill="#161616"/><path d="M112.34,0V33.041q17.071.413,29.875,5.094a55.089,55.089,0,0,1,21.339,13.63,56.869,56.869,0,0,1,12.8,22.165q4.268,13.217,4.268,30.7v68.836H106.834V111.79a19.068,19.068,0,0,0-.86-6.023,10.343,10.343,0,0,0-6.884-6.884,19.068,19.068,0,0,0-6.023-.86H88.11a19.068,19.068,0,0,0-6.023.86,10.343,10.343,0,0,0-6.884,6.884,19.068,19.068,0,0,0-.86,6.023v35.795a31.622,31.622,0,0,0,.826,7.331,27.336,27.336,0,0,0,2.478,6.574,28.612,28.612,0,0,0,4.13,5.817,35.692,35.692,0,0,0,5.782,5.059l63.329,46.809q4.406,3.166,8.123,6.367a86.921,86.921,0,0,1,6.746,6.436,64.38,64.38,0,0,1,5.369,6.505,48.842,48.842,0,0,1,3.992,6.574,51.3,51.3,0,0,1,2.891,7.125,67.194,67.194,0,0,1,2.065,8.157,89.89,89.89,0,0,1,1.239,9.19q.413,4.853.413,10.222v70.488q0,17.484-4.3,30.7A56.766,56.766,0,0,1,164.518,403.1a55.586,55.586,0,0,1-21.511,13.63q-12.907,4.681-30.116,5.094v35.244H68.836V421.827q-17.209-.413-30.116-5.094A55.586,55.586,0,0,1,17.209,403.1,56.766,56.766,0,0,1,4.3,380.939Q0,367.722,0,350.238v-80.4H73.792v73.242a19.067,19.067,0,0,0,.86,6.023,10.343,10.343,0,0,0,6.884,6.884,19.067,19.067,0,0,0,6.023.86h6.058a19.067,19.067,0,0,0,6.023-.86,10.343,10.343,0,0,0,6.884-6.884,19.067,19.067,0,0,0,.86-6.023V296.27a31.621,31.621,0,0,0-.826-7.331,27.337,27.337,0,0,0-2.478-6.574,28.612,28.612,0,0,0-4.13-5.817,35.691,35.691,0,0,0-5.782-5.059L30.839,224.681q-4.406-3.166-8.123-6.385a85.167,85.167,0,0,1-6.746-6.488,63.847,63.847,0,0,1-5.369-6.591,49.242,49.242,0,0,1-3.992-6.694,54.3,54.3,0,0,1-2.891-7.211,68.556,68.556,0,0,1-2.065-8.14A88.75,88.75,0,0,1,.413,174.1Q0,169.337,0,164.105V104.631q0-17.484,4.268-30.7a56.869,56.869,0,0,1,12.8-22.165,55.089,55.089,0,0,1,21.339-13.63q12.8-4.681,29.875-5.094V0Z" transform="translate(5955.019 2718.287)" fill="#fff"/><path d="M68.285,0h51.064V33.169q16.994.849,29.788,5.989a57.225,57.225,0,0,1,21.349,14.531A60.746,60.746,0,0,1,183.338,76.7q4.292,13.617,4.3,31.433v72.34h-80.8V115.294a16.34,16.34,0,0,0-.578-4.679,6.965,6.965,0,0,0-5.006-5.006,16.34,16.34,0,0,0-4.679-.578H91.615a16.339,16.339,0,0,0-4.679.578,6.964,6.964,0,0,0-5.006,5.006,16.339,16.339,0,0,0-.578,4.679v35.795a28.207,28.207,0,0,0,.723,6.5,23.8,23.8,0,0,0,2.184,5.8,25.069,25.069,0,0,0,3.665,5.127,32.36,32.36,0,0,0,5.166,4.5l63.387,46.85q4.546,3.267,8.411,6.609a90.576,90.576,0,0,1,7.035,6.743,68.249,68.249,0,0,1,5.632,6.85,51.912,51.912,0,0,1,4.2,6.931,54.322,54.322,0,0,1,3.044,7.491,71.08,71.08,0,0,1,2.182,8.562,93.73,93.73,0,0,1,1.314,9.6q.439,5.054.439,10.607v70.488q0,17.815-4.331,31.439A60.617,60.617,0,0,1,171.449,408.2a57.69,57.69,0,0,1-21.521,14.53q-12.892,5.134-30.028,5.984v35.37H68.836V428.71q-17.131-.845-30.028-5.984A57.69,57.69,0,0,1,17.287,408.2,60.617,60.617,0,0,1,4.331,385.181Q0,371.562,0,353.742v-83.9H80.8v76.746a16.339,16.339,0,0,0,.578,4.679,6.965,6.965,0,0,0,5.006,5.006,16.34,16.34,0,0,0,4.679.578h6.058a16.34,16.34,0,0,0,4.679-.578,6.965,6.965,0,0,0,5.006-5.006,16.339,16.339,0,0,0,.578-4.679V299.775a28.207,28.207,0,0,0-.723-6.5,23.8,23.8,0,0,0-2.184-5.8,25.07,25.07,0,0,0-3.665-5.127,32.362,32.362,0,0,0-5.166-4.5L32.26,231q-4.549-3.269-8.417-6.632a88.838,88.838,0,0,1-7.038-6.8,67.715,67.715,0,0,1-5.634-6.943,52.321,52.321,0,0,1-4.2-7.059A57.346,57.346,0,0,1,3.927,196,72.474,72.474,0,0,1,1.75,187.46a92.64,92.64,0,0,1-1.311-9.473Q0,173.021,0,167.609V108.135Q0,90.324,4.3,76.7A60.746,60.746,0,0,1,17.149,53.689,57.225,57.225,0,0,1,38.5,39.158q12.789-5.135,29.788-5.989ZM112.34,7.009H75.294V39.966l-3.42.083q-16.368.4-28.549,4.79A51.677,51.677,0,0,0,23.074,57.7,53.454,53.454,0,0,0,11.006,78.762q-4.007,12.6-4,29.373v59.474q0,5.005.393,9.577a86.029,86.029,0,0,0,1.177,8.691,65.758,65.758,0,0,0,1.954,7.776,50.639,50.639,0,0,0,2.727,6.833,45.644,45.644,0,0,0,3.778,6.305,61.054,61.054,0,0,0,5.127,6.258,82.471,82.471,0,0,0,6.457,6.19q3.557,3.074,7.766,6.1l63.367,46.836a38.894,38.894,0,0,1,6.377,5.6,31.953,31.953,0,0,1,4.577,6.486,30.789,30.789,0,0,1,2.76,7.342,35.236,35.236,0,0,1,.924,8.171v46.809a22.38,22.38,0,0,1-1.132,7.4,13.676,13.676,0,0,1-8.742,8.742,22.38,22.38,0,0,1-7.4,1.132H91.064a22.38,22.38,0,0,1-7.4-1.132,13.676,13.676,0,0,1-8.742-8.742,22.38,22.38,0,0,1-1.132-7.4V276.846H7.009v76.9q0,16.785,4.031,29.372a53.349,53.349,0,0,0,12.17,21.059,52.171,52.171,0,0,0,20.423,12.865q12.294,4.4,28.791,4.79l3.42.082v35.161h37.046V421.91l3.42-.082q16.507-.4,28.791-4.79a52.171,52.171,0,0,0,20.423-12.865,53.349,53.349,0,0,0,12.17-21.059q4.041-12.6,4.031-29.372V283.254q0-5.138-.393-9.792a87.226,87.226,0,0,0-1.174-8.8,64.42,64.42,0,0,0-1.95-7.788,47.7,47.7,0,0,0-2.721-6.742,45.275,45.275,0,0,0-3.779-6.193,61.6,61.6,0,0,0-5.13-6.179,84.26,84.26,0,0,0-6.461-6.144q-3.56-3.06-7.772-6.088L88.981,178.688a38.891,38.891,0,0,1-6.377-5.6,31.953,31.953,0,0,1-4.577-6.486,30.789,30.789,0,0,1-2.76-7.342,35.236,35.236,0,0,1-.924-8.171V115.294a22.38,22.38,0,0,1,1.132-7.4,13.676,13.676,0,0,1,8.742-8.742,22.38,22.38,0,0,1,7.4-1.132h4.956a22.38,22.38,0,0,1,7.4,1.132,13.676,13.676,0,0,1,8.742,8.742,22.38,22.38,0,0,1,1.132,7.4v58.173h66.783V108.135q0-16.785-4-29.373A53.454,53.454,0,0,0,164.561,57.7a51.677,51.677,0,0,0-20.252-12.865q-12.191-4.4-28.549-4.79l-3.42-.083Z" transform="translate(5951.514 2714.783)" fill="#161616"/></g></svg>