<?xml version="1.0" encoding="utf-8"?>
<!-- Generator: Adobe Illustrator 27.5.0, SVG Export Plug-In . SVG Version: 6.00 Build 0)  -->
<svg version="1.1" id="Layer_1" xmlns="http://www.w3.org/2000/svg" xmlns:xlink="http://www.w3.org/1999/xlink" x="0px" y="0px"
	 viewBox="0 0 24 24" style="enable-background:new 0 0 24 24;" xml:space="preserve">
<style type="text/css">
	.st0{fill:#161616;}
</style>
<g transform="translate(8964 14972)">
	<path class="st0" d="M-8942.5-14965.1c0,0.2,0,0.4,0,0.6c0.1,7.7-6.1,13.9-13.8,14c-0.1,0-0.1,0-0.2,0c-2.7,0-5.3-0.8-7.6-2.2
		c0.4,0,0.8,0.1,1.2,0.1c2.2,0,4.4-0.7,6.1-2.1c-2.1,0-4-1.4-4.6-3.4c0.3,0,0.6,0.1,0.9,0.1c0.4,0,0.9-0.1,1.3-0.2
		c-2.3-0.5-3.9-2.5-3.9-4.8v-0.1c0.7,0.4,1.4,0.6,2.2,0.6c-2.2-1.4-2.8-4.3-1.5-6.6c2.5,3.1,6.2,4.9,10.1,5.1
		c-0.1-0.4-0.1-0.7-0.1-1.1c0-2.7,2.2-4.9,4.9-4.9c1.4,0,2.7,0.6,3.6,1.6c1.1-0.2,2.2-0.6,3.1-1.2c-0.4,1.1-1.1,2.1-2.2,2.7
		c1-0.1,1.9-0.4,2.8-0.8C-8940.7-14966.7-8941.5-14965.8-8942.5-14965.1L-8942.5-14965.1z"/>
</g>
</svg>
